<svg width="334" height="445" viewBox="0 0 334 445" fill="none" xmlns="http://www.w3.org/2000/svg">
<path fill-rule="evenodd" clip-rule="evenodd" d="M44.2647 352.303C38.9277 351.302 28.2107 340.177 16.2697 340.459C4.3287 340.741 -2.6983 345.267 1.1057 379.372C7.2507 411.348 15.5577 414.421 34.6997 409.055C61.1377 401.641 61.6927 355.573 44.2647 352.303Z" fill="#DC3D57"/>
<path d="M206.219 351.281H60.2187V408.536H206.219V351.281Z" fill="#B7976E"/>
<path fill-rule="evenodd" clip-rule="evenodd" d="M40.3507 406.496C44.4607 389.605 42.7657 363.082 38.2937 349.977C36.9147 345.936 40.8197 344.469 43.4467 344.387C51.3147 344.141 59.5337 344.501 61.9807 350.984C68.3607 367.897 69.0577 389.886 63.8187 405.903C61.8237 412 53.1897 412.33 45.8767 412.156C42.4787 412.074 39.5457 409.806 40.3507 406.496Z" fill="#F4D7DA"/>
<path fill-rule="evenodd" clip-rule="evenodd" d="M8.67571 341.968C15.6217 340.995 23.3947 355.489 26.0367 374.342C28.6787 393.194 25.1897 409.267 18.2437 410.24C11.2977 411.214 3.52471 396.719 0.882709 377.867C-1.75929 359.014 1.72971 342.941 8.67571 341.968Z" fill="#C62B45"/>
<path fill-rule="evenodd" clip-rule="evenodd" d="M287.342 352.303C292.679 351.302 303.396 340.177 315.337 340.459C327.278 340.741 334.305 345.267 330.501 379.372C324.356 411.348 316.049 414.421 296.907 409.055C270.469 401.641 269.914 355.573 287.342 352.303Z" fill="#DC3D57"/>
<path d="M271.389 351.281H125.389V408.536H271.389V351.281Z" fill="#B7976E"/>
<path fill-rule="evenodd" clip-rule="evenodd" d="M291.256 406.496C287.147 389.605 288.841 363.082 293.313 349.977C294.693 345.936 290.787 344.469 288.16 344.387C280.291 344.141 272.073 344.501 269.626 350.984C263.246 367.897 262.549 389.886 267.788 405.903C269.783 412 278.417 412.33 285.73 412.156C289.128 412.074 292.061 409.806 291.256 406.496Z" fill="#F4D7DA"/>
<path fill-rule="evenodd" clip-rule="evenodd" d="M322.931 341.968C315.985 340.995 308.212 355.489 305.571 374.342C302.929 393.194 306.418 409.267 313.365 410.24C320.311 411.214 328.084 396.719 330.726 377.867C333.367 359.014 329.877 342.941 322.931 341.968Z" fill="#C62B45"/>
<path fill-rule="evenodd" clip-rule="evenodd" d="M169.847 237.531C282.195 237.531 319.369 405.303 169.847 405.303C20.3257 405.303 57.4987 237.531 169.847 237.531Z" fill="#B7976E"/>
<path fill-rule="evenodd" clip-rule="evenodd" d="M220.185 256.546C238.166 251.095 267.82 292.388 271.913 331.521C275.381 364.678 256.049 395.873 241.995 400.105C224.22 405.457 248.901 363.612 243.74 328.335C238.389 291.759 203.805 261.512 220.185 256.546Z" fill="#E3CEAC"/>
<path fill-rule="evenodd" clip-rule="evenodd" d="M111.214 256.546C93.2327 251.095 63.5787 292.388 59.4857 331.521C56.0177 364.678 75.3497 395.873 89.4037 400.105C107.179 405.457 82.4977 363.612 87.6587 328.335C93.0097 291.759 127.594 261.512 111.214 256.546Z" fill="#E3CEAC"/>
<path fill-rule="evenodd" clip-rule="evenodd" d="M110.115 359.502C104.339 373.806 104.375 395.713 108.527 406.266C109.825 409.566 106.116 410.745 103.938 410.738C97.4127 410.715 90.6337 410.183 88.9867 404.755C83.3397 390.145 84.1417 371.987 90.6627 359.32C93.1517 354.487 99.8307 354.314 105.871 354.667C108.679 354.83 110.974 356.789 110.115 359.502Z" fill="#F4D7DA"/>
<path fill-rule="evenodd" clip-rule="evenodd" d="M233.666 255.543C221.724 281.947 117.841 278.371 104.728 261.257C95.5567 249.287 106.555 230.615 116.06 236.416C137.57 249.544 190.013 253.65 216.165 239.669C225.133 234.874 240.053 241.422 233.666 255.543Z" fill="#DC3D57"/>
<path d="M117.326 237.155C114.009 244.7 111.718 254.101 111.743 266.219C110.276 265.538 108.983 264.821 107.87 264.071C108.057 252.31 110.336 243.014 113.591 235.448C114.417 235.605 115.244 235.918 116.061 236.417C116.47 236.665 116.894 236.911 117.326 237.155ZM229.817 260.683C228.79 261.633 227.626 262.533 226.326 263.381C224.507 253.02 221.39 245.148 217.65 238.999C219.039 238.475 220.523 238.187 222.019 238.125C225.315 244.065 228.067 251.412 229.817 260.683ZM212.281 269.432C211.032 269.797 209.742 270.141 208.421 270.467C208.094 259.927 206.027 251.541 203.105 244.688C204.451 244.323 205.767 243.929 207.048 243.507C209.898 250.504 211.905 258.963 212.281 269.432ZM196.66 272.739C195.377 272.928 194.077 273.103 192.763 273.264C193.13 262.877 191.778 254.397 189.492 247.327C190.857 247.153 192.205 246.957 193.537 246.738C195.718 253.929 196.987 262.454 196.66 272.739ZM180.736 274.345C179.466 274.42 178.189 274.481 176.909 274.534C176.421 263.956 174.93 255.436 173.109 248.388C174.446 248.378 175.78 248.351 177.11 248.305C178.863 255.415 180.268 263.924 180.736 274.345ZM162.221 274.667C160.946 274.639 159.673 274.602 158.406 274.553C158.785 264.064 158.937 255.293 158.958 247.854C160.224 247.958 161.495 248.047 162.77 248.121C162.747 255.544 162.595 264.268 162.221 274.667ZM142.305 273.358C141.008 273.212 139.726 273.056 138.466 272.889C138.285 261.852 139.241 252.804 140.664 245.23C141.913 245.493 143.182 245.739 144.465 245.971C143.047 253.421 142.094 262.369 142.305 273.358ZM126.542 270.845C125.169 270.548 123.841 270.235 122.56 269.906C121.688 258.32 123.034 248.838 125.499 240.911C126.723 241.374 127.994 241.817 129.302 242.241C126.857 249.985 125.544 259.319 126.542 270.845Z" fill="#F4D7DA"/>
<path d="M250.132 285.934C249.952 285.259 249.224 284.725 248.507 284.742C247.79 284.759 247.353 285.32 247.533 285.995C248.229 288.623 249.054 292.087 249.486 295.055C249.79 297.14 249.905 298.97 249.647 300.044C249.5 300.659 249.967 301.38 250.69 301.655C251.413 301.931 252.118 301.656 252.265 301.041C252.59 299.689 252.475 297.592 252.135 295.263C251.683 292.154 250.84 288.608 250.132 285.934Z" fill="#F4D7DA"/>
<path d="M252.15 284.477C252.097 283.81 251.457 283.187 250.719 283.086C249.981 282.986 249.426 283.445 249.478 284.112C249.659 286.516 249.924 289.559 250.276 292.298C250.64 295.129 251.108 297.698 251.697 299.079C251.979 299.745 252.763 300.193 253.448 300.079C254.133 299.965 254.459 299.332 254.177 298.666C253.692 297.53 253.278 295.185 252.938 292.546C252.588 289.815 252.328 286.827 252.15 284.477Z" fill="#DC3D57"/>
<path d="M248.298 288.12C248.245 287.453 247.605 286.83 246.867 286.729C246.129 286.628 245.574 287.088 245.626 287.755C245.807 290.159 246.072 293.203 246.424 295.94C246.788 298.771 247.256 301.34 247.845 302.722C248.127 303.388 248.911 303.835 249.596 303.721C250.281 303.607 250.607 302.974 250.325 302.308C249.841 301.172 249.426 298.827 249.087 296.188C248.735 293.457 248.476 290.469 248.298 288.12Z" fill="#DC3D57"/>
<path d="M246.106 289.807C246.053 289.14 245.413 288.517 244.675 288.416C243.938 288.316 243.382 288.775 243.434 289.442C243.616 291.846 243.88 294.889 244.233 297.628C244.597 300.459 245.065 303.028 245.654 304.41C245.936 305.076 246.72 305.523 247.405 305.409C248.089 305.295 248.416 304.662 248.134 303.996C247.649 302.859 247.235 300.515 246.896 297.875C246.543 295.145 246.284 292.157 246.106 289.807Z" fill="#F4D7DA"/>
<path d="M243.975 290.584C243.696 289.918 242.914 289.468 242.228 289.579C241.542 289.69 241.213 290.321 241.491 290.987C242.612 293.656 243.594 296.996 244.002 299.797C244.323 302.001 244.307 303.804 243.727 304.501C243.332 304.977 243.517 305.749 244.141 306.226C244.764 306.702 245.59 306.702 245.985 306.227C246.935 305.085 247.05 302.738 246.652 300.007C246.213 296.991 245.166 293.42 243.975 290.584Z" fill="#DC3D57"/>
<path d="M241.989 291.6C241.748 290.931 240.987 290.448 240.289 290.523C239.591 290.598 239.22 291.201 239.461 291.871C240.324 294.269 241.064 297.34 241.463 300.083C241.821 302.542 241.907 304.688 241.56 305.74C241.364 306.334 241.782 307.074 242.493 307.39C243.204 307.707 243.941 307.482 244.137 306.888C244.585 305.534 244.514 303.049 244.112 300.292C243.691 297.4 242.907 294.15 241.989 291.6Z" fill="#F4D7DA"/>
<path d="M240.132 292.759C240.079 292.092 239.439 291.469 238.701 291.368C237.963 291.268 237.408 291.727 237.46 292.394C237.642 294.797 237.906 297.841 238.258 300.579C238.622 303.41 239.09 305.979 239.679 307.36C239.96 308.026 240.745 308.473 241.429 308.359C242.114 308.245 242.44 307.612 242.158 306.947C241.674 305.811 241.259 303.466 240.92 300.827C240.569 298.096 240.309 295.108 240.132 292.759Z" fill="#DC3D57"/>
<path d="M238.133 293.329C237.978 292.655 237.267 292.101 236.544 292.094C235.821 292.087 235.359 292.628 235.514 293.302C236.113 295.954 236.808 299.416 237.238 302.37C237.557 304.562 237.732 306.465 237.615 307.509C237.542 308.149 238.079 308.84 238.815 309.052C239.55 309.264 240.206 308.917 240.279 308.277C240.419 307.044 240.234 304.948 239.889 302.58C239.444 299.531 238.739 296.008 238.133 293.329Z" fill="#F4D7DA"/>
<path d="M236.157 294.759C236.105 294.092 235.464 293.469 234.726 293.368C233.988 293.267 233.433 293.727 233.485 294.394C233.666 296.797 233.931 299.841 234.284 302.58C234.648 305.411 235.115 307.98 235.704 309.361C235.986 310.027 236.77 310.474 237.455 310.36C238.14 310.246 238.466 309.613 238.184 308.947C237.699 307.811 237.285 305.466 236.946 302.827C236.594 300.096 236.334 297.108 236.157 294.759Z" fill="#DC3D57"/>
<path d="M233.979 295.206C233.926 294.539 233.286 293.916 232.548 293.815C231.81 293.715 231.255 294.174 231.307 294.841C231.489 297.245 231.753 300.288 232.106 303.026C232.47 305.858 232.937 308.426 233.526 309.808C233.808 310.474 234.592 310.922 235.276 310.808C235.961 310.694 236.287 310.061 236.005 309.395C235.521 308.259 235.106 305.914 234.767 303.275C234.416 300.544 234.156 297.556 233.979 295.206Z" fill="#F4D7DA"/>
<path d="M231.799 295.519C231.605 294.846 230.87 294.323 230.157 294.353C229.444 294.383 229.022 294.954 229.216 295.627C229.882 297.961 230.492 300.959 230.889 303.681C231.263 306.25 231.445 308.552 231.298 309.763C231.223 310.403 231.758 311.097 232.494 311.312C233.23 311.526 233.889 311.181 233.965 310.541C234.132 309.164 233.941 306.653 233.538 303.891C233.125 301.063 232.491 297.946 231.799 295.519Z" fill="#DC3D57"/>
<path d="M229.631 296.103C229.578 295.436 228.938 294.813 228.2 294.712C227.462 294.612 226.906 295.071 226.959 295.738C227.14 298.142 227.405 301.185 227.757 303.923C228.121 306.754 228.59 309.323 229.178 310.704C229.459 311.37 230.244 311.817 230.929 311.703C231.614 311.589 231.94 310.956 231.658 310.29C231.174 309.153 230.759 306.809 230.419 304.17C230.068 301.44 229.808 298.453 229.631 296.103Z" fill="#F4D7DA"/>
<path d="M226.908 295.466C226.619 294.803 225.833 294.365 225.154 294.486C224.474 294.608 224.159 295.244 224.447 295.907C225.375 298.032 226.046 300.748 226.416 303.286C226.814 306.021 226.862 308.494 226.502 309.721C226.326 310.324 226.765 311.057 227.482 311.357C228.199 311.657 228.924 311.412 229.1 310.808C229.535 309.322 229.506 306.516 229.066 303.495C228.668 300.766 227.934 297.814 226.908 295.466Z" fill="#DC3D57"/>
<path d="M224.49 295.933C224.437 295.266 223.797 294.643 223.059 294.542C222.321 294.442 221.766 294.901 221.818 295.568C222 297.972 222.264 301.015 222.616 303.754C222.98 306.585 223.448 309.154 224.037 310.536C224.319 311.202 225.103 311.649 225.788 311.535C226.473 311.421 226.799 310.788 226.517 310.122C226.032 308.985 225.618 306.641 225.279 304.002C224.928 301.27 224.668 298.282 224.49 295.933Z" fill="#F4D7DA"/>
<path d="M221.771 295.398C221.718 294.73 221.078 294.108 220.34 294.007C219.603 293.907 219.047 294.366 219.099 295.033C219.281 297.437 219.545 300.48 219.897 303.219C220.261 306.05 220.729 308.619 221.318 310.001C221.6 310.667 222.384 311.114 223.068 311C223.752 310.886 224.079 310.253 223.797 309.587C223.313 308.45 222.898 306.106 222.559 303.467C222.209 300.735 221.949 297.747 221.771 295.398Z" fill="#DC3D57"/>
<path fill-rule="evenodd" clip-rule="evenodd" d="M251.701 285.625C252.278 273.899 240.636 242.561 220.548 229.641C213.784 228.231 200.151 236.044 198.009 246.238C206.972 242.786 217.812 274.246 218.605 295.191C225.448 299.93 244.819 295.234 251.701 285.625Z" fill="#DC3D57"/>
<path d="M217.9 287.232C227.727 288.342 243.093 283.101 250.905 277.889C251.2 279.326 251.417 280.674 251.552 281.913C242.755 287.471 227.007 292.883 218.34 291.127C218.223 289.851 218.075 288.55 217.9 287.232Z" fill="#F4D7DA"/>
<path d="M215.873 276.272C225.73 276.826 240.166 271.79 247.63 266.792C248.09 268.023 248.513 269.234 248.897 270.417C240.784 275.768 225.897 281.153 216.746 280.31C216.479 278.963 216.187 277.614 215.873 276.272Z" fill="#F4D7DA"/>
<path d="M212.824 265.556C222.366 265.765 235.667 261.157 243.053 256.448C243.631 257.573 244.181 258.699 244.704 259.821C236.927 264.87 223.23 269.893 214.118 269.635C213.707 268.247 213.275 266.884 212.824 265.556Z" fill="#F4D7DA"/>
<path d="M209.319 256.804C218.222 255.962 229.747 250.851 236.7 245.861C237.42 246.89 238.117 247.934 238.788 248.99C231.547 254.358 219.655 259.925 211.043 260.741C210.486 259.36 209.91 258.044 209.319 256.804Z" fill="#F4D7DA"/>
<path d="M205.228 249.903C213.366 247.201 222.604 241.142 228.156 235.736C229.052 236.603 229.925 237.501 230.775 238.431C225.06 244.201 215.583 250.721 207.596 253.497C206.822 252.141 206.031 250.933 205.228 249.903Z" fill="#F4D7DA"/>
<path d="M209.152 62.8217C207.224 61.2597 205.658 59.5017 204.392 57.3697C201.411 52.3497 200.465 45.6867 200.712 34.9927C200.752 32.9527 202.439 31.3327 204.479 31.3747C206.519 31.4157 208.138 33.1038 208.097 35.1428C207.883 44.3838 208.566 49.9117 210.761 53.6077C212.753 56.9597 216.353 59.1757 222.013 61.7197C230.401 61.0997 237.843 61.4537 241.848 66.9987C250.483 61.3047 258.848 55.3507 264.975 48.6197C257.662 46.1897 252.503 43.3878 248.623 38.5348C244.016 32.7758 241.659 24.5317 240.082 10.9497C239.842 8.92373 241.29 7.08573 243.317 6.84673C245.343 6.60673 247.179 8.05475 247.42 10.0817C248.832 22.2467 250.764 29.4047 254.386 33.9337C257.571 37.9147 262.443 40.1847 269.794 42.4017C275.691 33.1677 276.986 22.4167 269.586 9.07574C268.601 7.29274 269.248 5.04674 271.03 4.05974C272.814 3.07474 275.06 3.72075 276.045 5.50475C283.247 18.4898 283.919 29.2347 280.552 38.5017C284.85 38.0017 289.653 38.3507 294.528 38.7087C306.004 39.5467 317.994 40.4227 319.667 26.7187C319.913 24.6947 321.754 23.2537 323.778 23.4997C325.803 23.7457 327.243 25.5867 326.998 27.6107C324.468 48.3237 308.899 47.1857 293.997 46.0967C286.338 45.5357 278.904 44.9937 275.273 48.2337C271.74 53.0927 267.127 57.5377 261.939 61.7267C268.882 63.1627 276.342 66.9517 283.962 70.8227C287.387 72.5627 290.85 74.3227 294.278 75.8417C295.328 75.8327 296.298 76.2698 296.986 76.9918C308.471 81.6278 319.337 82.7518 326.764 70.3968C327.816 68.6468 330.088 68.0807 331.838 69.1327C333.588 70.1847 334.154 72.4557 333.102 74.2057C323.766 89.7367 311.62 90.0808 298.878 85.7028C300.197 93.8668 301.976 99.0087 304.833 102.457C308.286 106.624 313.825 108.746 322.497 111.198C324.458 111.754 325.596 113.795 325.04 115.756C324.485 117.717 322.444 118.856 320.482 118.3C310.405 115.451 303.849 112.839 299.145 107.164C294.84 101.969 292.523 94.5938 290.949 82.4878C287.496 80.9128 284.033 79.1547 280.603 77.4117C268.288 71.1547 256.467 65.1488 249.304 70.9918C249.014 71.2258 248.7 71.4107 248.371 71.5447C245.462 73.4877 242.513 75.3978 239.584 77.2938C218.897 90.6848 199.411 103.299 208.356 121.582C209.253 123.42 208.491 125.639 206.653 126.537C204.815 127.435 202.596 126.671 201.699 124.834C195.735 112.645 198.421 102.955 205.567 94.3867C202.146 94.4827 198.796 94.0248 195.669 93.0908C188.231 90.8708 182 85.9467 178.931 79.3687C178.072 77.5167 178.877 75.3167 180.73 74.4577C182.582 73.5977 184.781 74.4037 185.64 76.2557C187.794 80.8737 192.313 84.3747 197.773 86.0037C203.099 87.5927 209.277 87.3817 215.038 84.6967C215.433 84.5127 215.844 84.4057 216.254 84.3677C222.039 79.8497 228.727 75.5167 235.534 71.1107C232.466 68.0937 224.981 68.8187 217.065 69.5887C202.087 71.0437 185.922 72.6117 182.647 53.7907C182.305 51.7797 183.656 49.8738 185.665 49.5308C187.675 49.1898 189.582 50.5397 189.924 52.5497C191.592 62.1287 199.925 63.3107 209.152 62.8217Z" fill="grey"/>
<path d="M130.756 60.9297C132.726 59.4207 134.338 57.7067 135.661 55.6087C138.777 50.6727 139.905 44.0377 139.947 33.3397C139.961 31.3007 138.319 29.6357 136.279 29.6217C134.239 29.6077 132.575 31.2497 132.561 33.2897C132.524 42.5327 131.691 48.0407 129.397 51.6757C127.317 54.9717 123.656 57.0907 117.93 59.4797C109.562 58.6327 102.112 58.7837 97.9587 64.2177C89.4807 58.2927 81.2797 52.1137 75.3377 45.2187C82.7157 42.9877 87.9487 40.3267 91.9587 35.5817C96.7187 29.9487 99.2987 21.7727 101.244 8.23672C101.538 6.21772 100.14 4.34272 98.1217 4.04672C96.1027 3.75172 94.2277 5.14973 93.9327 7.16873C92.1907 19.2907 90.0657 26.3937 86.3207 30.8247C83.0307 34.7177 78.0967 36.8547 70.6897 38.8707C65.0457 29.4797 64.0437 18.6987 71.8017 5.56372C72.8347 3.80772 72.2497 1.54471 70.4947 0.510711C68.7387 -0.52329 66.4767 0.0627174 65.4417 1.81772C57.8907 14.6027 56.9277 25.3247 60.0417 34.6807C55.7597 34.0647 50.9487 34.2837 46.0657 34.5087C34.5727 35.0357 22.5627 35.5867 21.2607 21.8417C21.0697 19.8117 19.2687 18.3207 17.2377 18.5117C15.2077 18.7027 13.7187 20.5037 13.9097 22.5337C15.8767 43.3087 31.4707 42.5917 46.3957 41.9077C54.0677 41.5567 61.5147 41.2157 65.0547 44.5527C68.4557 49.5047 72.9467 54.0747 78.0177 58.4017C71.0377 59.6497 63.4777 63.2337 55.7567 66.8977C52.2857 68.5447 48.7757 70.2087 45.3067 71.6347C44.2597 71.5967 43.2767 72.0057 42.5697 72.7087C30.9637 77.0327 20.0707 77.8607 12.9807 65.3087C11.9767 63.5317 9.72072 62.9027 7.94372 63.9077C6.16572 64.9117 5.53872 67.1677 6.54272 68.9447C15.4537 84.7227 27.5867 85.3967 40.4427 81.3647C38.9027 89.4907 36.9847 94.5827 34.0347 97.9517C30.4707 102.024 24.8747 103.995 16.1407 106.211C14.1657 106.714 12.9717 108.723 13.4747 110.699C13.9777 112.674 15.9867 113.868 17.9617 113.365C28.1117 110.789 34.7377 108.358 39.5937 102.812C44.0367 97.7357 46.5527 90.4267 48.4567 78.3667C51.9507 76.8857 55.4597 75.2227 58.9367 73.5717C71.4157 67.6517 83.3947 61.9687 90.3977 68.0027C90.6807 68.2457 90.9907 68.4377 91.3147 68.5807C94.1687 70.6017 97.0657 72.5917 99.9427 74.5657C120.26 88.5127 139.397 101.651 129.958 119.686C129.012 121.499 129.713 123.737 131.526 124.684C133.34 125.631 135.578 124.929 136.525 123.116C142.817 111.095 140.394 101.334 133.484 92.5747C136.901 92.7637 140.261 92.3967 143.413 91.5477C150.909 89.5317 157.272 84.7777 160.517 78.2847C161.426 76.4567 160.681 74.2367 158.852 73.3267C157.024 72.4177 154.804 73.1627 153.895 74.9917C151.617 79.5497 147.003 82.9257 141.502 84.4067C136.135 85.8507 129.966 85.4727 124.279 82.6327C123.888 82.4387 123.481 82.3197 123.071 82.2707C117.411 77.5977 110.842 73.0847 104.157 68.4967C107.307 65.5637 114.769 66.4927 122.663 67.4747C137.595 69.3357 153.711 71.3427 157.495 52.6167C157.892 50.6167 156.593 48.6747 154.594 48.2777C152.594 47.8807 150.651 49.1797 150.255 51.1787C148.328 60.7137 139.966 61.6697 130.756 60.9297Z" fill="grey"/>
<path fill-rule="evenodd" clip-rule="evenodd" d="M170.248 99.1877C241.884 100.16 283.137 253.893 168.171 252.334C53.2047 250.775 98.6107 98.2157 170.248 99.1877Z" fill="#E3CEAC"/>
<path fill-rule="evenodd" clip-rule="evenodd" d="M197.758 107.475C184.001 123.694 169.585 149 181.183 182.412C183.044 189.549 171.982 186.454 169.024 185.511C166.066 186.454 155.004 189.55 156.866 182.412C168.37 149.27 154.279 124.101 140.625 107.868C149.639 102.279 159.652 99.0447 170.248 99.1877C180.104 99.3217 189.379 102.36 197.758 107.475Z" fill="#B7976E"/>
<path fill-rule="evenodd" clip-rule="evenodd" d="M213.328 129.135C208.574 121.068 256.347 77.1487 265.952 99.1987C275.556 121.25 218.082 137.202 213.328 129.135Z" fill="#E3CEAC"/>
<path fill-rule="evenodd" clip-rule="evenodd" d="M126.37 127.956C131.34 120.021 84.7757 74.8217 74.5777 96.6037C64.3787 118.386 121.4 135.891 126.37 127.956Z" fill="#E3CEAC"/>
<path fill-rule="evenodd" clip-rule="evenodd" d="M213.136 130.164C210.794 126.189 234.333 104.55 239.065 115.415C243.797 126.279 215.479 134.139 213.136 130.164Z" fill="#B7976E"/>
<path fill-rule="evenodd" clip-rule="evenodd" d="M126.212 128.985C128.661 125.076 105.718 102.805 100.693 113.538C95.6677 124.27 123.763 132.895 126.212 128.985Z" fill="#B7976E"/>
<path fill-rule="evenodd" clip-rule="evenodd" d="M188.683 149.581C190.831 149.643 192.549 153.414 192.52 158.004C192.49 162.594 190.726 166.264 188.578 166.201C186.429 166.139 184.712 162.369 184.741 157.779C184.769 153.188 186.534 149.518 188.683 149.581Z" fill="#5A442D"/>
<path fill-rule="evenodd" clip-rule="evenodd" d="M149.494 148.804C151.642 148.869 153.361 152.817 153.331 157.62C153.302 162.425 151.537 166.266 149.388 166.2C147.24 166.135 145.522 162.188 145.551 157.384C145.58 152.58 147.346 148.739 149.494 148.804Z" fill="#5A442D"/>
<path fill-rule="evenodd" clip-rule="evenodd" d="M168.042 248.271C108.002 247.824 80.8257 177.162 169.783 177.824C258.741 178.486 228.083 248.717 168.042 248.271Z" fill="#B7976E"/>
<path d="M169.036 193.449V220.804" stroke="#5A442D" stroke-width="2.88" stroke-miterlimit="22.9256" stroke-linecap="round" stroke-linejoin="round"/>
<path fill-rule="evenodd" clip-rule="evenodd" d="M169.187 178.547C179.864 178.691 188.451 183.784 188.368 189.926C188.286 196.064 179.562 200.924 168.885 200.78C158.208 200.635 149.62 195.54 149.703 189.402C149.787 183.261 158.51 178.401 169.187 178.547Z" fill="#5A442D"/>
<path fill-rule="evenodd" clip-rule="evenodd" d="M158.372 182.3C161.521 181.105 164.632 181.603 165.319 183.415C166.007 185.226 164.011 187.663 160.862 188.859C157.712 190.054 154.601 189.556 153.914 187.745C153.228 185.933 155.223 183.496 158.372 182.3Z" fill="#7E674D"/>
<path d="M136.048 205.677C148.447 225.795 191.565 225.908 202.025 205.677" stroke="#5A442D" stroke-width="2.88" stroke-miterlimit="22.9256" stroke-linecap="round" stroke-linejoin="round"/>
<path fill-rule="evenodd" clip-rule="evenodd" d="M228.738 359.502C234.513 373.806 234.478 395.713 230.326 406.266C229.028 409.566 232.737 410.745 234.915 410.738C241.44 410.715 248.219 410.183 249.866 404.755C255.513 390.145 254.711 371.987 248.189 359.32C245.7 354.487 239.02 354.314 232.981 354.667C230.173 354.83 227.879 356.789 228.738 359.502Z" fill="#F4D7DA"/>
<path fill-rule="evenodd" clip-rule="evenodd" d="M162.24 307.925C160.149 302.984 144.563 289.99 140.697 289.762C136.831 289.534 128.763 308.304 131.56 311.714C134.357 315.124 154.567 318.14 159.092 316.989C163.617 315.838 164.022 312.134 162.24 307.925Z" fill="#DC3D57"/>
<path fill-rule="evenodd" clip-rule="evenodd" d="M162.277 312.448C163.457 308.646 154.826 300.796 152.97 303.557C151.113 306.318 161.796 308.529 160.492 311.364C159.189 314.199 153.17 310.597 153.133 314.081C153.099 317.27 161.097 316.25 162.277 312.448Z" fill="#B7273E"/>
<path fill-rule="evenodd" clip-rule="evenodd" d="M176.763 307.435C178.725 302.535 193.973 289.854 197.834 289.705C201.696 289.557 210.259 308.495 207.551 311.849C204.843 315.203 184.707 317.808 180.151 316.565C175.594 315.321 175.091 311.609 176.763 307.435Z" fill="#DC3D57"/>
<path fill-rule="evenodd" clip-rule="evenodd" d="M176.845 311.958C175.565 308.131 183.991 300.455 185.92 303.254C187.85 306.053 177.222 308.048 178.601 310.91C179.98 313.772 185.905 310.292 186.033 313.777C186.151 316.969 178.125 315.786 176.845 311.958Z" fill="#B7273E"/>
<path fill-rule="evenodd" clip-rule="evenodd" d="M168.369 307.234C162.969 307.593 160.492 307.273 160.702 312.461C160.912 317.648 159.642 318.762 168.974 319.153C178.306 319.545 179.748 318.153 178.618 313.519C177.488 308.886 177 306.66 168.369 307.234Z" fill="#B7273E"/>
<path fill-rule="evenodd" clip-rule="evenodd" d="M168.526 307.776C163.688 308.047 161.467 307.769 161.673 312.073C161.879 316.378 160.745 317.295 169.109 317.667C177.473 318.039 178.761 316.892 177.732 313.042C176.704 309.192 176.259 307.343 168.526 307.776Z" fill="#DC3D57"/>
<path d="M231.189 322.637H108.504V444.071H231.189V322.637Z" fill="#F3D482"/>
<path d="M231.19 336.13H108.505V343.273H231.19V336.13Z" fill="#DFBA59"/>
<path d="M240.392 313.906H99.3037V336.13H240.392V313.906Z" fill="#F3D482"/>
<path d="M177.618 313.906H162.076V444.071H177.618V313.906Z" fill="#DC3D57"/>
<path d="M108.504 406.042C115.538 406.042 121.241 395.883 121.241 383.352C121.241 370.82 115.538 360.662 108.504 360.662C101.469 360.662 95.7667 370.82 95.7667 383.352C95.7667 395.883 101.469 406.042 108.504 406.042Z" fill="#DC3D57"/>
<path fill-rule="evenodd" clip-rule="evenodd" d="M231.189 406.043C238.204 406.043 243.926 395.85 243.926 383.352C243.926 370.854 238.204 360.662 231.189 360.662C224.174 360.662 218.452 370.855 218.452 383.352C218.452 395.849 224.174 406.043 231.189 406.043Z" fill="#DC3D57"/>
</svg>
