<svg width="144" height="235" viewBox="0 0 144 235" fill="none" xmlns="http://www.w3.org/2000/svg">
<path opacity="0.3" d="M124.909 167.952C122.973 164.122 120.82 160.44 118.4 156.997C118.04 156.484 115.335 152.949 115.149 153.371C115.218 153.214 115.285 153.054 115.349 152.893C115.646 152.154 115.904 151.399 116.147 150.639C116.168 150.573 116.185 150.504 116.206 150.438C116.22 150.395 116.237 150.353 116.251 150.31C116.256 150.295 116.252 150.285 116.255 150.27C117.248 147.082 117.918 143.795 118.386 140.494C123.317 105.659 105.242 71.922 83.2738 46.234C87.6818 41.857 90.4118 35.794 90.4118 29.091C90.4118 15.751 79.5969 4.933 66.2519 4.933C55.9159 4.933 47.1019 11.427 43.6529 20.552C43.6429 20.576 43.6329 20.598 43.6249 20.62C43.3969 21.229 43.1969 21.852 43.0179 22.482C42.9949 22.564 42.9709 22.644 42.9489 22.726C42.7839 23.334 42.6409 23.953 42.5229 24.578C42.5039 24.678 42.4869 24.777 42.4689 24.878C42.3579 25.508 42.2679 26.146 42.2069 26.791C42.1989 26.871 42.1939 26.953 42.1879 27.034C42.1299 27.712 42.0939 28.397 42.0939 29.09C42.0939 29.646 42.1189 30.195 42.1569 30.742C42.1669 30.88 42.1769 31.016 42.1889 31.152C42.2339 31.691 42.2919 32.227 42.3709 32.755C42.3719 32.76 42.3718 32.764 42.3728 32.768C42.4538 33.3 42.5599 33.825 42.6749 34.344C42.7039 34.477 42.7349 34.608 42.7659 34.738C42.8889 35.249 43.0219 35.756 43.1749 36.255C43.1769 36.26 43.1789 36.266 43.1799 36.272C43.3369 36.776 43.5149 37.269 43.7019 37.756C43.7499 37.88 43.7989 38.005 43.8479 38.128C44.0399 38.605 44.2439 39.076 44.4639 39.538C44.4669 39.545 44.4709 39.553 44.4749 39.56C44.7009 40.029 44.9469 40.485 45.1999 40.937C45.2639 41.049 45.3299 41.163 45.3949 41.275C45.6529 41.715 45.9198 42.151 46.2048 42.574C46.2088 42.58 46.2119 42.586 46.2159 42.592C46.5059 43.022 46.8139 43.437 47.1299 43.846C47.2069 43.946 47.2849 44.044 47.3619 44.143C48.0089 44.954 48.7069 45.722 49.4519 46.443C49.5369 46.526 49.6229 46.607 49.7089 46.688C50.4689 47.403 51.2749 48.07 52.1239 48.683C52.2129 48.747 52.3039 48.811 52.3939 48.873C53.2579 49.48 54.1639 50.031 55.1049 50.522C55.1959 50.57 55.2869 50.616 55.3789 50.663C58.6479 52.314 62.3399 53.25 66.2519 53.25C67.1559 53.25 68.0469 53.196 68.9259 53.099C69.1579 55.525 69.3429 58.051 69.4469 60.644C69.5259 62.592 69.5549 64.576 69.5319 66.58C69.4049 76.999 67.7159 87.959 62.6469 97.175C61.8999 98.532 61.0819 99.853 60.1829 101.126C60.1719 101.144 60.1599 101.158 60.1479 101.176C59.7429 101.749 59.3179 102.311 58.8799 102.865C58.8039 102.962 58.7279 103.058 58.6499 103.153C58.1899 103.724 57.7159 104.288 57.2189 104.836C55.5739 106.651 53.7309 108.343 51.6589 109.88C45.3449 114.563 39.9399 119.865 35.3749 125.551C35.3739 125.553 35.3729 125.554 35.3709 125.555C34.2919 126.9 33.2589 128.267 32.2729 129.653C32.2629 129.669 32.2519 129.684 32.2399 129.699C31.7989 130.322 31.3689 130.95 30.9449 131.581C30.8409 131.735 30.7379 131.89 30.6349 132.046C21.9099 145.223 17.2899 159.903 16.3159 173.705L16.3109 173.697C14.4949 174.22 12.8979 175.669 11.5519 177.753C11.5489 177.758 11.5459 177.764 11.5429 177.768C10.9129 178.746 10.3409 179.866 9.82686 181.1C9.81086 181.14 9.79287 181.178 9.77687 181.218C9.62587 181.585 9.48187 181.966 9.34087 182.353C9.30787 182.444 9.27487 182.534 9.24187 182.626C9.10887 183.006 8.97885 183.394 8.85585 183.79C8.82685 183.886 8.79787 183.981 8.76787 184.076C8.64287 184.491 8.52085 184.909 8.40785 185.341C8.40185 185.363 8.39588 185.387 8.38988 185.409C8.01988 186.815 7.71187 188.302 7.46687 189.847C7.45087 189.942 7.43488 190.035 7.41988 190.131C7.35488 190.558 7.29586 190.988 7.24086 191.424C7.21886 191.599 7.19586 191.774 7.17586 191.949C7.12686 192.36 7.08286 192.774 7.04286 193.192C7.02286 193.394 7.00688 193.598 6.98888 193.801C6.95488 194.211 6.92186 194.621 6.89586 195.036C6.88186 195.24 6.87488 195.447 6.86388 195.653C6.79488 197.004 6.77088 198.371 6.79488 199.745C6.79988 200.036 6.80287 200.326 6.81187 200.617C6.82387 200.959 6.84187 201.3 6.85887 201.641C6.87487 201.959 6.89086 202.277 6.91286 202.595C6.93486 202.921 6.95885 203.247 6.98585 203.575C7.01485 203.914 7.04687 204.253 7.08287 204.592C7.11387 204.899 7.14587 205.205 7.18187 205.51C7.22787 205.891 7.28087 206.268 7.33287 206.645C7.36987 206.908 7.40286 207.172 7.44386 207.433C7.54286 208.053 7.64787 208.668 7.76787 209.278C7.80187 209.454 7.84387 209.626 7.87987 209.799C7.97487 210.256 8.07185 210.709 8.17985 211.158C8.23685 211.393 8.29887 211.625 8.35887 211.859C8.45887 212.244 8.55988 212.627 8.66988 213.005C8.73788 213.244 8.81086 213.481 8.88386 213.717C8.99786 214.089 9.11787 214.456 9.24187 214.821C9.31887 215.044 9.39387 215.267 9.47487 215.489C9.61787 215.881 9.76987 216.265 9.92387 216.647C9.99587 216.825 10.0649 217.005 10.1389 217.18C10.3729 217.731 10.6179 218.269 10.8799 218.792C10.9069 218.846 10.9379 218.897 10.9649 218.952C11.2019 219.418 11.4489 219.873 11.7059 220.315C11.8019 220.478 11.9019 220.633 11.9999 220.794C12.2009 221.12 12.4049 221.442 12.6179 221.754C12.7359 221.926 12.8559 222.094 12.9779 222.262C13.1879 222.55 13.4039 222.831 13.6239 223.106C13.7529 223.265 13.8799 223.423 14.0129 223.577C14.2539 223.858 14.5048 224.127 14.7608 224.39C14.8798 224.514 14.9969 224.644 15.1199 224.763C15.5029 225.135 15.8959 225.491 16.3079 225.822C16.5109 225.983 16.7289 226.143 16.9569 226.3C17.0279 226.351 17.1049 226.4 17.1799 226.449C17.3449 226.557 17.5129 226.666 17.6899 226.772C17.7789 226.827 17.8699 226.88 17.9609 226.935C18.1449 227.041 18.3349 227.148 18.5309 227.253C18.6169 227.299 18.7009 227.345 18.7889 227.392C19.0729 227.54 19.3649 227.684 19.6719 227.827C19.7129 227.847 19.7569 227.864 19.7969 227.884C20.0679 228.008 20.3479 228.132 20.6369 228.253C20.7499 228.302 20.8689 228.349 20.9859 228.397C21.2129 228.49 21.4439 228.583 21.6809 228.672C21.8119 228.723 21.9429 228.773 22.0769 228.822C22.3269 228.915 22.5849 229.007 22.8449 229.096C22.9629 229.138 23.0789 229.18 23.1989 229.221C23.5759 229.349 23.9609 229.474 24.3579 229.598C24.4439 229.625 24.5359 229.651 24.6239 229.678C24.9429 229.776 25.2669 229.872 25.5989 229.967C25.7539 230.012 25.9129 230.055 26.0709 230.099C26.3499 230.177 26.6319 230.254 26.9199 230.331C27.0879 230.374 27.2559 230.419 27.4269 230.463C27.7349 230.542 28.0489 230.619 28.3659 230.695C28.5129 230.731 28.6579 230.767 28.8069 230.803C29.2619 230.911 29.7239 231.016 30.1969 231.119C30.3339 231.148 30.4749 231.178 30.6129 231.207C30.9659 231.282 31.3209 231.357 31.6809 231.431C31.8749 231.47 32.0729 231.509 32.2679 231.547C32.5849 231.61 32.9049 231.67 33.2279 231.731C33.4359 231.77 33.6429 231.808 33.8529 231.847C34.2049 231.911 34.5609 231.973 34.9189 232.035C35.0959 232.065 35.2689 232.096 35.4479 232.126C35.9689 232.214 36.4949 232.298 37.0289 232.381C37.2119 232.409 37.3979 232.436 37.5819 232.464C37.9549 232.52 38.3289 232.575 38.7079 232.63C38.9419 232.663 39.1809 232.695 39.4169 232.729C39.7599 232.776 40.1049 232.822 40.4519 232.868C40.6949 232.899 40.9379 232.932 41.1839 232.962C41.5639 233.011 41.9489 233.058 42.3339 233.103C42.5429 233.128 42.7489 233.154 42.9589 233.178C43.5259 233.243 44.1009 233.307 44.6779 233.367C44.9149 233.392 45.1559 233.415 45.3959 233.44C45.7689 233.478 46.1429 233.515 46.5199 233.55C46.7939 233.577 47.0689 233.602 47.3439 233.627C47.7009 233.659 48.0589 233.69 48.4189 233.722C48.6959 233.746 48.9749 233.77 49.2539 233.792C49.6569 233.826 50.0629 233.857 50.4689 233.888C50.7019 233.906 50.9339 233.925 51.1679 233.942C51.7709 233.986 52.3769 234.027 52.9859 234.066C53.2739 234.085 53.5629 234.101 53.8509 234.119C54.2169 234.141 54.5829 234.163 54.9499 234.183C55.2629 234.201 55.5759 234.216 55.8889 234.233C56.2449 234.252 56.6009 234.269 56.9569 234.286C57.2709 234.301 57.5859 234.316 57.9009 234.329C58.2899 234.347 58.6789 234.361 59.0699 234.377C59.5229 234.394 59.9769 234.41 60.4329 234.426C60.8839 234.441 61.3359 234.455 61.7899 234.467C62.1189 234.477 62.4489 234.484 62.7799 234.492C63.1309 234.5 63.4819 234.509 63.8339 234.515C64.1829 234.522 64.5299 234.528 64.8799 234.533C65.2249 234.539 65.5699 234.543 65.9169 234.547C66.2609 234.551 66.6049 234.556 66.9489 234.559C67.3419 234.562 67.7369 234.563 68.1319 234.564C68.6629 234.566 69.1969 234.564 69.7319 234.564C70.1309 234.563 70.5319 234.561 70.9329 234.558C71.2879 234.555 71.6439 234.551 71.9999 234.546C72.3449 234.542 72.6889 234.538 73.0339 234.532C73.3959 234.527 73.7589 234.52 74.1219 234.513C74.4629 234.506 74.8049 234.498 75.1469 234.491C75.5099 234.482 75.8749 234.474 76.2379 234.464C76.6309 234.454 77.0239 234.441 77.4179 234.428C77.9789 234.41 78.5409 234.39 79.1039 234.368C79.4889 234.352 79.8749 234.339 80.2599 234.322C80.6199 234.306 80.9789 234.289 81.3379 234.272C81.6829 234.255 82.0279 234.24 82.3719 234.221C82.7389 234.203 83.1069 234.183 83.4749 234.162C83.8149 234.142 84.1559 234.123 84.4959 234.103C84.8599 234.08 85.2229 234.06 85.5869 234.037C86.0129 234.01 86.4369 233.98 86.8619 233.951C87.4009 233.914 87.9379 233.875 88.4759 233.834C88.8469 233.806 89.2199 233.778 89.5899 233.748C89.9449 233.72 90.2999 233.689 90.6539 233.659C91.0009 233.63 91.3449 233.599 91.6909 233.569C92.0459 233.537 92.4019 233.504 92.7559 233.471C93.1099 233.438 93.4638 233.403 93.8168 233.368C94.1538 233.334 94.4929 233.302 94.8289 233.266C95.4069 233.206 95.9839 233.144 96.5589 233.079C96.9159 233.04 97.2699 232.998 97.6249 232.957C98.0119 232.912 98.3979 232.866 98.7829 232.819C99.1069 232.779 99.4309 232.739 99.7559 232.697C100.119 232.651 100.48 232.603 100.841 232.556C101.163 232.513 101.483 232.47 101.803 232.427C102.186 232.373 102.567 232.32 102.949 232.264C103.237 232.223 103.527 232.183 103.814 232.14C104.436 232.048 105.054 231.952 105.67 231.855C105.939 231.812 106.204 231.767 106.472 231.723C106.868 231.659 107.263 231.593 107.656 231.526C107.946 231.477 108.233 231.425 108.521 231.376C108.89 231.311 109.259 231.244 109.625 231.176C109.91 231.124 110.194 231.072 110.478 231.019C110.881 230.942 111.284 230.864 111.684 230.785C111.917 230.739 112.152 230.694 112.383 230.647C112.957 230.531 113.527 230.412 114.092 230.29V230.289C123.078 228.352 130.955 225.724 136.739 222.323C151.362 213.734 140.268 167.172 124.909 167.952Z" fill="#183B34"/>
<path d="M59.4719 24.157C54.9089 19.82 77.1968 80.97 44.8788 104.946C12.5638 128.921 3.70183 168.919 12.5638 195.308C12.5638 195.308 43.3148 222.605 128.794 195.308C128.794 195.308 121.495 163.321 107.943 148.206C107.945 148.206 132.409 93.479 59.4719 24.157Z" fill="#F33B3D"/>
<path d="M72.7698 63.102C77.4758 62.708 79.4388 61.532 81.7918 58.002C83.3018 55.927 84.3579 54.581 85.5699 53.479C84.4279 51.92 83.2408 50.352 82.0038 48.769C81.4138 49.28 80.8268 49.859 80.2238 50.55C77.8718 53.295 77.0848 57.61 72.7708 58.002C69.6338 58.395 66.8878 55.649 63.3598 55.649C63.1218 55.649 62.8968 55.684 62.6678 55.702C62.7468 57.665 62.7768 59.663 62.7528 61.684C66.1238 62.032 69.8378 63.296 72.7698 63.102Z" fill="#7A0317"/>
<path d="M74.7328 94.479C81.7918 92.517 81.7918 103.891 88.0668 103.891C94.3418 103.891 94.3419 96.046 99.4409 94.087C102.516 92.933 104.839 94.788 107.512 95.97C106.476 92.528 105.211 88.952 103.698 85.256C100.999 84.207 98.3109 83.066 96.3029 83.496C90.0299 85.065 94.7359 94.869 87.2809 94.478C81.0069 94.086 81.3988 81.142 73.1628 86.241C67.6718 89.379 64.9258 102.323 57.4738 94.087C56.8958 93.418 56.3668 92.804 55.8688 92.236C54.3678 94.965 52.5778 97.541 50.4378 99.901C52.6548 101.716 54.7148 104.085 58.2568 104.675C66.8868 105.459 68.0648 96.046 74.7328 94.479Z" fill="#7A0317"/>
<path d="M33.5498 136.838C35.5108 140.759 37.0789 145.465 42.1779 145.465C46.8859 145.465 49.2378 139.974 53.1588 138.798C61.3958 136.838 66.1018 148.995 73.1628 150.172C82.1838 151.742 84.5378 137.228 93.9478 139.191C97.8718 139.974 100.617 144.289 104.931 143.898C106.807 143.898 108.46 143.007 109.955 141.743C110.346 140.109 110.73 138.179 111.056 135.982C107.59 138.262 103.433 138.61 99.0479 135.268C95.9099 132.916 93.9469 129.384 89.6349 130.17C84.9289 130.954 82.1828 136.052 78.2608 138.406C69.2398 144.288 66.8858 131.738 59.0428 128.993C51.9828 126.639 46.8849 137.62 40.2159 133.307C36.6879 130.954 35.9009 125.462 32.7639 122.716C31.4209 121.642 30.0288 120.989 28.5938 120.616C26.4098 123.334 24.4239 126.139 22.6269 129.012C26.8909 129.4 30.6148 131.597 33.5498 136.838Z" fill="#7A0317"/>
<path d="M18.6458 172.135C26.4898 179.196 31.5879 167.824 39.8249 169.782C48.4539 172.528 52.7689 186.647 62.5739 178.02C65.3199 175.667 66.8878 171.351 70.8088 170.567C74.3388 170.175 77.4758 172.528 80.6148 172.528C88.8508 172.528 97.7758 163.821 101.011 158.015C93.9488 162.33 88.8518 168.605 80.2238 165.861C76.3008 164.683 73.5569 163.115 69.2429 164.292C64.9279 165.469 62.1818 169.782 57.8698 171.352C48.0628 174.492 48.4548 160.37 40.2188 160.763C33.1588 160.763 27.6668 174.491 20.6078 165.862C17.8638 162.332 17.4699 157.234 15.1169 153.702C14.3899 152.663 13.6038 151.768 12.7658 150.969C11.8328 154.153 11.0919 157.342 10.5449 160.512C12.8739 164.294 14.6328 168.726 18.6458 172.135Z" fill="#7A0317"/>
<path opacity="0.5" d="M128.795 195.308C128.795 195.308 121.496 163.321 107.944 148.206C107.944 148.206 132.408 93.478 59.4709 24.156C58.4139 23.153 58.7959 25.66 59.6079 30.396C75.0978 59.659 86.7958 95.945 71.3728 125.451C65.8018 136.594 56.2508 145.348 50.6798 156.492C45.1078 168.432 51.4748 183.556 55.4548 195.492C56.7358 199.491 58.1168 203.487 59.6358 207.432C76.9898 207.557 99.7229 204.59 128.795 195.308Z" fill="#C62242"/>
<path d="M88.8958 170.716C97.6838 164.641 106.224 155.713 109.485 145.379C109.679 144.763 108.714 144.501 108.52 145.113C105.345 155.178 96.9588 163.929 88.3918 169.852C87.8648 170.217 88.3648 171.084 88.8958 170.716Z" fill="#7A0317"/>
<path d="M129.278 195.175C128 189.597 126.288 184.097 124.426 178.691C121.052 168.898 116.892 159.031 110.639 150.702C110.29 150.237 108.566 148.021 108.406 148.394C108.495 148.186 108.581 147.976 108.663 147.765C109.002 146.899 109.293 146.015 109.564 145.126C110.664 141.536 111.352 137.826 111.812 134.105C116.549 95.706 94.0438 59.364 68.7138 32.671C65.8318 29.635 62.8548 26.691 59.8258 23.803C59.3598 23.358 58.6508 24.064 59.1188 24.51C87.9458 52.011 114.862 90.055 111.039 131.977C110.561 137.209 109.577 143.315 107.514 147.955C107.416 148.174 107.429 148.376 107.592 148.56C114.918 156.853 119.401 167.528 123.071 177.84C125.119 183.593 126.949 189.484 128.314 195.441C128.457 196.07 129.421 195.803 129.278 195.175Z" fill="#7A0317"/>
<path d="M83.6318 24.157C83.6318 37.501 72.8169 48.317 59.4719 48.317C46.1299 48.317 35.3148 37.501 35.3148 24.157C35.3148 10.817 46.1299 6.93234e-08 59.4719 6.93234e-08C72.8169 -0.000999931 83.6318 10.817 83.6318 24.157Z" fill="#F9EBCE"/>
<path d="M9.53284 168.763C-1.61816 171.978 -4.64716 209.532 9.53284 220.886C23.7088 232.237 101.732 233.988 129.968 217.389C144.791 208.678 133.173 160.913 117.48 163.074C117.48 163.074 118.033 182.748 70.2899 186.825C22.5449 190.9 9.53284 168.763 9.53284 168.763Z" fill="#F9EBCE"/>
<path d="M35.3148 24.157C35.3148 34.158 41.3879 42.737 50.0489 46.409C57.6249 42.722 63.1248 35.574 65.3918 26.06C68.7628 12.576 64.0148 4.42099 55.4298 0.362991C44.0168 2.28999 35.3148 12.197 35.3148 24.157Z" fill="#FDF8E4"/>
<path d="M107.416 220.076C106.016 182.954 68.8928 201.165 45.7798 198.364C28.6078 196.148 6.63685 188.668 4.77185 172.818C-2.14415 183.532 -2.33814 211.382 9.53186 220.886C20.8049 229.912 72.4378 232.866 107.319 225.356C107.471 223.665 107.503 221.904 107.416 220.076Z" fill="#FDF8E4"/>
</svg>
