<svg width="438" height="95" viewBox="0 0 438 95" fill="none" xmlns="http://www.w3.org/2000/svg">
<path d="M144.419 71.14C96.613 71.14 48.178 66.217 0 56.439L0.398003 54.479C259.66 107.096 431.894 1.78099 433.422 0.674988L434.003 1.47798L434.033 1.46098L433.675 0.523987L434.806 0.811981L434.901 1.96799C434.864 2.02999 434.691 2.16999 434.386 2.38199L434.39 2.39299L434.385 2.38199C429.141 6.01799 384.692 30.937 314.716 49.393C270.59 61.032 224.467 68.08 177.628 70.341C166.6 70.874 155.526 71.14 144.419 71.14Z" fill="#384154"/>
<path opacity="0.05" d="M29.849 73.4543C30.8006 67.5681 26.8008 62.0251 20.9152 61.0736C15.0296 60.1221 9.48697 64.1224 8.53536 70.0085C7.58375 75.8947 11.5835 81.4377 17.4691 82.3892C23.3547 83.3407 28.8974 79.3404 29.849 73.4543Z" fill="white"/>
<path opacity="0.05" d="M23.059 80.0873C27.6729 77.9456 29.6772 72.4691 27.5355 67.8551C25.3938 63.2411 19.9173 61.2369 15.3033 63.3785C10.6893 65.5202 8.68508 70.9967 10.8267 75.6107C12.9684 80.2247 18.445 82.2289 23.059 80.0873Z" fill="white"/>
<path opacity="0.05" d="M26.5216 72.9316C27.1782 68.8756 24.4225 65.0553 20.3665 64.3987C16.3105 63.7421 12.4902 66.4978 11.8336 70.5538C11.1769 74.6098 13.9327 78.4301 17.9887 79.0867C22.0447 79.7434 25.865 76.9876 26.5216 72.9316Z" fill="white"/>
<path d="M23.1734 65.3302L19.5993 64.3055L18.8709 66.8463L22.445 67.8709L23.1734 65.3302Z" fill="#626B77"/>
<path d="M23.386 65.623L19.261 64.44L20.444 60.314C20.771 59.175 21.959 58.516 23.098 58.843C24.237 59.17 24.896 60.358 24.569 61.497L23.386 65.623Z" fill="#98A1AF"/>
<path opacity="0.2" d="M23.918 59.299C23.687 59.096 23.413 58.934 23.098 58.844C21.959 58.517 20.771 59.176 20.444 60.315L19.261 64.441L21.018 64.945L22.201 60.819C22.437 59.995 23.125 59.429 23.918 59.299Z" fill="#646D7A"/>
<path d="M15.714 76.846L15.694 76.27C15.66 75.297 15.004 74.457 14.068 74.189L13.514 74.03C11.423 73.43 11.32 70.505 13.365 69.76L13.907 69.563C14.821 69.23 15.417 68.346 15.383 67.374L15.363 66.798C15.287 64.624 18.038 63.622 19.377 65.337L19.732 65.791C20.331 66.558 21.356 66.852 22.27 66.519L22.812 66.322C24.857 65.578 26.659 67.885 25.443 69.689L25.121 70.167C24.577 70.974 24.614 72.039 25.213 72.806L25.568 73.26C26.908 74.975 25.271 77.402 23.179 76.802L22.625 76.643C21.69 76.375 20.688 76.739 20.144 77.546L19.822 78.024C18.604 79.828 15.79 79.021 15.714 76.846Z" fill="#F22525"/>
<path opacity="0.2" d="M18.177 77.553L18.157 76.9771C18.123 76.0051 17.467 75.165 16.531 74.896L15.977 74.737C13.885 74.137 13.783 71.212 15.828 70.467L16.37 70.2701C17.284 69.9371 17.88 69.053 17.846 68.081L17.826 67.5051C17.787 66.3991 18.48 65.6 19.346 65.304C17.996 63.641 15.287 64.641 15.363 66.799L15.383 67.375C15.417 68.348 14.821 69.231 13.907 69.564L13.365 69.761C11.32 70.505 11.423 73.4311 13.514 74.0311L14.068 74.19C15.003 74.458 15.66 75.298 15.694 76.271L15.714 76.847C15.771 78.479 17.37 79.3401 18.679 78.9061C18.386 78.5531 18.196 78.095 18.177 77.553Z" fill="#646D7A"/>
<path opacity="0.3" d="M23.374 74.975C22.103 74.667 20.813 74.832 19.678 75.47C19.422 75.507 19.167 75.715 19.191 76.045C19.193 76.07 19.194 76.094 19.196 76.119C19.218 76.427 19.655 76.631 19.91 76.471C20.864 75.873 21.953 75.657 23.057 75.924C23.677 76.074 24 75.127 23.374 74.975Z" fill="white"/>
<path opacity="0.3" d="M23.862 71.775C23.797 71.195 24.138 70.72 24.409 70.223C24.652 69.778 24.825 69.338 24.862 68.827C24.91 68.184 23.912 68.118 23.864 68.76C23.773 69.992 22.574 70.779 22.886 72.111C22.992 72.565 23.721 72.686 23.851 72.174L23.879 72.065C23.907 71.956 23.892 71.861 23.862 71.775Z" fill="white"/>
<path opacity="0.3" d="M24.324 72.863L24.244 72.84C23.626 72.663 23.306 73.61 23.926 73.788L24.006 73.811C24.624 73.988 24.944 73.041 24.324 72.863Z" fill="white"/>
<path opacity="0.05" d="M109.866 92.501C115.828 92.501 120.662 87.6675 120.662 81.705C120.662 75.7425 115.828 70.909 109.866 70.909C103.904 70.909 99.07 75.7425 99.07 81.705C99.07 87.6675 103.904 92.501 109.866 92.501Z" fill="white"/>
<path opacity="0.05" d="M109.866 90.916C114.953 90.916 119.077 86.7921 119.077 81.705C119.077 76.6179 114.953 72.494 109.866 72.494C104.779 72.494 100.655 76.6179 100.655 81.705C100.655 86.7921 104.779 90.916 109.866 90.916Z" fill="white"/>
<path opacity="0.05" d="M109.866 89.145C113.975 89.145 117.306 85.814 117.306 81.705C117.306 77.596 113.975 74.265 109.866 74.265C105.757 74.265 102.426 77.596 102.426 81.705C102.426 85.814 105.757 89.145 109.866 89.145Z" fill="white"/>
<path d="M111.76 74.5684L108.043 74.4542L107.962 77.0959L111.678 77.21L111.76 74.5684Z" fill="#626B77"/>
<path d="M112.041 74.812L107.751 74.68L107.883 70.39C107.919 69.205 108.909 68.275 110.094 68.311C111.278 68.347 112.209 69.337 112.173 70.522L112.041 74.812Z" fill="#98A1AF"/>
<path opacity="0.2" d="M111.001 68.551C110.727 68.411 110.422 68.322 110.094 68.312C108.909 68.276 107.92 69.206 107.883 70.391L107.751 74.681L109.578 74.737L109.71 70.447C109.736 69.59 110.264 68.872 111.001 68.551Z" fill="#646D7A"/>
<path d="M107.364 87.577L107.203 87.023C106.931 86.089 106.088 85.436 105.116 85.406L104.54 85.388C102.365 85.321 101.546 82.51 103.345 81.286L103.822 80.962C104.626 80.414 104.987 79.411 104.715 78.477L104.554 77.923C103.945 75.834 106.366 74.187 108.086 75.519L108.542 75.872C109.311 76.468 110.377 76.501 111.181 75.953L111.658 75.629C113.457 74.405 115.771 76.197 115.036 78.245L114.841 78.788C114.512 79.704 114.81 80.727 115.579 81.323L116.035 81.676C117.755 83.008 116.765 85.763 114.591 85.697L114.015 85.679C113.042 85.649 112.161 86.249 111.832 87.165L111.637 87.708C110.899 89.756 107.973 89.666 107.364 87.577Z" fill="#C928EA"/>
<path opacity="0.2" d="M109.926 87.656L109.765 87.102C109.493 86.168 108.65 85.515 107.678 85.485L107.102 85.467C104.927 85.4 104.109 82.589 105.907 81.365L106.384 81.041C107.189 80.493 107.549 79.49 107.277 78.556L107.116 78.002C106.807 76.94 107.282 75.995 108.048 75.494C106.33 74.214 103.951 75.849 104.555 77.923L104.716 78.477C104.988 79.411 104.628 80.415 103.823 80.962L103.346 81.286C101.547 82.51 102.366 85.321 104.541 85.388L105.117 85.406C106.09 85.436 106.932 86.089 107.205 87.023L107.366 87.577C107.823 89.145 109.584 89.586 110.746 88.844C110.374 88.574 110.078 88.177 109.926 87.656Z" fill="#646D7A"/>
<path opacity="0.3" d="M114.329 83.88C113.022 83.894 111.811 84.371 110.868 85.268C110.629 85.367 110.433 85.631 110.537 85.945C110.545 85.968 110.552 85.992 110.56 86.015C110.657 86.308 111.13 86.398 111.338 86.18C112.116 85.365 113.118 84.888 114.253 84.876C114.893 84.87 114.973 83.873 114.329 83.88Z" fill="white"/>
<path opacity="0.3" d="M114.015 80.657C113.809 80.111 114.023 79.566 114.164 79.018C114.29 78.527 114.349 78.058 114.26 77.554C114.148 76.919 113.164 77.1 113.276 77.734C113.491 78.951 112.522 80.008 113.152 81.223C113.367 81.637 114.103 81.575 114.103 81.047V80.935C114.103 80.822 114.065 80.734 114.015 80.657Z" fill="white"/>
<path opacity="0.3" d="M114.731 81.599L114.648 81.596C114.006 81.576 113.928 82.573 114.573 82.593L114.656 82.596C115.298 82.616 115.376 81.619 114.731 81.599Z" fill="white"/>
<path opacity="0.05" d="M205.538 90.0544C211.052 87.7877 213.685 81.4796 211.418 75.9649C209.151 70.4503 202.843 67.8173 197.329 70.084C191.814 72.3507 189.182 78.6588 191.449 84.1735C193.716 89.6881 200.024 92.3211 205.538 90.0544Z" fill="white"/>
<path opacity="0.05" d="M210.509 81.5497C211.326 76.5287 207.918 71.7961 202.897 70.9791C197.876 70.1622 193.144 73.5702 192.327 78.5911C191.51 83.6121 194.918 88.3447 199.939 89.1617C204.96 89.9786 209.692 86.5707 210.509 81.5497Z" fill="white"/>
<path opacity="0.05" d="M201.431 87.5181C205.54 87.5181 208.871 84.1871 208.871 80.0781C208.871 75.9691 205.54 72.6381 201.431 72.6381C197.322 72.6381 193.991 75.9691 193.991 80.0781C193.991 84.1871 197.322 87.5181 201.431 87.5181Z" fill="white"/>
<path d="M202.589 72.9075L198.883 73.1979L199.089 75.8327L202.796 75.5423L202.589 72.9075Z" fill="#626B77"/>
<path d="M202.903 73.12L198.625 73.455L198.29 69.176C198.197 67.994 199.08 66.962 200.262 66.869C201.443 66.776 202.476 67.659 202.569 68.841L202.903 73.12Z" fill="#98A1AF"/>
<path opacity="0.2" d="M201.189 67.01C200.901 66.9 200.588 66.845 200.261 66.871C199.079 66.964 198.197 67.996 198.289 69.178L198.624 73.457L200.446 73.314L200.111 69.035C200.045 68.18 200.492 67.409 201.189 67.01Z" fill="#646D7A"/>
<path d="M199.642 86.319L199.421 85.786C199.049 84.887 198.14 84.33 197.17 84.406L196.595 84.451C194.426 84.621 193.306 81.916 194.961 80.503L195.4 80.129C196.14 79.497 196.389 78.461 196.017 77.562L195.796 77.029C194.964 75.019 197.191 73.118 199.046 74.256L199.538 74.557C200.367 75.066 201.43 74.982 202.17 74.351L202.609 73.977C204.264 72.565 206.76 74.095 206.251 76.211L206.116 76.772C205.889 77.718 206.296 78.703 207.126 79.212L207.618 79.513C209.473 80.65 208.788 83.497 206.619 83.667L206.044 83.712C205.074 83.788 204.263 84.48 204.036 85.426L203.901 85.987C203.393 88.1 200.474 88.329 199.642 86.319Z" fill="#363ED6"/>
<path opacity="0.2" d="M202.197 86.118L201.976 85.585C201.604 84.686 200.695 84.129 199.725 84.205L199.15 84.25C196.981 84.42 195.862 81.715 197.517 80.302L197.956 79.928C198.696 79.296 198.945 78.26 198.573 77.361L198.353 76.828C197.93 75.806 198.299 74.814 199.007 74.234C197.161 73.149 194.972 75.033 195.798 77.028L196.019 77.561C196.391 78.46 196.142 79.497 195.402 80.128L194.963 80.502C193.308 81.915 194.427 84.62 196.597 84.45L197.172 84.405C198.142 84.329 199.051 84.886 199.423 85.785L199.644 86.318C200.268 87.827 202.068 88.074 203.142 87.21C202.742 86.982 202.405 86.62 202.197 86.118Z" fill="#646D7A"/>
<path opacity="0.3" d="M206.164 81.886C204.866 82.042 203.715 82.648 202.875 83.642C202.648 83.766 202.482 84.05 202.62 84.351C202.63 84.373 202.64 84.396 202.651 84.418C202.779 84.699 203.26 84.737 203.443 84.498C204.128 83.604 205.072 83.02 206.199 82.885C206.832 82.809 206.804 81.809 206.164 81.886Z" fill="white"/>
<path opacity="0.3" d="M205.501 78.717C205.237 78.197 205.391 77.632 205.471 77.071C205.543 76.569 205.551 76.096 205.407 75.605C205.227 74.986 204.269 75.273 204.449 75.891C204.795 77.077 203.947 78.234 204.705 79.372C204.963 79.76 205.689 79.618 205.631 79.094L205.619 78.983C205.607 78.871 205.56 78.788 205.501 78.717Z" fill="white"/>
<path opacity="0.3" d="M206.315 79.575L206.232 79.582C205.591 79.632 205.622 80.632 206.266 80.581L206.349 80.574C206.989 80.524 206.958 79.525 206.315 79.575Z" fill="white"/>
<path opacity="0.05" d="M284.536 79.029C290.498 79.029 295.331 74.1959 295.331 68.234C295.331 62.272 290.498 57.439 284.536 57.439C278.574 57.439 273.741 62.272 273.741 68.234C273.741 74.1959 278.574 79.029 284.536 79.029Z" fill="white"/>
<path opacity="0.05" d="M284.536 77.4449C289.623 77.4449 293.747 73.321 293.747 68.2339C293.747 63.1469 289.623 59.0229 284.536 59.0229C279.449 59.0229 275.325 63.1469 275.325 68.2339C275.325 73.321 279.449 77.4449 284.536 77.4449Z" fill="white"/>
<path opacity="0.05" d="M284.536 75.6739C288.645 75.6739 291.976 72.3429 291.976 68.2339C291.976 64.1249 288.645 60.7939 284.536 60.7939C280.427 60.7939 277.096 64.1249 277.096 68.2339C277.096 72.3429 280.427 75.6739 284.536 75.6739Z" fill="white"/>
<path d="M283.514 60.8741L279.996 62.0784L280.852 64.5789L284.37 63.3746L283.514 60.8741Z" fill="#626B77"/>
<path d="M283.848 61.014L279.788 62.404L278.398 58.344C278.014 57.223 278.612 56.003 279.733 55.619C280.854 55.235 282.074 55.833 282.458 56.954L283.848 61.014Z" fill="#98A1AF"/>
<path opacity="0.2" d="M280.667 55.522C280.361 55.487 280.044 55.512 279.734 55.618C278.613 56.002 278.015 57.222 278.399 58.343L279.789 62.403L281.519 61.811L280.129 57.751C279.85 56.941 280.091 56.083 280.667 55.522Z" fill="#646D7A"/>
<path d="M283.976 74.608L283.63 74.147C283.046 73.369 282.027 73.055 281.106 73.37L280.56 73.557C278.501 74.262 276.744 71.92 277.995 70.14L278.327 69.668C278.887 68.872 278.87 67.806 278.286 67.028L277.94 66.567C276.634 64.827 278.317 62.432 280.397 63.072L280.948 63.242C281.878 63.528 282.886 63.183 283.446 62.387L283.778 61.915C285.029 60.135 287.827 60.996 287.861 63.172L287.87 63.749C287.885 64.722 288.525 65.574 289.455 65.861L290.006 66.031C292.086 66.671 292.131 69.598 290.073 70.303L289.527 70.49C288.606 70.805 287.993 71.677 288.009 72.65L288.018 73.227C288.052 75.4 285.282 76.348 283.976 74.608Z" fill="#36D6B7"/>
<path opacity="0.2" d="M286.4 73.779L286.054 73.318C285.47 72.54 284.451 72.226 283.53 72.541L282.984 72.728C280.925 73.433 279.168 71.091 280.419 69.311L280.751 68.839C281.311 68.043 281.294 66.977 280.71 66.199L280.364 65.738C279.7 64.853 279.811 63.801 280.351 63.063C278.293 62.472 276.642 64.841 277.939 66.568L278.285 67.029C278.869 67.807 278.886 68.873 278.326 69.669L277.994 70.141C276.743 71.921 278.5 74.262 280.559 73.558L281.105 73.371C282.026 73.056 283.045 73.369 283.629 74.148L283.975 74.609C284.955 75.915 286.759 75.707 287.585 74.602C287.143 74.479 286.726 74.213 286.4 73.779Z" fill="#646D7A"/>
<path opacity="0.3" d="M289.188 68.692C287.97 69.166 287.006 70.04 286.439 71.212C286.25 71.389 286.16 71.705 286.368 71.962C286.384 71.981 286.399 72 286.415 72.02C286.609 72.26 287.084 72.177 287.201 71.9C287.642 70.863 288.411 70.063 289.469 69.651C290.066 69.419 289.789 68.458 289.188 68.692Z" fill="white"/>
<path opacity="0.3" d="M287.758 65.787C287.373 65.348 287.381 64.764 287.319 64.201C287.264 63.697 287.153 63.237 286.893 62.797C286.564 62.242 285.708 62.759 286.036 63.313C286.666 64.376 286.133 65.707 287.151 66.621C287.498 66.932 288.165 66.614 287.979 66.121L287.939 66.016C287.898 65.911 287.832 65.841 287.758 65.787Z" fill="white"/>
<path opacity="0.3" d="M288.76 66.416L288.681 66.443C288.073 66.651 288.352 67.612 288.962 67.403L289.041 67.376C289.649 67.167 289.37 66.207 288.76 66.416Z" fill="white"/>
<path opacity="0.05" d="M365.993 56.7673C371.507 54.5006 374.14 48.1925 371.873 42.6778C369.606 37.1631 363.298 34.5301 357.784 36.7969C352.27 39.0636 349.637 45.3717 351.904 50.8863C354.171 56.401 360.479 59.034 365.993 56.7673Z" fill="white"/>
<path opacity="0.05" d="M370.961 48.2694C371.778 43.2484 368.37 38.5158 363.349 37.6988C358.328 36.8818 353.596 40.2898 352.779 45.3108C351.962 50.3317 355.37 55.0643 360.391 55.8813C365.412 56.6983 370.144 53.2903 370.961 48.2694Z" fill="white"/>
<path opacity="0.05" d="M361.889 54.2341C365.998 54.2341 369.329 50.9031 369.329 46.7941C369.329 42.6851 365.998 39.3541 361.889 39.3541C357.78 39.3541 354.449 42.6851 354.449 46.7941C354.449 50.9031 357.78 54.2341 361.889 54.2341Z" fill="white"/>
<path d="M361.328 39.4596L357.81 40.6635L358.666 43.164L362.183 41.9601L361.328 39.4596Z" fill="#626B77"/>
<path d="M361.682 39.5741L357.622 40.9641L356.232 36.9041C355.848 35.7831 356.446 34.5631 357.567 34.1791C358.688 33.7951 359.908 34.393 360.292 35.514L361.682 39.5741Z" fill="#98A1AF"/>
<path opacity="0.2" d="M358.5 34.082C358.194 34.047 357.877 34.072 357.567 34.178C356.446 34.562 355.848 35.782 356.232 36.903L357.622 40.963L359.352 40.371L357.962 36.311C357.684 35.501 357.925 34.643 358.5 34.082Z" fill="#646D7A"/>
<path d="M361.809 53.168L361.463 52.707C360.879 51.929 359.86 51.615 358.939 51.93L358.393 52.1171C356.334 52.8221 354.577 50.48 355.828 48.7L356.16 48.228C356.72 47.432 356.703 46.366 356.119 45.588L355.773 45.127C354.467 43.387 356.15 40.9921 358.23 41.6321L358.781 41.802C359.711 42.088 360.72 41.7431 361.279 40.9471L361.611 40.4751C362.862 38.6951 365.66 39.556 365.694 41.732L365.703 42.3091C365.718 43.2821 366.358 44.1351 367.288 44.4211L367.839 44.591C369.919 45.231 369.964 48.1581 367.906 48.8631L367.36 49.05C366.439 49.365 365.826 50.2371 365.842 51.2101L365.851 51.787C365.885 53.96 363.115 54.908 361.809 53.168Z" fill="#D6B736"/>
<path opacity="0.2" d="M364.233 52.338L363.887 51.877C363.303 51.099 362.284 50.785 361.363 51.1L360.817 51.287C358.758 51.992 357.001 49.65 358.252 47.87L358.584 47.398C359.144 46.602 359.127 45.536 358.543 44.758L358.197 44.297C357.533 43.412 357.644 42.36 358.184 41.622C356.125 41.03 354.475 43.4 355.772 45.127L356.118 45.588C356.702 46.366 356.719 47.432 356.159 48.228L355.827 48.7C354.576 50.48 356.333 52.821 358.392 52.117L358.938 51.93C359.859 51.615 360.878 51.928 361.462 52.707L361.808 53.168C362.788 54.474 364.592 54.266 365.418 53.161C364.977 53.039 364.559 52.773 364.233 52.338Z" fill="#646D7A"/>
<path opacity="0.3" d="M367.022 47.2521C365.804 47.7261 364.839 48.6001 364.273 49.7721C364.084 49.9491 363.994 50.2651 364.202 50.5231C364.218 50.5421 364.233 50.5611 364.249 50.5801C364.443 50.8201 364.918 50.7371 365.036 50.4601C365.476 49.4231 366.246 48.6231 367.304 48.2111C367.899 47.9791 367.622 47.0181 367.022 47.2521Z" fill="white"/>
<path opacity="0.3" d="M365.591 44.3471C365.206 43.9081 365.214 43.3241 365.152 42.7611C365.097 42.2571 364.986 41.797 364.725 41.357C364.396 40.802 363.54 41.3191 363.868 41.8731C364.498 42.9361 363.965 44.2671 364.983 45.1811C365.33 45.4921 365.997 45.1741 365.811 44.6811L365.771 44.5761C365.732 44.4711 365.665 44.4011 365.591 44.3471Z" fill="white"/>
<path opacity="0.3" d="M366.593 44.976L366.514 45.0031C365.906 45.2111 366.185 46.172 366.796 45.963L366.875 45.9361C367.482 45.7271 367.203 44.767 366.593 44.976Z" fill="white"/>
<path opacity="0.05" d="M435.61 23.4791C436.661 17.6096 432.754 11.9999 426.885 10.9493C421.015 9.89868 415.406 13.8051 414.355 19.6746C413.304 25.544 417.211 31.1539 423.08 32.2044C428.95 33.255 434.56 29.3485 435.61 23.4791Z" fill="white"/>
<path opacity="0.05" d="M424.964 30.803C430.051 30.803 434.175 26.6791 434.175 21.592C434.175 16.5049 430.051 12.381 424.964 12.381C419.877 12.381 415.753 16.5049 415.753 21.592C415.753 26.6791 419.877 30.803 424.964 30.803Z" fill="white"/>
<path opacity="0.05" d="M424.964 29.032C429.073 29.032 432.404 25.701 432.404 21.592C432.404 17.483 429.073 14.152 424.964 14.152C420.855 14.152 417.524 17.483 417.524 21.592C417.524 25.701 420.855 29.032 424.964 29.032Z" fill="white"/>
<path d="M423.471 13.4748L420.06 14.9534L421.111 17.3784L424.522 15.8997L423.471 13.4748Z" fill="#626B77"/>
<path d="M423.828 13.576L419.89 15.283L418.183 11.345C417.712 10.258 418.211 8.99401 419.298 8.52301C420.385 8.05201 421.649 8.55101 422.12 9.63801L423.828 13.576Z" fill="#98A1AF"/>
<path opacity="0.2" d="M420.222 8.35404C419.914 8.34404 419.601 8.39304 419.299 8.52404C418.212 8.99504 417.712 10.259 418.184 11.346L419.891 15.284L421.568 14.557L419.861 10.619C419.52 9.83304 419.693 8.95804 420.222 8.35404Z" fill="#646D7A"/>
<path d="M425.031 27.118L424.649 26.686C424.005 25.957 422.965 25.725 422.072 26.112L421.543 26.341C419.547 27.206 417.609 25.012 418.716 23.138L419.009 22.641C419.504 21.803 419.403 20.742 418.759 20.013L418.377 19.581C416.937 17.95 418.426 15.429 420.549 15.902L421.112 16.027C422.062 16.239 423.04 15.815 423.535 14.977L423.828 14.48C424.934 12.607 427.792 13.243 427.998 15.409L428.053 15.983C428.145 16.952 428.851 17.751 429.8 17.962L430.363 18.088C432.487 18.561 432.764 21.476 430.768 22.341L430.239 22.57C429.346 22.957 428.804 23.875 428.896 24.844L428.951 25.418C429.157 27.585 426.471 28.749 425.031 27.118Z" fill="#D83535"/>
<path opacity="0.2" d="M427.382 26.099L427 25.667C426.356 24.937 425.316 24.706 424.423 25.093L423.894 25.322C421.898 26.187 419.96 23.993 421.067 22.119L421.36 21.622C421.855 20.784 421.754 19.723 421.11 18.993L420.728 18.561C419.996 17.732 420.023 16.674 420.504 15.895C418.405 15.468 416.948 17.961 418.377 19.58L418.759 20.012C419.403 20.742 419.504 21.803 419.009 22.641L418.716 23.138C417.61 25.012 419.547 27.206 421.543 26.341L422.072 26.112C422.965 25.725 424.005 25.957 424.649 26.686L425.031 27.118C426.112 28.342 427.894 27.992 428.629 26.825C428.179 26.738 427.742 26.506 427.382 26.099Z" fill="#646D7A"/>
<path opacity="0.3" d="M429.759 20.808C428.582 21.377 427.69 22.324 427.219 23.538C427.045 23.729 426.98 24.052 427.208 24.292C427.225 24.31 427.242 24.328 427.259 24.346C427.471 24.57 427.938 24.45 428.034 24.164C428.391 23.096 429.095 22.237 430.117 21.743C430.691 21.463 430.339 20.527 429.759 20.808Z" fill="white"/>
<path opacity="0.3" d="M428.103 18.025C427.684 17.618 427.646 17.035 427.54 16.478C427.445 15.98 427.299 15.53 427.004 15.112C426.632 14.585 425.82 15.168 426.191 15.694C426.903 16.704 426.477 18.073 427.564 18.903C427.934 19.186 428.574 18.816 428.349 18.339L428.301 18.238C428.253 18.137 428.182 18.073 428.103 18.025Z" fill="white"/>
<path opacity="0.3" d="M429.152 18.572L429.076 18.605C428.486 18.861 428.84 19.796 429.433 19.539L429.509 19.506C430.098 19.251 429.744 18.316 429.152 18.572Z" fill="white"/>
<path opacity="0.05" d="M67.757 63.581C73.7195 63.581 78.553 58.7475 78.553 52.785C78.553 46.8226 73.7195 41.989 67.757 41.989C61.7945 41.989 56.961 46.8226 56.961 52.785C56.961 58.7475 61.7945 63.581 67.757 63.581Z" fill="white"/>
<path opacity="0.05" d="M67.757 61.996C72.8441 61.996 76.968 57.8721 76.968 52.785C76.968 47.6979 72.8441 43.574 67.757 43.574C62.6699 43.574 58.546 47.6979 58.546 52.785C58.546 57.8721 62.6699 61.996 67.757 61.996Z" fill="white"/>
<path opacity="0.05" d="M67.757 60.225C71.866 60.225 75.197 56.894 75.197 52.785C75.197 48.676 71.866 45.345 67.757 45.345C63.648 45.345 60.317 48.676 60.317 52.785C60.317 56.894 63.648 60.225 67.757 60.225Z" fill="white"/>
<path d="M68.7346 58.2378L65.0538 57.7125L64.6803 60.329L68.3611 60.8544L68.7346 58.2378Z" fill="#626B77"/>
<path d="M68.675 60.658L64.426 60.052L63.82 64.301C63.653 65.474 64.468 66.561 65.641 66.728C66.814 66.896 67.901 66.08 68.068 64.907L68.675 60.658Z" fill="#98A1AF"/>
<path opacity="0.2" d="M66.576 66.647C66.282 66.738 65.966 66.773 65.641 66.727C64.468 66.56 63.652 65.473 63.82 64.299L64.426 60.05L66.236 60.308L65.63 64.557C65.509 65.406 65.906 66.204 66.576 66.647Z" fill="#646D7A"/>
<path d="M66.259 47.279L66.005 47.797C65.577 48.671 64.634 49.169 63.671 49.032L63.1 48.951C60.946 48.644 59.657 51.272 61.219 52.787L61.633 53.189C62.332 53.866 62.514 54.917 62.086 55.79L61.832 56.308C60.874 58.262 62.976 60.3 64.899 59.282L65.409 59.012C66.269 58.557 67.324 58.708 68.023 59.385L68.437 59.787C69.999 61.302 72.587 59.933 72.214 57.789L72.115 57.221C71.948 56.262 72.417 55.305 73.277 54.85L73.787 54.58C75.71 53.563 75.208 50.678 73.054 50.371L72.483 50.29C71.52 50.153 70.754 49.41 70.587 48.452L70.488 47.884C70.116 45.739 67.217 45.326 66.259 47.279Z" fill="#E51F4A"/>
<path opacity="0.2" d="M68.796 47.641L68.542 48.159C68.114 49.033 67.171 49.531 66.208 49.394L65.637 49.313C63.483 49.006 62.194 51.634 63.756 53.149L64.17 53.55C64.869 54.227 65.051 55.278 64.623 56.151L64.369 56.669C63.882 57.662 64.188 58.675 64.857 59.299C62.945 60.265 60.881 58.246 61.832 56.307L62.086 55.789C62.514 54.915 62.332 53.865 61.633 53.188L61.219 52.787C59.657 51.272 60.946 48.644 63.1 48.951L63.671 49.032C64.634 49.17 65.577 48.671 66.005 47.797L66.259 47.279C66.978 45.813 68.789 45.68 69.806 46.611C69.395 46.814 69.035 47.154 68.796 47.641Z" fill="#646D7A"/>
<path opacity="0.3" d="M72.486 52.117C71.201 51.879 70.09 51.201 69.315 50.155C69.096 50.017 68.949 49.723 69.105 49.431C69.117 49.409 69.128 49.387 69.14 49.366C69.286 49.094 69.768 49.087 69.935 49.337C70.562 50.273 71.467 50.915 72.583 51.122C73.212 51.238 73.12 52.234 72.486 52.117Z" fill="white"/>
<path opacity="0.3" d="M71.624 55.238C71.327 55.741 71.445 56.314 71.489 56.878C71.529 57.383 71.506 57.856 71.332 58.337C71.113 58.944 70.175 58.596 70.394 57.991C70.814 56.829 70.042 55.621 70.871 54.533C71.153 54.162 71.868 54.35 71.778 54.87L71.759 54.98C71.739 55.091 71.687 55.171 71.624 55.238Z" fill="white"/>
<path opacity="0.3" d="M72.49 54.433L72.407 54.421C71.771 54.33 71.865 53.334 72.504 53.426L72.587 53.438C73.224 53.529 73.129 54.524 72.49 54.433Z" fill="white"/>
<path opacity="0.05" d="M160.318 65.0351C165.03 61.3819 165.889 54.6004 162.235 49.8883C158.582 45.1762 151.801 44.3177 147.089 47.9709C142.376 51.6241 141.518 58.4056 145.171 63.1177C148.824 67.8298 155.606 68.6883 160.318 65.0351Z" fill="white"/>
<path opacity="0.05" d="M160.218 63.0096C163.815 59.4125 163.815 53.5804 160.218 49.9834C156.621 46.3863 150.789 46.3863 147.192 49.9834C143.595 53.5804 143.595 59.4125 147.192 63.0096C150.789 66.6066 156.621 66.6066 160.218 63.0096Z" fill="white"/>
<path opacity="0.05" d="M153.708 63.937C157.817 63.937 161.148 60.606 161.148 56.497C161.148 52.388 157.817 49.057 153.708 49.057C149.599 49.057 146.268 52.388 146.268 56.497C146.268 60.606 149.599 63.937 153.708 63.937Z" fill="white"/>
<path d="M155.583 62.1114L151.865 62.1196L151.871 64.7626L155.589 64.7545L155.583 62.1114Z" fill="#626B77"/>
<path d="M155.872 64.523L151.58 64.532L151.589 68.824C151.592 70.009 152.554 70.968 153.74 70.965C154.925 70.962 155.884 70 155.881 68.814L155.872 64.523Z" fill="#98A1AF"/>
<path opacity="0.2" d="M154.654 70.752C154.376 70.884 154.069 70.965 153.74 70.965C152.555 70.968 151.592 70.009 151.589 68.824L151.58 64.532L153.408 64.528L153.417 68.82C153.42 69.677 153.927 70.41 154.654 70.752Z" fill="#646D7A"/>
<path d="M151.562 51.63L151.385 52.179C151.086 53.105 150.225 53.733 149.252 53.736L148.675 53.737C146.499 53.742 145.601 56.528 147.364 57.803L147.831 58.141C148.62 58.711 148.951 59.724 148.652 60.65L148.475 61.199C147.807 63.27 150.179 64.985 151.937 63.702L152.403 63.362C153.189 62.788 154.255 62.786 155.044 63.356L155.511 63.694C157.274 64.969 159.639 63.243 158.962 61.175L158.783 60.627C158.48 59.702 158.807 58.688 159.593 58.114L160.059 57.774C161.816 56.491 160.906 53.709 158.73 53.714L158.153 53.715C157.18 53.717 156.316 53.093 156.013 52.168L155.834 51.62C155.157 49.552 152.23 49.559 151.562 51.63Z" fill="#7836D6"/>
<path opacity="0.2" d="M154.124 51.624L153.947 52.173C153.648 53.099 152.787 53.727 151.814 53.73L151.237 53.731C149.061 53.736 148.163 56.522 149.926 57.797L150.393 58.135C151.181 58.705 151.513 59.718 151.215 60.644L151.038 61.193C150.698 62.246 151.146 63.205 151.898 63.726C150.145 64.956 147.812 63.254 148.475 61.198L148.652 60.649C148.951 59.723 148.619 58.71 147.83 58.14L147.363 57.802C145.6 56.527 146.498 53.741 148.674 53.736L149.251 53.735C150.224 53.733 151.085 53.104 151.384 52.178L151.561 51.629C152.062 50.075 153.836 49.684 154.976 50.459C154.599 50.719 154.291 51.107 154.124 51.624Z" fill="#646D7A"/>
<path opacity="0.3" d="M158.418 55.524C157.112 55.473 155.915 54.961 154.998 54.038C154.762 53.933 154.574 53.663 154.686 53.351C154.694 53.328 154.703 53.305 154.711 53.281C154.816 52.991 155.292 52.914 155.494 53.138C156.248 53.974 157.237 54.48 158.371 54.525C159.01 54.55 159.062 55.549 158.418 55.524Z" fill="white"/>
<path opacity="0.3" d="M158.012 58.736C157.791 59.276 157.989 59.826 158.114 60.379C158.226 60.873 158.272 61.344 158.168 61.845C158.038 62.477 157.06 62.267 157.19 61.637C157.439 60.427 156.501 59.342 157.166 58.146C157.392 57.739 158.127 57.822 158.111 58.349L158.108 58.461C158.105 58.574 158.065 58.661 158.012 58.736Z" fill="white"/>
<path opacity="0.3" d="M158.755 57.816H158.672C158.029 57.817 157.98 56.819 158.625 56.817H158.708C159.35 56.815 159.4 57.814 158.755 57.816Z" fill="white"/>
<path opacity="0.05" d="M240.431 61.571C246.393 61.571 251.227 56.7375 251.227 50.775C251.227 44.8125 246.393 39.979 240.431 39.979C234.469 39.979 229.635 44.8125 229.635 50.775C229.635 56.7375 234.469 61.571 240.431 61.571Z" fill="white"/>
<path opacity="0.05" d="M240.431 59.986C245.518 59.986 249.642 55.8621 249.642 50.775C249.642 45.6879 245.518 41.564 240.431 41.564C235.344 41.564 231.22 45.6879 231.22 50.775C231.22 55.8621 235.344 59.986 240.431 59.986Z" fill="white"/>
<path opacity="0.05" d="M240.431 58.215C244.54 58.215 247.871 54.884 247.871 50.775C247.871 46.666 244.54 43.335 240.431 43.335C236.322 43.335 232.991 46.666 232.991 50.775C232.991 54.884 236.322 58.215 240.431 58.215Z" fill="white"/>
<path d="M242.94 55.0561L239.288 55.7507L239.781 58.3471L243.434 57.6526L242.94 55.0561Z" fill="#626B77"/>
<path d="M243.666 57.378L239.45 58.18L240.252 62.396C240.473 63.56 241.597 64.325 242.761 64.103C243.925 63.882 244.69 62.758 244.468 61.594L243.666 57.378Z" fill="#98A1AF"/>
<path opacity="0.2" d="M243.619 63.725C243.37 63.907 243.083 64.042 242.761 64.104C241.597 64.325 240.473 63.561 240.252 62.397L239.45 58.181L241.246 57.839L242.048 62.055C242.207 62.896 242.841 63.522 243.619 63.725Z" fill="#646D7A"/>
<path d="M237.049 45.502L236.976 46.074C236.854 47.039 236.123 47.816 235.167 47.998L234.601 48.106C232.463 48.512 232.095 51.417 234.063 52.344L234.585 52.59C235.465 53.005 235.978 53.939 235.856 54.905L235.783 55.477C235.509 57.635 238.157 58.884 239.648 57.298L240.043 56.878C240.71 56.169 241.757 55.97 242.637 56.385L243.159 56.631C245.127 57.559 247.133 55.426 246.086 53.518L245.809 53.013C245.341 52.16 245.475 51.102 246.142 50.394L246.537 49.974C248.027 48.389 246.619 45.823 244.481 46.229L243.914 46.337C242.958 46.519 241.994 46.064 241.526 45.211L241.248 44.705C240.199 42.797 237.323 43.343 237.049 45.502Z" fill="#37AFD3"/>
<path opacity="0.2" d="M239.567 45.023L239.494 45.595C239.372 46.56 238.641 47.337 237.685 47.519L237.119 47.627C234.981 48.033 234.613 50.938 236.581 51.865L237.103 52.111C237.983 52.526 238.496 53.46 238.374 54.426L238.301 54.998C238.162 56.095 238.779 56.955 239.614 57.329C238.118 58.862 235.512 57.619 235.784 55.477L235.857 54.905C235.98 53.94 235.467 53.005 234.586 52.59L234.064 52.344C232.096 51.416 232.464 48.512 234.602 48.106L235.168 47.998C236.124 47.816 236.854 47.04 236.977 46.074L237.05 45.502C237.256 43.882 238.926 43.17 240.19 43.722C239.866 44.047 239.635 44.485 239.567 45.023Z" fill="#646D7A"/>
<path opacity="0.3" d="M244.507 48.064C243.214 48.255 241.944 47.973 240.872 47.235C240.62 47.175 240.385 46.945 240.439 46.618C240.443 46.594 240.447 46.569 240.451 46.545C240.501 46.24 240.955 46.077 241.194 46.26C242.09 46.943 243.155 47.257 244.278 47.092C244.909 46.997 245.144 47.97 244.507 48.064Z" fill="white"/>
<path opacity="0.3" d="M244.701 51.296C244.583 51.868 244.88 52.372 245.105 52.892C245.306 53.357 245.438 53.812 245.429 54.323C245.418 54.968 244.418 54.943 244.429 54.299C244.451 53.064 243.328 52.171 243.761 50.873C243.908 50.431 244.645 50.377 244.728 50.898L244.746 51.009C244.762 51.119 244.739 51.212 244.701 51.296Z" fill="white"/>
<path opacity="0.3" d="M245.261 50.254L245.179 50.27C244.548 50.39 244.315 49.417 244.949 49.297L245.031 49.281C245.662 49.161 245.894 50.133 245.261 50.254Z" fill="white"/>
<path opacity="0.05" d="M322.464 37.5376C323.416 31.6514 319.416 26.1084 313.53 25.1569C307.645 24.2054 302.102 28.2057 301.151 34.0918C300.199 39.978 304.199 45.521 310.084 46.4725C315.97 47.424 321.513 43.4237 322.464 37.5376Z" fill="white"/>
<path opacity="0.05" d="M315.361 44.3513C320.056 42.3937 322.275 37.0005 320.318 32.3051C318.36 27.6097 312.967 25.3902 308.272 27.3478C303.576 29.3053 301.357 34.6985 303.314 39.3939C305.272 44.0893 310.665 46.3088 315.361 44.3513Z" fill="white"/>
<path opacity="0.05" d="M319.149 37.0352C319.806 32.9792 317.05 29.1589 312.994 28.5023C308.938 27.8456 305.118 30.6014 304.461 34.6574C303.805 38.7134 306.56 42.5337 310.616 43.1903C314.672 43.8469 318.493 41.0912 319.149 37.0352Z" fill="white"/>
<path d="M315.503 39.5787L311.976 40.7532L312.811 43.2609L316.338 42.0863L315.503 39.5787Z" fill="#626B77"/>
<path d="M316.529 41.7889L312.457 43.1449L313.813 47.2169C314.187 48.3409 315.402 48.9489 316.527 48.5749C317.651 48.2009 318.26 46.9859 317.885 45.8609L316.529 41.7889Z" fill="#98A1AF"/>
<path opacity="0.2" d="M317.327 48.085C317.105 48.298 316.838 48.471 316.526 48.574C315.402 48.948 314.186 48.34 313.812 47.216L312.456 43.144L314.19 42.567L315.546 46.6389C315.818 47.4519 316.53 47.988 317.327 48.085Z" fill="#646D7A"/>
<path d="M308.391 30.899L308.395 31.476C308.402 32.449 307.782 33.316 306.858 33.623L306.311 33.805C304.247 34.492 304.268 37.42 306.342 38.077L306.892 38.251C307.82 38.545 308.452 39.403 308.459 40.376L308.463 40.953C308.479 43.129 311.269 44.013 312.536 42.244L312.872 41.775C313.438 40.984 314.45 40.647 315.377 40.941L315.927 41.115C318.001 41.772 319.705 39.392 318.413 37.641L318.071 37.177C317.493 36.394 317.486 35.328 318.052 34.537L318.388 34.068C319.654 32.299 317.916 29.943 315.852 30.63L315.305 30.812C314.382 31.119 313.366 30.797 312.788 30.014L312.446 29.55C311.153 27.799 308.375 28.723 308.391 30.899Z" fill="#81EA2F"/>
<path opacity="0.2" d="M310.822 30.0899L310.826 30.6669C310.833 31.6399 310.213 32.5069 309.289 32.8139L308.742 32.9959C306.678 33.6829 306.699 36.6109 308.773 37.2679L309.323 37.4419C310.251 37.7359 310.883 38.5939 310.89 39.5669L310.894 40.1439C310.902 41.2499 311.628 42.0199 312.506 42.2789C311.227 43.9969 308.479 43.1129 308.463 40.9529L308.459 40.3759C308.452 39.4029 307.819 38.5449 306.892 38.2509L306.342 38.0769C304.268 37.4199 304.247 34.4919 306.311 33.8049L306.858 33.6229C307.781 33.3159 308.402 32.4489 308.395 31.4759L308.391 30.8989C308.379 29.2659 309.94 28.3379 311.266 28.7169C310.989 29.0819 310.818 29.5469 310.822 30.0899Z" fill="#646D7A"/>
<path opacity="0.3" d="M316.123 32.446C314.867 32.807 313.57 32.697 312.409 32.108C312.152 32.082 311.888 31.885 311.898 31.554C311.899 31.529 311.899 31.505 311.9 31.48C311.909 31.171 312.337 30.949 312.598 31.098C313.577 31.656 314.674 31.826 315.765 31.512C316.38 31.335 316.742 32.268 316.123 32.446Z" fill="white"/>
<path opacity="0.3" d="M316.746 35.623C316.705 36.205 317.066 36.666 317.358 37.151C317.619 37.585 317.811 38.018 317.87 38.526C317.945 39.167 316.95 39.275 316.876 38.635C316.733 37.408 315.502 36.672 315.758 35.328C315.845 34.87 316.568 34.719 316.719 35.224L316.751 35.331C316.783 35.44 316.772 35.535 316.746 35.623Z" fill="white"/>
<path opacity="0.3" d="M317.161 34.516L317.082 34.542C316.472 34.745 316.112 33.812 316.724 33.608L316.803 33.582C317.413 33.379 317.774 34.312 317.161 34.516Z" fill="white"/>
<path opacity="0.05" d="M385.067 21.592C391.029 21.592 395.863 16.7585 395.863 10.796C395.863 4.83354 391.029 0 385.067 0C379.105 0 374.271 4.83354 374.271 10.796C374.271 16.7585 379.105 21.592 385.067 21.592Z" fill="white"/>
<path opacity="0.05" d="M385.067 20.007C390.154 20.007 394.278 15.8831 394.278 10.796C394.278 5.70893 390.154 1.58502 385.067 1.58502C379.98 1.58502 375.856 5.70893 375.856 10.796C375.856 15.8831 379.98 20.007 385.067 20.007Z" fill="white"/>
<path opacity="0.05" d="M385.067 18.236C389.176 18.236 392.507 14.905 392.507 10.796C392.507 6.68702 389.176 3.35602 385.067 3.35602C380.958 3.35602 377.627 6.68702 377.627 10.796C377.627 14.905 380.958 18.236 385.067 18.236Z" fill="white"/>
<path d="M389.109 14.8737L385.653 16.243L386.626 18.7002L390.083 17.3309L389.109 14.8737Z" fill="#626B77"/>
<path d="M390.265 16.992L386.275 18.573L387.856 22.563C388.292 23.665 389.54 24.204 390.641 23.768C391.743 23.331 392.282 22.084 391.845 20.983L390.265 16.992Z" fill="#98A1AF"/>
<path opacity="0.2" d="M391.413 23.234C391.203 23.459 390.946 23.646 390.641 23.767C389.539 24.203 388.292 23.664 387.856 22.563L386.275 18.573L387.975 17.9L389.556 21.89C389.871 22.686 390.611 23.182 391.413 23.234Z" fill="#646D7A"/>
<path d="M381.531 6.57298L381.567 7.14898C381.628 8.11998 381.057 9.01998 380.153 9.37898L379.617 9.59098C377.594 10.392 377.779 13.314 379.886 13.855L380.445 13.998C381.388 14.24 382.067 15.061 382.129 16.032L382.165 16.608C382.302 18.78 385.138 19.507 386.303 17.67L386.612 17.183C387.133 16.361 388.124 15.969 389.067 16.21L389.626 16.353C391.734 16.894 393.302 14.421 391.914 12.745L391.546 12.301C390.925 11.551 390.858 10.488 391.379 9.66598L391.688 9.17898C392.853 7.34198 390.987 5.08598 388.964 5.88798L388.428 6.09998C387.523 6.45798 386.491 6.19398 385.87 5.44398L385.502 4.99998C384.115 3.32298 381.394 4.40198 381.531 6.57298Z" fill="#F95919"/>
<path opacity="0.2" d="M383.913 5.629L383.949 6.205C384.01 7.176 383.439 8.076 382.535 8.435L381.999 8.647C379.976 9.448 380.161 12.37 382.268 12.911L382.827 13.054C383.77 13.296 384.449 14.117 384.511 15.088L384.547 15.664C384.617 16.768 385.385 17.496 386.275 17.706C385.094 19.493 382.3 18.763 382.164 16.608L382.128 16.032C382.067 15.061 381.387 14.24 380.444 13.998L379.885 13.855C377.777 13.314 377.593 10.393 379.616 9.591L380.152 9.379C381.057 9.021 381.628 8.12 381.566 7.149L381.53 6.573C381.427 4.943 382.934 3.92999 384.279 4.23399C384.023 4.61399 383.879 5.087 383.913 5.629Z" fill="#646D7A"/>
<path opacity="0.3" d="M389.337 7.68601C388.103 8.11701 386.802 8.07901 385.61 7.55601C385.351 7.54401 385.078 7.36201 385.068 7.03101C385.067 7.00601 385.067 6.98201 385.066 6.95701C385.057 6.64801 385.472 6.40301 385.742 6.53701C386.75 7.03901 387.855 7.148 388.927 6.773C389.532 6.563 389.946 7.47301 389.337 7.68601Z" fill="white"/>
<path opacity="0.3" d="M390.137 10.823C390.129 11.407 390.515 11.846 390.834 12.314C391.119 12.733 391.334 13.155 391.422 13.659C391.532 14.294 390.546 14.458 390.435 13.824C390.224 12.606 388.954 11.941 389.134 10.585C389.195 10.123 389.909 9.93098 390.088 10.428L390.126 10.533C390.163 10.638 390.158 10.734 390.137 10.823Z" fill="white"/>
<path opacity="0.3" d="M390.49 9.695L390.413 9.72601C389.816 9.96301 389.404 9.051 390.004 8.814L390.081 8.78301C390.678 8.54601 391.09 9.457 390.49 9.695Z" fill="white"/>
</svg>
