<svg width="439" height="76" viewBox="0 0 439 76" fill="none" xmlns="http://www.w3.org/2000/svg">
<path d="M244.805 52.3964C215.124 52.3964 184.002 50.8184 151.769 47.6694C65.661 39.2594 0.647 22.3124 0 22.1414L0.509001 20.2074C1.155 20.3774 66.042 37.2894 151.997 45.6824C231.281 53.4234 345.214 55.2924 437.742 20.2394L438.451 22.1104C397.416 37.6554 348.824 47.3294 294.024 50.8604C278.132 51.8854 261.7 52.3964 244.805 52.3964Z" fill="#384154"/>
<path opacity="0.05" d="M26.244 47.8567C30.4601 43.6406 30.4601 36.8051 26.244 32.589C22.028 28.373 15.1924 28.373 10.9763 32.589C6.76026 36.8051 6.76025 43.6407 10.9763 47.8567C15.1924 52.0728 22.0279 52.0728 26.244 47.8567Z" fill="white"/>
<path opacity="0.05" d="M25.1233 46.7359C28.7204 43.1388 28.7204 37.3068 25.1233 33.7097C21.5262 30.1127 15.6942 30.1127 12.0971 33.7097C8.5 37.3068 8.5 43.1389 12.0971 46.7359C15.6942 50.333 21.5262 50.333 25.1233 46.7359Z" fill="white"/>
<path opacity="0.05" d="M18.613 47.6654C22.722 47.6654 26.053 44.3344 26.053 40.2254C26.053 36.1164 22.722 32.7854 18.613 32.7854C14.504 32.7854 11.173 36.1164 11.173 40.2254C11.173 44.3344 14.504 47.6654 18.613 47.6654Z" fill="white"/>
<path d="M25.328 41.0304C24.182 45.4684 20.347 48.3144 16.763 47.3894C13.179 46.4634 11.203 42.1154 12.349 37.6784C13.495 33.2404 17.33 30.3944 20.914 31.3194C24.498 32.2454 26.474 36.5924 25.328 41.0304Z" fill="#F95919"/>
<path opacity="0.2" d="M16.199 38.6724C17.131 35.0654 19.839 32.5094 22.746 32.1764C22.198 31.7854 21.584 31.4924 20.913 31.3194C17.329 30.3934 13.494 33.2404 12.348 37.6784C11.202 42.1164 13.178 46.4634 16.762 47.3894C17.433 47.5624 18.112 47.6034 18.781 47.5274C16.4 45.8274 15.268 42.2794 16.199 38.6724Z" fill="#646D7A"/>
<path d="M22.876 32.3014L18.721 31.2284L19.794 27.0734C20.09 25.9264 21.261 25.2364 22.408 25.5324C23.556 25.8284 24.245 26.9994 23.949 28.1464L22.876 32.3014Z" fill="#98A1AF"/>
<path opacity="0.2" d="M23.241 25.9644C23.005 25.7674 22.727 25.6134 22.409 25.5314C21.262 25.2354 20.091 25.9254 19.795 27.0724L18.722 31.2274L20.492 31.6844L21.565 27.5294C21.778 26.7004 22.452 26.1164 23.241 25.9644Z" fill="#646D7A"/>
<g opacity="0.3">
<path d="M23.821 34.5364C23.621 34.0054 22.842 34.4254 23.04 34.9514C23.977 37.4314 23.724 40.0774 22.385 42.3564C22.097 42.8464 22.848 43.3134 23.137 42.8214C24.649 40.2494 24.873 37.3184 23.821 34.5364Z" fill="white"/>
<path d="M21.038 44.0224C20.779 44.4704 20.446 44.8464 20.014 45.1344C19.545 45.4464 19.955 46.2304 20.429 45.9154C20.994 45.5394 21.449 45.0764 21.79 44.4874C22.074 43.9964 21.324 43.5284 21.038 44.0224Z" fill="white"/>
</g>
<path opacity="0.05" d="M97.761 64.1074C103.723 64.1074 108.556 59.2743 108.556 53.3124C108.556 47.3505 103.723 42.5174 97.761 42.5174C91.7991 42.5174 86.966 47.3505 86.966 53.3124C86.966 59.2743 91.7991 64.1074 97.761 64.1074Z" fill="white"/>
<path opacity="0.05" d="M97.761 62.5234C102.848 62.5234 106.972 58.3995 106.972 53.3124C106.972 48.2253 102.848 44.1014 97.761 44.1014C92.6739 44.1014 88.55 48.2253 88.55 53.3124C88.55 58.3995 92.6739 62.5234 97.761 62.5234Z" fill="white"/>
<path opacity="0.05" d="M97.761 60.7524C101.87 60.7524 105.201 57.4214 105.201 53.3124C105.201 49.2034 101.87 45.8724 97.761 45.8724C93.652 45.8724 90.321 49.2034 90.321 53.3124C90.321 57.4214 93.652 60.7524 97.761 60.7524Z" fill="white"/>
<path d="M104.402 54.2144C103.786 58.7554 100.312 62.0334 96.644 61.5364C92.976 61.0384 90.502 56.9534 91.119 52.4114C91.735 47.8694 95.209 44.5914 98.877 45.0894C102.545 45.5874 105.019 49.6734 104.402 54.2144Z" fill="#E51F4A"/>
<path opacity="0.2" d="M95.06 52.9464C95.561 49.2544 97.95 46.3974 100.797 45.7254C100.207 45.4014 99.563 45.1824 98.876 45.0894C95.208 44.5914 91.735 47.8694 91.118 52.4114C90.501 56.9534 92.975 61.0384 96.643 61.5364C97.329 61.6294 98.009 61.5904 98.664 61.4354C96.1 60.0284 94.559 56.6384 95.06 52.9464Z" fill="#646D7A"/>
<path d="M100.941 45.8344L96.688 45.2574L97.2651 41.0044C97.4241 39.8304 98.506 39.0074 99.68 39.1664C100.854 39.3254 101.677 40.4074 101.518 41.5814L100.941 45.8344Z" fill="#98A1AF"/>
<path opacity="0.2" d="M100.558 39.4984C100.3 39.3304 100.006 39.2104 99.681 39.1664C98.507 39.0074 97.425 39.8294 97.266 41.0044L96.689 45.2574L98.501 45.5034L99.078 41.2504C99.192 40.4014 99.792 39.7424 100.558 39.4984Z" fill="#646D7A"/>
<g opacity="0.3">
<path d="M102.143 47.9424C101.882 47.4394 101.158 47.9474 101.417 48.4454C102.639 50.7984 102.699 53.4554 101.638 55.8754C101.41 56.3954 102.21 56.7714 102.439 56.2484C103.637 53.5184 103.514 50.5824 102.143 47.9424Z" fill="white"/>
<path d="M100.494 57.6904C100.29 58.1654 100.003 58.5784 99.6081 58.9154C99.1791 59.2804 99.678 60.0114 100.112 59.6424C100.629 59.2024 101.026 58.6894 101.296 58.0644C101.52 57.5424 100.72 57.1664 100.494 57.6904Z" fill="white"/>
</g>
<path opacity="0.05" d="M172.551 73.5954C178.513 73.5954 183.346 68.7623 183.346 62.8004C183.346 56.8385 178.513 52.0054 172.551 52.0054C166.589 52.0054 161.756 56.8385 161.756 62.8004C161.756 68.7623 166.589 73.5954 172.551 73.5954Z" fill="white"/>
<path opacity="0.05" d="M172.551 72.0114C177.638 72.0114 181.762 67.8875 181.762 62.8004C181.762 57.7133 177.638 53.5894 172.551 53.5894C167.464 53.5894 163.34 57.7133 163.34 62.8004C163.34 67.8875 167.464 72.0114 172.551 72.0114Z" fill="white"/>
<path opacity="0.05" d="M172.551 70.2404C176.66 70.2404 179.991 66.9094 179.991 62.8004C179.991 58.6914 176.66 55.3604 172.551 55.3604C168.442 55.3604 165.111 58.6914 165.111 62.8004C165.111 66.9094 168.442 70.2404 172.551 70.2404Z" fill="white"/>
<path d="M179.278 62.8074C178.883 67.3734 175.573 70.8164 171.885 70.4974C168.197 70.1784 165.528 66.2184 165.923 61.6514C166.318 57.0854 169.628 53.6424 173.316 53.9614C177.004 54.2804 179.673 58.2414 179.278 62.8074Z" fill="#7836D6"/>
<path opacity="0.2" d="M169.885 61.9944C170.206 58.2824 172.454 55.3134 175.265 54.5034C174.66 54.2084 174.006 54.0214 173.316 53.9614C169.628 53.6424 166.318 57.0854 165.923 61.6514C165.528 66.2174 168.197 70.1774 171.885 70.4974C172.575 70.5574 173.252 70.4844 173.898 70.2984C171.268 69.0174 169.564 65.7064 169.885 61.9944Z" fill="#646D7A"/>
<path d="M175.414 54.6044L171.138 54.2344L171.508 49.9584C171.61 48.7774 172.65 47.9034 173.831 48.0054C175.012 48.1074 175.886 49.1474 175.784 50.3284L175.414 54.6044Z" fill="#98A1AF"/>
<path opacity="0.2" d="M174.724 48.2954C174.458 48.1404 174.159 48.0344 173.832 48.0064C172.651 47.9044 171.611 48.7784 171.509 49.9594L171.139 54.2354L172.96 54.3934L173.33 50.1174C173.404 49.2634 173.971 48.5754 174.724 48.2954Z" fill="#646D7A"/>
<g opacity="0.3">
<path d="M176.717 56.6524C176.431 56.1624 175.733 56.7054 176.016 57.1904C177.351 59.4814 177.54 62.1324 176.597 64.6014C176.394 65.1314 177.212 65.4684 177.416 64.9354C178.479 62.1494 178.214 59.2224 176.717 56.6524Z" fill="white"/>
<path d="M175.543 66.4694C175.362 66.9534 175.096 67.3804 174.718 67.7354C174.307 68.1214 174.841 68.8264 175.256 68.4364C175.751 67.9724 176.123 67.4404 176.362 66.8024C176.561 66.2714 175.744 65.9344 175.543 66.4694Z" fill="white"/>
</g>
<path opacity="0.05" d="M243.66 75.5574C249.622 75.5574 254.455 70.7243 254.455 64.7624C254.455 58.8005 249.622 53.9674 243.66 53.9674C237.698 53.9674 232.865 58.8005 232.865 64.7624C232.865 70.7243 237.698 75.5574 243.66 75.5574Z" fill="white"/>
<path opacity="0.05" d="M243.66 73.9734C248.747 73.9734 252.871 69.8495 252.871 64.7624C252.871 59.6753 248.747 55.5514 243.66 55.5514C238.573 55.5514 234.449 59.6753 234.449 64.7624C234.449 69.8495 238.573 73.9734 243.66 73.9734Z" fill="white"/>
<path opacity="0.05" d="M243.66 72.2024C247.769 72.2024 251.1 68.8714 251.1 64.7624C251.1 60.6534 247.769 57.3224 243.66 57.3224C239.551 57.3224 236.22 60.6534 236.22 64.7624C236.22 68.8714 239.551 72.2024 243.66 72.2024Z" fill="white"/>
<path d="M250.887 64.4144C251.107 68.9924 248.289 72.8474 244.592 73.0264C240.895 73.2044 237.718 69.6374 237.498 65.0604C237.278 60.4824 240.096 56.6274 243.794 56.4484C247.49 56.2694 250.667 59.8364 250.887 64.4144Z" fill="#37AFD3"/>
<path opacity="0.2" d="M241.47 64.8684C241.291 61.1474 243.12 57.9034 245.797 56.7234C245.158 56.5124 244.484 56.4144 243.793 56.4474C240.096 56.6254 237.277 60.4814 237.497 65.0594C237.718 69.6374 240.894 73.2044 244.591 73.0254C245.283 72.9924 245.943 72.8294 246.56 72.5584C243.782 71.6424 241.65 68.5894 241.47 64.8684Z" fill="#646D7A"/>
<path d="M245.959 56.8044L241.672 57.0114L241.465 52.7244C241.408 51.5404 242.321 50.5344 243.505 50.4774C244.689 50.4204 245.695 51.3334 245.752 52.5174L245.959 56.8044Z" fill="#98A1AF"/>
<path opacity="0.2" d="M244.429 50.6444C244.145 50.5264 243.834 50.4614 243.506 50.4774C242.322 50.5344 241.409 51.5404 241.466 52.7244L241.673 57.0114L243.499 56.9234L243.292 52.6364C243.25 51.7804 243.72 51.0234 244.429 50.6444Z" fill="#646D7A"/>
<g opacity="0.3">
<path d="M247.524 58.6584C247.175 58.2114 246.556 58.8424 246.901 59.2854C248.531 61.3764 249.074 63.9784 248.471 66.5514C248.341 67.1044 249.197 67.3284 249.327 66.7724C250.008 63.8704 249.352 61.0044 247.524 58.6584Z" fill="white"/>
<path d="M247.677 68.5444C247.562 69.0484 247.356 69.5074 247.029 69.9104C246.674 70.3474 247.297 70.9744 247.656 70.5334C248.084 70.0064 248.382 69.4304 248.533 68.7664C248.659 68.2114 247.804 67.9874 247.677 68.5444Z" fill="white"/>
</g>
<path opacity="0.05" d="M324.992 71.6274C330.954 71.6274 335.787 66.7943 335.787 60.8324C335.787 54.8705 330.954 50.0374 324.992 50.0374C319.03 50.0374 314.197 54.8705 314.197 60.8324C314.197 66.7943 319.03 71.6274 324.992 71.6274Z" fill="white"/>
<path opacity="0.05" d="M324.992 70.0434C330.079 70.0434 334.203 65.9195 334.203 60.8324C334.203 55.7453 330.079 51.6214 324.992 51.6214C319.905 51.6214 315.781 55.7453 315.781 60.8324C315.781 65.9195 319.905 70.0434 324.992 70.0434Z" fill="white"/>
<path opacity="0.05" d="M324.992 68.2724C329.101 68.2724 332.432 64.9414 332.432 60.8324C332.432 56.7234 329.101 53.3924 324.992 53.3924C320.883 53.3924 317.552 56.7234 317.552 60.8324C317.552 64.9414 320.883 68.2724 324.992 68.2724Z" fill="white"/>
<path d="M331.557 59.0424C332.482 63.5314 330.292 67.7754 326.667 68.5224C323.041 69.2694 319.353 66.2354 318.428 61.7464C317.503 57.2574 319.693 53.0134 323.318 52.2664C326.944 51.5204 330.632 54.5534 331.557 59.0424Z" fill="#81EA2F"/>
<path opacity="0.2" d="M322.323 60.9444C321.571 57.2954 322.878 53.8074 325.341 52.2294C324.677 52.1194 323.996 52.1264 323.318 52.2664C319.692 53.0134 317.503 57.2574 318.428 61.7464C319.353 66.2354 323.041 69.2684 326.667 68.5224C327.345 68.3824 327.973 68.1204 328.54 67.7574C325.653 67.2814 323.075 64.5944 322.323 60.9444Z" fill="#646D7A"/>
<path d="M325.513 52.2844L321.31 53.1504L320.444 48.9474C320.205 47.7864 320.952 46.6514 322.113 46.4124C323.274 46.1734 324.409 46.9204 324.648 48.0814L325.513 52.2844Z" fill="#98A1AF"/>
<path opacity="0.2" d="M323.05 46.4354C322.751 46.3624 322.434 46.3464 322.112 46.4124C320.951 46.6514 320.204 47.7864 320.443 48.9474L321.309 53.1504L323.099 52.7814L322.233 48.5784C322.061 47.7394 322.408 46.9184 323.05 46.4354Z" fill="#646D7A"/>
<g opacity="0.3">
<path d="M327.346 53.8754C326.932 53.4874 326.418 54.2064 326.828 54.5914C328.761 56.4054 329.7 58.8924 329.5 61.5274C329.457 62.0934 330.337 62.1834 330.38 61.6134C330.604 58.6404 329.514 55.9104 327.346 53.8754Z" fill="white"/>
<path d="M329.023 63.6184C328.988 64.1344 328.855 64.6194 328.593 65.0674C328.309 65.5544 329.022 66.0774 329.309 65.5854C329.65 64.9994 329.856 64.3834 329.902 63.7044C329.942 63.1384 329.062 63.0484 329.023 63.6184Z" fill="white"/>
</g>
<path opacity="0.05" d="M407.321 54.5334C411.537 50.3174 411.537 43.4818 407.321 39.2657C403.105 35.0497 396.269 35.0496 392.053 39.2657C387.837 43.4818 387.837 50.3174 392.053 54.5334C396.269 58.7495 403.105 58.7495 407.321 54.5334Z" fill="white"/>
<path opacity="0.05" d="M406.2 53.4127C409.797 49.8156 409.797 43.9836 406.2 40.3865C402.603 36.7894 396.771 36.7894 393.174 40.3865C389.577 43.9836 389.577 49.8156 393.174 53.4127C396.771 57.0097 402.603 57.0097 406.2 53.4127Z" fill="white"/>
<path opacity="0.05" d="M399.693 54.3394C403.802 54.3394 407.133 51.0084 407.133 46.8994C407.133 42.7904 403.802 39.4594 399.693 39.4594C395.584 39.4594 392.253 42.7904 392.253 46.8994C392.253 51.0084 395.584 54.3394 399.693 54.3394Z" fill="white"/>
<path d="M406.148 45.0924C407.384 49.5054 405.496 53.8924 401.931 54.8904C398.366 55.8884 394.475 53.1194 393.239 48.7064C392.003 44.2934 393.891 39.9064 397.456 38.9084C401.021 37.9104 404.912 40.6784 406.148 45.0924Z" fill="#F95919"/>
<path opacity="0.2" d="M397.069 47.6344C396.064 44.0464 397.124 40.4764 399.471 38.7304C398.801 38.6674 398.123 38.7224 397.456 38.9084C393.891 39.9064 392.003 44.2934 393.239 48.7064C394.475 53.1194 398.366 55.8884 401.931 54.8904C402.598 54.7034 403.206 54.3984 403.746 53.9964C400.833 53.7224 398.074 51.2224 397.069 47.6344Z" fill="#646D7A"/>
<path d="M399.646 38.7724L395.513 39.9294L394.356 35.7964C394.037 34.6554 394.703 33.4714 395.844 33.1514C396.985 32.8314 398.169 33.4984 398.489 34.6394L399.646 38.7724Z" fill="#98A1AF"/>
<path opacity="0.2" d="M396.782 33.1094C396.479 33.0574 396.161 33.0634 395.845 33.1524C394.704 33.4714 394.038 34.6564 394.357 35.7974L395.514 39.9304L397.274 39.4374L396.117 35.3044C395.886 34.4794 396.175 33.6364 396.782 33.1094Z" fill="#646D7A"/>
<g opacity="0.3">
<path d="M401.586 40.2314C401.146 39.8734 400.683 40.6264 401.119 40.9814C403.174 42.6564 404.284 45.0724 404.269 47.7144C404.266 48.2824 405.149 48.3094 405.153 47.7394C405.169 44.7574 403.891 42.1104 401.586 40.2314Z" fill="white"/>
<path d="M403.939 49.8334C403.94 50.3504 403.841 50.8434 403.612 51.3094C403.363 51.8144 404.111 52.2874 404.362 51.7764C404.662 51.1674 404.824 50.5394 404.823 49.8584C404.822 49.2904 403.939 49.2624 403.939 49.8334Z" fill="white"/>
</g>
<path opacity="0.05" d="M61.309 31.0044C67.2715 31.0044 72.105 26.1709 72.105 20.2084C72.105 14.2459 67.2715 9.41241 61.309 9.41241C55.3465 9.41241 50.513 14.2459 50.513 20.2084C50.513 26.1709 55.3465 31.0044 61.309 31.0044Z" fill="white"/>
<path opacity="0.05" d="M61.309 29.4194C66.3961 29.4194 70.52 25.2955 70.52 20.2084C70.52 15.1213 66.3961 10.9974 61.309 10.9974C56.2219 10.9974 52.098 15.1213 52.098 20.2084C52.098 25.2955 56.2219 29.4194 61.309 29.4194Z" fill="white"/>
<path opacity="0.05" d="M61.309 27.6484C65.418 27.6484 68.749 24.3174 68.749 20.2084C68.749 16.0994 65.418 12.7684 61.309 12.7684C57.2 12.7684 53.869 16.0994 53.869 20.2084C53.869 24.3174 57.2 27.6484 61.309 27.6484Z" fill="white"/>
<path d="M67.506 22.7884C69.041 18.4704 67.458 13.9644 63.97 12.7244C60.482 11.4844 56.41 13.9804 54.875 18.2984C53.34 22.6164 54.923 27.1224 58.411 28.3624C61.899 29.6024 65.971 27.1064 67.506 22.7884Z" fill="#D83535"/>
<path opacity="0.2" d="M58.622 19.6304C57.374 23.1414 58.187 26.7754 60.409 28.6784C59.736 28.6954 59.063 28.5944 58.411 28.3624C54.923 27.1224 53.34 22.6164 54.875 18.2984C56.41 13.9794 60.482 11.4844 63.97 12.7244C64.623 12.9564 65.208 13.3024 65.719 13.7404C62.795 13.8144 59.87 16.1194 58.622 19.6304Z" fill="#646D7A"/>
<path d="M60.587 28.6474L56.543 27.2104L55.106 31.2544C54.709 32.3714 55.293 33.5984 56.409 33.9954C57.526 34.3924 58.753 33.8084 59.15 32.6924L60.587 28.6474Z" fill="#98A1AF"/>
<path opacity="0.2" d="M57.341 34.1014C57.035 34.1324 56.718 34.1044 56.409 33.9944C55.292 33.5974 54.709 32.3704 55.106 31.2534L56.543 27.2094L58.265 27.8214L56.828 31.8654C56.541 32.6734 56.772 33.5344 57.341 34.1014Z" fill="#646D7A"/>
<g opacity="0.3">
<path d="M62.622 27.3254C62.159 27.6524 61.748 26.8694 62.207 26.5444C64.372 25.0144 65.644 22.6804 65.811 20.0434C65.847 19.4764 66.73 19.5094 66.694 20.0794C66.506 23.0544 65.05 25.6084 62.622 27.3254Z" fill="white"/>
<path d="M65.627 17.9064C65.663 17.3904 65.599 16.8924 65.401 16.4114C65.187 15.8904 65.966 15.4704 66.182 15.9964C66.439 16.6244 66.558 17.2624 66.51 17.9414C66.471 18.5084 65.587 18.4764 65.627 17.9064Z" fill="white"/>
</g>
<path opacity="0.05" d="M138.989 41.8094C144.951 41.8094 149.784 36.9763 149.784 31.0144C149.784 25.0525 144.951 20.2194 138.989 20.2194C133.027 20.2194 128.194 25.0525 128.194 31.0144C128.194 36.9763 133.027 41.8094 138.989 41.8094Z" fill="white"/>
<path opacity="0.05" d="M138.989 40.2254C144.076 40.2254 148.2 36.1015 148.2 31.0144C148.2 25.9273 144.076 21.8034 138.989 21.8034C133.902 21.8034 129.778 25.9273 129.778 31.0144C129.778 36.1015 133.902 40.2254 138.989 40.2254Z" fill="white"/>
<path opacity="0.05" d="M138.989 38.4544C143.098 38.4544 146.429 35.1234 146.429 31.0144C146.429 26.9054 143.098 23.5744 138.989 23.5744C134.88 23.5744 131.549 26.9054 131.549 31.0144C131.549 35.1234 134.88 38.4544 138.989 38.4544Z" fill="white"/>
<path d="M145.391 33.2284C146.247 28.7254 143.994 24.5154 140.357 23.8234C136.721 23.1314 133.078 26.2214 132.222 30.7234C131.366 35.2254 133.619 39.4364 137.256 40.1284C140.893 40.8204 144.535 37.7304 145.391 33.2284Z" fill="#C928EA"/>
<path opacity="0.2" d="M136.129 31.4664C135.433 35.1264 136.792 38.5934 139.279 40.1344C138.617 40.2544 137.936 40.2574 137.256 40.1274C133.619 39.4354 131.366 35.2254 132.222 30.7224C133.078 26.2194 136.721 23.1304 140.357 23.8224C141.037 23.9514 141.669 24.2044 142.241 24.5594C139.363 25.0804 136.825 27.8064 136.129 31.4664Z" fill="#646D7A"/>
<path d="M139.45 40.0774L135.234 39.2754L134.432 43.4914C134.211 44.6554 134.975 45.7794 136.139 46.0004C137.303 46.2214 138.426 45.4574 138.648 44.2934L139.45 40.0774Z" fill="#98A1AF"/>
<path opacity="0.2" d="M137.077 45.9634C136.779 46.0404 136.462 46.0614 136.139 46.0004C134.975 45.7794 134.21 44.6554 134.432 43.4914L135.234 39.2754L137.03 39.6174L136.228 43.8334C136.068 44.6744 136.428 45.4904 137.077 45.9634Z" fill="#646D7A"/>
<g opacity="0.3">
<path d="M141.259 38.4594C140.851 38.8534 140.326 38.1424 140.73 37.7514C142.636 35.9074 143.536 33.4064 143.297 30.7754C143.246 30.2104 144.124 30.1074 144.175 30.6754C144.444 33.6444 143.396 36.3904 141.259 38.4594Z" fill="white"/>
<path d="M142.788 28.6914C142.745 28.1764 142.605 27.6934 142.336 27.2484C142.045 26.7664 142.75 26.2314 143.044 26.7194C143.394 27.3004 143.609 27.9134 143.666 28.5914C143.714 29.1574 142.836 29.2604 142.788 28.6914Z" fill="white"/>
</g>
<path opacity="0.05" d="M221.534 39.2186C222.897 33.4142 219.297 27.6033 213.493 26.2397C207.688 24.8761 201.878 28.4761 200.514 34.2806C199.15 40.085 202.75 45.8959 208.555 47.2595C214.359 48.6231 220.17 45.0231 221.534 39.2186Z" fill="white"/>
<path opacity="0.05" d="M211.022 45.9584C216.109 45.9584 220.233 41.8345 220.233 36.7474C220.233 31.6603 216.109 27.5364 211.022 27.5364C205.935 27.5364 201.811 31.6603 201.811 36.7474C201.811 41.8345 205.935 45.9584 211.022 45.9584Z" fill="white"/>
<path opacity="0.05" d="M211.022 44.1874C215.131 44.1874 218.462 40.8564 218.462 36.7474C218.462 32.6384 215.131 29.3074 211.022 29.3074C206.913 29.3074 203.582 32.6384 203.582 36.7474C203.582 40.8564 206.913 44.1874 211.022 44.1874Z" fill="white"/>
<path d="M217.661 38.2054C218.293 33.6664 215.833 29.5724 212.167 29.0614C208.501 28.5514 205.016 31.8164 204.384 36.3564C203.752 40.8954 206.212 44.9894 209.878 45.5004C213.544 46.0104 217.029 42.7444 217.661 38.2054Z" fill="#363ED6"/>
<path opacity="0.2" d="M208.323 36.9044C207.809 40.5944 209.339 43.9904 211.899 45.4054C211.243 45.5574 210.564 45.5944 209.878 45.4994C206.212 44.9894 203.752 40.8954 204.384 36.3554C205.016 31.8164 208.501 28.5504 212.167 29.0604C212.853 29.1554 213.496 29.3774 214.085 29.7024C211.236 30.3664 208.837 33.2144 208.323 36.9044Z" fill="#646D7A"/>
<path d="M212.067 45.3404L207.816 44.7484L207.224 48.9994C207.061 50.1734 207.88 51.2574 209.053 51.4204C210.227 51.5844 211.311 50.7644 211.474 49.5914L212.067 45.3404Z" fill="#98A1AF"/>
<path opacity="0.2" d="M209.988 51.3374C209.694 51.4294 209.379 51.4664 209.053 51.4204C207.879 51.2564 207.06 50.1724 207.224 48.9994L207.816 44.7484L209.627 45.0004L209.035 49.2514C208.916 50.0994 209.316 50.8964 209.988 51.3374Z" fill="#646D7A"/>
<g opacity="0.3">
<path d="M213.793 43.6344C213.405 44.0484 212.845 43.3634 213.229 42.9534C215.041 41.0174 215.816 38.4754 215.447 35.8584C215.368 35.2964 216.24 35.1504 216.319 35.7154C216.736 38.6684 215.825 41.4624 213.793 43.6344Z" fill="white"/>
<path d="M214.836 33.8034C214.767 33.2904 214.603 32.8154 214.314 32.3844C213.999 31.9174 214.677 31.3484 214.995 31.8214C215.374 32.3844 215.618 32.9854 215.709 33.6604C215.784 34.2224 214.912 34.3684 214.836 33.8034Z" fill="white"/>
</g>
<path opacity="0.05" d="M287.839 46.4753C293.353 44.2086 295.986 37.9005 293.719 32.3858C291.452 26.8711 285.144 24.2381 279.63 26.5048C274.116 28.7716 271.483 35.0797 273.75 40.5943C276.017 46.109 282.325 48.742 287.839 46.4753Z" fill="white"/>
<path opacity="0.05" d="M283.729 45.7144C288.816 45.7144 292.94 41.5905 292.94 36.5034C292.94 31.4163 288.816 27.2924 283.729 27.2924C278.642 27.2924 274.518 31.4163 274.518 36.5034C274.518 41.5905 278.642 45.7144 283.729 45.7144Z" fill="white"/>
<path opacity="0.05" d="M283.729 43.9434C287.838 43.9434 291.169 40.6124 291.169 36.5034C291.169 32.3944 287.838 29.0634 283.729 29.0634C279.62 29.0634 276.289 32.3944 276.289 36.5034C276.289 40.6124 279.62 43.9434 283.729 43.9434Z" fill="white"/>
<path d="M290.546 36.8314C290.339 32.2524 287.174 28.6764 283.476 28.8434C279.778 29.0104 276.948 32.8574 277.154 37.4354C277.361 42.0134 280.526 45.5904 284.224 45.4234C287.922 45.2564 290.753 41.4104 290.546 36.8314Z" fill="#36D6B7"/>
<path opacity="0.2" d="M281.128 37.2564C281.296 40.9784 283.419 44.0374 286.194 44.9624C285.577 45.2324 284.916 45.3924 284.224 45.4234C280.526 45.5904 277.361 42.0134 277.154 37.4354C276.947 32.8574 279.778 29.0104 283.476 28.8434C284.168 28.8124 284.841 28.9124 285.479 29.1254C282.799 30.2964 280.96 33.5344 281.128 37.2564Z" fill="#646D7A"/>
<path d="M286.347 44.8674L282.06 45.0604L282.253 49.3474C282.306 50.5314 283.31 51.4474 284.493 51.3944C285.677 51.3414 286.593 50.3384 286.54 49.1544L286.347 44.8674Z" fill="#98A1AF"/>
<path opacity="0.2" d="M285.397 51.1424C285.125 51.2864 284.821 51.3804 284.493 51.3944C283.309 51.4474 282.306 50.5314 282.253 49.3474L282.06 45.0604L283.886 44.9784L284.08 49.2654C284.118 50.1214 284.656 50.8324 285.397 51.1424Z" fill="#646D7A"/>
<g opacity="0.3">
<path d="M287.733 42.8754C287.427 43.3534 286.752 42.7824 287.055 42.3084C288.483 40.0744 288.782 37.4334 287.941 34.9284C287.76 34.3904 288.591 34.0874 288.773 34.6284C289.721 37.4554 289.335 40.3694 287.733 42.8754Z" fill="white"/>
<path d="M286.966 33.0184C286.805 32.5274 286.557 32.0894 286.194 31.7194C285.799 31.3174 286.362 30.6344 286.761 31.0414C287.236 31.5254 287.586 32.0724 287.798 32.7194C287.974 33.2584 287.144 33.5614 286.966 33.0184Z" fill="white"/>
</g>
<path opacity="0.05" d="M370.152 31.4529C371.516 25.6485 367.916 19.8376 362.111 18.474C356.307 17.1104 350.496 20.7104 349.132 26.5149C347.769 32.3193 351.369 38.1302 357.173 39.4938C362.978 40.8574 368.789 37.2574 370.152 31.4529Z" fill="white"/>
<path opacity="0.05" d="M368.603 31.0548C369.767 26.1025 366.696 21.1443 361.744 19.9804C356.791 18.8165 351.833 21.8875 350.669 26.8398C349.505 31.7921 352.576 36.7503 357.529 37.9142C362.481 39.0781 367.439 36.0071 368.603 31.0548Z" fill="white"/>
<path opacity="0.05" d="M359.64 36.4224C363.749 36.4224 367.08 33.0914 367.08 28.9824C367.08 24.8734 363.749 21.5424 359.64 21.5424C355.531 21.5424 352.2 24.8734 352.2 28.9824C352.2 33.0914 355.531 36.4224 359.64 36.4224Z" fill="white"/>
<path d="M366.23 27.7594C365.394 23.2534 361.765 20.1474 358.126 20.8234C354.486 21.4984 352.214 25.6994 353.05 30.2054C353.886 34.7114 357.515 37.8174 361.154 37.1414C364.794 36.4664 367.066 32.2654 366.23 27.7594Z" fill="#D6B736"/>
<path opacity="0.2" d="M356.96 29.4804C357.64 33.1434 360.165 35.8804 363.041 36.4144C362.467 36.7664 361.834 37.0164 361.154 37.1424C357.514 37.8184 353.886 34.7124 353.05 30.2064C352.214 25.7004 354.486 21.4994 358.126 20.8244C358.807 20.6984 359.487 20.7044 360.149 20.8274C357.655 22.3554 356.28 25.8164 356.96 29.4804Z" fill="#646D7A"/>
<path d="M363.18 36.2984L358.96 37.0814L359.743 41.3014C359.959 42.4664 361.079 43.2364 362.244 43.0194C363.409 42.8034 364.178 41.6834 363.962 40.5184L363.18 36.2984Z" fill="#98A1AF"/>
<path opacity="0.2" d="M363.105 42.6444C362.855 42.8244 362.568 42.9594 362.245 43.0194C361.08 43.2354 359.96 42.4664 359.744 41.3014L358.961 37.0814L360.759 36.7474L361.542 40.9674C361.697 41.8094 362.328 42.4384 363.105 42.6444Z" fill="#646D7A"/>
<g opacity="0.3">
<path d="M364.278 34.1334C364.041 34.6494 363.293 34.1764 363.528 33.6654C364.634 31.2564 364.565 28.5984 363.388 26.2334C363.135 25.7254 363.916 25.3104 364.17 25.8214C365.499 28.4914 365.519 31.4304 364.278 34.1334Z" fill="white"/>
<path d="M362.158 24.4774C361.931 24.0134 361.625 23.6144 361.214 23.2974C360.768 22.9534 361.231 22.1994 361.682 22.5474C362.219 22.9614 362.642 23.4544 362.941 24.0664C363.19 24.5754 362.409 24.9904 362.158 24.4774Z" fill="white"/>
</g>
<path opacity="0.05" d="M423.266 24.0747C428.78 21.808 431.412 15.4999 429.145 9.98522C426.878 4.47054 420.571 1.83754 415.056 4.10426C409.542 6.37098 406.91 12.6791 409.177 18.1937C411.444 23.7084 417.752 26.3414 423.266 24.0747Z" fill="white"/>
<path opacity="0.05" d="M428.225 15.5733C429.042 10.5523 425.634 5.81976 420.613 5.00277C415.592 4.18578 410.86 7.59378 410.043 12.6147C409.226 17.6357 412.634 22.3683 417.655 23.1853C422.676 24.0023 427.408 20.5943 428.225 15.5733Z" fill="white"/>
<path opacity="0.05" d="M419.158 21.5454C423.267 21.5454 426.598 18.2144 426.598 14.1054C426.598 9.99641 423.267 6.66541 419.158 6.66541C415.049 6.66541 411.718 9.99641 411.718 14.1054C411.718 18.2144 415.049 21.5454 419.158 21.5454Z" fill="white"/>
<path d="M425.654 12.4524C424.524 8.01039 420.699 5.15042 417.112 6.06342C413.525 6.97642 411.533 11.3174 412.663 15.7584C413.793 20.2004 417.618 23.0604 421.205 22.1474C424.792 21.2344 426.784 16.8934 425.654 12.4524Z" fill="#F22525"/>
<path opacity="0.2" d="M416.517 14.7774C417.436 18.3884 420.135 20.9534 423.04 21.2974C422.491 21.6864 421.875 21.9774 421.204 22.1484C417.617 23.0614 413.792 20.2004 412.662 15.7594C411.532 11.3174 413.524 6.97738 417.111 6.06438C417.782 5.89338 418.461 5.85541 419.13 5.93441C416.743 7.62241 415.598 11.1664 416.517 14.7774Z" fill="#646D7A"/>
<path d="M423.171 21.1724L419.012 22.2304L420.07 26.3894C420.362 27.5374 421.53 28.2324 422.679 27.9394C423.827 27.6474 424.522 26.4794 424.229 25.3304L423.171 21.1724Z" fill="#98A1AF"/>
<path opacity="0.2" d="M423.513 27.5104C423.276 27.7064 422.997 27.8594 422.679 27.9404C421.531 28.2324 420.363 27.5384 420.07 26.3904L419.012 22.2314L420.784 21.7804L421.842 25.9394C422.053 26.7694 422.724 27.3554 423.513 27.5104Z" fill="#646D7A"/>
<g opacity="0.3">
<path d="M424.124 18.9404C423.922 19.4704 423.144 19.0484 423.345 18.5234C424.291 16.0464 424.048 13.3994 422.717 11.1164C422.431 10.6264 423.183 10.1614 423.471 10.6544C424.972 13.2304 425.185 16.1624 424.124 18.9404Z" fill="white"/>
<path d="M421.375 9.44441C421.118 8.99641 420.786 8.61841 420.355 8.32841C419.887 8.01441 420.3 7.23242 420.772 7.54942C421.335 7.92742 421.789 8.39141 422.128 8.98241C422.411 9.47441 421.659 9.93941 421.375 9.44441Z" fill="white"/>
</g>
</svg>
