<svg width="439" height="61" viewBox="0 0 439 61" fill="none" xmlns="http://www.w3.org/2000/svg">
<path d="M136.358 37.545C114.152 37.545 94.772 35.416 78.829 32.589C31.617 24.217 3.48698 8.06801 3.20898 7.90601L4.21498 6.177C4.49098 6.338 32.381 22.336 79.275 30.636C122.544 38.294 191.311 40.777 273.186 9.10901L273.656 8.927L274.083 9.19801C274.29 9.33001 295.219 22.465 325.655 29.647C353.685 36.262 395.763 39.035 437.039 14.681L438.055 16.404C396.185 41.11 353.536 38.293 325.129 31.578C296.805 24.883 276.613 13.076 273.445 11.154C221.433 31.2 174.685 37.545 136.358 37.545Z" fill="#384154"/>
<path opacity="0.05" d="M10.796 35.577C16.7585 35.577 21.592 30.7435 21.592 24.781C21.592 18.8185 16.7585 13.985 10.796 13.985C4.83354 13.985 0 18.8185 0 24.781C0 30.7435 4.83354 35.577 10.796 35.577Z" fill="white"/>
<path opacity="0.05" d="M10.796 33.992C15.8831 33.992 20.007 29.8681 20.007 24.781C20.007 19.6939 15.8831 15.57 10.796 15.57C5.70893 15.57 1.58502 19.6939 1.58502 24.781C1.58502 29.8681 5.70893 33.992 10.796 33.992Z" fill="white"/>
<path opacity="0.05" d="M10.796 32.221C14.905 32.221 18.236 28.89 18.236 24.781C18.236 20.672 14.905 17.341 10.796 17.341C6.68702 17.341 3.35602 20.672 3.35602 24.781C3.35602 28.89 6.68702 32.221 10.796 32.221Z" fill="white"/>
<path d="M17.1 25.679C18.424 22.354 16.777 18.582 13.422 17.301C10.242 16.087 6.52002 17.684 5.20802 20.825C4.15502 23.347 4.83102 26.143 6.67502 27.923L6.65702 27.931L7.80702 30.605C7.92702 30.883 8.24902 31.011 8.52702 30.892L11.2 29.742L11.192 29.724C13.722 29.698 16.106 28.174 17.1 25.679Z" fill="#81EA2F"/>
<path opacity="0.2" d="M10.63 29.513L10.648 29.505C8.80402 27.724 8.12802 24.929 9.18102 22.407C10.221 19.917 12.775 18.404 15.374 18.486C14.814 17.993 14.162 17.583 13.422 17.301C10.242 16.087 6.52002 17.684 5.20802 20.825C4.15502 23.347 4.83102 26.143 6.67502 27.923L6.65702 27.931L7.80702 30.605C7.92702 30.883 8.24902 31.011 8.52702 30.892L10.801 29.913L10.63 29.513Z" fill="#646D7A"/>
<path d="M15.366 18.473L11.379 16.885L12.967 12.898C13.406 11.797 14.654 11.26 15.755 11.699C16.856 12.138 17.393 13.386 16.954 14.487L15.366 18.473Z" fill="#98A1AF"/>
<path opacity="0.2" d="M16.526 12.233C16.316 12.008 16.06 11.82 15.755 11.698C14.654 11.259 13.406 11.796 12.967 12.897L11.379 16.884L13.077 17.561L14.665 13.574C14.983 12.778 15.724 12.284 16.526 12.233Z" fill="#646D7A"/>
<path opacity="0.3" d="M16.36 24.451C16.42 23.813 15.434 23.643 15.374 24.285C15.233 25.776 14.291 26.992 12.807 27.328C12.187 27.469 12.274 28.466 12.9 28.324C14.816 27.889 16.172 26.433 16.36 24.451Z" fill="white"/>
<path opacity="0.3" d="M16.423 22.898C16.502 22.346 16.437 21.815 16.203 21.307C15.936 20.726 14.999 21.075 15.268 21.661C15.432 22.016 15.492 22.342 15.437 22.732C15.346 23.369 16.332 23.536 16.423 22.898Z" fill="white"/>
<path opacity="0.05" d="M57.176 25.325C63.1379 25.325 67.971 20.4919 67.971 14.53C67.971 8.56807 63.1379 3.73499 57.176 3.73499C51.2141 3.73499 46.381 8.56807 46.381 14.53C46.381 20.4919 51.2141 25.325 57.176 25.325Z" fill="white"/>
<path opacity="0.05" d="M57.176 23.741C62.2631 23.741 66.387 19.6171 66.387 14.53C66.387 9.44287 62.2631 5.31897 57.176 5.31897C52.0889 5.31897 47.965 9.44287 47.965 14.53C47.965 19.6171 52.0889 23.741 57.176 23.741Z" fill="white"/>
<path opacity="0.05" d="M57.176 21.97C61.285 21.97 64.616 18.639 64.616 14.53C64.616 10.421 61.285 7.08997 57.176 7.08997C53.067 7.08997 49.736 10.421 49.736 14.53C49.736 18.639 53.067 21.97 57.176 21.97Z" fill="white"/>
<path d="M63.197 17.393C61.962 20.752 58.215 22.458 54.863 21.17C51.686 19.949 49.982 16.274 51.105 13.061C52.006 10.481 54.377 8.85198 56.939 8.75898L56.931 8.74098L59.573 7.51998C59.848 7.39298 60.173 7.51298 60.3 7.78698L61.521 10.429L61.503 10.437C63.369 12.145 64.124 14.872 63.197 17.393Z" fill="#D6B736"/>
<path opacity="0.2" d="M60.944 10.217L60.952 10.235C58.39 10.328 56.019 11.957 55.118 14.537C54.228 17.084 55.119 19.917 57.107 21.592C56.36 21.585 55.602 21.454 54.863 21.17C51.686 19.949 49.982 16.274 51.105 13.061C52.006 10.481 54.377 8.85196 56.939 8.75896L56.931 8.74096L59.573 7.51996C59.848 7.39296 60.173 7.51296 60.3 7.78796L61.339 10.036L60.944 10.217Z" fill="#646D7A"/>
<path d="M57.094 21.597L53.066 20.116L51.585 24.144C51.176 25.256 51.746 26.49 52.858 26.899C53.97 27.308 55.204 26.738 55.613 25.626L57.094 21.597Z" fill="#98A1AF"/>
<path opacity="0.2" d="M53.789 27.015C53.482 27.043 53.166 27.011 52.858 26.898C51.746 26.489 51.176 25.256 51.585 24.143L53.066 20.115L54.782 20.746L53.301 24.774C53.005 25.578 53.226 26.442 53.789 27.015Z" fill="#646D7A"/>
<path opacity="0.3" d="M61.826 17.812C61.445 18.327 60.598 17.795 60.981 17.277C61.872 16.073 61.984 14.539 61.104 13.297C60.737 12.778 61.467 12.094 61.838 12.618C62.975 14.222 63.011 16.212 61.826 17.812Z" fill="white"/>
<path opacity="0.3" d="M60.836 19.01C60.526 19.473 60.123 19.825 59.61 20.047C59.023 20.301 58.559 19.415 59.15 19.159C59.509 19.004 59.772 18.802 59.991 18.475C60.349 17.94 61.195 18.475 60.836 19.01Z" fill="white"/>
<path opacity="0.05" d="M102.994 56.7892C108.508 54.5224 111.141 48.2144 108.874 42.6997C106.607 37.185 100.299 34.552 94.7848 36.8187C89.2706 39.0854 86.6382 45.3935 88.9051 50.9082C91.172 56.4229 97.4799 59.0559 102.994 56.7892Z" fill="white"/>
<path opacity="0.05" d="M98.888 56.02C103.975 56.02 108.099 51.8961 108.099 46.809C108.099 41.7219 103.975 37.598 98.888 37.598C93.8009 37.598 89.677 41.7219 89.677 46.809C89.677 51.8961 93.8009 56.02 98.888 56.02Z" fill="white"/>
<path opacity="0.05" d="M98.888 54.249C102.997 54.249 106.328 50.918 106.328 46.809C106.328 42.7 102.997 39.369 98.888 39.369C94.779 39.369 91.448 42.7 91.448 46.809C91.448 50.918 94.779 54.249 98.888 54.249Z" fill="white"/>
<path d="M105.229 46.995C105.795 43.461 103.363 40.14 99.809 39.623C96.44 39.133 93.157 41.505 92.563 44.856C92.086 47.547 93.357 50.127 95.546 51.462L95.53 51.474L97.237 53.832C97.414 54.077 97.757 54.132 98.002 53.954L100.359 52.247L100.348 52.231C102.812 51.655 104.805 49.647 105.229 46.995Z" fill="#F95919"/>
<path opacity="0.2" d="M99.754 52.151L99.7699 52.14C97.5809 50.805 96.31 48.225 96.787 45.534C97.257 42.877 99.42 40.843 101.973 40.354C101.318 39.995 100.593 39.738 99.81 39.624C96.442 39.134 93.158 41.506 92.564 44.857C92.087 47.548 93.3579 50.128 95.5469 51.463L95.5309 51.475L97.2379 53.832C97.4149 54.077 97.7579 54.132 98.0029 53.955L100.009 52.503L99.754 52.151Z" fill="#646D7A"/>
<path d="M101.964 40.342L97.726 39.663L98.405 35.425C98.592 34.255 99.6929 33.458 100.863 33.646C102.033 33.834 102.83 34.934 102.642 36.104L101.964 40.342Z" fill="#98A1AF"/>
<path opacity="0.2" d="M101.732 34C101.478 33.826 101.187 33.699 100.863 33.647C99.6929 33.46 98.592 34.256 98.405 35.426L97.726 39.664L99.5309 39.953L100.21 35.715C100.345 34.869 100.961 34.224 101.732 34Z" fill="#646D7A"/>
<path opacity="0.3" d="M104.239 45.958C104.158 45.322 103.159 45.372 103.24 46.011C103.428 47.497 102.775 48.889 101.4 49.542C100.826 49.815 101.128 50.769 101.708 50.494C103.484 49.651 104.489 47.934 104.239 45.958Z" fill="white"/>
<path opacity="0.3" d="M103.962 44.429C103.918 43.874 103.739 43.369 103.4 42.924C103.012 42.415 102.174 42.961 102.565 43.474C102.802 43.785 102.932 44.09 102.963 44.482C103.014 45.124 104.012 45.071 103.962 44.429Z" fill="white"/>
<path opacity="0.05" d="M193.877 55.184C199.839 55.184 204.672 50.3509 204.672 44.389C204.672 38.4271 199.839 33.594 193.877 33.594C187.915 33.594 183.082 38.4271 183.082 44.389C183.082 50.3509 187.915 55.184 193.877 55.184Z" fill="white"/>
<path opacity="0.05" d="M193.877 53.6C198.964 53.6 203.088 49.4761 203.088 44.389C203.088 39.3019 198.964 35.178 193.877 35.178C188.79 35.178 184.666 39.3019 184.666 44.389C184.666 49.4761 188.79 53.6 193.877 53.6Z" fill="white"/>
<path opacity="0.05" d="M193.877 51.829C197.986 51.829 201.317 48.498 201.317 44.389C201.317 40.28 197.986 36.949 193.877 36.949C189.768 36.949 186.437 40.28 186.437 44.389C186.437 48.498 189.768 51.829 193.877 51.829Z" fill="white"/>
<path d="M200.128 42.659C199.662 39.111 196.383 36.622 192.83 37.14C189.462 37.632 186.992 40.842 187.379 44.224C187.69 46.939 189.645 49.05 192.123 49.704L192.111 49.719L194.42 51.492C194.66 51.676 195.004 51.631 195.188 51.391L196.961 49.082L196.945 49.07C199.14 47.815 200.477 45.322 200.128 42.659Z" fill="#E51F4A"/>
<path opacity="0.2" d="M196.351 49.163L196.363 49.147C193.884 48.492 191.93 46.382 191.619 43.667C191.312 40.986 192.804 38.419 195.112 37.223C194.382 37.066 193.614 37.026 192.83 37.141C189.462 37.633 186.992 40.843 187.379 44.224C187.69 46.939 189.645 49.05 192.123 49.704L192.111 49.719L194.42 51.491C194.66 51.675 195.004 51.63 195.188 51.39L196.696 49.426L196.351 49.163Z" fill="#646D7A"/>
<path d="M195.099 37.215L190.844 37.774L190.285 33.519C190.131 32.344 190.958 31.266 192.133 31.112C193.308 30.958 194.386 31.785 194.54 32.96L195.099 37.215Z" fill="#98A1AF"/>
<path opacity="0.2" d="M193.067 31.202C192.774 31.108 192.459 31.069 192.133 31.111C190.958 31.265 190.13 32.343 190.285 33.518L190.844 37.773L192.657 37.535L192.098 33.28C191.986 32.431 192.392 31.638 193.067 31.202Z" fill="#646D7A"/>
<path opacity="0.3" d="M198.883 41.948C198.624 41.361 197.681 41.695 197.941 42.284C198.545 43.654 198.316 45.175 197.185 46.193C196.713 46.618 197.275 47.446 197.752 47.017C199.213 45.703 199.686 43.77 198.883 41.948Z" fill="white"/>
<path opacity="0.3" d="M198.18 40.561C197.979 40.041 197.664 39.609 197.212 39.279C196.695 38.902 196.047 39.664 196.568 40.044C196.884 40.275 197.096 40.53 197.237 40.896C197.47 41.498 198.412 41.163 198.18 40.561Z" fill="white"/>
<path opacity="0.05" d="M283.497 39.972C289.459 39.972 294.292 35.1389 294.292 29.177C294.292 23.2151 289.459 18.382 283.497 18.382C277.535 18.382 272.702 23.2151 272.702 29.177C272.702 35.1389 277.535 39.972 283.497 39.972Z" fill="white"/>
<path opacity="0.05" d="M283.497 38.388C288.584 38.388 292.708 34.2641 292.708 29.177C292.708 24.0899 288.584 19.966 283.497 19.966C278.41 19.966 274.286 24.0899 274.286 29.177C274.286 34.2641 278.41 38.388 283.497 38.388Z" fill="white"/>
<path opacity="0.05" d="M283.497 36.617C287.606 36.617 290.937 33.286 290.937 29.177C290.937 25.068 287.606 21.737 283.497 21.737C279.388 21.737 276.057 25.068 276.057 29.177C276.057 33.286 279.388 36.617 283.497 36.617Z" fill="white"/>
<path d="M289.806 30.693C291.129 27.368 289.48 23.596 286.125 22.317C282.945 21.104 279.223 22.702 277.912 25.844C276.86 28.366 277.537 31.162 279.382 32.942L279.364 32.95L280.515 35.623C280.635 35.901 280.957 36.029 281.235 35.909L283.908 34.758L283.9 34.74C286.431 34.714 288.813 33.188 289.806 30.693Z" fill="#7836D6"/>
<path opacity="0.2" d="M283.338 34.53L283.356 34.522C281.511 32.742 280.834 29.947 281.886 27.424C282.925 24.934 285.479 23.42 288.077 23.5C287.516 23.007 286.865 22.598 286.125 22.315C282.945 21.102 279.223 22.7 277.912 25.842C276.86 28.364 277.537 31.16 279.382 32.94L279.364 32.948L280.515 35.621C280.635 35.899 280.957 36.027 281.235 35.907L283.509 34.928L283.338 34.53Z" fill="#646D7A"/>
<path d="M288.07 23.488L284.083 21.901L285.67 17.913C286.108 16.812 287.356 16.274 288.457 16.712C289.558 17.15 290.096 18.398 289.657 19.499L288.07 23.488Z" fill="#98A1AF"/>
<path opacity="0.2" d="M289.228 17.247C289.018 17.022 288.762 16.834 288.457 16.713C287.356 16.275 286.108 16.812 285.67 17.913L284.083 21.901L285.782 22.577L287.369 18.589C287.685 17.793 288.426 17.299 289.228 17.247Z" fill="#646D7A"/>
<path opacity="0.3" d="M289.066 29.465C289.126 28.827 288.14 28.658 288.08 29.299C287.939 30.79 286.998 32.006 285.514 32.343C284.894 32.484 284.981 33.481 285.607 33.339C287.524 32.904 288.879 31.448 289.066 29.465Z" fill="white"/>
<path opacity="0.3" d="M289.129 27.912C289.207 27.36 289.143 26.8291 288.909 26.3211C288.642 25.7401 287.704 26.09 287.974 26.675C288.138 27.03 288.198 27.356 288.143 27.746C288.052 28.384 289.038 28.55 289.129 27.912Z" fill="white"/>
<path opacity="0.05" d="M377.669 57.934C383.632 57.934 388.465 53.1005 388.465 47.138C388.465 41.1755 383.632 36.342 377.669 36.342C371.707 36.342 366.873 41.1755 366.873 47.138C366.873 53.1005 371.707 57.934 377.669 57.934Z" fill="white"/>
<path opacity="0.05" d="M377.668 56.349C382.755 56.349 386.879 52.2251 386.879 47.138C386.879 42.0509 382.755 37.927 377.668 37.927C372.581 37.927 368.457 42.0509 368.457 47.138C368.457 52.2251 372.581 56.349 377.668 56.349Z" fill="white"/>
<path opacity="0.05" d="M377.668 54.578C381.777 54.578 385.108 51.247 385.108 47.138C385.108 43.029 381.777 39.698 377.668 39.698C373.559 39.698 370.228 43.029 370.228 47.138C370.228 51.247 373.559 54.578 377.668 54.578Z" fill="white"/>
<path d="M384.009 45.346C383.443 41.813 380.095 39.417 376.558 40.036C373.205 40.623 370.827 43.901 371.31 47.271C371.698 49.976 373.711 52.031 376.207 52.615L376.196 52.631L378.554 54.337C378.799 54.515 379.142 54.46 379.319 54.215L381.026 51.857L381.01 51.846C383.168 50.529 384.433 47.999 384.009 45.346Z" fill="#37AFD3"/>
<path opacity="0.2" d="M380.417 51.955L380.429 51.939C377.933 51.355 375.92 49.3 375.532 46.595C375.149 43.924 376.568 41.316 378.841 40.055C378.107 39.918 377.338 39.901 376.558 40.037C373.205 40.624 370.827 43.902 371.31 47.272C371.698 49.977 373.711 52.032 376.207 52.616L376.196 52.632L378.554 54.338C378.799 54.516 379.142 54.461 379.319 54.215L380.771 52.209L380.417 51.955Z" fill="#646D7A"/>
<path d="M378.828 40.047L374.59 40.726L373.911 36.488C373.723 35.318 374.52 34.217 375.69 34.03C376.86 33.843 377.961 34.639 378.148 35.809L378.828 40.047Z" fill="#98A1AF"/>
<path opacity="0.2" d="M376.627 34.094C376.331 34.008 376.015 33.978 375.691 34.03C374.521 34.218 373.724 35.318 373.912 36.488L374.591 40.726L376.396 40.437L375.717 36.199C375.581 35.353 375.965 34.548 376.627 34.094Z" fill="#646D7A"/>
<path opacity="0.3" d="M382.744 44.671C382.469 44.092 381.535 44.452 381.812 45.033C382.455 46.386 382.269 47.912 381.167 48.962C380.707 49.4 381.292 50.212 381.757 49.77C383.18 48.415 383.599 46.47 382.744 44.671Z" fill="white"/>
<path opacity="0.3" d="M382.003 43.305C381.788 42.791 381.46 42.368 380.999 42.051C380.472 41.689 379.846 42.469 380.377 42.834C380.699 43.055 380.918 43.304 381.07 43.667C381.319 44.261 382.252 43.899 382.003 43.305Z" fill="white"/>
<path opacity="0.05" d="M142.361 35.577C148.323 35.577 153.157 30.7435 153.157 24.781C153.157 18.8185 148.323 13.985 142.361 13.985C136.399 13.985 131.565 18.8185 131.565 24.781C131.565 30.7435 136.399 35.577 142.361 35.577Z" fill="white"/>
<path opacity="0.05" d="M142.361 33.992C147.448 33.992 151.572 29.8681 151.572 24.781C151.572 19.6939 147.448 15.57 142.361 15.57C137.274 15.57 133.15 19.6939 133.15 24.781C133.15 29.8681 137.274 33.992 142.361 33.992Z" fill="white"/>
<path opacity="0.05" d="M142.361 32.221C146.47 32.221 149.801 28.89 149.801 24.781C149.801 20.672 146.47 17.341 142.361 17.341C138.252 17.341 134.921 20.672 134.921 24.781C134.921 28.89 138.252 32.221 142.361 32.221Z" fill="white"/>
<path d="M148.417 25.343C148.256 28.918 145.202 31.678 141.617 31.465C138.219 31.263 135.484 28.276 135.581 24.873C135.659 22.141 137.426 19.871 139.839 19.007L139.826 18.993L141.974 17.03C142.197 16.826 142.544 16.842 142.748 17.065L144.711 19.213L144.697 19.226C146.992 20.29 148.538 22.66 148.417 25.343Z" fill="#F22525"/>
<path opacity="0.2" d="M144.098 19.186L144.111 19.2C141.698 20.064 139.931 22.334 139.853 25.066C139.776 27.763 141.482 30.193 143.883 31.188C143.169 31.407 142.407 31.512 141.616 31.465C138.218 31.263 135.483 28.276 135.58 24.873C135.658 22.141 137.425 19.871 139.838 19.007L139.825 18.993L141.973 17.03C142.196 16.826 142.543 16.842 142.747 17.065L144.417 18.893L144.098 19.186Z" fill="#646D7A"/>
<path d="M143.872 31.197L139.585 31.004L139.392 35.291C139.339 36.475 140.255 37.478 141.439 37.531C142.623 37.584 143.626 36.668 143.679 35.484L143.872 31.197Z" fill="#98A1AF"/>
<path opacity="0.2" d="M142.361 37.361C142.077 37.48 141.766 37.546 141.438 37.531C140.254 37.478 139.338 36.475 139.391 35.291L139.584 31.004L141.41 31.086L141.217 35.373C141.179 36.229 141.651 36.985 142.361 37.361Z" fill="#646D7A"/>
<path opacity="0.3" d="M147.237 26.157C147.029 26.764 146.061 26.512 146.27 25.903C146.755 24.486 146.397 22.991 145.183 22.073C144.676 21.69 145.165 20.817 145.677 21.204C147.245 22.388 147.882 24.274 147.237 26.157Z" fill="white"/>
<path opacity="0.3" d="M146.656 27.599C146.501 28.134 146.223 28.592 145.801 28.959C145.318 29.379 144.608 28.675 145.094 28.251C145.389 27.994 145.578 27.722 145.688 27.344C145.868 26.726 146.835 26.98 146.656 27.599Z" fill="white"/>
<path opacity="0.05" d="M232.507 21.59C238.469 21.59 243.302 16.7569 243.302 10.795C243.302 4.83308 238.469 0 232.507 0C226.545 0 221.712 4.83308 221.712 10.795C221.712 16.7569 226.545 21.59 232.507 21.59Z" fill="white"/>
<path opacity="0.05" d="M232.507 20.006C237.594 20.006 241.718 15.8821 241.718 10.795C241.718 5.70789 237.594 1.58398 232.507 1.58398C227.42 1.58398 223.296 5.70789 223.296 10.795C223.296 15.8821 227.42 20.006 232.507 20.006Z" fill="white"/>
<path opacity="0.05" d="M232.507 18.235C236.616 18.235 239.947 14.904 239.947 10.795C239.947 6.68598 236.616 3.35498 232.507 3.35498C228.398 3.35498 225.067 6.68598 225.067 10.795C225.067 14.904 228.398 18.235 232.507 18.235Z" fill="white"/>
<path d="M238.952 10.198C239.724 13.692 237.49 17.151 233.973 17.874C230.639 18.56 227.222 16.385 226.434 13.074C225.801 10.416 226.918 7.76499 229.025 6.30499L229.009 6.29498L230.575 3.84098C230.738 3.58598 231.076 3.51098 231.332 3.67398L233.785 5.23998L233.775 5.25598C236.266 5.68798 238.373 7.57598 238.952 10.198Z" fill="#C928EA"/>
<path opacity="0.2" d="M233.185 5.37196L233.201 5.38196C231.094 6.84296 229.977 9.49296 230.61 12.151C231.235 14.776 233.513 16.68 236.091 17.018C235.458 17.415 234.75 17.714 233.974 17.874C230.64 18.56 227.223 16.385 226.435 13.074C225.802 10.416 226.919 7.76496 229.026 6.30496L229.01 6.29496L230.576 3.84196C230.739 3.58696 231.077 3.51196 231.333 3.67496L233.42 5.00696L233.185 5.37196Z" fill="#646D7A"/>
<path d="M236.082 17.031L231.891 17.957L232.817 22.148C233.073 23.305 234.218 24.036 235.375 23.78C236.532 23.524 237.263 22.379 237.007 21.222L236.082 17.031Z" fill="#98A1AF"/>
<path opacity="0.2" d="M236.222 23.376C235.979 23.565 235.696 23.709 235.375 23.78C234.218 24.036 233.072 23.305 232.817 22.148L231.891 17.957L233.676 17.563L234.602 21.754C234.787 22.59 235.439 23.197 236.222 23.376Z" fill="#646D7A"/>
<path opacity="0.3" d="M238.025 11.291C237.982 11.931 236.981 11.939 237.025 11.296C237.126 9.80099 236.392 8.44999 234.981 7.87899C234.392 7.64099 234.638 6.66999 235.233 6.91099C237.054 7.64899 238.159 9.304 238.025 11.291Z" fill="white"/>
<path opacity="0.3" d="M237.837 12.834C237.826 13.391 237.676 13.905 237.364 14.369C237.007 14.9 236.138 14.404 236.498 13.869C236.717 13.544 236.829 13.233 236.837 12.839C236.85 12.196 237.85 12.19 237.837 12.834Z" fill="white"/>
<path opacity="0.05" d="M330.126 30.762C336.088 30.762 340.922 25.9284 340.922 19.966C340.922 14.0035 336.088 9.16998 330.126 9.16998C324.164 9.16998 319.33 14.0035 319.33 19.966C319.33 25.9284 324.164 30.762 330.126 30.762Z" fill="white"/>
<path opacity="0.05" d="M330.126 29.177C335.213 29.177 339.337 25.0531 339.337 19.966C339.337 14.8789 335.213 10.755 330.126 10.755C325.039 10.755 320.915 14.8789 320.915 19.966C320.915 25.0531 325.039 29.177 330.126 29.177Z" fill="white"/>
<path opacity="0.05" d="M330.126 27.406C334.235 27.406 337.566 24.075 337.566 19.966C337.566 15.857 334.235 12.526 330.126 12.526C326.017 12.526 322.686 15.857 322.686 19.966C322.686 24.075 326.017 27.406 330.126 27.406Z" fill="white"/>
<path d="M336.252 21.896C335.213 25.321 331.572 27.242 328.151 26.15C324.908 25.115 322.995 21.545 323.929 18.272C324.679 15.644 326.952 13.881 329.504 13.639L329.495 13.622L332.062 12.25C332.329 12.107 332.661 12.208 332.804 12.475L334.176 15.042L334.159 15.051C336.12 16.648 337.032 19.326 336.252 21.896Z" fill="#363ED6"/>
<path opacity="0.2" d="M333.588 14.863L333.597 14.88C331.045 15.121 328.772 16.885 328.022 19.513C327.282 22.107 328.335 24.884 330.416 26.441C329.67 26.477 328.906 26.391 328.151 26.15C324.908 25.115 322.995 21.545 323.929 18.272C324.679 15.644 326.952 13.881 329.504 13.639L329.495 13.622L332.062 12.25C332.329 12.107 332.661 12.208 332.803 12.475L333.97 14.659L333.588 14.863Z" fill="#646D7A"/>
<path d="M330.403 26.447L326.296 25.201L325.05 29.308C324.706 30.442 325.347 31.64 326.481 31.984C327.615 32.328 328.813 31.687 329.157 30.553L330.403 26.447Z" fill="#98A1AF"/>
<path opacity="0.2" d="M327.417 32.047C327.113 32.093 326.795 32.079 326.481 31.984C325.347 31.64 324.706 30.442 325.05 29.308L326.296 25.201L328.046 25.732L326.8 29.839C326.551 30.659 326.822 31.507 327.417 32.047Z" fill="#646D7A"/>
<path opacity="0.3" d="M334.908 22.394C334.557 22.93 333.681 22.448 334.033 21.909C334.853 20.655 334.875 19.118 333.925 17.929C333.528 17.433 334.218 16.707 334.619 17.208C335.846 18.744 335.998 20.728 334.908 22.394Z" fill="white"/>
<path opacity="0.3" d="M333.989 23.648C333.706 24.128 333.324 24.503 332.825 24.755C332.253 25.043 331.739 24.185 332.315 23.895C332.665 23.719 332.915 23.502 333.115 23.163C333.441 22.608 334.316 23.092 333.989 23.648Z" fill="white"/>
<path opacity="0.05" d="M416.866 23.906C422.828 23.906 427.661 19.0729 427.661 13.111C427.661 7.14907 422.828 2.31598 416.866 2.31598C410.904 2.31598 406.071 7.14907 406.071 13.111C406.071 19.0729 410.904 23.906 416.866 23.906Z" fill="white"/>
<path opacity="0.05" d="M416.866 22.322C421.953 22.322 426.077 18.1981 426.077 13.111C426.077 8.02387 421.953 3.89996 416.866 3.89996C411.779 3.89996 407.655 8.02387 407.655 13.111C407.655 18.1981 411.779 22.322 416.866 22.322Z" fill="white"/>
<path opacity="0.05" d="M416.866 20.551C420.975 20.551 424.306 17.22 424.306 13.111C424.306 9.00196 420.975 5.67096 416.866 5.67096C412.757 5.67096 409.426 9.00196 409.426 13.111C409.426 17.22 412.757 20.551 416.866 20.551Z" fill="white"/>
<path d="M422.643 10.306C424.206 13.525 422.836 17.408 419.584 18.929C416.501 20.371 412.672 19.049 411.136 16.012C409.902 13.574 410.374 10.736 412.084 8.82596L412.065 8.81997L413.018 6.06997C413.117 5.78397 413.429 5.63296 413.715 5.73196L416.465 6.68496L416.459 6.70296C418.983 6.54196 421.471 7.88897 422.643 10.306Z" fill="#36D6B7"/>
<path opacity="0.2" d="M415.912 6.95196L415.93 6.95797C414.22 8.86797 413.749 11.706 414.983 14.144C416.201 16.552 418.859 17.875 421.444 17.605C420.921 18.138 420.301 18.593 419.584 18.929C416.501 20.371 412.672 19.049 411.136 16.012C409.902 13.574 410.374 10.736 412.084 8.82596L412.065 8.81997L413.018 6.06997C413.117 5.78397 413.429 5.63296 413.715 5.73196L416.055 6.54297L415.912 6.95196Z" fill="#646D7A"/>
<path d="M421.438 17.618L417.577 19.492L419.451 23.353C419.968 24.419 421.252 24.864 422.318 24.347C423.384 23.83 423.829 22.546 423.311 21.48L421.438 17.618Z" fill="#98A1AF"/>
<path opacity="0.2" d="M423.049 23.757C422.856 23.997 422.614 24.203 422.319 24.346C421.253 24.863 419.969 24.419 419.452 23.353L417.578 19.492L419.223 18.694L421.097 22.555C421.47 23.326 422.245 23.765 423.049 23.757Z" fill="#646D7A"/>
<path opacity="0.3" d="M421.995 11.584C422.102 12.216 421.131 12.457 421.024 11.822C420.775 10.345 419.747 9.20097 418.242 8.97297C417.614 8.87797 417.628 7.87697 418.262 7.97297C420.205 8.26697 421.664 9.62097 421.995 11.584Z" fill="white"/>
<path opacity="0.3" d="M422.171 13.1289C422.289 13.6729 422.264 14.2079 422.068 14.7319C421.844 15.3309 420.883 15.051 421.11 14.447C421.247 14.081 421.284 13.7509 421.2 13.3669C421.062 12.7369 422.034 12.4989 422.171 13.1289Z" fill="white"/>
</svg>
