<svg width="182" height="201" viewBox="0 0 182 201" fill="none" xmlns="http://www.w3.org/2000/svg">
<path d="M181.844 196.033C181.844 198.532 145.7 200.557 101.113 200.557C56.527 200.557 20.382 198.531 20.382 196.033C20.382 193.534 56.526 191.508 101.113 191.508C145.7 191.509 181.844 193.535 181.844 196.033Z" fill="#95A4BC"/>
<path d="M94.81 101.926C94.768 101.926 94.744 101.926 94.736 101.926C93.909 101.909 93.253 101.224 93.268 100.397C93.285 99.5686 93.935 98.9436 94.796 98.9256C95.974 98.9576 123.981 99.1036 128.92 68.3176C129.052 67.4986 129.823 66.9416 130.639 67.0736C131.457 67.2056 132.014 67.9746 131.883 68.7926C126.65 101.41 96.525 101.926 94.81 101.926Z" fill="#343B54"/>
<path d="M130.856 70.0896C130.633 70.0896 130.407 70.0716 130.175 70.0366C126.277 69.4416 123.981 64.6916 123.732 64.1516C123.385 63.3996 123.714 62.5076 124.466 62.1616C125.218 61.8166 126.108 62.1426 126.455 62.8936C126.949 63.9536 128.662 66.7716 130.628 67.0716C132.242 67.3226 134.258 64.6386 134.968 63.2996C135.358 62.5696 136.266 62.2916 136.997 62.6796C137.728 63.0676 138.006 63.9756 137.618 64.7076C137.311 65.2856 134.644 70.0896 130.856 70.0896Z" fill="#343B54"/>
<path d="M130.402 70.0546C130.395 70.0546 130.387 70.0546 130.38 70.0546C129.552 70.0416 128.891 69.3606 128.902 68.5326L128.986 62.8676C128.999 62.0476 129.668 61.3896 130.486 61.3896C130.493 61.3896 130.501 61.3896 130.509 61.3896C131.337 61.4026 131.998 62.0836 131.986 62.9116L131.902 68.5766C131.889 69.3976 131.22 70.0546 130.402 70.0546Z" fill="#343B54"/>
<path d="M34.074 89.2536C21.766 99.1646 0 99.5476 0 99.5476C1.054 110.314 3.644 120.137 12.511 126.101C25.174 126.158 32.333 111.81 43.532 99.6756L34.074 89.2536Z" fill="#D3964C"/>
<path d="M66.321 196.033C97.3019 196.033 122.417 170.918 122.417 139.937C122.417 108.956 97.3019 83.8406 66.321 83.8406C35.34 83.8406 10.225 108.956 10.225 139.937C10.225 170.918 35.34 196.033 66.321 196.033Z" fill="white"/>
<path d="M72.469 190.473C42.036 190.473 17.366 165.802 17.366 135.37C17.366 116.011 27.358 98.9946 42.458 89.1656C23.413 98.1336 10.225 117.492 10.225 139.937C10.225 170.918 35.34 196.033 66.321 196.033C82.867 196.033 97.736 188.866 108.004 177.471C98.409 185.578 86.014 190.473 72.469 190.473Z" fill="#EBF0F7"/>
<path d="M66.295 102.565C86.8002 102.565 103.423 85.9418 103.423 65.4366C103.423 44.9314 86.8002 28.3086 66.295 28.3086C45.7898 28.3086 29.167 44.9314 29.167 65.4366C29.167 85.9418 45.7898 102.565 66.295 102.565Z" fill="white"/>
<path d="M70.969 31.5256C69.219 30.9796 67.364 30.8736 65.531 30.8296C63.73 30.7866 61.928 30.8006 60.128 30.8716C58.655 30.9296 57.127 31.0406 55.837 31.7546C54.923 32.2596 52.642 33.1646 52.759 34.3226C54.802 46.6736 67.083 48.3226 70.802 47.8296C69.935 47.6996 69.189 47.1146 68.672 46.4066C68.155 45.6986 67.834 44.8696 67.519 44.0516C70.977 45.9806 75.519 45.7746 78.788 43.5386C77.583 42.9306 76.469 42.1406 75.498 41.2026C77.835 41.9726 82.601 42.1206 84.501 39.8626C79.599 39.9076 76.791 33.1846 70.969 31.5256Z" fill="#EBF0F7"/>
<path d="M71.202 97.4946C50.697 97.4946 34.074 80.8716 34.074 60.3666C34.074 54.1236 36.264 48.4756 38.988 43.3136C56.134 32.8016 84.309 33.7326 84.648 33.1656C61.956 29.0796 41.144 38.5186 42.192 37.2076C34.224 44.0176 29.166 54.1336 29.166 65.4366C29.166 85.9416 45.789 102.565 66.294 102.565C78.037 102.565 88.5 97.1066 95.304 88.5956C88.818 94.1396 80.404 97.4946 71.202 97.4946Z" fill="#EBF0F7"/>
<path d="M60.3853 16.8516C63.4876 13.7493 63.4876 8.71949 60.3853 5.61719C57.2831 2.5149 52.2532 2.51491 49.151 5.6172C46.0487 8.7195 46.0486 13.7493 49.1509 16.8516C52.2532 19.9539 57.2831 19.9539 60.3853 16.8516Z" fill="white"/>
<path d="M57.132 15.9246C52.745 15.9246 49.188 12.3686 49.188 7.98059C49.188 6.95959 49.388 5.98658 49.738 5.09058C47.961 6.54758 46.826 8.75857 46.826 11.2366C46.826 15.6236 50.382 19.1806 54.77 19.1806C58.136 19.1806 61.006 17.0836 62.163 14.1276C60.794 15.2496 59.042 15.9246 57.132 15.9246Z" fill="#EBF0F7"/>
<path d="M39.531 35.2456L83.036 28.6956C83.036 28.6956 76.725 10.9826 58.08 13.2776C39.435 15.5736 39.531 35.2456 39.531 35.2456Z" fill="#DEA75A"/>
<path d="M56.173 13.5916C39.448 16.9486 39.531 35.2456 39.531 35.2456L44.718 34.4646C44.577 29.8866 45.409 18.6596 56.173 13.5916Z" fill="#D3964C"/>
<path d="M39.379 38.5516L38.996 35.5606C38.943 35.1486 39.184 34.7706 39.554 34.5816C51.511 27.7396 71.554 24.1596 83.306 28.2536C83.704 28.3616 84.032 28.6436 84.088 29.0526L84.492 32.0066C84.573 32.5986 84.08 33.1036 83.485 33.0466C68.619 31.6276 54.003 33.9386 40.642 39.2876C40.077 39.5136 39.456 39.1536 39.379 38.5516Z" fill="white"/>
<path d="M36.071 86.9696C55.929 95.0076 76.518 95.6766 96.309 87.3326C97.972 86.4256 100.748 93.3666 99.381 94.8576C89.767 111.629 51.051 112.721 33.035 95.0296C32.155 93.5666 34.498 86.6866 36.071 86.9696Z" fill="#DEA75A"/>
<path d="M113.705 101.38C117.292 100.157 120.983 99.2916 124.805 99.7176C128.214 100.098 131.601 101.515 134.007 104.006C137.485 107.608 138.214 114.62 135.621 118.916C134.53 120.722 132.302 122.171 130.135 121.581C129.21 121.329 128.407 120.726 127.789 119.992C126.316 118.242 125.798 115.987 125.362 113.801C124.913 111.548 123.863 109.88 121.703 108.988C119.93 108.256 117.717 108.005 115.889 108.69C114.726 109.126 113.69 109.851 112.528 110.292C109.577 111.411 107.107 109.098 107.434 106.036C107.715 103.408 111.093 102.294 113.197 101.556C113.366 101.496 113.535 101.437 113.705 101.38Z" fill="#849CBF"/>
<path d="M110.915 104.269C111.58 105.581 112.282 107.273 113.88 107.43C116.561 106.632 123.018 106.015 125.477 109.44C126.751 110.618 127.385 112.822 129.241 113.213C133.35 114.079 131.918 107.676 130.548 105.906C126.253 100.739 113.737 103.035 110.915 104.269Z" fill="#6C84A8"/>
<path d="M70.738 116.517C70.738 116.517 53.359 115.75 53.028 118.71C53.027 121.939 69.15 122.369 69.15 122.369L70.738 116.517Z" fill="#849CBF"/>
<path d="M88.846 92.7976C88.846 92.7976 99.993 55.7366 110.387 60.5846C120.781 65.4326 96.621 95.6896 96.621 95.6896L88.846 92.7976Z" fill="#849CBF"/>
<path d="M93.31 90.3106C93.31 90.3106 100.465 66.5856 106.453 68.7816C112.441 70.9776 97.802 91.4996 97.802 91.4996L93.31 90.3106Z" fill="#6C84A8"/>
<path d="M113.146 129.704C106.538 138.55 92.533 137.309 80.71 128.478C68.887 119.647 63.724 106.568 70.332 97.7216C76.94 88.8756 93.384 86.8516 105.207 95.6836C117.029 104.515 119.754 120.858 113.146 129.704Z" fill="#849CBF"/>
<path d="M96.587 111.894C95.992 112.691 94.195 113.005 92.958 112.081C91.721 111.157 91.513 109.345 92.108 108.548C92.703 107.751 97.182 111.097 96.587 111.894Z" fill="#353B55"/>
<path d="M88.687 112.226C88.162 111.834 87.795 111.328 87.671 110.782C87.537 110.186 87.628 109.283 88.825 108.364C88.951 108.268 89.132 108.292 89.227 108.417C89.323 108.542 89.3 108.723 89.174 108.819C88.416 109.4 88.09 110.035 88.23 110.655C88.405 111.429 89.292 112.132 90.388 112.366C91.469 112.596 92.439 112.297 92.984 111.567C93.079 111.44 93.258 111.414 93.385 111.509C93.512 111.604 93.538 111.783 93.443 111.91C92.76 112.824 91.574 113.204 90.269 112.926C89.667 112.798 89.123 112.551 88.687 112.226Z" fill="#353B55"/>
<path d="M94.031 116.217C93.595 115.892 93.204 115.44 92.91 114.899C92.273 113.727 92.301 112.481 92.984 111.567C93.079 111.44 93.258 111.414 93.385 111.509C93.512 111.604 93.538 111.783 93.443 111.91C92.898 112.64 92.887 113.656 93.414 114.626C93.948 115.61 94.874 116.262 95.666 116.209C96.301 116.167 96.816 115.674 97.158 114.782C97.215 114.634 97.381 114.561 97.528 114.617C97.675 114.674 97.749 114.84 97.693 114.987C97.152 116.396 96.312 116.74 95.703 116.78C95.145 116.818 94.555 116.609 94.031 116.217Z" fill="#353B55"/>
<path d="M89.091 104.136C88.633 104.749 87.765 104.875 87.151 104.417C86.538 103.959 86.412 103.091 86.87 102.478C87.328 101.865 88.196 101.739 88.81 102.197C89.423 102.655 89.549 103.523 89.091 104.136Z" fill="#353B55"/>
<path d="M103.894 115.194C103.436 115.807 102.568 115.933 101.954 115.475C101.341 115.017 101.215 114.149 101.673 113.536C102.131 112.923 102.999 112.797 103.613 113.255C104.226 113.712 104.352 114.58 103.894 115.194Z" fill="#353B55"/>
<path d="M85.141 104.793C84.82 105.223 83.84 105.033 82.951 104.37C82.063 103.706 81.603 102.82 81.924 102.39C82.245 101.96 83.225 102.15 84.114 102.813C85.002 103.477 85.462 104.363 85.141 104.793Z" fill="#6C84A8"/>
<path d="M105.381 119.912C105.06 120.342 104.08 120.152 103.191 119.489C102.303 118.825 101.843 117.939 102.164 117.509C102.485 117.079 103.465 117.269 104.354 117.932C105.242 118.596 105.702 119.482 105.381 119.912Z" fill="#6C84A8"/>
<path d="M108.034 121.756C107.94 121.686 107.895 121.561 107.932 121.443C107.978 121.292 108.138 121.207 108.29 121.253L110.991 122.078C111.142 122.125 111.227 122.285 111.181 122.436C111.134 122.587 110.975 122.672 110.823 122.626L108.122 121.801C108.089 121.791 108.059 121.775 108.034 121.756Z" fill="#353B55"/>
<path d="M110.019 125.154L107.116 122.985C106.989 122.89 106.963 122.711 107.058 122.584C107.153 122.457 107.332 122.431 107.459 122.526L110.363 124.695C110.49 124.79 110.516 124.969 110.421 125.096C110.325 125.222 110.146 125.248 110.019 125.154Z" fill="#353B55"/>
<path d="M107.757 126.627C107.731 126.608 107.708 126.584 107.689 126.555L106.112 124.165C106.025 124.033 106.061 123.855 106.194 123.768C106.326 123.682 106.502 123.719 106.591 123.85L108.168 126.24C108.255 126.372 108.218 126.55 108.086 126.637C107.983 126.705 107.851 126.698 107.757 126.627Z" fill="#353B55"/>
<path d="M79.403 100.37C79.377 100.351 79.354 100.327 79.335 100.299L77.778 97.9436C77.691 97.8116 77.727 97.6336 77.859 97.5466C77.991 97.4596 78.169 97.4976 78.256 97.6276L79.813 99.9826C79.9 100.115 79.864 100.293 79.732 100.38C79.629 100.448 79.497 100.44 79.403 100.37Z" fill="#353B55"/>
<path d="M78.486 101.598L75.582 99.4286C75.455 99.3336 75.429 99.1546 75.524 99.0276C75.619 98.9006 75.798 98.8746 75.925 98.9696L78.829 101.139C78.956 101.234 78.982 101.413 78.887 101.54C78.792 101.667 78.612 101.693 78.486 101.598Z" fill="#353B55"/>
<path d="M74.811 102.017C74.717 101.947 74.673 101.823 74.708 101.704C74.754 101.553 74.914 101.467 75.066 101.513L77.805 102.347C77.956 102.396 78.041 102.554 77.996 102.705C77.95 102.856 77.79 102.942 77.638 102.896L74.899 102.062C74.867 102.051 74.837 102.036 74.811 102.017Z" fill="#353B55"/>
<path d="M71.788 154.496L72.597 165.445L76.672 165.471L78.776 154.896L71.788 154.496Z" fill="#849CBF"/>
<path d="M72.274 163.292C72.274 163.305 77.242 163.227 77.241 163.214L77.104 165.877C77.104 165.877 77.684 166.218 78.09 166.705C78.359 167.027 78.119 167.518 77.7 167.516L72.983 167.486C72.667 167.484 72.413 167.226 72.415 166.91L72.274 163.292Z" fill="#353B55"/>
<path d="M66.033 150.443L61.202 160.302L57.411 158.808L59.399 148.21L66.033 150.443Z" fill="#849CBF"/>
<path d="M62.27 158.41L57.638 156.467L56.859 159.023C56.859 159.023 56.194 159.123 55.635 159.424C55.266 159.623 55.305 160.168 55.695 160.322L60.084 162.052C60.378 162.168 60.71 162.023 60.826 161.73L62.27 158.41Z" fill="#353B55"/>
<path d="M70.645 116.358C67.334 117.337 39.508 143.657 67.806 154.808C96.104 165.959 92.283 124.735 92.283 124.735C92.283 124.735 73.957 115.379 70.645 116.358Z" fill="#849CBF"/>
<path d="M72.919 127.598C71.263 128.437 70.134 129.848 68.902 131.262C67.788 132.54 66.755 133.9 65.894 135.363C64.24 138.171 63.06 141.707 64.629 144.815C65.917 147.367 68.605 148.903 71.168 149.913C74.257 151.13 77.982 151.728 80.827 149.61C83.091 147.924 84.203 145.092 84.821 142.431C85.514 139.445 86.252 136.191 85.583 133.134C84.932 130.16 82.003 127.696 79.153 126.961C77.292 126.481 75.283 126.634 73.499 127.338C73.298 127.416 73.105 127.503 72.919 127.598Z" fill="#6C84A8"/>
<path d="M94.869 132.692C94.869 132.692 101.516 145.629 98.616 147.078C95.744 148.355 90.027 136.342 90.027 136.342L94.869 132.692Z" fill="#849CBF"/>
<path d="M67.632 131.959C67.628 131.959 67.624 131.959 67.62 131.959C33.787 131.697 29.307 100.546 29.266 100.231C29.159 99.4096 29.736 98.6586 30.556 98.5486C31.383 98.4376 32.131 99.0186 32.241 99.8376C32.398 101.018 36.459 128.717 67.643 128.958C68.471 128.965 69.138 129.642 69.131 130.47C69.125 131.295 68.455 131.959 67.632 131.959Z" fill="#343B54"/>
<path d="M73.019 137.099C72.854 137.099 72.687 137.072 72.523 137.015C71.869 136.786 66.132 134.654 66.132 130.459C66.132 126.515 70.483 123.53 70.979 123.203C71.671 122.747 72.602 122.938 73.057 123.629C73.513 124.319 73.323 125.249 72.633 125.706C71.659 126.353 69.132 128.471 69.132 130.459C69.132 132.1 72.086 133.677 73.517 134.184C74.297 134.46 74.707 135.317 74.433 136.097C74.215 136.713 73.637 137.099 73.019 137.099Z" fill="#343B54"/>
<path d="M67.63 131.959C66.892 131.959 66.249 131.414 66.146 130.663C66.034 129.842 66.608 129.085 67.428 128.973L73.041 128.203C73.86 128.098 74.618 128.665 74.731 129.485C74.843 130.306 74.269 131.063 73.449 131.175L67.836 131.945C67.767 131.954 67.699 131.959 67.63 131.959Z" fill="#343B54"/>
<path d="M75.84 73.6066C74.149 73.6066 72.464 72.9296 71.314 71.7346C71.123 71.5356 71.129 71.2186 71.328 71.0276C71.526 70.8386 71.843 70.8426 72.035 71.0416C73.239 72.2926 75.149 72.8656 76.896 72.4996C78.317 72.2016 79.36 71.3346 79.832 70.0576C79.928 69.7976 80.217 69.6646 80.474 69.7616C80.734 69.8576 80.866 70.1446 80.77 70.4036C80.184 71.9926 78.847 73.1136 77.102 73.4786C76.686 73.5646 76.263 73.6066 75.84 73.6066Z" fill="#343B54"/>
<path d="M60.2159 60.9186C59.9689 60.9186 59.7529 60.7336 59.7209 60.4826C59.4019 57.9886 60.8159 56.6136 62.2639 56.3916C63.7879 56.1556 65.5539 57.1866 65.9839 59.6016C66.0329 59.8736 65.8509 60.1326 65.5799 60.1816C65.3059 60.2256 65.0489 60.0496 64.9999 59.7776C64.6669 57.9096 63.4239 57.2276 62.4159 57.3806C61.3989 57.5366 60.4779 58.5176 60.7139 60.3566C60.7489 60.6296 60.5549 60.8806 60.2809 60.9166C60.2589 60.9176 60.2379 60.9186 60.2159 60.9186Z" fill="#343B54"/>
<path d="M80.165 58.1586C79.922 58.1586 79.709 57.9806 79.672 57.7336C79.311 55.3406 80.655 53.8406 82.17 53.5956C83.72 53.3456 85.51 54.3796 85.935 56.8436C85.982 57.1156 85.799 57.3736 85.527 57.4216C85.259 57.4676 84.996 57.2856 84.949 57.0136C84.621 55.1056 83.364 54.4166 82.331 54.5826C81.333 54.7446 80.385 55.7526 80.661 57.5826C80.703 57.8556 80.515 58.1106 80.242 58.1516C80.216 58.1566 80.191 58.1586 80.165 58.1586Z" fill="#343B54"/>
<path d="M60.151 64.6426C60.4 65.7786 58.98 67.0556 56.979 67.4946C54.978 67.9336 53.154 67.3676 52.905 66.2316C52.656 65.0956 54.076 63.8186 56.077 63.3796C58.078 62.9406 59.902 63.5066 60.151 64.6426Z" fill="#EBF0F7"/>
<path d="M95.1629 57.8846C95.4119 59.0206 93.9919 60.2976 91.9909 60.7366C89.9899 61.1756 88.1659 60.6096 87.9169 59.4736C87.6679 58.3376 89.0879 57.0606 91.0889 56.6216C93.0899 56.1826 94.9139 56.7486 95.1629 57.8846Z" fill="#EBF0F7"/>
<path d="M73.032 59.3616C77.532 58.5916 91.18 59.9806 91.623 61.7296C91.406 64.0066 78.821 68.1196 74.177 68.8966C69.158 69.7716 66.936 60.4046 73.032 59.3616Z" fill="#DEA75A"/>
<path d="M158.423 161.306L163.019 147.349L173.913 139.47L161.828 142.904L158.423 140.711L155.019 142.9V145.566L143.402 137.191L141.232 133.041L130.679 135.659L135.955 141.815L125.535 142.904L127.785 145.566L126.627 157.223L142.253 160.455L158.423 161.306Z" fill="white"/>
<path d="M127.785 145.566L135.615 143.701L127.661 146.817L127.785 145.566Z" fill="#EBF0F7"/>
<path d="M135.955 141.815L139.743 145.914L134.758 141.94L135.955 141.815Z" fill="#EBF0F7"/>
<path d="M155.019 145.566V146.68L154.242 145.006L155.019 145.566Z" fill="#EBF0F7"/>
<path d="M143.402 137.191L142.211 143.223L144.035 137.647L143.402 137.191Z" fill="#EBF0F7"/>
<path d="M161.828 142.904L158.977 146.042L161.108 142.44L161.828 142.904Z" fill="#EBF0F7"/>
<path d="M158.423 140.711L157.572 145.233L157.699 141.177L158.423 140.711Z" fill="#EBF0F7"/>
<path d="M124.064 196.033L119.298 147.174H168.319L163.213 196.033H124.064Z" fill="#59784F"/>
<path d="M139.284 196.033L138.192 147.174H149.426L148.255 196.033H139.284Z" fill="#DEA75A"/>
<path d="M114.872 182.51C114.872 182.51 106.702 169.999 101.681 173.404C96.66 176.808 98.362 186.985 101.681 186.985C105 186.985 114.362 186.985 114.362 186.985L114.872 182.51Z" fill="#DEA75A"/>
<path d="M114.872 182.51C114.872 182.51 114.387 181.768 113.584 180.698C112.441 181.164 111.431 181.855 110.622 182.711C109.556 181.044 107.773 179.757 105.633 178.659C107.384 180.279 108.882 181.974 109.814 183.841C109.562 184.159 109.347 184.545 109.171 184.947C107.692 184.85 106.235 184.417 104.787 183.841C106.001 184.796 107.299 185.582 108.829 185.901C108.714 186.302 108.638 186.68 108.604 186.984C111.634 186.984 114.361 186.984 114.361 186.984L114.872 182.51Z" fill="#D3964C"/>
<path d="M118.776 182.51C118.776 182.51 126.946 169.999 131.967 173.404C136.988 176.808 135.286 186.985 131.967 186.985C128.648 186.985 119.286 186.985 119.286 186.985L118.776 182.51Z" fill="#DEA75A"/>
<path d="M118.776 182.51C118.776 182.51 119.261 181.768 120.064 180.698C121.207 181.164 122.217 181.855 123.026 182.711C124.092 181.044 125.875 179.757 128.015 178.659C126.264 180.279 124.766 181.974 123.834 183.841C124.086 184.159 124.3 184.545 124.476 184.947C125.955 184.85 127.412 184.417 128.86 183.841C127.646 184.796 126.348 185.582 124.818 185.901C124.933 186.302 125.009 186.68 125.043 186.984C122.013 186.984 119.286 186.984 119.286 186.984L118.776 182.51Z" fill="#D3964C"/>
<path d="M123.845 187.786C123.845 191.264 120.778 194.084 116.994 194.084C113.21 194.084 110.143 191.264 110.143 187.786C110.143 184.308 113.21 181.488 116.994 181.488C120.778 181.489 123.845 184.308 123.845 187.786Z" fill="#DEA75A"/>
<path d="M92.675 186.984L92.484 196.033H141.505L141.441 186.984H92.675Z" fill="#59784F"/>
</svg>
