<svg width="150" height="200" viewBox="0 0 150 200" fill="none" xmlns="http://www.w3.org/2000/svg">
<path opacity="0.3" d="M142.266 151.788C134.718 130.128 126.494 108.668 117.365 87.632C111.293 73.642 104.855 59.646 96.8041 46.666C94.7821 43.404 92.6241 40.167 90.1851 37.178C94.4081 33.877 97.1331 28.748 97.1331 22.973C97.1331 17.136 94.3491 11.962 90.0491 8.66399C90.0481 8.66299 90.0481 8.66299 90.0471 8.66299C88.6271 7.57499 87.0451 6.69699 85.3381 6.06599C85.1661 6.00299 84.9941 5.936 84.8201 5.877C84.5351 5.781 84.2441 5.696 83.9511 5.614C83.6961 5.542 83.4381 5.47599 83.1781 5.41499C82.9261 5.35699 82.6731 5.3 82.4161 5.252C82.0821 5.189 81.7431 5.141 81.4021 5.097C81.1981 5.071 80.9971 5.038 80.7901 5.019C80.2331 4.966 79.6691 4.93399 79.0981 4.93399C69.1361 4.93399 61.0621 13.01 61.0621 22.972C61.0621 23.542 61.0951 24.104 61.1471 24.661C61.1671 24.868 61.1991 25.071 61.2251 25.276C61.2691 25.614 61.3161 25.949 61.3781 26.28C61.4261 26.539 61.4821 26.793 61.5421 27.049C61.6021 27.303 61.6661 27.555 61.7361 27.805C61.8191 28.103 61.9041 28.398 62.0021 28.689C62.0551 28.846 62.1151 28.999 62.1721 29.154C63.2041 31.977 64.9141 34.465 67.1151 36.427C64.5311 39.465 61.8431 43.328 59.1021 47.804C59.0961 47.814 59.0901 47.823 59.0841 47.833C58.2221 49.241 57.3571 50.705 56.4871 52.226C56.4791 52.239 56.4721 52.252 56.4651 52.266C48.4441 66.3 40.1401 84.864 32.8711 102.652C32.7991 102.828 32.7271 103.003 32.6561 103.179C32.0471 104.673 31.4451 106.16 30.8511 107.639C30.7241 107.956 30.5991 108.27 30.4721 108.586C29.9421 109.912 29.4161 111.231 28.9001 112.539C28.8461 112.675 28.7911 112.813 28.7381 112.948H28.7391C26.0081 119.875 23.4851 126.508 21.2561 132.508H21.2551C21.2421 132.542 21.2311 132.574 21.2181 132.608C19.8521 136.286 18.6011 139.711 17.4761 142.83C17.4081 143.019 17.3351 143.219 17.2681 143.405H17.2691C16.1641 146.473 15.1871 149.223 14.3631 151.569C12.3501 152.137 10.7551 153.643 9.55309 155.739C9.54709 155.75 9.54209 155.761 9.53609 155.772C9.25909 156.258 9.00609 156.78 8.77109 157.326C8.74009 157.399 8.70709 157.469 8.67609 157.543C8.57709 157.779 8.48609 158.024 8.39609 158.271C8.35409 158.384 8.3131 158.497 8.2741 158.61C8.1891 158.856 8.1071 159.104 8.0301 159.359C7.9941 159.475 7.96109 159.593 7.92609 159.712C7.85009 159.976 7.77509 160.241 7.70609 160.514C7.69009 160.577 7.67609 160.643 7.66109 160.706C7.51509 161.309 7.3871 161.926 7.2781 162.56C7.2641 162.635 7.2491 162.709 7.2371 162.786C7.1911 163.063 7.15209 163.345 7.11309 163.627C7.09209 163.777 7.0711 163.929 7.0521 164.081C7.0181 164.351 6.98909 164.623 6.96209 164.897C6.94509 165.064 6.93109 165.233 6.91709 165.401C6.89509 165.673 6.87209 165.944 6.85509 166.218C6.84509 166.386 6.83909 166.555 6.83109 166.723C6.80709 167.232 6.7931 167.744 6.7891 168.258C6.7881 168.436 6.7841 168.612 6.7851 168.79C6.7861 169.041 6.7941 169.292 6.8001 169.544C6.8061 169.759 6.81109 169.975 6.82009 170.191C6.83009 170.433 6.8431 170.675 6.8581 170.919C6.8721 171.148 6.8871 171.378 6.9051 171.607C6.9231 171.839 6.94109 172.07 6.96209 172.3C6.98609 172.561 7.0161 172.819 7.0451 173.077C7.0681 173.277 7.08809 173.479 7.11309 173.679C7.16909 174.112 7.2331 174.543 7.3021 174.971C7.3321 175.152 7.36609 175.328 7.39809 175.507C7.44709 175.785 7.4981 176.063 7.5541 176.338C7.5931 176.529 7.63509 176.719 7.67609 176.908C7.73409 177.173 7.7951 177.434 7.8581 177.695C7.9021 177.877 7.9471 178.057 7.9941 178.237C8.0691 178.525 8.15009 178.81 8.23209 179.092C8.27409 179.235 8.3121 179.379 8.3561 179.521C8.4831 179.932 8.61609 180.337 8.75809 180.735C8.79609 180.841 8.83709 180.943 8.87609 181.048C8.98709 181.346 9.10009 181.642 9.21909 181.93C9.27809 182.073 9.34009 182.21 9.40009 182.35C9.50909 182.599 9.62009 182.845 9.73609 183.086C9.80109 183.223 9.86709 183.358 9.93409 183.492C10.0611 183.743 10.1931 183.986 10.3271 184.225C10.3871 184.333 10.4451 184.444 10.5071 184.549C10.7031 184.884 10.9061 185.21 11.1181 185.521C11.1511 185.569 11.1871 185.613 11.2201 185.661C11.4021 185.922 11.5901 186.174 11.7831 186.415C11.8601 186.512 11.9401 186.603 12.0181 186.695C12.1761 186.881 12.3371 187.062 12.5011 187.235C12.5891 187.327 12.6781 187.418 12.7681 187.506C12.9401 187.674 13.1161 187.833 13.2941 187.985C13.3771 188.056 13.4591 188.132 13.5451 188.199C13.8091 188.41 14.0791 188.609 14.3591 188.785C24.1101 194.939 42.7271 199.774 78.0151 199.774C79.0601 199.774 80.0891 199.769 81.1061 199.76C81.4321 199.757 81.7521 199.752 82.0771 199.748C82.7581 199.741 83.4351 199.733 84.1031 199.722C84.4911 199.715 84.8721 199.707 85.2541 199.7C85.8461 199.687 86.4371 199.675 87.0181 199.66C87.4211 199.65 87.8201 199.638 88.2171 199.627C88.7691 199.61 89.3171 199.594 89.8591 199.574C90.2581 199.56 90.6541 199.546 91.0471 199.531C91.5821 199.51 92.1111 199.487 92.6361 199.464C93.0181 199.447 93.4011 199.431 93.7781 199.412C94.3051 199.387 94.8241 199.358 95.3411 199.33C95.7051 199.31 96.0701 199.292 96.4301 199.27C96.9731 199.238 97.5031 199.204 98.0351 199.168C98.3531 199.148 98.6771 199.128 98.9901 199.107C99.8031 199.05 100.604 198.991 101.394 198.928C101.691 198.905 101.978 198.878 102.272 198.854C102.776 198.811 103.281 198.769 103.775 198.725C104.143 198.691 104.503 198.656 104.866 198.621C105.273 198.581 105.681 198.542 106.082 198.501C106.461 198.462 106.833 198.421 107.206 198.382C107.577 198.341 107.947 198.301 108.313 198.259C108.692 198.215 109.065 198.171 109.438 198.126C109.783 198.084 110.124 198.041 110.463 197.998C110.841 197.95 111.218 197.9 111.589 197.852C111.904 197.809 112.216 197.766 112.527 197.722C112.907 197.668 113.287 197.614 113.661 197.56C113.943 197.518 114.221 197.475 114.5 197.432C114.887 197.372 115.275 197.313 115.656 197.251C115.867 197.217 116.072 197.182 116.281 197.146C117.77 196.897 119.199 196.634 120.569 196.356C120.716 196.326 120.866 196.297 121.012 196.267C121.415 196.183 121.808 196.098 122.201 196.012C122.371 195.975 122.543 195.938 122.713 195.902C123.094 195.816 123.467 195.729 123.838 195.642C124.007 195.602 124.177 195.562 124.344 195.522C124.714 195.433 125.08 195.343 125.441 195.251C125.592 195.213 125.743 195.174 125.892 195.135C126.262 195.04 126.627 194.944 126.987 194.846C127.109 194.813 127.227 194.78 127.347 194.746C127.73 194.639 128.111 194.533 128.482 194.424C128.531 194.409 128.578 194.396 128.625 194.381C130.838 193.729 132.844 193.032 134.665 192.299C134.71 192.281 134.755 192.264 134.799 192.245C135.129 192.111 135.452 191.976 135.771 191.84C135.824 191.818 135.878 191.794 135.931 191.772C136.246 191.635 136.557 191.498 136.86 191.359C136.903 191.338 136.946 191.32 136.988 191.299C137.302 191.154 137.611 191.01 137.912 190.864C137.916 190.862 137.92 190.86 137.924 190.858C139.298 190.188 140.547 189.497 141.673 188.786C151.229 182.758 152.088 155.628 142.266 151.788Z" fill="#183B34"/>
<path d="M71.2371 24.137C93.9391 24.137 137.968 155.539 137.968 155.539C137.968 165.168 121.455 180.993 71.2371 180.993C21.0151 180.993 4.50507 165.168 4.50507 155.539C4.50507 155.539 48.5341 24.137 71.2371 24.137Z" fill="#F33B3D"/>
<path d="M121.045 109.362C118.499 102.875 115.765 96.113 112.911 89.354C86.6681 92.864 55.0651 91.58 30.2081 87.834C27.3201 94.629 24.5441 101.452 21.9571 108.013C53.9061 114.898 89.1651 115.742 121.045 109.362Z" fill="#7A0317"/>
<path d="M91.7551 45.547C91.2211 44.638 90.6911 43.749 90.1621 42.887C86.0991 43.353 82.0131 43.618 77.9161 43.68C69.8711 43.8 61.5301 43.016 53.8231 40.47C53.3191 41.257 52.8121 42.069 52.3051 42.898C59.8071 45.451 67.8731 46.359 75.7861 46.481C81.1001 46.561 86.4451 46.222 91.7551 45.547Z" fill="#F5F5F5"/>
<path d="M95.9351 53.035C95.4621 52.152 94.9911 51.283 94.5211 50.426C79.7291 52.777 64.2241 51.124 49.7081 47.291C49.2341 48.119 48.7591 48.964 48.2851 49.822C63.6641 53.974 80.2361 55.723 95.9351 53.035Z" fill="#F5F5F5"/>
<path d="M72.1671 137.351C86.8561 137.816 101.659 137.381 116.233 135.407C120.82 134.785 125.443 134.031 130.011 133.026C129.695 132.16 129.371 131.278 129.036 130.377C124.821 131.291 120.56 131.998 116.342 132.59C101.741 134.636 86.8841 134.976 72.1671 134.55C58.1941 134.148 44.2171 132.9 30.4161 130.669C25.1421 129.818 19.7601 128.863 14.4741 127.573C14.1461 128.455 13.8251 129.325 13.5101 130.177C18.5971 131.433 23.7701 132.381 28.8841 133.241C43.1811 135.643 57.6821 136.894 72.1671 137.351Z" fill="#F5F5F5"/>
<path d="M74.6601 144.889C53.3531 144.598 31.9781 141.625 11.4391 135.835C11.1101 136.737 10.7941 137.614 10.4861 138.469C30.9581 144.242 52.2151 147.179 73.4701 147.669C93.4171 148.127 113.626 146.254 133.046 141.42C132.741 140.568 132.421 139.675 132.094 138.762C113.355 143.367 93.9591 145.153 74.6601 144.889Z" fill="#F5F5F5"/>
<path opacity="0.5" d="M71.2371 24.137C69.3361 24.137 67.2811 25.077 65.1181 26.766C74.4741 54.661 80.0571 84.036 76.7331 113.973C73.3681 144.265 59.7511 164.308 35.4071 177.474C44.7591 179.633 56.5471 180.993 71.2381 180.993C121.456 180.993 137.969 165.168 137.969 155.539C137.969 155.539 93.9401 24.137 71.2371 24.137Z" fill="#C62242"/>
<path d="M45.9881 96.158C44.9671 93.225 40.0491 96.721 38.7721 97.653C38.9831 97.498 38.8541 97.537 38.5241 97.221C38.2451 96.951 37.9581 96.698 37.6691 96.444C36.9911 95.853 36.2661 95.318 35.4851 94.872C34.5621 94.343 32.9941 93.814 32.2181 94.895C29.2901 98.992 35.4801 103.404 38.0691 105.65C38.1081 105.694 38.1561 105.721 38.2071 105.736C38.2251 105.742 38.2401 105.74 38.2581 105.74C38.2751 105.742 38.2911 105.747 38.3091 105.743C38.3641 105.739 38.4151 105.718 38.4581 105.68C41.5691 103.722 47.6041 100.795 45.9881 96.158Z" fill="#F33B3D"/>
<path d="M68.881 98.718C67.859 95.785 62.941 99.282 61.665 100.213C61.876 100.059 61.747 100.097 61.418 99.781C61.139 99.511 60.852 99.259 60.563 99.004C59.884 98.414 59.159 97.878 58.378 97.433C57.455 96.903 55.887 96.376 55.111 97.456C52.182 101.553 58.372 105.964 60.962 108.21C61.001 108.254 61.049 108.281 61.1 108.297C61.118 108.303 61.133 108.301 61.151 108.301C61.167 108.303 61.184 108.309 61.202 108.304C61.256 108.3 61.308 108.278 61.351 108.241C64.461 106.281 70.496 103.354 68.881 98.718Z" fill="#F33B3D"/>
<path d="M91.5901 98.741C90.2621 95.932 85.742 99.931 84.573 100.992C84.767 100.814 84.6411 100.869 84.2811 100.588C83.9751 100.349 83.6621 100.131 83.3481 99.907C82.6111 99.391 81.8311 98.934 81.0071 98.576C80.0331 98.147 78.4201 97.788 77.7621 98.943C75.2851 103.328 81.9081 107.06 84.7211 109.019C84.7641 109.057 84.8151 109.08 84.8681 109.09C84.8851 109.093 84.9011 109.09 84.9181 109.087C84.9341 109.088 84.9521 109.091 84.9711 109.086C85.0231 109.077 85.0721 109.048 85.1121 109.009C87.9961 106.731 93.6891 103.179 91.5901 98.741Z" fill="#F33B3D"/>
<path d="M114.042 96.302C112.6 93.55 108.249 97.73 107.125 98.839C107.31 98.653 107.188 98.713 106.816 98.448C106.502 98.221 106.177 98.015 105.854 97.805C105.1 97.321 104.301 96.896 103.464 96.571C102.473 96.183 100.846 95.89 100.236 97.072C97.9401 101.553 104.709 105.012 107.6 106.853C107.644 106.89 107.695 106.91 107.748 106.918C107.767 106.921 107.78 106.917 107.797 106.913C107.814 106.914 107.832 106.916 107.852 106.91C107.904 106.899 107.951 106.87 107.989 106.825C110.779 104.43 116.32 100.65 114.042 96.302Z" fill="#F33B3D"/>
<path d="M71.2371 24.637C74.9471 24.688 78.1071 27.82 80.4641 30.346C84.5271 34.699 87.7731 39.825 90.8101 44.921C99.0201 58.697 105.616 73.458 111.882 88.195C121.255 110.233 129.736 132.709 137.395 155.401C138.035 157.296 136.338 160.208 135.362 161.716C132.822 165.639 128.75 168.451 124.715 170.651C108.813 179.323 88.9261 180.457 71.2381 180.492C70.5931 180.493 70.5931 181.493 71.2381 181.492C83.8621 181.467 96.5871 180.581 108.881 177.565C116.348 175.733 123.893 173.001 130.136 168.414C133.623 165.851 136.911 162.429 138.106 158.161C138.714 155.989 138.245 154.782 137.555 152.771C128.809 127.262 119.217 101.965 108.24 77.329C102.449 64.332 96.3021 51.305 88.5301 39.353C85.8791 35.275 82.9791 31.237 79.4341 27.881C77.2251 25.789 74.4151 23.679 71.2391 23.635C70.5921 23.629 70.5931 24.629 71.2371 24.637Z" fill="#7A0317"/>
<path d="M90.3541 18.038C90.3541 27.999 82.2781 36.074 72.3191 36.074C62.3571 36.074 54.2831 28 54.2831 18.038C54.2831 8.07599 62.3561 0 72.3191 0C82.2771 0 90.3541 8.07499 90.3541 18.038Z" fill="#F9EBCE"/>
<path d="M71.2371 194.839C106.523 194.839 125.141 190.004 134.892 183.851C144.641 177.704 145.348 149.582 134.892 146.634C134.892 146.634 121.902 157.49 71.2371 157.49C20.5721 157.49 7.58107 146.634 7.58107 146.634C-2.87793 149.582 -2.16993 177.703 7.58107 183.851C17.3341 190.004 35.9501 194.839 71.2371 194.839Z" fill="#F9EBCE"/>
<path d="M83.2701 3.72899C80.2311 1.39899 76.4421 0 72.3191 0C62.3571 0 54.2831 8.07599 54.2831 18.038C54.2831 22.136 55.6661 25.902 57.9681 28.931C71.8381 28.351 83.5401 15.364 83.2701 3.72899Z" fill="#FDF8E4"/>
<path d="M119.015 172.398C96.2051 155.437 24.5631 174.608 2.7721 150.804C-2.2659 159.599 -0.291906 178.884 7.58209 183.85C17.3341 190.003 35.9511 194.838 71.2381 194.838C102.453 194.838 120.617 191.053 131.144 185.921C128.515 180.942 124.488 176.43 119.015 172.398Z" fill="#FDF8E4"/>
</svg>
