<svg width="153" height="202" viewBox="0 0 153 202" fill="none" xmlns="http://www.w3.org/2000/svg">
<path opacity="0.3" d="M6.78859 171.459C6.78959 171.515 6.79159 171.571 6.79359 171.627C6.81959 172.474 6.88459 173.32 6.99259 174.163C6.99859 174.208 7.00259 174.252 7.00959 174.297C7.06459 174.705 7.13059 175.112 7.20659 175.519C7.21659 175.576 7.22759 175.632 7.23859 175.689C7.31759 176.098 7.40659 176.504 7.50959 176.91C7.52059 176.952 7.53159 176.991 7.54259 177.033C7.76259 177.888 8.03459 178.737 8.36459 179.577C8.37359 179.598 8.38159 179.62 8.38959 179.642C8.55359 180.054 8.73159 180.463 8.92359 180.869C8.94159 180.907 8.95859 180.945 8.97659 180.982C9.17159 181.389 9.37959 181.793 9.60359 182.194C9.61759 182.217 9.63059 182.24 9.64359 182.264C10.3526 183.52 11.2126 184.747 12.2416 185.935C12.2586 185.954 12.2746 185.973 12.2906 185.992C12.6316 186.384 12.9906 186.771 13.3696 187.153C13.3776 187.161 13.3866 187.17 13.3946 187.178C14.5606 188.351 15.9076 189.481 17.4566 190.556C17.4646 190.561 17.4726 190.567 17.4806 190.573C27.0936 197.237 44.4526 201.815 74.4266 201.815C133.624 201.815 146.089 183.969 144.348 167.427C142.77 152.444 129.701 149.019 127.256 148.508C124.404 140.404 122.069 132.111 120.173 123.865C114.443 98.94 114.264 73.102 122.74 48.801C123.648 46.199 124.671 43.644 125.7 41.092C128.014 42.105 130.566 42.676 133.254 42.676C143.675 42.676 152.122 34.229 152.122 23.809C152.122 18.265 149.717 13.296 145.911 9.84399C145.894 9.82799 145.877 9.812 145.86 9.797C145.429 9.409 144.983 9.043 144.517 8.696C144.45 8.646 144.383 8.59399 144.315 8.54499C143.94 8.27299 143.555 8.016 143.159 7.771C142.99 7.666 142.822 7.56099 142.65 7.46199C142.42 7.32899 142.188 7.198 141.952 7.075C141.606 6.893 141.252 6.72499 140.894 6.56499C140.703 6.48099 140.511 6.398 140.317 6.32C139.905 6.153 139.487 5.999 139.062 5.861C138.915 5.813 138.767 5.76899 138.618 5.72499C138.143 5.58399 137.663 5.457 137.173 5.353C137.07 5.331 136.967 5.313 136.863 5.293C136.327 5.189 135.785 5.10199 135.234 5.04399C135.178 5.03899 135.122 5.03599 135.067 5.03099C134.47 4.97299 133.866 4.939 133.253 4.939C122.832 4.939 114.385 13.387 114.385 23.808C114.385 24.308 114.416 24.8 114.46 25.288C114.548 26.417 114.74 27.515 115.018 28.58C104.427 31.816 88.9826 39.355 73.2636 54.679C73.1116 54.828 72.9586 54.973 72.8056 55.125C66.7366 61.098 60.6376 68.242 54.7666 76.748C54.7656 76.749 54.7656 76.75 54.7646 76.751C50.9076 82.34 47.1506 88.518 43.5666 95.345C43.5646 95.351 43.5606 95.357 43.5576 95.363C43.1106 96.215 42.6666 97.08 42.2246 97.953C42.1246 98.15 42.0256 98.348 41.9256 98.547C40.5736 101.24 39.2506 104.029 37.9576 106.918C37.8936 107.061 37.8296 107.203 37.7666 107.347C35.9536 111.42 34.2046 115.69 32.5286 120.166C32.5246 120.177 32.5196 120.187 32.5156 120.198C31.9626 121.675 31.4186 123.172 30.8826 124.693C30.8826 124.694 30.8816 124.694 30.8816 124.694C30.8606 124.755 30.8396 124.818 30.8176 124.879C29.5086 128.605 28.2526 132.469 27.0516 136.472C26.9176 136.921 26.7806 137.361 26.6486 137.812C25.7826 140.751 24.9516 143.774 24.1496 146.865C24.0456 147.263 23.9426 147.661 23.8406 148.061C23.7256 148.513 23.6076 148.957 23.4936 149.412L23.5536 149.163C23.5536 149.163 8.69959 150.89 6.95759 167.43C6.91359 167.845 6.87959 168.261 6.85159 168.677C6.84759 168.736 6.84259 168.795 6.83859 168.854C6.81359 169.252 6.79659 169.65 6.78759 170.049C6.78659 170.12 6.78459 170.192 6.78359 170.263C6.77759 170.658 6.77859 171.059 6.78859 171.459ZM21.8196 156.446C21.8046 156.512 21.7906 156.581 21.7756 156.647C21.7746 156.646 21.7736 156.646 21.7716 156.645L21.8196 156.446Z" fill="#183B34"/>
<path d="M121.938 22.122C119.667 18.229 34.9166 30.922 11.4506 169.765C11.4506 169.765 41.7616 184.922 129.271 165.365C129.271 165.365 109.715 127.721 108.737 87.145C107.759 46.568 125.36 27.988 121.938 22.122Z" fill="#F33B3D"/>
<path d="M82.6786 105.504C78.6996 100.177 74.5326 94.879 70.9846 89.245C70.9756 89.23 70.9626 89.224 70.9526 89.211C70.9366 89.189 70.9166 89.172 70.8966 89.153C70.7446 88.979 70.5536 88.91 70.3596 88.918C70.1656 88.91 69.9746 88.98 69.8216 89.153C69.8026 89.172 69.7826 89.188 69.7666 89.211C69.7566 89.225 69.7436 89.23 69.7336 89.245C66.1866 94.879 62.0206 100.177 58.0406 105.504C57.6996 105.958 58.1636 106.593 58.6656 106.593C60.9536 106.593 63.2416 106.593 65.5286 106.593C63.0866 109.999 60.5346 113.333 58.0406 116.672C57.6996 117.127 58.1636 117.761 58.6656 117.761C60.9536 117.761 63.2416 117.761 65.5286 117.761C63.0866 121.165 60.5346 124.502 58.0406 127.84C57.6996 128.295 58.1636 128.929 58.6656 128.929C66.4606 128.929 74.2576 128.929 82.0536 128.929C82.5556 128.929 83.0196 128.295 82.6786 127.84C80.1846 124.502 77.6336 121.165 75.1906 117.761C77.4776 117.761 79.7656 117.761 82.0536 117.761C82.5556 117.761 83.0196 117.126 82.6786 116.672C80.1846 113.333 77.6336 109.999 75.1906 106.593C77.4776 106.593 79.7656 106.593 82.0536 106.593C82.5566 106.592 83.0196 105.957 82.6786 105.504Z" fill="#F5F5F5"/>
<path d="M110.789 108.152C109.547 106.876 108.307 105.593 107.09 104.293C108.107 104.16 109.125 104.026 110.142 103.893C109.847 101.764 109.59 99.614 109.379 97.444C106.447 94.441 103.545 91.397 100.878 88.179C100.867 88.167 100.853 88.163 100.842 88.152C100.823 88.133 100.803 88.119 100.782 88.103C100.615 87.958 100.422 87.913 100.236 87.945C100.05 87.96 99.8746 88.053 99.7516 88.238C99.7356 88.259 99.7176 88.278 99.7036 88.3C99.6986 88.315 99.6856 88.321 99.6776 88.337C96.9826 94.185 93.6496 99.792 90.5026 105.4C90.2326 105.877 90.7556 106.428 91.2376 106.366C93.4306 106.078 95.6256 105.791 97.8206 105.504C95.9046 109.077 93.8756 112.596 91.9036 116.112C91.6346 116.591 92.1586 117.14 92.6396 117.077C94.8336 116.79 97.0276 116.504 99.2226 116.217C97.3076 119.789 95.2786 123.309 93.3046 126.824C93.0346 127.302 93.5596 127.851 94.0406 127.788C100.832 126.902 107.624 126.011 114.415 125.123C113.96 123.38 113.518 121.611 113.097 119.801C111.549 118.216 110.006 116.622 108.49 115.004C109.648 114.853 110.805 114.7 111.964 114.548C111.54 112.45 111.146 110.316 110.789 108.152Z" fill="#F5F5F5"/>
<path d="M43.5326 126.725C41.4336 123.283 39.2766 119.841 37.2336 116.339C39.4366 116.545 41.6396 116.753 43.8446 116.96C44.3266 117.005 44.8306 116.436 44.5446 115.969C42.4456 112.528 40.2886 109.084 38.2456 105.583C40.4486 105.79 42.6516 105.997 44.8546 106.204C45.3386 106.249 45.8416 105.68 45.5556 105.212C42.5806 100.336 39.4866 95.458 36.7906 90.404C32.8636 97.884 29.1496 106.146 25.7396 115.257C26.4696 115.325 27.1996 115.394 27.9286 115.462C26.6726 116.908 25.3906 118.333 24.1056 119.753C23.4146 121.718 22.7376 123.723 22.0766 125.764C28.9956 126.414 35.9136 127.065 42.8326 127.715C43.3146 127.762 43.8186 127.193 43.5326 126.725Z" fill="#F5F5F5"/>
<path d="M70.0046 136.576C85.3086 136.342 101.291 135.683 116.489 132.545C116.356 132.1 116.225 131.645 116.093 131.193C101.017 134.287 85.2046 134.903 70.0046 135.175C60.1116 135.351 50.2016 135.126 40.3336 134.369C33.6376 133.856 26.8296 133.142 20.2746 131.532C20.1406 131.981 20.0036 132.421 19.8716 132.872C26.0136 134.376 32.3726 135.079 38.6456 135.63C49.0656 136.548 59.5526 136.735 70.0046 136.576Z" fill="#F5F5F5"/>
<path d="M108.817 78.583C108.876 77.171 108.955 75.789 109.055 74.437C96.9716 74.351 84.7776 72.969 73.0346 71.464C65.5956 70.511 58.1786 69.311 50.8206 67.832C49.8706 69.123 48.9266 70.451 47.9876 71.811C55.7306 73.327 63.5516 74.403 71.1096 75.412C83.4416 77.06 96.1736 78.494 108.817 78.583Z" fill="#F5F5F5"/>
<path d="M110.738 61.415C111.005 59.99 111.29 58.605 111.592 57.265C101.335 55.958 91.1376 53.843 81.2356 51.634C76.7706 50.637 72.3256 49.546 67.9026 48.37C66.7036 49.505 65.5016 50.696 64.2996 51.923C69.2996 53.203 74.2916 54.356 79.1646 55.469C89.4236 57.816 100.053 60.046 110.738 61.415Z" fill="#F5F5F5"/>
<path d="M70.1956 62.323C69.9706 63.456 70.7136 64.564 71.8476 64.801C71.9876 64.83 72.1276 64.844 72.2686 64.844C73.2346 64.844 74.1176 64.143 74.3136 63.149C74.5516 62.016 73.8096 60.908 72.6746 60.684C71.5406 60.446 70.4196 61.187 70.1956 62.323Z" fill="#F5F5F5"/>
<path d="M90.8996 65.993C90.7456 67.14 91.5436 68.206 92.6926 68.36C92.7906 68.375 92.8886 68.389 92.9866 68.389C94.0236 68.389 94.9196 67.632 95.0606 66.582C95.2276 65.433 94.4296 64.369 93.2816 64.2C92.1316 64.044 91.0676 64.844 90.8996 65.993Z" fill="#F5F5F5"/>
<path d="M104.811 67.744C104.712 68.891 105.553 69.928 106.702 70.04C106.772 70.04 106.842 70.04 106.912 70.04C107.976 70.04 108.901 69.228 108.998 68.134C109.111 66.987 108.256 65.963 107.107 65.851C105.945 65.74 104.923 66.581 104.811 67.744Z" fill="#F5F5F5"/>
<path d="M97.8476 66.944C97.7066 68.094 98.5346 69.144 99.6826 69.283C99.7666 69.283 99.8506 69.297 99.9346 69.297C100.986 69.297 101.896 68.513 102.022 67.433C102.163 66.286 101.336 65.235 100.187 65.109C99.0396 64.969 97.9876 65.795 97.8476 66.944Z" fill="#F5F5F5"/>
<path d="M64.9426 63.344C65.0966 63.373 65.2506 63.387 65.4046 63.387C66.3576 63.387 67.2396 62.729 67.4506 61.748C67.7016 60.614 66.9886 59.492 65.8526 59.24C64.7176 58.989 63.5976 59.703 63.3456 60.837C63.0926 61.972 63.8076 63.093 64.9426 63.344Z" fill="#F5F5F5"/>
<path d="M77.0736 63.681C76.8646 64.817 77.6196 65.909 78.7686 66.119C78.8946 66.146 79.0206 66.146 79.1466 66.146C80.1416 66.146 81.0236 65.445 81.2056 64.424C81.4166 63.288 80.6596 62.196 79.5116 61.986C78.3766 61.776 77.2846 62.532 77.0736 63.681Z" fill="#F5F5F5"/>
<path d="M58.0646 61.748C58.2336 61.776 58.4006 61.804 58.5676 61.804C59.5216 61.804 60.3756 61.16 60.6136 60.192C60.8796 59.071 60.1936 57.938 59.0736 57.657C59.0466 57.65 59.0196 57.651 58.9926 57.646C58.1946 58.556 57.3986 59.485 56.6036 60.439C56.8396 61.069 57.3676 61.574 58.0646 61.748Z" fill="#F5F5F5"/>
<path d="M83.9796 64.9C83.7976 66.049 84.5676 67.127 85.7166 67.31C85.8286 67.325 85.9416 67.338 86.0526 67.338C87.0756 67.338 87.9576 66.595 88.1266 65.573C88.3076 64.424 87.5376 63.344 86.3896 63.162C85.2406 62.98 84.1626 63.751 83.9796 64.9Z" fill="#F5F5F5"/>
<path d="M119.038 140.49C101.808 144.678 83.0966 144.554 65.5876 144.513C49.7246 144.478 33.1696 144.428 17.4146 141.767C17.2966 142.218 17.1806 142.669 17.0636 143.122C32.9476 145.806 49.5926 145.847 65.5876 145.914C76.5286 145.96 87.4836 145.654 98.3906 144.765C105.434 144.192 112.572 143.404 119.485 141.795C119.336 141.366 119.187 140.928 119.038 140.49Z" fill="#F5F5F5"/>
<path opacity="0.5" d="M108.737 87.145C107.759 46.568 125.36 27.988 121.938 22.122C121.531 21.426 118.479 21.267 113.623 22.258C99.1976 55.473 85.4236 91.76 59.6866 115.568C47.6076 127.215 33.6566 133.712 18.5986 137.353C15.8416 147.314 13.4256 158.083 11.4516 169.766C11.4516 169.766 41.7626 184.923 129.272 165.366C129.272 165.366 109.714 127.721 108.737 87.145Z" fill="#C62242"/>
<path d="M129.702 165.113C121.955 150.161 116.624 133.554 113.015 117.165C107.447 91.884 107.829 65.928 116.823 41.515C118.393 37.253 120.271 33.107 121.791 28.827C122.53 26.746 123.527 23.983 122.37 21.87C122.061 21.305 121.197 21.809 121.507 22.375C122.346 23.907 121.67 25.933 121.192 27.472C120.327 30.258 119.129 32.946 118.038 35.647C114.485 44.45 111.626 53.442 109.975 62.806C105.317 89.233 110.248 116.512 118.889 141.605C121.697 149.759 124.865 157.948 128.84 165.619C129.136 166.191 129.999 165.685 129.702 165.113Z" fill="#7A0317"/>
<path d="M145.344 18.869C145.344 29.289 136.897 37.737 126.476 37.737C116.055 37.737 107.607 29.29 107.607 18.869C107.607 8.448 116.054 0 126.476 0C136.897 0.001 145.344 8.448 145.344 18.869Z" fill="#F9EBCE"/>
<path d="M67.6476 196.877C126.845 196.877 139.311 179.031 137.569 162.489C135.827 145.95 120.083 143.494 120.083 143.494L123.195 151.722C100.982 160.53 67.6476 160.313 67.6476 160.313C67.6476 160.313 37.2076 160.516 14.9946 151.709L16.7766 144.222C16.7766 144.222 1.92259 145.95 0.180593 162.489C-1.56141 179.032 8.4506 196.877 67.6476 196.877Z" fill="#F9EBCE"/>
<path d="M136.386 19.009C139.491 15.057 140.639 10.649 140.471 6.245C137.017 2.419 132.036 0 126.477 0C116.056 0 107.608 8.447 107.608 18.869C107.608 19.75 107.689 20.611 107.807 21.458C117.871 26.376 129.236 29.019 136.386 19.009Z" fill="#FDF8E4"/>
<path d="M114.464 154.612C93.1946 160.481 67.6476 160.315 67.6476 160.315C67.6476 160.315 37.2076 160.518 14.9946 151.711L16.7766 144.224C16.7766 144.224 1.9226 145.952 0.180596 162.491C-1.3474 177.003 6.1786 192.514 48.0116 196.104C51.0406 193.406 54.0116 191.063 56.5386 189.211C75.0866 175.298 96.7606 168.894 114.464 154.612Z" fill="#FDF8E4"/>
</svg>
