<svg width="167" height="171" viewBox="0 0 167 171" fill="none" xmlns="http://www.w3.org/2000/svg">
<path opacity="0.3" d="M160.783 89.962C170.49 84.651 162.032 69.196 151.743 78.561C151.77 78.125 151.782 77.707 151.782 77.302C151.782 77.152 151.774 77.012 151.77 76.866C151.764 76.618 151.758 76.369 151.743 76.134C151.731 75.967 151.712 75.81 151.695 75.649C151.674 75.449 151.655 75.248 151.628 75.057C151.604 74.89 151.571 74.732 151.542 74.572C151.51 74.402 151.479 74.232 151.44 74.069C151.403 73.907 151.36 73.752 151.316 73.598C151.275 73.453 151.234 73.309 151.188 73.171C151.136 73.015 151.081 72.865 151.023 72.718C150.976 72.596 150.927 72.476 150.876 72.361C150.81 72.212 150.74 72.067 150.668 71.927C150.617 71.828 150.564 71.733 150.51 71.638C150.428 71.496 150.344 71.356 150.255 71.223C150.204 71.148 150.151 71.076 150.099 71.004C149.998 70.865 149.896 70.729 149.788 70.603C149.745 70.553 149.7 70.507 149.655 70.459C149.531 70.322 149.405 70.188 149.27 70.065C149.252 70.047 149.231 70.032 149.21 70.014C146.24 67.362 141.271 68.248 137.39 71.667C133.855 56.342 127.057 41.439 117.407 29.028C112.763 23.056 107.279 17.773 101.125 13.376C100.874 13.196 100.631 13.31 100.507 13.513C97.8477 11.65 95.1337 10.069 92.3917 8.77999C92.3697 8.76999 92.3467 8.759 92.3247 8.749C91.7947 8.5 91.2637 8.256 90.7317 8.031C90.2757 7.838 89.8187 7.653 89.3607 7.479C85.0897 5.835 80.7787 4.935 76.5327 4.935C74.4167 4.935 72.3707 5.178 70.3867 5.622C70.3837 5.622 70.3807 5.623 70.3777 5.624H70.3787C64.1507 7.018 58.5627 10.515 53.5537 15.649C53.5507 15.652 53.5477 15.654 53.5447 15.657C44.9667 24.456 38.0858 38.042 32.5868 54.018C32.5748 54.05 32.5638 54.082 32.5528 54.114C32.0338 55.623 31.5287 57.152 31.0337 58.701C31.0137 58.764 30.9938 58.827 30.9748 58.89C24.2258 80.111 19.7298 104.911 16.8148 128.137C13.8268 128.356 11.0258 129.766 9.24975 132.53H9.24874C9.24774 132.532 9.24575 132.535 9.24475 132.537C8.53975 133.636 7.99675 134.947 7.66775 136.481C5.20975 147.954 2.77574 172.818 75.6837 170.9C76.7997 170.871 77.8947 170.837 78.9797 170.802C79.3417 170.79 79.6967 170.777 80.0547 170.764C80.7817 170.739 81.5028 170.712 82.2158 170.683C82.6168 170.667 83.0148 170.651 83.4098 170.634C84.0848 170.606 84.7528 170.576 85.4148 170.545C85.7928 170.527 86.1727 170.509 86.5467 170.491C87.2937 170.454 88.0307 170.414 88.7627 170.374C89.0287 170.359 89.2997 170.346 89.5637 170.331C90.5327 170.275 91.4877 170.217 92.4287 170.156C92.7227 170.138 93.0068 170.117 93.2978 170.097C93.9588 170.053 94.6158 170.007 95.2638 169.96C95.6258 169.934 95.9847 169.906 96.3437 169.879C96.9097 169.836 97.4727 169.792 98.0297 169.747C98.3957 169.718 98.7617 169.688 99.1247 169.657C99.6897 169.609 100.248 169.56 100.803 169.51C101.124 169.481 101.45 169.453 101.767 169.424C102.571 169.349 103.365 169.272 104.146 169.193C104.362 169.171 104.574 169.147 104.79 169.126C105.436 169.059 106.076 168.99 106.706 168.92C107.027 168.884 107.342 168.848 107.659 168.811C108.143 168.755 108.626 168.699 109.101 168.641C109.434 168.601 109.764 168.56 110.092 168.519C110.552 168.461 111.006 168.403 111.457 168.344C111.77 168.302 112.085 168.261 112.394 168.22C112.903 168.151 113.403 168.08 113.899 168.008C114.131 167.975 114.368 167.942 114.597 167.908C114.612 167.906 114.625 167.904 114.64 167.902V167.901C154.734 162 156.811 149.31 156.815 141.808C156.819 131.619 149.604 126.087 142.891 128.887C142.143 125.446 141.342 122.016 140.497 118.605C140.175 117.303 139.841 116.001 139.503 114.699C145.395 118.222 154.326 115.13 156.819 106.614C165.577 105.555 171.381 93.971 160.783 89.962Z" fill="#183B34"/>
<path d="M126.406 72.573C131.133 61.577 145.894 59.106 144.966 73.626C155.255 64.261 163.713 79.717 154.006 85.027C164.604 89.035 158.801 100.619 150.039 101.678C146.619 113.355 131.088 114.849 127.899 103.046C118.82 110.351 109.677 96.204 119.577 91.253C104.564 86.858 113.674 65.524 126.406 72.573Z" fill="#F9EBCE"/>
<path d="M8.15576 140.015C8.15576 140.015 59.4868 168.045 138.198 137.569C138.198 137.569 131.841 96.505 117.665 70.592C117.665 70.592 133.481 84.546 130.87 70.305C124.02 32.95 95.6648 0 69.7538 0C30.1528 0 14.0218 80.37 8.15576 140.015Z" fill="#F33B3D"/>
<path d="M28.6367 116.179C28.7137 116.329 28.8267 116.469 28.9627 116.584C28.9657 116.587 28.9718 116.592 28.9778 116.598C28.9808 116.601 28.9838 116.603 28.9878 116.606C29.2618 116.858 29.5957 116.964 29.9237 116.967C29.9407 116.967 29.9558 116.97 29.9698 116.97C29.9868 116.97 30.0018 116.967 30.0178 116.967C30.3488 116.964 30.6797 116.858 30.9557 116.606C30.9587 116.603 30.9627 116.601 30.9677 116.598C30.9717 116.592 30.9768 116.587 30.9818 116.584C31.1198 116.469 31.2278 116.33 31.3068 116.179C35.0718 110.839 38.9707 105.599 43.0107 100.477C47.0517 105.6 50.9517 110.839 54.7167 116.179C54.7947 116.329 54.9047 116.469 55.0407 116.584C55.0467 116.587 55.0527 116.592 55.0587 116.598C55.0607 116.601 55.0627 116.603 55.0667 116.606C55.3417 116.858 55.6747 116.964 56.0057 116.967C56.0207 116.967 56.0348 116.97 56.0528 116.97C56.0688 116.97 56.0818 116.967 56.0988 116.967C56.4288 116.964 56.7598 116.858 57.0378 116.606C57.0398 116.603 57.0437 116.601 57.0457 116.598C57.0517 116.592 57.0577 116.587 57.0627 116.584C57.1987 116.469 57.3088 116.33 57.3878 116.179C61.1528 110.839 65.0507 105.602 69.0917 100.477C73.1337 105.602 77.0318 110.839 80.7968 116.179C80.8768 116.329 80.9867 116.469 81.1227 116.584C81.1287 116.587 81.1338 116.592 81.1388 116.598C81.1418 116.601 81.1447 116.603 81.1477 116.606C81.4237 116.858 81.7568 116.964 82.0868 116.967C82.1038 116.967 82.1158 116.97 82.1338 116.97C82.1498 116.97 82.1627 116.967 82.1797 116.967C82.5097 116.964 82.8417 116.858 83.1187 116.606C83.1207 116.603 83.1238 116.601 83.1258 116.598C83.1318 116.592 83.1368 116.587 83.1428 116.584C83.2788 116.469 83.3888 116.33 83.4688 116.179C87.2327 110.839 91.1318 105.599 95.1728 100.477C99.2148 105.6 103.113 110.839 106.877 116.179C106.957 116.329 107.066 116.469 107.203 116.584C107.209 116.587 107.213 116.592 107.218 116.598C107.221 116.601 107.225 116.603 107.228 116.606C107.504 116.858 107.836 116.964 108.167 116.967C108.183 116.967 108.198 116.97 108.213 116.97C108.23 116.97 108.244 116.967 108.261 116.967C108.588 116.964 108.923 116.858 109.197 116.606C109.202 116.603 109.204 116.601 109.208 116.598C109.213 116.592 109.218 116.587 109.222 116.584C109.358 116.469 109.47 116.33 109.547 116.179C113.313 110.839 117.211 105.599 121.254 100.477C125.339 105.657 129.28 110.951 133.082 116.352C133.335 116.707 133.669 116.893 134.017 116.951C133.546 114.968 133.033 112.896 132.477 110.76C129.413 106.525 126.291 102.333 123.052 98.237C124.428 96.524 125.842 94.839 127.251 93.151C126.902 92.125 126.544 91.099 126.182 90.073C124.52 92.046 122.87 94.023 121.254 96.031C117.371 91.213 113.38 86.485 109.204 81.91C108.906 81.582 108.564 81.458 108.233 81.472C108.224 81.47 108.218 81.47 108.212 81.467C108.204 81.47 108.199 81.47 108.194 81.472C107.862 81.458 107.519 81.582 107.22 81.91C103.045 86.485 99.0508 91.212 95.1718 96.031C91.2898 91.213 87.2977 86.485 83.1227 81.91C82.8247 81.585 82.4827 81.461 82.1527 81.472C82.1457 81.472 82.1387 81.47 82.1317 81.467C82.1227 81.47 82.1178 81.472 82.1088 81.472C81.7818 81.461 81.4377 81.585 81.1407 81.91C76.9657 86.485 72.9728 91.212 69.0908 96.031C65.2108 91.213 61.2178 86.485 57.0428 81.91C56.7448 81.585 56.4018 81.461 56.0738 81.472C56.0648 81.472 56.0588 81.47 56.0528 81.467C56.0458 81.47 56.0378 81.472 56.0308 81.472C55.7018 81.461 55.3588 81.585 55.0608 81.91C50.8858 86.485 46.8937 91.212 43.0107 96.031C39.1307 91.213 35.1377 86.485 30.9627 81.91C30.6637 81.582 30.3208 81.458 29.9908 81.472C29.9848 81.47 29.9788 81.47 29.9698 81.467C29.9638 81.47 29.9588 81.47 29.9518 81.472C29.6208 81.458 29.2787 81.582 28.9807 81.91C24.8047 86.485 20.8138 91.212 16.9318 96.031C16.1788 95.096 15.3997 94.181 14.6347 93.254C14.4137 94.45 14.1978 95.648 13.9868 96.849C14.3638 97.314 14.7598 97.768 15.1338 98.236C14.5278 99.005 13.9458 99.793 13.3458 100.567C13.0198 102.507 12.7048 104.449 12.4008 106.389C13.8978 104.406 15.3947 102.425 16.9327 100.476C20.9737 105.599 24.8717 110.839 28.6367 116.179ZM108.208 85.015C112.089 89.314 115.828 93.727 119.451 98.236C115.568 103.141 111.837 108.165 108.208 113.265C104.579 108.165 100.848 103.142 96.9667 98.236C100.587 93.727 104.328 89.314 108.208 85.015ZM82.1298 85.015C86.0098 89.314 89.7498 93.727 93.3708 98.236C89.4888 103.141 85.7588 108.165 82.1298 113.265C78.4998 108.165 74.7708 103.142 70.8878 98.236C74.5078 93.727 78.2488 89.314 82.1298 85.015ZM56.0508 85.015C59.9298 89.314 63.6707 93.727 67.2917 98.236C63.4097 103.141 59.6788 108.165 56.0508 113.265C52.4208 108.165 48.6907 103.142 44.8077 98.236C48.4307 93.727 52.1708 89.314 56.0508 85.015ZM29.9698 85.015C33.8508 89.314 37.5907 93.727 41.2127 98.236C37.3317 103.141 33.6008 108.165 29.9698 113.265C26.3428 108.165 22.6108 103.142 18.7278 98.236C22.3508 93.727 26.0908 89.314 29.9698 85.015Z" fill="#F5F5F5"/>
<path d="M91.1867 57.367C87.5657 52.858 83.8268 48.445 79.9448 44.146C76.0658 48.444 72.3247 52.857 68.7047 57.367C72.5857 62.269 76.3157 67.296 79.9457 72.395C83.5737 67.295 87.3057 62.269 91.1867 57.367Z" fill="#7A0317"/>
<path d="M39.0298 57.367C35.4078 52.858 31.6678 48.445 27.7878 44.143C27.6648 44.28 27.5478 44.422 27.4258 44.559C25.1918 50.561 23.1668 56.956 21.3398 63.606C23.5268 66.506 25.6818 69.432 27.7878 72.395C31.4158 67.295 35.1478 62.269 39.0298 57.367Z" fill="#7A0317"/>
<path d="M113.386 62.269C111.429 58.269 107.386 49.232 104.779 45.536C100.897 49.834 98.4037 52.858 94.7827 57.367C98.6637 62.269 102.395 67.296 106.025 72.395C109.655 67.295 109.504 67.175 113.386 62.269Z" fill="#7A0317"/>
<path d="M65.1088 57.367C61.4878 52.858 57.7467 48.445 53.8677 44.146C49.9867 48.444 46.2458 52.857 42.6248 57.367C46.5088 62.269 50.2367 67.296 53.8677 72.395C57.4937 67.295 61.2268 62.269 65.1088 57.367Z" fill="#7A0317"/>
<path d="M99.6558 36.551C99.6638 36.565 99.6757 36.571 99.6837 36.584C99.7247 36.647 99.7718 36.696 99.8268 36.737C99.8488 36.753 99.8677 36.773 99.8897 36.786C99.9307 36.81 99.9748 36.827 100.022 36.841C100.068 36.855 100.112 36.871 100.159 36.874C100.186 36.876 100.213 36.874 100.24 36.874C100.252 36.874 100.262 36.874 100.273 36.874C100.285 36.874 100.293 36.874 100.303 36.874C100.339 36.869 100.374 36.866 100.408 36.855C100.421 36.852 100.431 36.852 100.444 36.85C100.669 36.803 100.855 36.661 100.923 36.417C100.934 36.393 100.937 36.365 100.944 36.341C100.948 36.319 100.949 36.294 100.95 36.273C100.954 36.253 100.956 36.235 100.957 36.215C100.957 36.209 100.961 36.207 100.961 36.198C100.961 36.198 100.958 36.195 100.958 36.192C100.958 36.16 100.958 36.127 100.954 36.091C100.513 25.489 94.3147 15.907 87.9807 7.797C86.7517 6.224 85.4607 4.689 84.1447 3.173C83.1687 2.753 82.1887 2.383 81.2057 2.045C82.7507 3.729 84.2577 5.444 85.7087 7.198C91.1517 13.766 96.6267 21.665 98.7037 30.209C94.8097 22.408 87.9338 16.042 81.2578 10.731C76.4048 6.867 71.1898 3.368 65.7468 0.290001C65.0228 0.393001 64.3057 0.528 63.5967 0.687C69.4497 3.906 75.0327 7.637 80.2687 11.721C87.1117 17.061 94.1997 23.696 97.8987 31.789C92.2387 25.184 83.9487 20.77 76.0967 17.5C67.1187 13.762 57.6307 10.998 47.9937 9.509C47.5807 9.903 47.1708 10.305 46.7638 10.721C55.7588 12.025 64.6188 14.513 73.0768 17.776C82.9798 21.597 93.9748 27.165 99.6558 36.551Z" fill="#F5F5F5"/>
<path opacity="0.5" d="M130.869 70.305C125.23 39.543 105.005 11.789 83.5707 2.942C83.1027 3.495 82.6457 4.079 82.2137 4.729C73.4587 19.85 85.3967 43.729 89.3767 58.852C96.5387 83.525 97.3358 112.179 81.4178 132.871C72.8448 143.845 61.9048 149.049 50.0048 150.98C72.2278 153.188 102.376 151.437 138.197 137.568C138.197 137.568 131.84 96.504 117.664 70.591C117.664 70.591 133.481 84.545 130.869 70.305Z" fill="#C62242"/>
<path d="M124.329 83.77C120.93 76.332 117.349 68.971 113.694 61.655C107.432 49.123 100.982 36.52 93.1607 24.874C92.8037 24.342 91.9368 24.842 92.2978 25.379C100.12 37.026 106.558 49.631 112.831 62.16C116.492 69.472 120.066 76.836 123.466 84.275C123.734 84.861 124.595 84.352 124.329 83.77Z" fill="#7A0317"/>
<path d="M154.005 85.027C163.712 79.716 155.254 64.261 144.965 73.626C145.391 66.945 142.493 63.87 138.782 63.558C136.029 71.148 135.194 80.822 144.362 82.351C137.502 93.071 141.412 101.941 148.846 104.485C149.316 103.62 149.738 102.704 150.037 101.678C158.8 100.62 164.603 89.036 154.005 85.027Z" fill="#FDF8E4"/>
<path d="M138.68 137.436C137.421 129.339 135.63 121.302 133.652 113.355C129.979 98.6 125.372 83.753 118.096 70.339C117.834 70.541 117.573 70.743 117.311 70.945C120.173 73.459 125.445 78.221 129.594 77.049C133.276 76.009 131.295 69.611 130.669 66.898C126.866 50.406 119.367 34.337 108.433 21.383C104.304 16.491 99.5587 12.148 94.3527 8.428C93.8277 8.052 93.3287 8.92 93.8487 9.291C110.872 21.458 121.789 40.425 127.818 60.151C129.003 64.024 130.209 68.073 130.619 72.125C131.498 80.804 120.781 72.632 118.063 70.277C118.048 70.264 118.033 70.251 118.018 70.237C117.594 69.865 116.955 70.331 117.233 70.843C124.573 84.377 129.137 99.355 132.841 114.239C134.768 121.979 136.489 129.816 137.715 137.701C137.814 138.338 138.778 138.067 138.68 137.436Z" fill="#7A0317"/>
<path d="M0.886745 131.544C3.50774 119.314 19.7328 121.24 23.0128 132.362C27.5198 121.24 43.9098 121.3 50.4658 132.772C55.7928 119.251 70.5407 121.3 77.0977 133.183C84.4737 121.301 96.7688 120.48 105.372 131.954C107.83 120.89 124.628 117.202 129.955 129.495C137.331 118.023 150.039 123.35 150.033 136.871C150.028 146.297 146.755 163.914 68.9027 165.963C-4.00526 167.881 -1.57126 143.017 0.886745 131.544Z" fill="#F9EBCE"/>
<path d="M99.5348 149.591C89.0288 139.085 76.4217 143.988 63.8137 148.191C56.1097 132.081 35.0977 136.284 21.0887 142.587C15.6327 134.152 10.1627 129.249 2.46672 127.594C1.76172 128.694 1.21573 130.008 0.885731 131.545C-1.57227 143.018 -4.00626 167.882 68.9027 165.964C84.7947 165.546 97.5747 164.479 107.858 162.965C106.305 157.821 103.271 153.014 99.5348 149.591Z" fill="#FDF8E4"/>
</svg>
