<svg width="158" height="179" viewBox="0 0 158 179" fill="none" xmlns="http://www.w3.org/2000/svg">
<path opacity="0.3" d="M155.411 81.9394C155.526 81.7624 155.632 81.5814 155.739 81.3994C155.9 81.1274 156.053 80.8504 156.197 80.5674C156.316 80.3344 156.431 80.1004 156.537 79.8614C156.61 79.6964 156.679 79.5294 156.745 79.3614C156.852 79.0954 156.95 78.8254 157.041 78.5514C157.086 78.4184 157.135 78.2864 157.176 78.1524C157.298 77.7504 157.403 77.3404 157.492 76.9244C157.516 76.8084 157.534 76.6914 157.556 76.5724C157.619 76.2384 157.671 75.8984 157.711 75.5564C157.726 75.4254 157.742 75.2954 157.755 75.1624C157.795 74.7114 157.824 74.2564 157.824 73.7944C157.824 65.5064 151.104 58.7884 142.815 58.7884C142.348 58.7884 141.887 58.8164 141.432 58.8584C141.251 58.8754 141.073 58.9024 140.893 58.9244C140.633 58.9584 140.373 58.9954 140.118 59.0424C139.89 59.0844 139.666 59.1304 139.442 59.1834C139.25 59.2274 139.061 59.2774 138.872 59.3304C138.623 59.3974 138.374 59.4654 138.13 59.5454C138.113 59.5514 138.097 59.5544 138.082 59.5594L138.081 59.5634C134.998 60.5894 132.363 62.5844 130.534 65.1914C125.587 57.5054 117.339 44.2244 111.949 33.0844C100.765 9.96839 92.3303 -7.12661 69.6793 15.7404C51.7113 33.8814 39.4783 54.1144 31.1413 73.2634C31.1383 73.2714 31.1353 73.2794 31.1313 73.2864C28.1073 80.2334 25.5933 87.0374 23.5103 93.5474C23.5083 93.5574 23.5053 93.5644 23.5023 93.5744C23.3093 94.1784 23.1223 94.7774 22.9363 95.3764C22.9333 95.3874 22.9293 95.3994 22.9253 95.4124C22.4413 96.9734 21.9803 98.5164 21.5433 100.037C21.5423 100.042 21.5403 100.046 21.5393 100.051C20.3243 104.287 19.2883 108.365 18.4063 112.241C18.4033 112.254 18.4003 112.267 18.3973 112.281C16.9593 118.607 15.9273 124.389 15.1893 129.429C15.1863 129.45 15.1843 129.468 15.1813 129.489C15.1263 129.865 15.0713 130.241 15.0193 130.608C14.4033 130.508 13.8503 130.565 13.3243 130.817C11.9333 131.485 10.5893 133.502 9.48335 136.293C9.47435 136.314 9.46635 136.335 9.45835 136.356C9.00535 137.507 8.59435 138.787 8.23735 140.162C8.22535 140.209 8.21235 140.256 8.20035 140.302C8.12235 140.609 8.04635 140.92 7.97335 141.236C7.95335 141.321 7.93435 141.409 7.91435 141.495C7.84435 141.806 7.77635 142.118 7.71135 142.435C7.70035 142.491 7.69035 142.545 7.68035 142.601C7.55235 143.247 7.43635 143.904 7.33335 144.575C7.32135 144.652 7.30835 144.728 7.29635 144.805C7.25535 145.079 7.22035 145.355 7.18435 145.631C7.16035 145.814 7.13735 145.994 7.11535 146.178C7.08535 146.433 7.05635 146.689 7.03035 146.947C7.00835 147.163 6.98835 147.38 6.96935 147.597C6.94835 147.835 6.92635 148.073 6.90835 148.312C6.88635 148.626 6.86835 148.941 6.85135 149.256C6.83635 149.526 6.82535 149.796 6.81535 150.068C6.80335 150.39 6.79335 150.711 6.78935 151.033C6.78635 151.224 6.78735 151.416 6.78635 151.607C6.78635 151.901 6.78835 152.194 6.79435 152.487C6.79835 152.673 6.80235 152.858 6.80835 153.043C6.81835 153.371 6.83435 153.699 6.85335 154.025C6.86235 154.169 6.86835 154.313 6.87735 154.456C6.90935 154.925 6.94835 155.39 6.99835 155.852C7.00735 155.933 7.01935 156.013 7.02735 156.092C7.07135 156.48 7.12135 156.864 7.17735 157.247C7.19835 157.388 7.22135 157.527 7.24435 157.667C7.29735 157.997 7.35635 158.324 7.41835 158.648C7.44535 158.786 7.47235 158.923 7.50035 159.06C7.57935 159.432 7.66435 159.8 7.75635 160.164C7.77535 160.236 7.79035 160.311 7.80935 160.384C7.92535 160.826 8.05135 161.26 8.18835 161.687C8.21335 161.765 8.24135 161.84 8.26735 161.917C8.38135 162.259 8.50035 162.594 8.62935 162.923C8.67535 163.042 8.72335 163.159 8.77135 163.276C8.89235 163.571 9.01935 163.86 9.15235 164.144C9.20335 164.252 9.25335 164.363 9.30635 164.47C9.47635 164.816 9.65435 165.153 9.84435 165.48C9.86335 165.512 9.87935 165.545 9.89735 165.579C10.1083 165.936 10.3333 166.282 10.5683 166.618C10.6273 166.702 10.6923 166.782 10.7523 166.866C10.9313 167.11 11.1163 167.347 11.3103 167.577C11.3933 167.677 11.4793 167.774 11.5663 167.871C11.7563 168.085 11.9543 168.289 12.1573 168.487C12.2423 168.571 12.3253 168.656 12.4133 168.738C12.7053 169.006 13.0053 169.264 13.3233 169.503C13.4883 169.628 13.6733 169.751 13.8723 169.876C13.9373 169.916 14.0123 169.957 14.0803 169.997C14.2223 170.082 14.3643 170.165 14.5203 170.249C14.6103 170.296 14.7083 170.345 14.8023 170.393C14.9523 170.468 15.1043 170.545 15.2663 170.621C15.3733 170.672 15.4873 170.722 15.6003 170.772C15.7653 170.846 15.9333 170.919 16.1083 170.993C16.2303 171.044 16.3573 171.096 16.4853 171.146C16.6673 171.218 16.8543 171.291 17.0463 171.364C17.1803 171.415 17.3153 171.465 17.4543 171.514C17.6573 171.588 17.8673 171.66 18.0813 171.734C18.2233 171.783 18.3643 171.833 18.5123 171.88C18.7413 171.955 18.9803 172.031 19.2213 172.107C19.3653 172.151 19.5053 172.197 19.6523 172.242C19.9273 172.324 20.2133 172.407 20.5013 172.49C20.6263 172.526 20.7473 172.562 20.8753 172.598C21.2973 172.715 21.7323 172.833 22.1813 172.95C22.1993 172.954 22.2173 172.959 22.2353 172.964C22.6653 173.075 23.1083 173.186 23.5623 173.295C23.7233 173.333 23.8923 173.371 24.0563 173.41C24.3733 173.485 24.6913 173.559 25.0193 173.634C25.2183 173.679 25.4243 173.722 25.6263 173.767C25.9323 173.833 26.2393 173.901 26.5543 173.966C26.7733 174.013 26.9973 174.058 27.2203 174.103C27.5273 174.167 27.8373 174.229 28.1523 174.291C28.3923 174.339 28.6353 174.385 28.8803 174.432C29.1893 174.491 29.5033 174.55 29.8203 174.608C30.0763 174.656 30.3323 174.702 30.5923 174.749C30.9113 174.805 31.2343 174.861 31.5593 174.917C31.8233 174.963 32.0863 175.009 32.3553 175.053C32.6943 175.111 33.0403 175.165 33.3853 175.22C33.6513 175.263 33.9134 175.306 34.1824 175.349C34.5424 175.405 34.9103 175.459 35.2763 175.514C35.5413 175.554 35.8033 175.595 36.0723 175.634C36.5283 175.7 36.9924 175.765 37.4584 175.828C37.8974 175.888 38.3423 175.949 38.7893 176.008C39.1653 176.058 39.5393 176.108 39.9203 176.156C40.2613 176.2 40.6093 176.24 40.9563 176.283C41.2873 176.323 41.6173 176.364 41.9513 176.403C42.3163 176.446 42.6853 176.487 43.0543 176.529C43.3773 176.565 43.7004 176.602 44.0274 176.637C44.4124 176.679 44.8003 176.72 45.1903 176.76C45.5033 176.793 45.8183 176.824 46.1343 176.858C46.5413 176.897 46.9494 176.937 47.3614 176.977C47.6674 177.005 47.9743 177.036 48.2833 177.063C48.7083 177.103 49.1353 177.141 49.5653 177.178C49.8613 177.204 50.1594 177.229 50.4574 177.253C50.9074 177.291 51.3573 177.328 51.8113 177.364C52.0793 177.384 52.3503 177.405 52.6193 177.424C53.1103 177.461 53.6014 177.499 54.0984 177.533C54.2844 177.547 54.4723 177.559 54.6593 177.571C57.2993 177.753 60.0063 177.901 62.7663 178.012C62.9103 178.018 63.0543 178.025 63.1993 178.031C63.7953 178.054 64.3953 178.075 64.9953 178.094C65.1953 178.101 65.3943 178.109 65.5953 178.115C66.1813 178.133 66.7704 178.149 67.3604 178.164C67.5704 178.169 67.7793 178.175 67.9893 178.18C68.5873 178.193 69.1863 178.205 69.7873 178.216C69.9843 178.219 70.1823 178.222 70.3793 178.224C70.9983 178.234 71.6183 178.242 72.2413 178.247C72.4083 178.248 72.5753 178.249 72.7423 178.25C73.3993 178.255 74.0563 178.257 74.7173 178.259C74.8193 178.259 74.9213 178.257 75.0233 178.257C79.6633 178.254 84.3733 178.138 89.0863 177.894C89.1443 177.891 89.2013 177.888 89.2573 177.885C89.9923 177.846 90.7263 177.804 91.4613 177.76C91.5523 177.754 91.6433 177.748 91.7343 177.742C92.4603 177.698 93.1853 177.649 93.9103 177.597C93.9973 177.592 94.0843 177.585 94.1713 177.579C94.9103 177.524 95.6493 177.469 96.3863 177.409C96.4383 177.404 96.4904 177.4 96.5424 177.395C102.901 176.873 109.193 176.096 115.248 175.022C115.287 175.015 115.327 175.008 115.365 175.002C116.092 174.872 116.814 174.738 117.534 174.601C117.577 174.593 117.62 174.584 117.664 174.576C118.391 174.436 119.113 174.292 119.831 174.142C119.847 174.138 119.863 174.136 119.878 174.132C125.079 173.051 130.059 171.73 134.704 170.139C134.725 170.132 134.745 170.125 134.765 170.118C135.39 169.903 136.008 169.683 136.62 169.459C136.654 169.447 136.689 169.435 136.724 169.423L136.723 169.421C141.394 167.705 145.696 165.704 149.489 163.376C154.555 160.269 149.152 127.476 143.82 127.142C143.3 127.11 142.748 127.206 142.13 127.406C138.959 116.023 134.477 105.006 128.97 94.5234C125.035 87.0344 120.61 79.5324 115.333 72.8654C119.135 73.6624 123.696 74.2744 127.819 73.7064C127.819 73.7364 127.815 73.7664 127.815 73.7964C127.815 82.0864 134.533 88.8044 142.819 88.8044C145.162 88.8044 147.371 88.2524 149.346 87.2944L149.347 87.2954C149.355 87.2914 149.363 87.2864 149.371 87.2834C150.602 86.6834 151.737 85.9244 152.751 85.0264C152.786 84.9964 152.819 84.9634 152.853 84.9334C153.541 84.3144 154.169 83.6334 154.732 82.8984C154.82 82.7844 154.906 82.6704 154.99 82.5524C155.133 82.3504 155.275 82.1464 155.411 81.9394Z" fill="#183B34"/>
<path d="M6.54236 145.199C6.54236 145.199 6.54235 67.7044 62.9004 10.8034C85.5514 -12.0636 93.9854 5.03137 105.169 28.1484C113.297 44.9454 127.929 66.6224 127.929 66.6224C123.052 69.8724 107.335 67.1654 107.335 67.1654C107.335 67.1654 134.433 100.22 139.309 145.199C139.309 145.199 68.3194 179.34 6.54236 145.199Z" fill="#F33B3D"/>
<path d="M18.2844 107.957C16.6874 109.352 15.0874 110.739 13.4644 112.099C12.8784 112.589 13.6344 113.497 14.2204 113.007C15.8514 111.645 17.4584 110.248 19.0624 108.85C18.9164 110.964 18.7674 113.078 18.5784 115.186C18.5124 115.949 19.6904 116.055 19.7574 115.294C19.9464 113.176 20.0964 111.054 20.2414 108.932C21.6344 110.53 23.0224 112.127 24.3834 113.754C24.8734 114.339 25.7804 113.584 25.2904 112.997C23.9264 111.365 22.5314 109.76 21.1344 108.156C23.2474 108.301 25.3604 108.45 27.4714 108.638C28.2314 108.705 28.3374 107.529 27.5784 107.461C25.4584 107.272 23.3374 107.122 21.2154 106.977C22.8124 105.585 24.4104 104.195 26.0364 102.835C26.6234 102.344 25.8644 101.439 25.2804 101.928C23.6484 103.292 22.0414 104.687 20.4384 106.084C20.5844 103.971 20.7334 101.857 20.9204 99.7444C20.9884 98.9864 19.8104 98.8794 19.7434 99.6404C19.5544 101.759 19.4044 103.879 19.2604 106.002C17.8664 104.404 16.4784 102.806 15.1214 101.181C14.6304 100.594 13.7244 101.352 14.2114 101.938C15.5764 103.57 16.9724 105.175 18.3694 106.779C16.2544 106.633 14.1414 106.485 12.0304 106.297C11.9644 106.291 11.9094 106.306 11.8534 106.317C11.7724 106.664 11.6954 107.005 11.6184 107.347C11.6994 107.411 11.7934 107.464 11.9244 107.475C14.0414 107.664 16.1624 107.813 18.2844 107.957Z" fill="#F5F5F5"/>
<path d="M33.1234 109.468C34.1484 109.437 34.9534 108.582 34.9214 107.556C34.8904 106.532 34.0354 105.725 33.0094 105.756C31.9854 105.787 31.1794 106.644 31.2114 107.668C31.2424 108.693 32.0994 109.499 33.1234 109.468Z" fill="#7A0317"/>
<path d="M38.6264 110.214C40.7514 110.315 42.8784 110.375 45.0034 110.431C43.4684 111.89 41.9274 113.344 40.3604 114.77C39.7964 115.284 40.5894 116.16 41.1524 115.645C42.7264 114.214 44.2724 112.754 45.8174 111.29C45.7594 113.406 45.7004 115.525 45.5994 117.642C45.5644 118.404 46.7454 118.463 46.7824 117.701C46.8804 115.575 46.9424 113.449 46.9994 111.322C48.4574 112.862 49.9104 114.401 51.3384 115.969C51.8514 116.533 52.7274 115.74 52.2134 115.176C50.7814 113.601 49.3204 112.054 47.8594 110.512C49.9774 110.568 52.0944 110.629 54.2104 110.729C54.9714 110.764 55.0294 109.582 54.2684 109.547C52.1424 109.446 50.0164 109.386 47.8904 109.328C49.4274 107.872 50.9674 106.417 52.5354 104.988C53.1004 104.476 52.3054 103.601 51.7414 104.115C50.1684 105.547 48.6194 107.008 47.0774 108.471C47.1334 106.352 47.1944 104.234 47.2944 102.117C47.3294 101.354 46.1484 101.297 46.1124 102.059C46.0114 104.184 45.9524 106.311 45.8954 108.438C44.4374 106.899 42.9814 105.358 41.5574 103.792C41.0424 103.226 40.1674 104.021 40.6794 104.586C42.1144 106.16 43.5734 107.706 45.0364 109.25C42.9184 109.192 40.8014 109.134 38.6844 109.034C37.9234 108.997 37.8654 110.178 38.6264 110.214Z" fill="#F5F5F5"/>
<path d="M59.8344 112.37C60.8604 112.338 61.6644 111.482 61.6324 110.458C61.6024 109.433 60.7474 108.627 59.7214 108.659C58.6974 108.689 57.8914 109.545 57.9224 110.571C57.9544 111.595 58.8114 112.4 59.8344 112.37Z" fill="#7A0317"/>
<path d="M65.3484 112.37C67.4744 112.303 69.5984 112.195 71.7234 112.083C70.3064 113.658 68.8864 115.229 67.4364 116.776C66.9154 117.331 67.7744 118.142 68.2984 117.586C69.7534 116.035 71.1794 114.456 72.6014 112.874C72.7124 114.99 72.8214 117.106 72.8884 119.224C72.9114 119.988 74.0944 119.952 74.0704 119.188C74.0024 117.063 73.8944 114.938 73.7834 112.813C75.3594 114.233 76.9304 115.652 78.4764 117.102C79.0344 117.624 79.8424 116.763 79.2864 116.241C77.7354 114.785 76.1564 113.359 74.5754 111.938C76.6914 111.826 78.8074 111.719 80.9244 111.65C81.6874 111.626 81.6514 110.442 80.8894 110.467C78.7624 110.535 76.6384 110.643 74.5134 110.754C75.9314 109.18 77.3524 107.608 78.8014 106.063C79.3224 105.506 78.4634 104.697 77.9404 105.253C76.4844 106.803 75.0584 108.382 73.6354 109.965C73.5244 107.848 73.4164 105.732 73.3484 103.613C73.3254 102.851 72.1434 102.887 72.1674 103.649C72.2344 105.775 72.3434 107.9 72.4544 110.025C70.8804 108.606 69.3074 107.185 67.7624 105.737C67.2054 105.214 66.3964 106.075 66.9534 106.596C68.5044 108.054 70.0824 109.478 71.6634 110.901C69.5474 111.013 67.4314 111.121 65.3134 111.188C64.5504 111.213 64.5864 112.395 65.3484 112.37Z" fill="#F5F5F5"/>
<path d="M86.4354 111.56C87.4604 111.529 88.2654 110.673 88.2334 109.649C88.2034 108.623 87.3474 107.818 86.3214 107.849C85.2964 107.88 84.4914 108.736 84.5224 109.761C84.5544 110.786 85.4104 111.591 86.4354 111.56Z" fill="#7A0317"/>
<path d="M91.9754 109.817C94.0904 109.584 96.1993 109.31 98.3083 109.032C97.0203 110.713 95.7274 112.39 94.4034 114.046C93.9264 114.641 94.8464 115.384 95.3254 114.785C96.6534 113.126 97.9524 111.441 99.2454 109.751C99.5224 111.853 99.7944 113.953 100.028 116.06C100.112 116.819 101.288 116.689 101.204 115.931C100.97 113.817 100.695 111.707 100.416 109.598C102.1 110.889 103.778 112.182 105.432 113.506C106.028 113.982 106.767 113.062 106.172 112.585C104.51 111.255 102.827 109.956 101.137 108.661C103.239 108.385 105.34 108.112 107.446 107.878C108.206 107.794 108.077 106.619 107.317 106.703C105.202 106.938 103.093 107.212 100.986 107.491C102.274 105.807 103.568 104.13 104.892 102.474C105.369 101.878 104.445 101.141 103.97 101.736C102.64 103.396 101.343 105.08 100.047 106.768C99.7723 104.668 99.4994 102.568 99.2644 100.46C99.1804 99.7024 98.0054 99.8304 98.0894 100.589C98.3224 102.703 98.5974 104.813 98.8754 106.922C97.1944 105.631 95.5154 104.338 93.8614 103.017C93.2664 102.537 92.5264 103.46 93.1214 103.935C94.7834 105.267 96.4684 106.564 98.1544 107.859C96.0534 108.134 93.9514 108.408 91.8474 108.642C91.0904 108.726 91.2184 109.902 91.9754 109.817Z" fill="#F5F5F5"/>
<path d="M112.946 107.856C113.97 107.826 114.776 106.971 114.744 105.945C114.713 104.921 113.856 104.115 112.832 104.145C111.807 104.177 111.002 105.033 111.034 106.057C111.066 107.082 111.921 107.887 112.946 107.856Z" fill="#7A0317"/>
<path d="M124.182 96.3924C124.623 98.4724 125.103 100.545 125.587 102.617C123.786 101.497 121.99 100.374 120.214 99.2224C119.574 98.8044 118.928 99.7944 119.568 100.21C121.351 101.37 123.154 102.497 124.96 103.62C122.898 104.1 120.834 104.579 118.76 105.017C118.014 105.174 118.257 106.333 119.002 106.175C121.083 105.734 123.158 105.255 125.228 104.772C124.11 106.573 122.986 108.371 121.831 110.145C121.415 110.785 122.407 111.43 122.822 110.791C123.982 109.009 125.108 107.204 126.232 105.398C126.712 107.463 127.19 109.526 127.63 111.598C127.788 112.346 128.944 112.103 128.787 111.355C128.345 109.275 127.868 107.201 127.383 105.13C128.069 105.557 128.746 105.996 129.43 106.424C129.177 105.791 128.924 105.164 128.667 104.543C128.448 104.406 128.23 104.265 128.011 104.128C128.16 104.093 128.308 104.06 128.457 104.024C128.301 103.65 128.141 103.288 127.985 102.919C127.903 102.937 127.822 102.956 127.741 102.975C127.793 102.891 127.848 102.807 127.901 102.722C127.713 102.282 127.525 101.84 127.335 101.406C127.138 101.722 126.934 102.035 126.737 102.351C126.383 100.833 126.046 99.3094 125.709 97.7864C125.38 97.0804 125.051 96.3954 124.721 95.7094C124.4 95.7354 124.096 95.9844 124.182 96.3924Z" fill="#F5F5F5"/>
<path d="M64.1454 98.8484C74.7774 98.7514 85.3984 98.1254 95.9304 96.6414C104.871 95.3814 113.56 93.1794 122.197 90.6664C121.888 90.0724 121.579 89.4814 121.273 88.9074C113.366 91.1944 105.42 93.2094 97.2564 94.4914C86.6204 96.1614 75.8374 96.7344 65.0844 96.8904C48.4114 97.1344 31.7294 96.0374 15.3054 93.2444C15.1194 93.8714 14.9364 94.4944 14.7594 95.1144C31.0554 97.8904 47.5914 98.9994 64.1454 98.8484Z" fill="#7A0317"/>
<path d="M64.1454 93.9734C74.7774 93.8764 85.3984 93.2504 95.9304 91.7664C104.09 90.6174 112.039 88.6844 119.93 86.4464C119.599 85.8514 119.271 85.2684 118.946 84.6974C111.806 86.7084 104.619 88.4604 97.2564 89.6174C86.6204 91.2874 75.8374 91.8594 65.0844 92.0164C48.8944 92.2534 32.6944 91.2284 16.7314 88.6124C16.5314 89.2374 16.3374 89.8584 16.1454 90.4774C31.9924 93.0794 48.0604 94.1194 64.1454 93.9734Z" fill="#7A0317"/>
<path d="M88.3874 85.8814C88.4744 85.8814 88.5634 85.8814 88.6504 85.8714C90.2544 85.7244 91.4424 84.3054 91.2964 82.7004C91.1404 81.0954 89.7294 79.9084 88.1254 80.0534C86.5204 80.1994 85.3334 81.6184 85.4794 83.2244C85.6154 84.7424 86.8894 85.8814 88.3874 85.8814Z" fill="#F5F5F5"/>
<path d="M27.6164 78.6334C26.0214 78.4294 24.5524 79.5484 24.3384 81.1434C24.1244 82.7394 25.2534 84.2074 26.8484 84.4214C26.9744 84.4424 27.1114 84.4514 27.2384 84.4514C28.6774 84.4514 29.9324 83.3814 30.1274 81.9224C30.3404 80.3164 29.2114 78.8484 27.6164 78.6334Z" fill="#F5F5F5"/>
<path d="M70.9064 86.7864C70.9254 86.7864 70.9354 86.7864 70.9544 86.7864C72.5694 86.7564 73.8534 85.4324 73.8244 83.8184C73.7954 82.2044 72.4624 80.9204 70.8484 80.9494C69.2424 80.9774 67.9584 82.3104 67.9874 83.9164C68.0174 85.5114 69.3114 86.7864 70.9064 86.7864Z" fill="#F5F5F5"/>
<path d="M36.2164 79.6354C34.6124 79.4804 33.1814 80.6474 33.0254 82.2524C32.8704 83.8574 34.0374 85.2874 35.6424 85.4424C35.7394 85.4534 35.8364 85.4534 35.9334 85.4534C37.4124 85.4534 38.6864 84.3344 38.8324 82.8264C38.9894 81.2214 37.8214 79.7914 36.2164 79.6354Z" fill="#F5F5F5"/>
<path d="M62.1514 86.8144C63.7464 86.8144 65.0504 85.5314 65.0694 83.9254C65.0794 82.3104 63.7854 80.9964 62.1704 80.9874C60.5664 80.9674 59.2424 82.2604 59.2334 83.8764C59.2144 85.4914 60.5074 86.8044 62.1224 86.8144C62.1324 86.8144 62.1414 86.8144 62.1514 86.8144Z" fill="#F5F5F5"/>
<path d="M44.8454 80.3464C43.2404 80.2394 41.8484 81.4544 41.7414 83.0704C41.6354 84.6754 42.8514 86.0664 44.4664 86.1734C44.5314 86.1734 44.5964 86.1734 44.6604 86.1734C46.1784 86.1734 47.4634 84.9964 47.5694 83.4494C47.6754 81.8444 46.4594 80.4524 44.8454 80.3464Z" fill="#F5F5F5"/>
<path d="M111.433 79.3624C111.773 80.6854 112.961 81.5614 114.264 81.5614C114.497 81.5614 114.74 81.5324 114.983 81.4634V81.4744C115.596 81.3184 116.108 80.9754 116.487 80.5274C115.439 78.8054 114.443 77.2344 113.516 75.8224C111.967 76.2334 111.037 77.8074 111.433 79.3624Z" fill="#F5F5F5"/>
<path d="M53.5034 80.7934C51.8884 80.7344 50.5354 81.9894 50.4774 83.5954C50.4194 85.2104 51.6744 86.5624 53.2884 86.6204C53.3274 86.6204 53.3664 86.6204 53.3954 86.6204C54.9614 86.6204 56.2554 85.3854 56.3144 83.8094C56.3724 82.2044 55.1174 80.8524 53.5034 80.7934Z" fill="#F5F5F5"/>
<path d="M79.6514 86.4934C79.7004 86.4934 79.7484 86.4934 79.7964 86.4934C81.4114 86.4064 82.6474 85.0344 82.5694 83.4304C82.4824 81.8254 81.1194 80.5784 79.5054 80.6674C77.8904 80.7454 76.6554 82.1154 76.7424 83.7214C76.8204 85.2874 78.1054 86.4934 79.6514 86.4934Z" fill="#F5F5F5"/>
<path d="M97.0844 84.8894C97.2104 84.8894 97.3464 84.8794 97.4834 84.8694C99.0784 84.6454 100.197 83.1664 99.9734 81.5714C99.7494 79.9764 98.2804 78.8574 96.6854 79.0814C95.0904 79.3054 93.9714 80.7734 94.1954 82.3694C94.3894 83.8384 95.6444 84.8894 97.0844 84.8894Z" fill="#F5F5F5"/>
<path d="M21.4584 80.7064C21.6344 79.6464 21.2054 78.6304 20.4354 77.9854C19.7804 79.7184 19.1594 81.4344 18.5644 83.1364C18.5684 83.1364 18.5734 83.1374 18.5794 83.1374C19.9804 83.1384 21.2154 82.1364 21.4584 80.7064Z" fill="#F5F5F5"/>
<path d="M105.722 83.4694C105.897 83.4694 106.092 83.4484 106.277 83.4094C107.853 83.1084 108.893 81.5814 108.583 79.9954C108.281 78.4104 106.753 77.3794 105.168 77.6804C103.583 77.9914 102.552 79.5194 102.853 81.1044C103.125 82.4964 104.351 83.4694 105.722 83.4694Z" fill="#F5F5F5"/>
<path d="M132.261 122.098C130.908 120.97 129.001 120.61 127.26 121.331C125.519 122.051 124.429 123.665 124.283 125.426C122.99 124.22 121.092 123.763 119.322 124.405C119.322 124.394 119.322 124.394 119.322 124.394C117.552 125.036 116.375 126.593 116.141 128.344C114.915 127.079 113.037 126.534 111.238 127.079C109.439 127.623 108.184 129.121 107.863 130.853C106.696 129.539 104.857 128.898 103.028 129.355C103.028 129.365 103.028 129.365 103.028 129.365C101.199 129.821 99.8774 131.261 99.4784 132.973C98.3794 131.601 96.5694 130.871 94.7214 131.242C92.8724 131.612 91.4824 132.983 91.0054 134.676C89.9734 133.246 88.1934 132.43 86.3364 132.712C84.4784 132.984 83.0194 134.287 82.4544 135.951C81.4914 134.471 79.7694 133.567 77.8914 133.752C76.0234 133.938 74.4974 135.153 73.8444 136.787C72.9694 135.261 71.2964 134.268 69.4184 134.355C69.4184 134.345 69.4184 134.345 69.4184 134.345C67.5414 134.432 65.9564 135.561 65.2164 137.155C64.4184 135.59 62.8034 134.509 60.9264 134.48C59.0484 134.462 57.4144 135.503 56.5774 137.048C55.8774 135.443 54.3304 134.266 52.4624 134.14C50.5944 134.004 48.8924 134.948 47.9774 136.436C47.3644 134.791 45.8954 133.537 44.0384 133.293C42.1804 133.05 40.4384 133.887 39.4274 135.316C38.9314 133.643 37.5314 132.291 35.7014 131.93C33.8634 131.571 32.0644 132.3 30.9744 133.661C30.5754 131.959 29.2814 130.529 27.4724 130.053C25.6634 129.575 23.8244 130.179 22.6474 131.473C22.3654 129.741 21.1594 128.234 19.3894 127.641C17.6184 127.047 15.7504 127.524 14.4864 128.73C14.3214 126.989 13.2224 125.403 11.4994 124.693C10.4774 124.273 9.40037 124.232 8.41037 124.493C7.92437 127.815 7.56337 130.817 7.29837 133.435C7.45937 133.523 7.62037 133.611 7.79437 133.682C9.62337 134.44 11.6554 133.992 12.9984 132.709C13.1734 134.565 14.4184 136.231 16.2964 136.862C18.1834 137.495 20.1764 136.91 21.4324 135.529C21.7344 137.378 23.0764 138.954 24.9934 139.459C26.9094 139.966 28.8654 139.255 30.0324 137.796C30.4504 139.615 31.8894 141.104 33.8354 141.482C35.7814 141.862 37.6784 141.026 38.7494 139.507C39.2844 141.287 40.8214 142.679 42.7764 142.932H42.7864C44.7414 143.194 46.5804 142.242 47.5534 140.665C48.1954 142.406 49.8094 143.7 51.7844 143.836C53.7504 143.973 55.5304 142.922 56.4144 141.287C57.1544 142.98 58.8374 144.186 60.8114 144.205C60.8304 144.205 60.8504 144.205 60.8694 144.205C62.8154 144.205 64.5084 143.058 65.2854 141.394C66.1134 143.048 67.8644 144.147 69.8384 144.069V144.06C71.8124 143.982 73.4574 142.727 74.1484 141.004C75.0724 142.619 76.8724 143.621 78.8374 143.427C80.8024 143.243 82.3774 141.909 82.9714 140.157C83.9724 141.715 85.8314 142.619 87.7764 142.327C89.7224 142.036 91.2294 140.625 91.7364 138.854C92.8164 140.352 94.7134 141.16 96.6394 140.771C98.5644 140.391 99.9954 138.903 100.423 137.103C101.57 138.552 103.497 139.273 105.413 138.786C107.32 138.309 108.673 136.763 109.003 134.944C110.228 136.325 112.183 136.958 114.071 136.383C115.948 135.81 117.233 134.194 117.476 132.365C118.77 133.688 120.755 134.214 122.602 133.553C124.46 132.891 125.657 131.218 125.813 129.369C127.165 130.635 129.179 131.062 130.997 130.303C132.816 129.545 133.935 127.814 133.994 125.965C134.593 126.465 135.304 126.802 136.056 126.972C135.361 124.15 134.597 121.396 133.773 118.721C132.842 119.613 132.302 120.827 132.261 122.098Z" fill="#7A0317"/>
<path d="M96.6284 74.9044C101.578 74.3664 106.46 73.5424 111.308 72.5494C110.314 71.1184 109.473 69.9604 108.82 69.0894C104.79 69.8804 100.734 70.5454 96.6284 71.0134C86.1534 72.2074 75.5864 72.3784 65.0544 72.1434C51.4074 71.8384 37.7954 70.6264 24.3624 68.3274C23.8284 69.5534 23.3094 70.7744 22.8084 71.9904C36.4424 74.3604 50.2614 75.6244 64.1174 76.0104C74.9664 76.3134 85.8324 76.0764 96.6284 74.9044Z" fill="#7A0317"/>
<path opacity="0.5" d="M127.93 66.6224C127.93 66.6224 113.297 44.9454 105.17 28.1484C103.262 24.2054 101.436 20.4454 99.6044 17.0214C92.9874 21.3554 82.7384 16.6784 71.7044 22.4884C58.6934 30.2954 71.7044 50.2464 73.4414 60.6574C76.9094 77.1394 74.3064 95.3554 73.4414 111.837C72.4244 134.856 63.5944 149.919 50.3434 159.253C97.6254 165.244 139.31 145.199 139.31 145.199C134.434 100.22 107.336 67.1654 107.336 67.1654C107.336 67.1654 123.053 69.8724 127.93 66.6224Z" fill="#C62242"/>
<path d="M50.3424 159.753C71.1034 162.313 92.1704 160.236 112.373 155.037C121.59 152.665 130.953 149.758 139.562 145.631C139.704 145.563 139.827 145.359 139.81 145.199C137.632 125.703 131.309 106.922 122.206 89.5934C118.052 81.6844 113.363 73.7504 107.689 66.8124C107.527 67.0904 107.365 67.3694 107.203 67.6484C113.39 69.0644 122.231 70.3184 127.678 66.3034C128.191 65.9254 127.693 65.0574 127.173 65.4404C121.972 69.2744 113.389 68.0394 107.468 66.6834C106.954 66.5664 106.67 67.1384 106.982 67.5194C115.443 77.8664 121.955 90.2254 127.24 102.419C132.475 114.5 136.218 127.238 138.178 140.261C138.295 141.034 139.294 144.659 138.729 144.921C138.107 145.21 137.48 145.485 136.852 145.757C134.167 146.918 131.435 147.966 128.685 148.962C103.817 157.965 76.6714 161.998 50.3434 158.753C49.7034 158.674 49.7114 159.675 50.3424 159.753Z" fill="#7A0317"/>
<path d="M151.046 68.8584C151.046 77.1484 144.326 83.8664 136.037 83.8664C127.75 83.8664 121.033 77.1484 121.033 68.8584C121.033 60.5704 127.75 53.8534 136.037 53.8534C144.326 53.8534 151.046 60.5704 151.046 68.8584Z" fill="#F9EBCE"/>
<path d="M80.3524 27.8574C86.8974 42.2144 95.8694 56.2974 106.982 67.5184C107.436 67.9774 108.143 67.2694 107.689 66.8114C96.6414 55.6564 87.7264 41.6314 81.2154 27.3534C80.9484 26.7674 80.0864 27.2754 80.3524 27.8574Z" fill="#7A0317"/>
<path d="M6.54236 125.882C0.576356 128.745 -4.56664 156.23 6.54236 164.567C17.6524 172.906 105.023 181.573 142.707 158.44C147.773 155.333 142.37 122.541 137.038 122.206C131.703 121.875 123.033 134.889 72.9264 138.556C20.7914 142.373 12.1054 123.214 6.54236 125.882Z" fill="#F9EBCE"/>
<path d="M151.046 68.8584C151.046 60.5704 144.326 53.8534 136.037 53.8534C134.38 53.8534 132.793 54.1284 131.303 54.6234C128.335 68.1254 133.197 78.6214 142.565 82.3574C147.579 79.9284 151.046 74.8044 151.046 68.8584Z" fill="#FDF8E4"/>
<path d="M109.667 147.582C82.2544 140.727 18.5464 161.553 3.04837 130.525C-0.862634 139.422 -2.24263 157.976 6.54237 164.566C16.5344 172.066 88.2034 179.828 129.942 164.486C125.546 156.62 119.058 150.263 109.667 147.582Z" fill="#FDF8E4"/>
</svg>
