<svg width="444" height="104" viewBox="0 0 444 104" fill="none" xmlns="http://www.w3.org/2000/svg">
<path d="M350.171 81.192C333.271 81.193 318.358 79.503 306.091 77.297C273.832 71.497 252.848 61.049 250.058 59.607C208.377 67.176 169.565 68.84 134.692 64.554C106.689 61.113 81.1477 53.847 58.7777 42.961C20.6217 24.392 4.6867 1.35402 4.5307 1.12302L6.1847 0C6.3387 0.227 22.0517 22.898 59.7867 41.227C94.6367 58.154 155.934 74.73 250.038 57.578L250.384 57.514L250.694 57.681C250.906 57.795 272.295 69.199 306.528 75.341C338.102 81.008 387.382 83.226 442.838 61.629L443.565 63.492C409.18 76.885 377.146 81.192 350.171 81.192Z" fill="#384154"/>
<path opacity="0.05" d="M18.1936 37.3013C23.7077 35.0345 26.3402 28.7265 24.0732 23.2118C21.8063 17.6971 15.4985 15.0641 9.9843 17.3308C4.47012 19.5975 1.83771 25.9056 4.10464 31.4203C6.37157 36.935 12.6794 39.568 18.1936 37.3013Z" fill="white"/>
<path opacity="0.05" d="M23.1688 28.7882C23.9857 23.7672 20.5777 19.0346 15.5568 18.2176C10.5358 17.4006 5.80323 20.8086 4.98624 25.8296C4.16926 30.8505 7.57725 35.5831 12.5982 36.4001C17.6192 37.2171 22.3518 33.8091 23.1688 28.7882Z" fill="white"/>
<path opacity="0.05" d="M14.0827 34.761C18.1917 34.761 21.5227 31.43 21.5227 27.321C21.5227 23.212 18.1917 19.881 14.0827 19.881C9.9737 19.881 6.6427 23.212 6.6427 27.321C6.6427 31.43 9.9737 34.761 14.0827 34.761Z" fill="white"/>
<path d="M9.3227 32.035L10.9577 24.207C11.3327 22.413 12.7027 20.992 14.4817 20.551L18.8117 19.479L19.8837 23.81C20.3237 25.59 19.7057 27.464 18.2937 28.632L12.1327 33.73C10.8657 34.778 8.9867 33.644 9.3227 32.035Z" fill="#7836D6"/>
<path opacity="0.2" d="M10.9017 32.987L12.5367 25.159C12.9117 23.365 14.2817 21.944 16.0607 21.503L19.1257 20.745L18.8127 19.479L14.4817 20.551C12.7027 20.991 11.3327 22.412 10.9577 24.207L9.32268 32.035C9.07468 33.219 10.0287 34.138 11.0537 34.127C10.8857 33.8 10.8127 33.412 10.9017 32.987Z" fill="#646D7A"/>
<path d="M19.5267 22.45L15.8517 20.233L18.0687 16.558C18.6807 15.543 19.9997 15.217 21.0147 15.829C22.0297 16.441 22.3557 17.76 21.7437 18.775L19.5267 22.45Z" fill="#98A1AF"/>
<path opacity="0.2" d="M21.6877 16.482C21.5177 16.225 21.2957 15.998 21.0147 15.829C19.9997 15.217 18.6807 15.543 18.0687 16.558L15.8517 20.233L17.4167 21.177L19.6337 17.502C20.0767 16.769 20.8887 16.402 21.6877 16.482Z" fill="#646D7A"/>
<path opacity="0.3" d="M18.8387 25.412C18.9017 24.77 17.9037 24.702 17.8407 25.341C17.6647 27.125 15.4487 28.626 14.2367 29.805C13.7767 30.252 14.4387 31.003 14.9017 30.552C16.3707 29.124 18.6227 27.61 18.8387 25.412Z" fill="white"/>
<path opacity="0.3" d="M12.8037 31.204L12.6827 31.291C12.0887 31.537 12.5407 32.43 13.1337 32.184C13.2867 32.121 13.3577 32.073 13.4697 31.951C13.8987 31.482 13.2387 30.729 12.8037 31.204Z" fill="white"/>
<path opacity="0.05" d="M82.2927 75.637C88.2546 75.637 93.0877 70.8039 93.0877 64.842C93.0877 58.8801 88.2546 54.047 82.2927 54.047C76.3308 54.047 71.4977 58.8801 71.4977 64.842C71.4977 70.8039 76.3308 75.637 82.2927 75.637Z" fill="white"/>
<path opacity="0.05" d="M82.2927 74.053C87.3798 74.053 91.5037 69.9291 91.5037 64.842C91.5037 59.7549 87.3798 55.631 82.2927 55.631C77.2056 55.631 73.0817 59.7549 73.0817 64.842C73.0817 69.9291 77.2056 74.053 82.2927 74.053Z" fill="white"/>
<path opacity="0.05" d="M82.2927 72.282C86.4017 72.282 89.7327 68.951 89.7327 64.842C89.7327 60.733 86.4017 57.402 82.2927 57.402C78.1837 57.402 74.8527 60.733 74.8527 64.842C74.8527 68.951 78.1837 72.282 82.2927 72.282Z" fill="white"/>
<path d="M78.5577 70.272L78.6697 62.276C78.6957 60.443 79.7687 58.787 81.4317 58.015L85.4787 56.137L87.3567 60.184C88.1287 61.847 87.8787 63.805 86.7157 65.221L81.6397 71.4C80.5957 72.671 78.5347 71.916 78.5577 70.272Z" fill="#37AFD3"/>
<path opacity="0.2" d="M80.2887 70.906L80.4007 62.91C80.4267 61.077 81.4997 59.421 83.1627 58.649L86.0267 57.32L85.4777 56.137L81.4307 58.015C79.7677 58.787 78.6947 60.443 78.6687 62.276L78.5567 70.272C78.5397 71.482 79.6507 72.202 80.6547 71.996C80.4277 71.707 80.2827 71.341 80.2887 70.906Z" fill="#646D7A"/>
<path d="M86.7457 58.917L82.7157 57.442L84.1907 53.412C84.5977 52.299 85.8307 51.727 86.9437 52.135C88.0567 52.542 88.6287 53.775 88.2217 54.888L86.7457 58.917Z" fill="#98A1AF"/>
<path opacity="0.2" d="M87.7297 52.647C87.5137 52.428 87.2527 52.247 86.9437 52.134C85.8307 51.727 84.5987 52.299 84.1907 53.411L82.7157 57.441L84.4327 58.069L85.9077 54.039C86.2017 53.235 86.9287 52.72 87.7297 52.647Z" fill="#646D7A"/>
<path opacity="0.3" d="M86.6357 61.956C86.5757 61.314 85.5827 61.437 85.6427 62.077C85.8107 63.862 83.9207 65.758 82.9567 67.146C82.5907 67.673 83.3837 68.283 83.7517 67.753C84.9207 66.071 86.8427 64.155 86.6357 61.956Z" fill="white"/>
<path opacity="0.3" d="M81.8157 68.793L81.7127 68.902C81.1767 69.257 81.7907 70.047 82.3247 69.693C82.4627 69.602 82.5237 69.541 82.6097 69.4C82.9437 68.857 82.1527 68.243 81.8157 68.793Z" fill="white"/>
<path opacity="0.05" d="M161.129 87.9797C166.721 85.9139 169.58 79.7054 167.514 74.1126C165.448 68.5198 159.24 65.6606 153.647 67.7264C148.055 69.7922 145.197 76.0007 147.263 81.5935C149.329 87.1863 155.537 90.0455 161.129 87.9797Z" fill="white"/>
<path opacity="0.05" d="M166.486 79.3264C167.303 74.3054 163.895 69.5728 158.874 68.7558C153.853 67.9388 149.121 71.3468 148.304 76.3678C147.487 81.3888 150.895 86.1213 155.916 86.9383C160.937 87.7553 165.669 84.3473 166.486 79.3264Z" fill="white"/>
<path opacity="0.05" d="M157.407 85.299C161.516 85.299 164.847 81.968 164.847 77.859C164.847 73.75 161.516 70.419 157.407 70.419C153.298 70.419 149.967 73.75 149.967 77.859C149.967 81.968 153.298 85.299 157.407 85.299Z" fill="white"/>
<path d="M155.326 84.432L153.189 76.726C152.699 74.959 153.265 73.069 154.644 71.861L158.001 68.923L160.939 72.28C162.146 73.659 162.457 75.608 161.738 77.295L158.6 84.65C157.955 86.162 155.766 86.016 155.326 84.432Z" fill="#81EA2F"/>
<path opacity="0.2" d="M157.166 84.554L155.029 76.848C154.539 75.081 155.105 73.191 156.484 71.983L158.86 69.904L158.001 68.923L154.644 71.861C153.265 73.068 152.699 74.959 153.189 76.726L155.326 84.432C155.649 85.598 156.918 85.977 157.824 85.498C157.524 85.284 157.282 84.973 157.166 84.554Z" fill="#646D7A"/>
<path d="M159.998 71.234L155.716 70.95L156.001 66.668C156.08 65.486 157.102 64.591 158.284 64.669C159.467 64.748 160.361 65.77 160.283 66.952L159.998 71.234Z" fill="#98A1AF"/>
<path opacity="0.2" d="M159.182 64.94C158.913 64.79 158.612 64.69 158.284 64.668C157.102 64.589 156.079 65.484 156.001 66.667L155.716 70.949L157.54 71.07L157.825 66.788C157.882 65.934 158.435 65.235 159.182 64.94Z" fill="#646D7A"/>
<path opacity="0.3" d="M160.746 74.183C160.508 73.584 159.59 73.98 159.827 74.578C160.489 76.244 159.208 78.594 158.672 80.197C158.469 80.805 159.401 81.169 159.605 80.556C160.254 78.614 161.561 76.235 160.746 74.183Z" fill="white"/>
<path opacity="0.3" d="M158.039 82.098L157.971 82.231C157.556 82.722 158.367 83.308 158.781 82.818C158.888 82.692 158.929 82.616 158.972 82.457C159.139 81.842 158.207 81.475 158.039 82.098Z" fill="white"/>
<path opacity="0.05" d="M236.855 84.0276C242.369 81.7609 245.001 75.4528 242.734 69.9381C240.467 64.4234 234.159 61.7905 228.645 64.0572C223.131 66.3239 220.499 72.632 222.766 78.1466C225.033 83.6613 231.34 86.2943 236.855 84.0276Z" fill="white"/>
<path opacity="0.05" d="M232.746 83.264C237.833 83.264 241.957 79.1401 241.957 74.053C241.957 68.9659 237.833 64.842 232.746 64.842C227.659 64.842 223.535 68.9659 223.535 74.053C223.535 79.1401 227.659 83.264 232.746 83.264Z" fill="white"/>
<path opacity="0.05" d="M232.746 81.493C236.855 81.493 240.186 78.162 240.186 74.053C240.186 69.944 236.855 66.613 232.746 66.613C228.637 66.613 225.306 69.944 225.306 74.053C225.306 78.162 228.637 81.493 232.746 81.493Z" fill="white"/>
<path d="M232.254 80.588L228.317 73.627C227.415 72.031 227.506 70.06 228.553 68.555L231.1 64.892L234.763 67.439C236.268 68.485 237.04 70.302 236.75 72.112L235.484 80.008C235.223 81.631 233.063 82.019 232.254 80.588Z" fill="#F95919"/>
<path opacity="0.2" d="M234.069 80.261L230.132 73.3C229.23 71.704 229.321 69.733 230.368 68.228L232.17 65.636L231.099 64.892L228.552 68.555C227.506 70.06 227.414 72.032 228.316 73.627L232.253 80.588C232.848 81.641 234.171 81.703 234.934 81.018C234.593 80.883 234.283 80.64 234.069 80.261Z" fill="#646D7A"/>
<path d="M233.596 66.652L229.372 67.411L228.613 63.187C228.403 62.021 229.179 60.905 230.345 60.695C231.511 60.485 232.627 61.261 232.837 62.427L233.596 66.652Z" fill="#98A1AF"/>
<path opacity="0.2" d="M231.282 60.742C230.985 60.661 230.668 60.638 230.345 60.696C229.179 60.906 228.403 62.021 228.613 63.188L229.372 67.412L231.171 67.088L230.412 62.864C230.26 62.021 230.628 61.209 231.282 60.742Z" fill="#646D7A"/>
<path opacity="0.3" d="M235.034 69.332C234.658 68.808 233.863 69.415 234.238 69.937C235.283 71.393 234.608 73.984 234.476 75.669C234.426 76.308 235.418 76.436 235.469 75.792C235.628 73.751 236.322 71.126 235.034 69.332Z" fill="white"/>
<path opacity="0.3" d="M234.321 77.667L234.287 77.813C234.003 78.39 234.932 78.763 235.215 78.187C235.288 78.039 235.31 77.956 235.313 77.79C235.327 77.153 234.334 77.022 234.321 77.667Z" fill="white"/>
<path opacity="0.05" d="M289.87 96.501C295.832 96.501 300.665 91.6679 300.665 85.706C300.665 79.7441 295.832 74.911 289.87 74.911C283.908 74.911 279.075 79.7441 279.075 85.706C279.075 91.6679 283.908 96.501 289.87 96.501Z" fill="white"/>
<path opacity="0.05" d="M289.87 94.917C294.957 94.917 299.081 90.7931 299.081 85.706C299.081 80.6189 294.957 76.495 289.87 76.495C284.783 76.495 280.659 80.6189 280.659 85.706C280.659 90.7931 284.783 94.917 289.87 94.917Z" fill="white"/>
<path opacity="0.05" d="M289.87 93.146C293.979 93.146 297.31 89.815 297.31 85.706C297.31 81.597 293.979 78.266 289.87 78.266C285.761 78.266 282.43 81.597 282.43 85.706C282.43 89.815 285.761 93.146 289.87 93.146Z" fill="white"/>
<path d="M286.864 91.585L285.944 83.641C285.733 81.82 286.584 80.039 288.133 79.059L291.903 76.675L294.287 80.445C295.267 81.994 295.272 83.968 294.301 85.523L290.064 92.305C289.195 93.7 287.053 93.218 286.864 91.585Z" fill="#E51F4A"/>
<path opacity="0.2" d="M288.663 91.99L287.743 84.046C287.532 82.225 288.383 80.444 289.932 79.464L292.6 77.776L291.903 76.674L288.133 79.058C286.584 80.038 285.733 81.819 285.944 83.64L286.864 91.584C287.003 92.786 288.198 93.357 289.167 93.023C288.904 92.766 288.713 92.421 288.663 91.99Z" fill="#646D7A"/>
<path d="M293.519 79.268L289.332 78.325L290.275 74.138C290.535 72.982 291.684 72.256 292.84 72.516C293.996 72.776 294.722 73.925 294.462 75.081L293.519 79.268Z" fill="#98A1AF"/>
<path opacity="0.2" d="M293.685 72.923C293.443 72.733 293.16 72.588 292.84 72.516C291.684 72.256 290.535 72.982 290.275 74.138L289.332 78.325L291.116 78.727L292.059 74.54C292.247 73.704 292.902 73.099 293.685 72.923Z" fill="#646D7A"/>
<path opacity="0.3" d="M293.802 82.296C293.659 81.667 292.691 81.917 292.833 82.544C293.229 84.292 291.6 86.416 290.823 87.917C290.528 88.486 291.393 88.99 291.69 88.416C292.632 86.598 294.291 84.449 293.802 82.296Z" fill="white"/>
<path opacity="0.3" d="M289.905 89.698L289.817 89.819C289.331 90.24 290.042 90.945 290.527 90.524C290.652 90.416 290.704 90.348 290.772 90.197C291.031 89.615 290.167 89.109 289.905 89.698Z" fill="white"/>
<path opacity="0.05" d="M355.985 103.914C361.947 103.914 366.781 99.0805 366.781 93.118C366.781 87.1555 361.947 82.322 355.985 82.322C350.022 82.322 345.189 87.1555 345.189 93.118C345.189 99.0805 350.022 103.914 355.985 103.914Z" fill="white"/>
<path opacity="0.05" d="M355.985 102.329C361.072 102.329 365.196 98.2051 365.196 93.118C365.196 88.0309 361.072 83.907 355.985 83.907C350.898 83.907 346.774 88.0309 346.774 93.118C346.774 98.2051 350.898 102.329 355.985 102.329Z" fill="white"/>
<path opacity="0.05" d="M355.985 100.558C360.094 100.558 363.425 97.227 363.425 93.118C363.425 89.009 360.094 85.678 355.985 85.678C351.876 85.678 348.545 89.009 348.545 93.118C348.545 97.227 351.876 100.558 355.985 100.558Z" fill="white"/>
<path d="M354.004 98.977L351.801 91.29C351.296 89.528 351.845 87.632 353.214 86.413L356.545 83.446L359.512 86.777C360.731 88.146 361.058 90.092 360.354 91.785L357.28 99.167C356.648 100.684 354.457 100.557 354.004 98.977Z" fill="#7836D6"/>
<path opacity="0.2" d="M355.845 99.083L353.642 91.395C353.137 89.633 353.686 87.737 355.055 86.518L357.413 84.418L356.546 83.444L353.215 86.411C351.846 87.63 351.297 89.526 351.802 91.288L354.005 98.976C354.338 100.139 355.61 100.507 356.512 100.02C356.209 99.81 355.965 99.501 355.845 99.083Z" fill="#646D7A"/>
<path d="M358.562 85.739L354.278 85.491L354.526 81.207C354.594 80.024 355.609 79.12 356.792 79.189C357.975 79.258 358.879 80.272 358.81 81.455L358.562 85.739Z" fill="#98A1AF"/>
<path opacity="0.2" d="M357.692 79.453C357.422 79.305 357.12 79.208 356.792 79.189C355.609 79.121 354.594 80.024 354.526 81.207L354.278 85.492L356.103 85.597L356.351 81.313C356.4 80.457 356.947 79.754 357.692 79.453Z" fill="#646D7A"/>
<path opacity="0.3" d="M359.335 88.681C359.092 88.084 358.177 88.488 358.419 89.084C359.095 90.744 357.834 93.106 357.312 94.713C357.114 95.323 358.049 95.679 358.249 95.064C358.882 93.116 360.168 90.726 359.335 88.681Z" fill="white"/>
<path opacity="0.3" d="M356.696 96.619L356.629 96.753C356.219 97.248 357.034 97.827 357.444 97.333C357.55 97.206 357.59 97.13 357.632 96.97C357.794 96.354 356.859 95.995 356.696 96.619Z" fill="white"/>
<path opacity="0.05" d="M424.815 92.8596C430.113 90.1229 432.189 83.6097 429.452 78.312C426.715 73.0144 420.202 70.9384 414.904 73.6752C409.607 76.4119 407.531 82.9251 410.267 88.2228C413.004 93.5204 419.517 95.5964 424.815 92.8596Z" fill="white"/>
<path opacity="0.05" d="M428.913 84.6313C429.66 79.5997 426.187 74.9149 421.156 74.1676C416.124 73.4203 411.439 76.8935 410.692 81.9251C409.945 86.9568 413.418 91.6415 418.449 92.3888C423.481 93.1361 428.166 89.6629 428.913 84.6313Z" fill="white"/>
<path opacity="0.05" d="M423.245 89.8475C426.893 87.9574 428.318 83.4676 426.428 79.8192C424.538 76.1708 420.048 74.7454 416.4 76.6356C412.751 78.5257 411.326 83.0156 413.216 86.664C415.106 90.3123 419.596 91.7377 423.245 89.8475Z" fill="white"/>
<path d="M420.096 89.991L415.431 83.496C414.362 82.007 414.24 80.037 415.117 78.428L417.253 74.512L421.169 76.648C422.778 77.526 423.742 79.248 423.649 81.079L423.243 89.065C423.161 90.707 421.056 91.326 420.096 89.991Z" fill="#37AFD3"/>
<path opacity="0.2" d="M421.865 89.47L417.2 82.975C416.131 81.486 416.009 79.516 416.886 77.907L418.398 75.135L417.253 74.511L415.117 78.427C414.239 80.036 414.361 82.006 415.431 83.495L420.096 89.99C420.802 90.973 422.123 90.891 422.808 90.128C422.453 90.032 422.119 89.823 421.865 89.47Z" fill="#646D7A"/>
<path d="M419.926 75.992L415.809 77.203L414.598 73.086C414.264 71.949 414.914 70.756 416.051 70.422C417.188 70.088 418.381 70.738 418.715 71.875L419.926 75.992Z" fill="#98A1AF"/>
<path opacity="0.2" d="M416.987 70.366C416.683 70.318 416.365 70.328 416.05 70.421C414.913 70.755 414.262 71.948 414.597 73.085L415.808 77.202L417.562 76.686L416.351 72.569C416.11 71.747 416.388 70.901 416.987 70.366Z" fill="#646D7A"/>
<path opacity="0.3" d="M421.645 78.501C421.214 78.021 420.49 78.71 420.919 79.189C422.115 80.524 421.724 83.172 421.774 84.862C421.793 85.503 422.793 85.523 422.774 84.877C422.713 82.829 423.119 80.145 421.645 78.501Z" fill="white"/>
<path opacity="0.3" d="M421.836 86.864L421.818 87.012C421.598 87.616 422.561 87.887 422.781 87.283C422.838 87.128 422.85 87.043 422.836 86.878C422.78 86.244 421.78 86.221 421.836 86.864Z" fill="white"/>
<path opacity="0.05" d="M57.3407 38.588C63.3026 38.588 68.1357 33.7549 68.1357 27.793C68.1357 21.8311 63.3026 16.998 57.3407 16.998C51.3788 16.998 46.5457 21.8311 46.5457 27.793C46.5457 33.7549 51.3788 38.588 57.3407 38.588Z" fill="white"/>
<path opacity="0.05" d="M57.3407 37.004C62.4278 37.004 66.5517 32.8801 66.5517 27.793C66.5517 22.7059 62.4278 18.582 57.3407 18.582C52.2536 18.582 48.1297 22.7059 48.1297 27.793C48.1297 32.8801 52.2536 37.004 57.3407 37.004Z" fill="white"/>
<path opacity="0.05" d="M57.3407 35.233C61.4497 35.233 64.7807 31.902 64.7807 27.793C64.7807 23.684 61.4497 20.353 57.3407 20.353C53.2317 20.353 49.9007 23.684 49.9007 27.793C49.9007 31.902 53.2317 35.233 57.3407 35.233Z" fill="white"/>
<path d="M59.6317 21.036L53.3887 26.033C51.9577 27.179 51.3097 29.043 51.7207 30.829L52.7227 35.176L57.0697 34.174C58.8557 33.762 60.2487 32.364 60.6527 30.576L62.4137 22.776C62.7757 21.172 60.9147 20.008 59.6317 21.036Z" fill="#363ED6"/>
<path opacity="0.2" d="M61.1947 22.014L54.9517 27.011C53.5207 28.157 52.8727 30.021 53.2837 31.807L53.9927 34.883L52.7217 35.176L51.7197 30.829C51.3077 29.043 51.9567 27.178 53.3877 26.033L59.6307 21.036C60.5747 20.28 61.8257 20.715 62.2797 21.634C61.9117 21.631 61.5337 21.742 61.1947 22.014Z" fill="#646D7A"/>
<path d="M55.6947 34.471L52.0557 32.195L49.7797 35.834C49.1517 36.839 49.4567 38.163 50.4617 38.791C51.4667 39.419 52.7907 39.114 53.4187 38.11L55.6947 34.471Z" fill="#98A1AF"/>
<path opacity="0.2" d="M51.3487 39.096C51.0427 39.06 50.7397 38.965 50.4617 38.791C49.4567 38.163 49.1517 36.839 49.7797 35.834L52.0557 32.195L53.6057 33.164L51.3297 36.803C50.8757 37.53 50.9157 38.42 51.3487 39.096Z" fill="#646D7A"/>
<path opacity="0.3" d="M58.0257 32.518C57.4817 32.865 56.9697 32.005 57.5117 31.66C59.0237 30.697 59.3607 28.041 59.8637 26.428C60.0547 25.816 61.0237 26.067 60.8307 26.683C60.2207 28.638 59.8887 31.332 58.0257 32.518Z" fill="white"/>
<path opacity="0.3" d="M60.4647 24.516L60.4877 24.368C60.4387 23.727 61.4397 23.726 61.4877 24.366C61.5007 24.531 61.4897 24.616 61.4317 24.771C61.2067 25.367 60.2367 25.119 60.4647 24.516Z" fill="white"/>
<path opacity="0.05" d="M126.188 59.463C132.15 59.463 136.983 54.6299 136.983 48.668C136.983 42.7061 132.15 37.873 126.188 37.873C120.226 37.873 115.393 42.7061 115.393 48.668C115.393 54.6299 120.226 59.463 126.188 59.463Z" fill="white"/>
<path opacity="0.05" d="M126.188 57.879C131.275 57.879 135.399 53.7551 135.399 48.668C135.399 43.5809 131.275 39.457 126.188 39.457C121.101 39.457 116.977 43.5809 116.977 48.668C116.977 53.7551 121.101 57.879 126.188 57.879Z" fill="white"/>
<path opacity="0.05" d="M126.188 56.108C130.297 56.108 133.628 52.777 133.628 48.668C133.628 44.559 130.297 41.228 126.188 41.228C122.079 41.228 118.748 44.559 118.748 48.668C118.748 52.777 122.079 56.108 126.188 56.108Z" fill="white"/>
<path d="M125.818 43.21L121.478 49.926C120.483 51.466 120.458 53.439 121.414 55.003L123.74 58.81L127.547 56.484C129.111 55.528 129.99 53.761 129.807 51.937L129.009 43.98C128.844 42.344 126.71 41.829 125.818 43.21Z" fill="#36D6B7"/>
<path opacity="0.2" d="M127.61 43.643L123.27 50.359C122.275 51.899 122.25 53.872 123.206 55.436L124.852 58.13L123.739 58.81L121.413 55.003C120.457 53.439 120.482 51.465 121.477 49.926L125.817 43.21C126.474 42.194 127.797 42.211 128.519 42.939C128.17 43.053 127.846 43.278 127.61 43.643Z" fill="#646D7A"/>
<path d="M126.336 57.201L122.164 56.194L121.157 60.366C120.879 61.518 121.587 62.677 122.739 62.956C123.891 63.234 125.05 62.526 125.329 61.374L126.336 57.201Z" fill="#98A1AF"/>
<path opacity="0.2" d="M123.677 62.964C123.376 63.027 123.058 63.032 122.739 62.955C121.587 62.677 120.878 61.517 121.157 60.366L122.164 56.194L123.941 56.623L122.934 60.795C122.733 61.627 123.052 62.459 123.677 62.964Z" fill="#646D7A"/>
<path opacity="0.3" d="M127.929 54.61C127.523 55.111 126.765 54.458 127.17 53.959C128.299 52.567 127.778 49.941 127.746 48.251C127.734 47.61 128.732 47.541 128.744 48.187C128.783 50.235 129.32 52.895 127.929 54.61Z" fill="white"/>
<path opacity="0.3" d="M127.709 46.248L127.684 46.101C127.435 45.508 128.384 45.191 128.632 45.783C128.696 45.935 128.713 46.02 128.707 46.185C128.683 46.82 127.684 46.892 127.709 46.248Z" fill="white"/>
<path opacity="0.05" d="M192.689 63.047C198.651 63.047 203.485 58.2135 203.485 52.251C203.485 46.2885 198.651 41.455 192.689 41.455C186.726 41.455 181.893 46.2885 181.893 52.251C181.893 58.2135 186.726 63.047 192.689 63.047Z" fill="white"/>
<path opacity="0.05" d="M192.689 61.462C197.776 61.462 201.9 57.3381 201.9 52.251C201.9 47.1639 197.776 43.04 192.689 43.04C187.602 43.04 183.478 47.1639 183.478 52.251C183.478 57.3381 187.602 61.462 192.689 61.462Z" fill="white"/>
<path opacity="0.05" d="M192.689 59.691C196.798 59.691 200.129 56.36 200.129 52.251C200.129 48.142 196.798 44.811 192.689 44.811C188.58 44.811 185.249 48.142 185.249 52.251C185.249 56.36 188.58 59.691 192.689 59.691Z" fill="white"/>
<path d="M190.436 46.76L188.632 54.551C188.218 56.337 188.864 58.202 190.294 59.349L193.774 62.141L196.566 58.661C197.713 57.231 197.94 55.271 197.149 53.617L193.699 46.403C192.989 44.919 190.807 45.158 190.436 46.76Z" fill="#D6B736"/>
<path opacity="0.2" d="M192.269 46.559L190.465 54.35C190.051 56.136 190.697 58.001 192.127 59.148L194.59 61.124L193.774 62.141L190.294 59.349C188.864 58.202 188.218 56.337 188.632 54.551L190.436 46.76C190.709 45.581 191.96 45.148 192.886 45.588C192.596 45.814 192.367 46.135 192.269 46.559Z" fill="#646D7A"/>
<path d="M195.67 59.745L191.404 60.213L191.872 64.479C192.001 65.657 193.061 66.507 194.239 66.378C195.417 66.249 196.267 65.189 196.138 64.011L195.67 59.745Z" fill="#98A1AF"/>
<path opacity="0.2" d="M195.124 66.068C194.862 66.229 194.565 66.342 194.238 66.378C193.06 66.507 192 65.657 191.871 64.479L191.403 60.213L193.22 60.014L193.688 64.28C193.782 65.131 194.365 65.805 195.124 66.068Z" fill="#646D7A"/>
<path opacity="0.3" d="M196.29 56.767C196.078 57.376 195.143 57.019 195.355 56.412C195.945 54.719 194.564 52.426 193.96 50.848C193.731 50.249 194.646 49.846 194.877 50.449C195.609 52.362 197.017 54.682 196.29 56.767Z" fill="white"/>
<path opacity="0.3" d="M193.246 48.976L193.173 48.846C192.738 48.373 193.522 47.753 193.957 48.225C194.069 48.347 194.114 48.42 194.164 48.578C194.356 49.184 193.441 49.59 193.246 48.976Z" fill="white"/>
<path opacity="0.05" d="M267.255 62.188C273.217 62.188 278.051 57.3545 278.051 51.392C278.051 45.4295 273.217 40.596 267.255 40.596C261.292 40.596 256.459 45.4295 256.459 51.392C256.459 57.3545 261.292 62.188 267.255 62.188Z" fill="white"/>
<path opacity="0.05" d="M267.255 60.603C272.342 60.603 276.466 56.4791 276.466 51.392C276.466 46.3049 272.342 42.181 267.255 42.181C262.168 42.181 258.044 46.3049 258.044 51.392C258.044 56.4791 262.168 60.603 267.255 60.603Z" fill="white"/>
<path opacity="0.05" d="M267.255 58.832C271.364 58.832 274.695 55.501 274.695 51.392C274.695 47.283 271.364 43.952 267.255 43.952C263.146 43.952 259.815 47.283 259.815 51.392C259.815 55.501 263.146 58.832 267.255 58.832Z" fill="white"/>
<path d="M267.409 45.569L262.265 51.692C261.086 53.096 260.815 55.051 261.569 56.722L263.402 60.789L267.469 58.956C269.14 58.203 270.232 56.558 270.278 54.726L270.478 46.732C270.52 45.087 268.467 44.31 267.409 45.569Z" fill="#F22525"/>
<path opacity="0.2" d="M269.134 46.222L263.99 52.345C262.811 53.749 262.54 55.703 263.293 57.375L264.591 60.253L263.402 60.789L261.569 56.722C260.816 55.051 261.086 53.096 262.265 51.692L267.409 45.569C268.187 44.643 269.499 44.824 270.124 45.637C269.763 45.707 269.413 45.89 269.134 46.222Z" fill="#646D7A"/>
<path d="M266.179 59.515L262.165 57.996L260.646 62.01C260.226 63.118 260.785 64.357 261.893 64.777C263.001 65.197 264.24 64.638 264.659 63.53L266.179 59.515Z" fill="#98A1AF"/>
<path opacity="0.2" d="M262.823 64.902C262.516 64.927 262.2 64.892 261.893 64.776C260.785 64.356 260.226 63.118 260.646 62.009L262.165 57.995L263.875 58.642L262.356 62.656C262.052 63.458 262.266 64.323 262.823 64.902Z" fill="#646D7A"/>
<path opacity="0.3" d="M268.083 57.144C267.617 57.59 266.947 56.848 267.411 56.403C268.705 55.163 268.515 52.492 268.694 50.812C268.762 50.174 269.76 50.23 269.692 50.873C269.476 52.909 269.677 55.616 268.083 57.144Z" fill="white"/>
<path opacity="0.3" d="M268.907 48.819L268.901 48.67C268.728 48.051 269.709 47.854 269.881 48.472C269.926 48.631 269.932 48.717 269.905 48.88C269.802 49.509 268.803 49.455 268.907 48.819Z" fill="white"/>
<path opacity="0.05" d="M335.516 67.8434C336.468 61.9573 332.468 56.4142 326.583 55.4627C320.697 54.5112 315.154 58.5115 314.203 64.3976C313.251 70.2838 317.251 75.8268 323.137 76.7783C329.022 77.7299 334.565 73.7296 335.516 67.8434Z" fill="white"/>
<path opacity="0.05" d="M328.405 74.6659C333.1 72.7084 335.319 67.3152 333.362 62.6198C331.404 57.9244 326.011 55.7049 321.316 57.6624C316.62 59.6199 314.401 65.0132 316.358 69.7086C318.316 74.404 323.709 76.6234 328.405 74.6659Z" fill="white"/>
<path opacity="0.05" d="M324.868 73.584C328.977 73.584 332.308 70.253 332.308 66.144C332.308 62.035 328.977 58.704 324.868 58.704C320.759 58.704 317.428 62.035 317.428 66.144C317.428 70.253 320.759 73.584 324.868 73.584Z" fill="white"/>
<path d="M324.179 59.581L320.461 66.661C319.609 68.284 319.762 70.252 320.854 71.724L323.513 75.306L327.095 72.647C328.567 71.554 329.282 69.715 328.936 67.915L327.425 60.062C327.115 58.446 324.944 58.125 324.179 59.581Z" fill="#C928EA"/>
<path opacity="0.2" d="M326.004 59.851L322.286 66.931C321.434 68.554 321.586 70.522 322.679 71.993L324.561 74.528L323.514 75.305L320.855 71.723C319.762 70.251 319.609 68.283 320.462 66.66L324.18 59.58C324.743 58.509 326.062 58.406 326.847 59.067C326.508 59.213 326.206 59.466 326.004 59.851Z" fill="#646D7A"/>
<path d="M325.954 73.468L321.708 72.84L321.08 77.085C320.907 78.257 321.717 79.348 322.889 79.522C324.061 79.695 325.152 78.885 325.325 77.713L325.954 73.468Z" fill="#98A1AF"/>
<path opacity="0.2" d="M323.825 79.447C323.531 79.537 323.215 79.571 322.89 79.523C321.718 79.35 320.908 78.259 321.081 77.086L321.709 72.841L323.517 73.108L322.889 77.354C322.764 78.201 323.157 79.001 323.825 79.447Z" fill="#646D7A"/>
<path opacity="0.3" d="M327.308 70.745C326.948 71.28 326.135 70.698 326.493 70.165C327.492 68.677 326.737 66.109 326.552 64.429C326.482 63.791 327.47 63.633 327.54 64.275C327.765 66.31 328.54 68.912 327.308 70.745Z" fill="white"/>
<path opacity="0.3" d="M326.337 62.436L326.299 62.291C325.998 61.723 326.914 61.322 327.215 61.889C327.293 62.035 327.317 62.117 327.326 62.282C327.358 62.919 326.37 63.08 326.337 62.436Z" fill="white"/>
<path opacity="0.05" d="M392.456 72.499C396.077 67.7612 395.171 60.9856 390.433 57.3652C385.695 53.7448 378.92 54.6506 375.299 59.3884C371.679 64.1261 372.584 70.9018 377.322 74.5222C382.06 78.1426 388.836 77.2368 392.456 72.499Z" fill="white"/>
<path opacity="0.05" d="M391.18 71.5501C394.266 67.5058 393.489 61.7258 389.445 58.6399C385.401 55.5541 379.621 56.331 376.535 60.3753C373.449 64.4195 374.226 70.1996 378.27 73.2854C382.314 76.3713 388.094 75.5943 391.18 71.5501Z" fill="white"/>
<path opacity="0.05" d="M383.857 73.386C387.966 73.386 391.297 70.055 391.297 65.946C391.297 61.837 387.966 58.506 383.857 58.506C379.748 58.506 376.417 61.837 376.417 65.946C376.417 70.055 379.748 73.386 383.857 73.386Z" fill="white"/>
<path d="M381.077 59.173L379.408 66.994C379.025 68.787 379.704 70.64 381.153 71.762L384.68 74.493L387.411 70.965C388.533 69.516 388.726 67.551 387.906 65.912L384.331 58.759C383.598 57.287 381.42 57.564 381.077 59.173Z" fill="#363ED6"/>
<path opacity="0.2" d="M382.907 58.94L381.238 66.761C380.855 68.554 381.534 70.407 382.983 71.529L385.479 73.462L384.681 74.493L381.153 71.762C379.704 70.64 379.025 68.786 379.408 66.994L381.077 59.173C381.33 57.99 382.573 57.535 383.506 57.959C383.22 58.19 382.997 58.515 382.907 58.94Z" fill="#646D7A"/>
<path d="M386.535 72.065L382.278 72.607L382.82 76.864C382.97 78.04 384.044 78.871 385.22 78.722C386.396 78.572 387.227 77.498 387.078 76.322L386.535 72.065Z" fill="#98A1AF"/>
<path opacity="0.2" d="M386.1 78.397C385.841 78.563 385.546 78.681 385.22 78.722C384.044 78.872 382.97 78.04 382.82 76.864L382.278 72.607L384.092 72.376L384.634 76.633C384.742 77.483 385.336 78.147 386.1 78.397Z" fill="#646D7A"/>
<path opacity="0.3" d="M387.104 69.077C386.902 69.69 385.962 69.349 386.163 68.738C386.723 67.035 385.303 64.766 384.672 63.199C384.432 62.604 385.341 62.185 385.582 62.784C386.347 64.684 387.795 66.979 387.104 69.077Z" fill="white"/>
<path opacity="0.3" d="M383.925 61.339L383.849 61.21C383.405 60.744 384.179 60.111 384.622 60.575C384.736 60.695 384.782 60.767 384.835 60.924C385.039 61.528 384.131 61.95 383.925 61.339Z" fill="white"/>
</svg>
