<svg width="172" height="196" viewBox="0 0 172 196" fill="none" xmlns="http://www.w3.org/2000/svg">
<path d="M170.256 190.937C170.256 193.371 135.658 195.344 92.978 195.344C50.298 195.344 15.7 193.371 15.7 190.937C15.7 188.503 50.298 186.53 92.978 186.53C135.658 186.53 170.256 188.504 170.256 190.937Z" fill="#95A4BC"/>
<path d="M63.67 83.5723C63.67 83.5723 43.042 86.4563 33.584 70.1243C26.487 72.6173 22.305 76.9613 20.092 82.5563C20.092 82.5563 34.468 102.492 64.612 93.8843L63.67 83.5723Z" fill="#DEA75A"/>
<path d="M63.471 84.6843C63.471 84.6843 34.171 93.4353 16.83 71.8243C7.082 77.0133 1.974 84.2423 0 92.8523C0 92.8523 25.277 118.605 67.12 99.4413L63.471 84.6843Z" fill="#D3964C"/>
<path d="M167.07 117.852C166.807 117.852 166.542 117.784 166.3 117.639L127.406 94.3454C126.695 93.9204 126.464 92.9983 126.889 92.2883C127.316 91.5763 128.238 91.3463 128.947 91.7723L167.841 115.066C168.552 115.491 168.783 116.413 168.358 117.123C168.077 117.593 167.58 117.852 167.07 117.852Z" fill="#343B54"/>
<path d="M155.407 190.895C155.383 190.895 155.359 190.894 155.335 190.89C155.062 190.85 154.872 190.597 154.911 190.324L165.682 115.486C165.721 115.212 165.978 115.023 166.248 115.062C166.521 115.102 166.711 115.355 166.672 115.628L155.901 190.466C155.865 190.715 155.651 190.895 155.407 190.895Z" fill="#343B54"/>
<path d="M164.745 126.004C165.975 126.192 167.134 125.339 167.322 124.109L169.504 109.798C169.692 108.568 168.839 107.409 167.609 107.221C166.379 107.033 165.22 107.886 165.032 109.116L162.85 123.427C162.662 124.657 163.515 125.816 164.745 126.004Z" fill="#849CBF"/>
<path d="M144.635 186.115C147.72 184.06 151.421 182.858 155.406 182.858C159.391 182.858 163.092 184.06 166.177 186.115H144.635Z" fill="#849CBF"/>
<path d="M169.802 113.169C169.712 113.169 169.621 113.161 169.53 113.144L166.743 112.634C165.929 112.485 165.389 111.703 165.538 110.888C165.687 110.072 166.467 109.533 167.284 109.682L170.071 110.192C170.885 110.341 171.426 111.123 171.276 111.938C171.143 112.662 170.512 113.169 169.802 113.169Z" fill="#343B54"/>
<path d="M169.673 116.636H167.034C166.206 116.636 165.534 115.965 165.534 115.136C165.534 114.307 166.206 113.636 167.034 113.636H169.673C170.501 113.636 171.173 114.307 171.173 115.136C171.173 115.965 170.501 116.636 169.673 116.636Z" fill="#343B54"/>
<path d="M167.203 120.488C166.472 120.488 165.831 119.952 165.721 119.207C165.601 118.388 166.167 117.625 166.987 117.504L169.583 117.121C170.396 116.996 171.164 117.566 171.286 118.386C171.406 119.205 170.84 119.968 170.02 120.089L167.424 120.472C167.349 120.483 167.276 120.488 167.203 120.488Z" fill="#343B54"/>
<path d="M92.441 190.394C123.422 190.394 148.537 165.279 148.537 134.298C148.537 103.317 123.422 78.2023 92.441 78.2023C61.4601 78.2023 36.345 103.317 36.345 134.298C36.345 165.279 61.4601 190.394 92.441 190.394Z" fill="white"/>
<path d="M98.588 184.834C68.155 184.834 43.485 160.163 43.485 129.731C43.485 110.372 53.477 93.3563 68.577 83.5273C49.532 92.4953 36.344 111.852 36.344 134.298C36.344 165.279 61.459 190.394 92.44 190.394C108.986 190.394 123.855 183.227 134.123 171.832C124.528 179.939 112.133 184.834 98.588 184.834Z" fill="#EBF0F7"/>
<path d="M127.863 141.287C127.863 159.973 112.715 166.434 94.028 166.434C75.341 166.434 60.193 159.974 60.193 141.287C60.193 122.601 75.341 107.452 94.028 107.452C112.715 107.452 127.863 122.601 127.863 141.287Z" fill="#EBF0F7"/>
<path d="M110.722 91.6881C128.603 81.6508 134.961 59.0189 124.924 41.1383C114.886 23.2578 92.2544 16.8996 74.3738 26.9369C56.4933 36.9742 50.1351 59.6061 60.1724 77.4867C70.2097 95.3672 92.8416 101.725 110.722 91.6881Z" fill="white"/>
<path d="M102.952 90.0354C82.759 93.5984 63.5 80.1174 59.937 59.9244C58.852 53.7764 59.351 47.7174 61.137 42.1604C76.195 28.8284 104.779 24.9664 105.015 24.3484C81.958 24.2674 63.103 37.1804 63.907 35.7064C57.243 43.7974 54.021 54.6384 55.985 65.7704C59.548 85.9634 78.807 99.4444 99 95.8814C110.565 93.8404 119.92 86.6474 125.141 77.0844C119.716 83.6704 112.014 88.4364 102.952 90.0354Z" fill="#EBF0F7"/>
<path d="M18.263 117.852C17.753 117.852 17.256 117.592 16.975 117.122C16.549 116.412 16.781 115.49 17.492 115.065L56.386 91.7713C57.096 91.3453 58.017 91.5763 58.444 92.2873C58.87 92.9973 58.638 93.9193 57.927 94.3443L19.033 117.638C18.791 117.784 18.526 117.852 18.263 117.852Z" fill="#343B54"/>
<path d="M29.926 190.895C29.682 190.895 29.468 190.715 29.432 190.466L18.661 115.628C18.622 115.355 18.811 115.101 19.085 115.062C19.354 115.023 19.611 115.212 19.651 115.486L30.422 190.324C30.461 190.597 30.272 190.851 29.998 190.89C29.974 190.893 29.95 190.895 29.926 190.895Z" fill="#343B54"/>
<path d="M20.588 126.004C19.358 126.192 18.198 125.339 18.011 124.109L15.829 109.798C15.641 108.568 16.494 107.409 17.724 107.221C18.954 107.033 20.113 107.886 20.301 109.116L22.483 123.427C22.671 124.657 21.818 125.816 20.588 126.004Z" fill="#849CBF"/>
<path d="M40.698 186.115C37.613 184.06 33.912 182.858 29.927 182.858C25.942 182.858 22.241 184.06 19.156 186.115H40.698Z" fill="#849CBF"/>
<path d="M15.531 113.169C14.821 113.169 14.19 112.662 14.057 111.939C13.908 111.124 14.448 110.343 15.262 110.193L18.049 109.683C18.867 109.535 19.646 110.074 19.795 110.889C19.944 111.704 19.404 112.485 18.59 112.635L15.803 113.145C15.711 113.16 15.621 113.169 15.531 113.169Z" fill="#343B54"/>
<path d="M18.298 116.636H15.659C14.831 116.636 14.159 115.965 14.159 115.136C14.159 114.307 14.831 113.636 15.659 113.636H18.298C19.126 113.636 19.798 114.307 19.798 115.136C19.798 115.965 19.126 116.636 18.298 116.636Z" fill="#343B54"/>
<path d="M18.13 120.488C18.057 120.488 17.984 120.483 17.909 120.472L15.313 120.089C14.494 119.968 13.927 119.206 14.047 118.386C14.168 117.566 14.934 116.996 15.75 117.121L18.346 117.504C19.165 117.625 19.732 118.387 19.612 119.207C19.502 119.952 18.862 120.488 18.13 120.488Z" fill="#343B54"/>
<path d="M61.5342 57.5062L53.9827 58.8389L55.9253 69.846L63.4767 68.5133L61.5342 57.5062Z" fill="#353B55"/>
<path d="M66.4271 69.6363L63.5501 70.1444C62.8381 70.2704 62.1521 69.7903 62.0271 69.0783L59.9511 57.3114C59.8251 56.5994 60.3051 55.9133 61.0171 55.7883L63.8941 55.2803C64.6061 55.1543 65.2921 55.6343 65.4171 56.3463L67.4931 68.1123C67.6181 68.8253 67.1391 69.5113 66.4271 69.6363Z" fill="#849CBF"/>
<path d="M133.502 57.8003L130.625 58.3083C129.913 58.4343 129.227 57.9543 129.102 57.2423L127.026 45.4753C126.9 44.7633 127.38 44.0773 128.092 43.9523L130.969 43.4443C131.681 43.3183 132.367 43.7983 132.492 44.5103L134.568 56.2773C134.694 56.9893 134.214 57.6743 133.502 57.8003Z" fill="#849CBF"/>
<path d="M128.606 41.3513C128.432 40.4963 127.839 39.7803 127.015 39.4003C116.804 34.6853 105.752 34.2863 93.584 36.4363V36.4343C93.549 36.4403 93.516 36.4473 93.481 36.4533C93.446 36.4593 93.412 36.4643 93.378 36.4703V36.4723C81.209 38.6163 70.961 42.7743 62.981 50.6993C62.337 51.3393 62.025 52.2143 62.154 53.0773L64.954 71.8293C65.113 72.8933 65.959 73.7363 67.073 73.9423L80.744 76.4683C83.999 77.0693 87.385 76.0173 89.678 73.6923L97.124 66.1453C97.926 65.3323 99.189 65.1103 100.22 65.5993L109.799 70.1423C112.75 71.5413 116.292 71.3713 119.144 69.6923L131.125 62.6403C132.102 62.0653 132.608 60.9833 132.393 59.9293L128.606 41.3513Z" fill="#353B55"/>
<path d="M97.946 61.7543C99.313 61.5133 100.75 61.6763 102.034 62.2843L111.614 66.8283C113.343 67.6473 115.454 67.5453 117.123 66.5633L128.389 59.9313L124.847 42.5553C116.252 38.6953 106.514 37.9063 94.251 40.0703C94.242 40.0723 94.238 40.0723 94.225 40.0753C94.192 40.0813 94.158 40.0863 94.125 40.0913L94.122 40.0923L94.118 40.0933C94.084 40.1003 94.03 40.0963 94.018 40.1123C94.01 40.1133 94.001 40.1153 93.993 40.1163C81.7301 42.2803 72.852 46.3543 66.097 52.9223L68.715 70.4623L81.571 72.8383C83.476 73.1893 85.495 72.5623 86.839 71.2013L94.285 63.6543C95.283 62.6423 96.579 61.9953 97.946 61.7543Z" fill="#BFC8D6"/>
<path d="M71.476 48.5293L90.597 67.3913L94.285 63.6533C95.283 62.6423 96.579 61.9963 97.946 61.7543C99.313 61.5133 100.75 61.6763 102.034 62.2843L108.86 65.5213L85.192 42.1743C79.915 43.7593 75.393 45.8523 71.476 48.5293Z" fill="white"/>
<path d="M98.241 39.4643C96.94 39.6313 95.614 39.8293 94.252 40.0693C94.243 40.0713 94.239 40.0713 94.226 40.0743C94.193 40.0803 94.159 40.0853 94.126 40.0903L94.123 40.0913L94.119 40.0923C94.085 40.0993 94.031 40.0953 94.019 40.1113C94.011 40.1123 94.002 40.1143 93.994 40.1153C93.57 40.1903 93.16 40.2733 92.744 40.3523L118.496 65.7553L122.502 63.3973L98.241 39.4643Z" fill="white"/>
<path d="M99.293 65.2153C103.789 64.4223 117.444 65.7393 117.896 67.4853C117.691 69.7633 105.127 73.9433 100.488 74.7443C95.473 75.6443 93.203 66.2903 99.293 65.2153Z" fill="#DEA75A"/>
<path d="M98.204 78.6963C93.207 78.6963 91.52 76.6903 91.436 76.5863C91.263 76.3713 91.297 76.0563 91.512 75.8833C91.724 75.7103 92.038 75.7433 92.212 75.9553C92.249 75.9993 94.55 78.5813 101.876 77.3713C102.155 77.3243 102.406 77.5103 102.451 77.7833C102.496 78.0553 102.312 78.3133 102.04 78.3583C100.587 78.5973 99.314 78.6963 98.204 78.6963Z" fill="#343B54"/>
<path d="M79.603 6.56435C80.365 10.8844 77.481 15.0053 73.161 15.7673C68.841 16.5293 64.72 13.6453 63.958 9.32535C63.196 5.00435 66.08 0.884349 70.4 0.122349C74.72 -0.640651 78.841 2.24435 79.603 6.56435Z" fill="white"/>
<path d="M74.921 12.1513C70.601 12.9133 66.48 10.0293 65.718 5.70935C65.541 4.70335 65.568 3.71135 65.758 2.76735C64.261 4.51035 63.528 6.88635 63.958 9.32535C64.72 13.6453 68.841 16.5303 73.161 15.7673C76.476 15.1823 78.938 12.6183 79.564 9.50635C78.409 10.8503 76.802 11.8193 74.921 12.1513Z" fill="#EBF0F7"/>
<path d="M60.945 34.2383L102.65 20.2283C102.65 20.2283 93.357 3.88135 75.395 9.38135C57.432 14.8813 60.945 34.2383 60.945 34.2383Z" fill="#DEA75A"/>
<path d="M73.571 10.0213C57.684 16.2333 60.945 34.2383 60.945 34.2383L65.918 32.5673C64.983 28.0833 63.852 16.8823 73.571 10.0213Z" fill="#D3964C"/>
<path d="M61.369 37.5204L60.472 34.6413C60.348 34.2443 60.52 33.8304 60.851 33.5804C71.437 24.7644 90.553 17.7564 102.838 19.7454C103.249 19.7824 103.621 20.0034 103.747 20.3974L104.658 23.2364C104.841 23.8054 104.443 24.3884 103.847 24.4354C88.961 25.6214 74.969 30.4374 62.74 38.0264C62.224 38.3454 61.55 38.0994 61.369 37.5204Z" fill="white"/>
<path d="M84.011 189.515C77.56 189.078 68.645 187.553 63.913 183.284C58.354 178.127 54.606 169.568 54.606 169.568H52.079C52.079 169.568 48.032 184.235 50.931 189.706C51.7 191.159 52.95 191.972 54.244 191.972H84.011V189.515Z" fill="#849CBF"/>
<path d="M51.718 191.973H89.138V189.54C89.138 189.54 69.345 190.465 61.386 183.284C55.827 178.127 52.079 169.568 52.079 169.568C47.148 176.953 45.267 183.785 48.404 189.706C49.174 191.159 50.423 191.973 51.718 191.973Z" fill="#353B55"/>
<path d="M101.322 189.515C107.773 189.078 116.688 187.553 121.42 183.284C126.979 178.127 130.727 169.568 130.727 169.568H133.254C133.254 169.568 137.301 184.235 134.402 189.706C133.632 191.159 132.383 191.972 131.089 191.972H101.322V189.515Z" fill="#849CBF"/>
<path d="M133.615 191.973H96.195V189.54C96.195 189.54 115.988 190.465 123.947 183.284C129.506 178.127 133.254 169.568 133.254 169.568C138.185 176.953 140.066 183.785 136.929 189.706C136.159 191.159 134.91 191.973 133.615 191.973Z" fill="#353B55"/>
<path d="M98.2501 129.367H88.9651C86.9551 129.367 85.3201 127.731 85.3201 125.721V119.758C85.3201 117.748 86.9561 116.112 88.9651 116.112H98.2501C100.261 116.112 101.896 117.748 101.896 119.758V125.721C101.897 127.732 100.261 129.367 98.2501 129.367ZM88.9651 117.112C87.5061 117.112 86.3201 118.299 86.3201 119.758V125.721C86.3201 127.18 87.5061 128.367 88.9651 128.367H98.2501C99.7091 128.367 100.896 127.18 100.896 125.721V119.758C100.896 118.299 99.7081 117.112 98.2501 117.112H88.9651Z" fill="#DEA75A"/>
<path d="M103.084 142.154C108.318 136.92 108.318 128.433 103.084 123.198C97.8494 117.964 89.3625 117.964 84.128 123.198C78.8934 128.433 78.8935 136.92 84.128 142.154C89.3625 147.389 97.8494 147.389 103.084 142.154Z" fill="#DEA75A"/>
<path d="M100.335 139.405C104.051 135.689 104.051 129.664 100.335 125.947C96.6185 122.231 90.5934 122.231 86.8772 125.947C83.161 129.664 83.161 135.689 86.8772 139.405C90.5934 143.121 96.6185 143.121 100.335 139.405Z" fill="#D3964C"/>
<path d="M98.459 117.654L79.736 89.9523H70.746L88.355 117.654H98.459Z" fill="#353B55"/>
<path d="M88.355 117.654L107.078 89.9523H116.067L98.459 117.654H88.355Z" fill="#849CBF"/>
<path d="M62.19 81.3313C82.048 89.3693 102.637 90.0383 122.428 81.6943C124.091 80.7873 126.867 87.7283 125.5 89.2193C115.886 105.99 77.17 107.082 59.154 89.3913C58.274 87.9283 60.617 81.0483 62.19 81.3313Z" fill="#DEA75A"/>
<path d="M95.301 136.097V127.285H92.767L89.31 128.556L89.812 130.367L92.305 129.429H92.345V136.097H90.395V137.61H92.345H95.301H97.002V136.097H95.301Z" fill="white"/>
</svg>
