<svg width="200" height="200" viewBox="0 0 200 200" fill="none" xmlns="http://www.w3.org/2000/svg">
<path d="M137.946 90.4733C152.569 75.8499 152.569 52.1406 137.946 37.5172C123.322 22.8937 99.6131 22.8938 84.9897 37.5172C70.3663 52.1406 70.3663 75.8499 84.9897 90.4733C99.6131 105.097 123.322 105.097 137.946 90.4733Z" fill="white"/>
<path d="M122.459 97.4667C102.092 101.061 82.669 87.4637 79.075 67.0977C77.251 56.7597 79.857 46.6667 85.529 38.7627C99.415 28.1917 133.091 34.6787 133.753 33.8987C129.399 30.0087 91.276 29.1697 91.151 32.5327C78.886 40.4627 71.899 55.2167 74.597 70.5027C78.191 90.8687 97.615 104.466 117.981 100.872C125.037 99.6267 131.277 96.4797 136.275 92.0537C132.198 94.6887 127.539 96.5707 122.459 97.4667Z" fill="#EBF0F7"/>
<path d="M95.678 86.2557C106.602 95.1877 117.781 95.3247 129.234 86.0267C117.813 93.3157 106.632 93.2437 95.678 86.2557Z" fill="#EBF0F7"/>
<path d="M117.114 30.2877C115.364 29.7417 113.509 29.6357 111.676 29.5917C109.875 29.5487 108.073 29.5627 106.273 29.6337C104.8 29.6917 103.272 29.8027 101.982 30.5167C101.068 31.0217 98.7871 31.9267 98.9041 33.0847C100.947 45.4357 113.228 47.0847 116.947 46.5917C116.08 46.4617 115.334 45.8767 114.817 45.1687C114.3 44.4607 113.979 43.6317 113.664 42.8137C117.122 44.7427 121.664 44.5367 124.933 42.3007C123.728 41.6927 122.614 40.9027 121.643 39.9647C123.98 40.7347 128.746 40.8827 130.646 38.6247C125.744 38.6687 122.935 31.9457 117.114 30.2877Z" fill="#EBF0F7"/>
<path d="M77.761 91.6157C54.03 112.537 28.256 124.88 0 126.801C0 126.801 36.139 193.435 111.337 183.903C186.535 174.371 124.319 97.6157 124.319 97.6157L77.761 91.6157Z" fill="#DEA75A"/>
<path d="M111.337 199.447C137.625 199.447 158.936 197.735 158.936 195.624C158.936 193.512 137.625 191.801 111.337 191.801C85.0488 191.801 63.738 193.512 63.738 195.624C63.738 197.735 85.0488 199.447 111.337 199.447Z" fill="#95A4BC"/>
<path d="M111.364 196.195C142.611 196.195 167.941 170.864 167.941 139.618C167.941 108.371 142.611 83.0407 111.364 83.0407C80.1174 83.0407 54.787 108.371 54.787 139.618C54.787 170.864 80.1174 196.195 111.364 196.195Z" fill="white"/>
<path d="M117.565 190.587C86.8711 190.587 61.989 165.705 61.989 135.011C61.989 115.485 72.0671 98.3237 87.2961 88.4107C68.0881 97.4557 54.787 116.979 54.787 139.617C54.787 170.864 80.118 196.194 111.364 196.194C128.052 196.194 143.049 188.965 153.404 177.473C143.727 185.65 131.225 190.587 117.565 190.587Z" fill="#EBF0F7"/>
<path d="M101.399 55.0937C102.396 55.0937 103.204 55.9017 103.204 56.8987C103.204 57.8957 102.396 58.7037 101.399 58.7037C100.402 58.7037 99.5941 57.8957 99.5941 56.8987C99.5941 55.9017 100.402 55.0937 101.399 55.0937Z" fill="#353B55"/>
<path d="M123.483 55.0937C124.48 55.0937 125.288 55.9017 125.288 56.8987C125.288 57.8957 124.48 58.7037 123.483 58.7037C122.486 58.7037 121.678 57.8957 121.678 56.8987C121.678 55.9017 122.486 55.0937 123.483 55.0937Z" fill="#353B55"/>
<path d="M94.56 63.0187C96.4438 63.0187 97.971 62.2925 97.971 61.3967C97.971 60.5009 96.4438 59.7747 94.56 59.7747C92.6762 59.7747 91.149 60.5009 91.149 61.3967C91.149 62.2925 92.6762 63.0187 94.56 63.0187Z" fill="#EBF0F7"/>
<path d="M134.999 61.3967C134.999 62.2927 133.472 63.0187 131.589 63.0187C129.705 63.0187 128.179 62.2927 128.179 61.3967C128.179 60.5007 129.706 59.7747 131.589 59.7747C133.472 59.7747 134.999 60.5007 134.999 61.3967Z" fill="#EBF0F7"/>
<path d="M112.231 73.0817C112.153 73.0817 112.075 73.0807 111.998 73.0787C109.612 73.0147 107.349 71.9617 105.623 70.1117C105.434 69.9107 105.445 69.5937 105.647 69.4057C105.847 69.2177 106.165 69.2277 106.353 69.4297C107.895 71.0807 109.909 72.0217 112.024 72.0777C114.315 72.1407 116.645 71.1647 118.546 69.3347C118.745 69.1447 119.062 69.1487 119.253 69.3487C119.444 69.5477 119.439 69.8647 119.239 70.0557C117.208 72.0137 114.727 73.0817 112.231 73.0817Z" fill="#343B54"/>
<path d="M114.237 58.2227C118.802 58.2227 132.021 61.8927 132.163 63.6907C131.565 65.8987 118.467 67.8317 113.759 67.8137C108.663 67.8297 108.052 58.2227 114.237 58.2227Z" fill="#DEA75A"/>
<path d="M72.324 102.13C72.178 102.13 72.029 102.109 71.883 102.064C50.098 95.3497 36.779 80.2877 32.295 57.2947C32.137 56.4817 32.667 55.6937 33.481 55.5347C34.289 55.3767 35.082 55.9067 35.241 56.7207C39.496 78.5427 52.122 92.8337 72.766 99.1967C73.558 99.4407 74.002 100.281 73.758 101.072C73.558 101.716 72.966 102.13 72.324 102.13Z" fill="#343B54"/>
<path d="M33.792 66.6717C33.293 66.6717 32.791 66.5907 32.294 66.4287C29.041 65.3657 26.941 61.1267 26.712 60.6477C26.356 59.8997 26.673 59.0047 27.421 58.6477C28.167 58.2947 29.064 58.6087 29.421 59.3567C29.86 60.2727 31.507 63.0177 33.23 63.5787C33.733 63.7407 34.179 63.6977 34.669 63.4337C37.388 61.9677 38.592 56.4547 38.826 54.4537C38.923 53.6327 39.661 53.0457 40.49 53.1387C41.312 53.2347 41.901 53.9777 41.806 54.7997C41.702 55.6947 40.664 63.6107 36.092 66.0747C35.354 66.4717 34.577 66.6717 33.792 66.6717Z" fill="#343B54"/>
<path d="M149.773 102.13C149.132 102.13 148.54 101.716 148.34 101.071C148.096 100.28 148.54 99.4397 149.332 99.1957C169.978 92.8327 182.603 78.5417 186.857 56.7197C187.016 55.9067 187.811 55.3837 188.617 55.5337C189.43 55.6927 189.961 56.4797 189.802 57.2937C185.319 80.2857 171.999 95.3477 150.214 102.063C150.069 102.108 149.92 102.13 149.773 102.13Z" fill="#343B54"/>
<path d="M188.306 66.6717C187.521 66.6717 186.743 66.4717 186.006 66.0737C181.433 63.6087 180.395 55.6927 180.291 54.7987C180.196 53.9767 180.785 53.2337 181.607 53.1377C182.444 53.0457 183.175 53.6317 183.271 54.4527C183.505 56.4537 184.71 61.9677 187.429 63.4327C187.918 63.6967 188.364 63.7397 188.867 63.5777C190.59 63.0167 192.236 60.2717 192.677 59.3537C193.035 58.6087 193.93 58.2897 194.678 58.6497C195.424 59.0067 195.741 59.8997 195.385 60.6467C195.156 61.1257 193.056 65.3647 189.803 66.4277C189.307 66.5907 188.805 66.6717 188.306 66.6717Z" fill="#343B54"/>
<path d="M111.236 99.2967C99.828 95.9677 87.906 90.7097 79.851 84.0657C79.52 88.1427 77.886 91.2447 75.372 93.6867C84.739 99.1687 98.293 102.202 111.227 103.486C111.194 102.088 111.181 100.691 111.236 99.2967Z" fill="#DEA75A"/>
<path d="M111.472 99.2967C122.88 95.9677 134.897 90.9187 142.952 84.2747C143.283 88.3517 143.705 92.2717 146.219 94.7137C136.852 100.196 124.415 102.202 111.481 103.487C111.514 102.088 111.528 100.691 111.472 99.2967Z" fill="#DEA75A"/>
<path d="M116.243 102.2C116.243 104.174 114.071 105.774 111.392 105.774C108.713 105.774 106.541 104.174 106.541 102.2C106.541 100.226 108.713 98.6257 111.392 98.6257C114.072 98.6257 116.243 100.226 116.243 102.2Z" fill="#DEA75A"/>
<path d="M109.312 101.18C109.312 101.18 99.0201 107.135 105.008 118.874C105.008 118.874 114.37 113.185 111.593 102.329L109.312 101.18Z" fill="#DEA75A"/>
<path d="M114.553 101.962C114.553 101.962 126.538 108.897 119.565 122.567C119.565 122.567 108.663 115.943 111.896 103.3L114.553 101.962Z" fill="#DEA75A"/>
<path d="M99.3419 157.892L102.819 153.009C104.901 154.924 108.277 156.785 111.557 156.785C114.735 156.785 116.72 155.125 116.72 152.706C116.72 145.908 100.284 147.319 100.284 136.191C100.284 132.752 101.833 129.982 104.349 128.169C95.604 130.361 89.291 136.61 89.291 143.981C89.291 149.913 93.381 155.116 99.534 158.067C99.472 158.005 99.4029 157.954 99.3419 157.892Z" fill="#DEA75A"/>
<path d="M122.587 129.726L119.801 134.931C117.864 133.168 114.836 131.807 112.054 131.807C108.827 131.807 106.688 133.418 106.688 135.886C106.688 142.532 123.128 140.822 123.128 152.2C123.128 154.782 122.294 157.159 120.707 159.005C128.084 156.322 133.178 150.603 133.178 143.98C133.18 137.936 128.936 132.644 122.587 129.726Z" fill="#DEA75A"/>
<path d="M114.697 9.09672C114.098 13.4807 110.059 16.5497 105.675 15.9507C101.291 15.3517 98.222 11.3127 98.821 6.92872C99.42 2.54472 103.459 -0.524302 107.843 0.0746981C112.227 0.673698 115.295 4.71272 114.697 9.09672Z" fill="white"/>
<path d="M108.479 13.0197C104.095 12.4217 101.026 8.3817 101.625 3.9977C101.764 2.9777 102.096 2.03269 102.569 1.18469C100.594 2.39769 99.1579 4.45371 98.8199 6.92871C98.2219 11.3127 101.29 15.3517 105.674 15.9507C109.038 16.4097 112.192 14.7057 113.752 11.9097C112.23 12.8447 110.388 13.2807 108.479 13.0197Z" fill="#EBF0F7"/>
<path d="M88.254 29.9267L132.623 29.3167C132.623 29.3167 128.733 10.7557 109.788 10.5047C90.842 10.2547 88.254 29.9267 88.254 29.9267Z" fill="#DEA75A"/>
<path d="M107.839 10.5587C90.668 11.6317 88.254 29.9277 88.254 29.9277L93.5439 29.8547C94.0269 25.2597 96.391 14.1537 107.839 10.5587Z" fill="#D3964C"/>
<path d="M87.651 33.2097L87.676 30.1687C87.679 29.7497 87.971 29.4047 88.367 29.2657C101.249 24.0597 121.766 23.2167 132.952 28.9107C133.336 29.0727 133.624 29.3997 133.624 29.8167V32.8247C133.624 33.4277 133.063 33.8647 132.476 33.7267C117.814 30.2807 102.893 30.5957 88.811 34.1187C88.218 34.2657 87.646 33.8217 87.651 33.2097Z" fill="white"/>
<path d="M103.542 136.698C100.199 136.698 96.833 136.439 93.452 135.913C60.914 130.846 36.56 102.946 29.893 63.0997C29.847 62.8287 30.032 62.5707 30.304 62.5247C30.571 62.4757 30.833 62.6627 30.879 62.9357C37.472 102.341 61.507 129.926 93.606 134.924C124.487 139.732 154.424 121.824 171.715 88.1817C171.841 87.9347 172.144 87.8377 172.388 87.9657C172.634 88.0917 172.731 88.3937 172.604 88.6387C156.998 119.005 131.174 136.698 103.542 136.698Z" fill="#343B54"/>
<path d="M124.556 91.7067C123.665 91.7067 122.777 91.6867 121.882 91.6487C101.607 90.7717 83.234 79.6687 73.933 62.6717C73.8 62.4297 73.889 62.1257 74.131 61.9927C74.371 61.8597 74.677 61.9477 74.81 62.1907C83.944 78.8817 101.998 89.7867 121.925 90.6487C145.174 91.6317 167.111 79.2917 182.125 56.7287C182.277 56.4987 182.587 56.4377 182.818 56.5897C183.048 56.7417 183.11 57.0527 182.957 57.2827C168.323 79.2777 147.158 91.7067 124.556 91.7067Z" fill="#343B54"/>
<path d="M191.367 131.807C191.091 131.807 190.867 131.583 190.867 131.307V63.9947C190.867 63.7187 191.091 63.4947 191.367 63.4947C191.643 63.4947 191.867 63.7187 191.867 63.9947V131.307C191.867 131.583 191.643 131.807 191.367 131.807Z" fill="#343B54"/>
<path d="M28.861 108.828C28.585 108.828 28.361 108.604 28.361 108.328V61.3957C28.361 61.1197 28.585 60.8957 28.861 60.8957C29.137 60.8957 29.361 61.1197 29.361 61.3957V108.328C29.361 108.604 29.137 108.828 28.861 108.828Z" fill="#343B54"/>
<path d="M119.709 170.01C104.377 170.01 91.936 166.304 82.726 162.071C64.325 153.613 54.492 141.26 54.394 141.136C54.224 140.919 54.261 140.605 54.479 140.434C54.695 140.265 55.01 140.3 55.181 140.519C55.277 140.641 64.99 152.83 83.188 161.183C99.972 168.885 127.628 174.809 164.058 159.281C164.314 159.173 164.606 159.292 164.714 159.545C164.822 159.799 164.704 160.093 164.45 160.201C147.62 167.374 132.636 170.01 119.709 170.01Z" fill="#343B54"/>
<path d="M187.943 126.527C186.292 127.302 184.326 126.592 183.551 124.941C182.776 123.29 183.486 121.324 185.137 120.549C186.788 119.774 188.754 120.484 189.529 122.135C190.304 123.786 189.594 125.753 187.943 126.527Z" fill="#59784F"/>
<path d="M189.831 123.458L190.606 123.094C191.266 122.784 191.552 121.991 191.242 121.332C190.932 120.672 190.139 120.386 189.48 120.696L188.705 121.06L189.831 123.458Z" fill="#353B55"/>
<path d="M60.058 153.139C58.89 154.539 56.807 154.726 55.407 153.558C54.007 152.389 53.82 150.307 54.988 148.907C56.157 147.507 58.239 147.32 59.639 148.488C61.039 149.656 61.227 151.739 60.058 153.139Z" fill="#59784F"/>
<path d="M60.4711 149.56L61.0201 148.903C61.4871 148.344 61.4111 147.504 60.8521 147.037C60.2931 146.57 59.4531 146.646 58.9861 147.205L58.4371 147.862L60.4711 149.56Z" fill="#353B55"/>
<path d="M71.6731 161.681C70.6381 163.182 68.5821 163.56 67.0811 162.525C65.5801 161.49 65.2021 159.434 66.2371 157.933C67.2721 156.432 69.3281 156.054 70.8291 157.089C72.3301 158.124 72.7081 160.18 71.6731 161.681Z" fill="#DEA75A"/>
<path d="M71.755 158.079L72.2411 157.374C72.6551 156.774 72.502 155.945 71.902 155.531C71.302 155.117 70.4731 155.27 70.0591 155.87L69.5731 156.575L71.755 158.079Z" fill="#353B55"/>
<path d="M84.417 168.098C83.641 169.748 81.674 170.457 80.024 169.681C78.374 168.905 77.665 166.938 78.441 165.288C79.217 163.638 81.184 162.929 82.834 163.705C84.484 164.481 85.193 166.447 84.417 168.098Z" fill="#59784F"/>
<path d="M83.91 164.53L84.274 163.755C84.584 163.095 84.298 162.302 83.639 161.992C82.98 161.682 82.186 161.968 81.876 162.627L81.512 163.402L83.91 164.53Z" fill="#353B55"/>
<path d="M38.398 100.76C36.935 101.849 34.867 101.545 33.778 100.082C32.689 98.6187 32.993 96.5507 34.456 95.4617C35.919 94.3727 37.987 94.6767 39.076 96.1397C40.165 97.6027 39.861 99.6717 38.398 100.76Z" fill="#59784F"/>
<path d="M39.635 97.3757L40.3221 96.8647C40.9071 96.4297 41.0291 95.5957 40.5941 95.0107C40.1591 94.4257 39.3251 94.3037 38.7401 94.7387L38.053 95.2497L39.635 97.3757Z" fill="#353B55"/>
<path d="M46.127 113.142C44.664 114.231 42.596 113.927 41.507 112.464C40.418 111.001 40.722 108.933 42.185 107.844C43.648 106.755 45.716 107.059 46.805 108.522C47.894 109.985 47.59 112.053 46.127 113.142Z" fill="#59784F"/>
<path d="M47.364 109.758L48.0511 109.247C48.6361 108.812 48.7581 107.978 48.3231 107.393C47.8881 106.808 47.0541 106.686 46.4691 107.121L45.782 107.632L47.364 109.758Z" fill="#353B55"/>
<path d="M57.103 124.691C55.803 125.969 53.712 125.952 52.434 124.651C51.156 123.351 51.173 121.26 52.474 119.982C53.774 118.704 55.865 118.721 57.143 120.022C58.421 121.322 58.403 123.412 57.103 124.691Z" fill="#59784F"/>
<path d="M57.865 121.169L58.476 120.569C58.996 120.058 59.003 119.215 58.492 118.695C57.981 118.175 57.138 118.168 56.618 118.679L56.007 119.279L57.865 121.169Z" fill="#353B55"/>
<path d="M69.877 133.107C68.91 134.653 66.872 135.122 65.326 134.154C63.78 133.187 63.311 131.149 64.279 129.603C65.246 128.057 67.284 127.588 68.829 128.556C70.375 129.524 70.844 131.561 69.877 133.107Z" fill="#DEA75A"/>
<path d="M69.7989 129.505L70.2529 128.779C70.6399 128.161 70.4499 127.34 69.8329 126.953C69.2149 126.566 68.3939 126.756 68.0069 127.373L67.5529 128.099L69.7989 129.505Z" fill="#353B55"/>
<path d="M84.636 138.904C84.069 140.637 82.204 141.582 80.471 141.015C78.738 140.448 77.793 138.583 78.36 136.85C78.927 135.117 80.792 134.172 82.525 134.739C84.258 135.306 85.203 137.171 84.636 138.904Z" fill="#59784F"/>
<path d="M83.694 135.426L83.96 134.612C84.187 133.919 83.8049 133.167 83.1129 132.941C82.4199 132.714 81.668 133.096 81.442 133.788L81.176 134.602L83.694 135.426Z" fill="#353B55"/>
<path d="M100.15 141.167C100.055 142.988 98.501 144.387 96.68 144.292C94.859 144.197 93.46 142.643 93.555 140.822C93.65 139.001 95.204 137.602 97.025 137.697C98.846 137.792 100.245 139.346 100.15 141.167Z" fill="#59784F"/>
<path d="M98.3331 138.055L98.3781 137.2C98.4161 136.472 97.8521 135.846 97.1241 135.808C96.3961 135.77 95.7701 136.334 95.7321 137.062L95.6871 137.917L98.3331 138.055Z" fill="#353B55"/>
<path d="M116.17 139.995C116.476 141.793 115.267 143.498 113.469 143.804C111.671 144.11 109.966 142.901 109.66 141.103C109.354 139.305 110.564 137.6 112.361 137.294C114.158 136.988 115.864 138.197 116.17 139.995Z" fill="#59784F"/>
<path d="M113.716 137.357L113.572 136.513C113.45 135.795 112.762 135.307 112.044 135.429C111.326 135.551 110.838 136.239 110.96 136.957L111.104 137.801L113.716 137.357Z" fill="#353B55"/>
<path d="M131.246 135.623C131.832 137.35 130.906 139.225 129.179 139.81C127.452 140.396 125.577 139.47 124.992 137.743C124.407 136.016 125.332 134.141 127.059 133.556C128.786 132.971 130.661 133.896 131.246 135.623Z" fill="#59784F"/>
<path d="M128.407 133.405L128.132 132.594C127.898 131.904 127.142 131.531 126.452 131.765C125.762 131.999 125.389 132.755 125.623 133.445L125.898 134.256L128.407 133.405Z" fill="#353B55"/>
<path d="M144.383 128.336C145.345 129.885 144.87 131.921 143.321 132.883C141.772 133.845 139.736 133.37 138.774 131.821C137.812 130.272 138.287 128.236 139.836 127.274C141.385 126.312 143.421 126.787 144.383 128.336Z" fill="#DEA75A"/>
<path d="M141.114 126.821L140.662 126.094C140.277 125.475 139.456 125.283 138.837 125.668C138.218 126.053 138.026 126.874 138.411 127.493L138.863 128.22L141.114 126.821Z" fill="#353B55"/>
<path d="M155.507 119.498C156.687 120.888 156.516 122.972 155.126 124.152C153.736 125.332 151.652 125.161 150.472 123.771C149.292 122.381 149.463 120.297 150.853 119.117C152.243 117.937 154.327 118.108 155.507 119.498Z" fill="#59784F"/>
<path d="M152.051 118.48L151.497 117.827C151.026 117.271 150.185 117.203 149.629 117.674C149.073 118.145 149.005 118.986 149.476 119.541L150.03 120.194L152.051 118.48Z" fill="#353B55"/>
<path d="M164.783 109.955C165.963 111.345 165.792 113.429 164.402 114.609C163.012 115.789 160.928 115.618 159.748 114.228C158.568 112.838 158.739 110.754 160.129 109.574C161.52 108.394 163.604 108.565 164.783 109.955Z" fill="#DEA75A"/>
<path d="M161.327 108.937L160.773 108.284C160.302 107.728 159.461 107.66 158.906 108.131C158.35 108.603 158.281 109.443 158.753 109.999L159.307 110.652L161.327 108.937Z" fill="#353B55"/>
<path d="M173.429 96.1277C174.962 97.1157 175.403 99.1587 174.416 100.692C173.428 102.225 171.385 102.667 169.852 101.679C168.319 100.691 167.878 98.6477 168.865 97.1147C169.853 95.5807 171.896 95.1397 173.429 96.1277Z" fill="#59784F"/>
<path d="M169.826 96.1567L169.106 95.6927C168.494 95.2977 167.669 95.4757 167.275 96.0887C166.88 96.7007 167.058 97.5257 167.671 97.9207L168.391 98.3847L169.826 96.1567Z" fill="#353B55"/>
<path d="M181.922 82.5957C183.455 83.5837 183.896 85.6267 182.909 87.1597C181.921 88.6927 179.878 89.1347 178.345 88.1467C176.812 87.1587 176.371 85.1157 177.358 83.5827C178.346 82.0487 180.389 81.6077 181.922 82.5957Z" fill="#DEA75A"/>
<path d="M178.319 82.6247L177.599 82.1607C176.986 81.7657 176.162 81.9437 175.767 82.5567C175.372 83.1687 175.55 83.9937 176.163 84.3877L176.883 84.8517L178.319 82.6247Z" fill="#353B55"/>
<path d="M98.656 172.418C98.191 174.181 96.385 175.234 94.622 174.769C92.859 174.304 91.806 172.498 92.271 170.735C92.736 168.972 94.542 167.919 96.305 168.384C98.068 168.848 99.121 170.654 98.656 172.418Z" fill="#DEA75A"/>
<path d="M97.5121 169.001L97.73 168.173C97.916 167.468 97.491 166.74 96.786 166.554C96.081 166.368 95.3531 166.793 95.1671 167.497L94.949 168.325L97.5121 169.001Z" fill="#353B55"/>
<path d="M114.292 174.589C114.115 176.404 112.5 177.731 110.685 177.554C108.87 177.377 107.543 175.762 107.72 173.947C107.897 172.132 109.512 170.805 111.327 170.982C113.141 171.159 114.469 172.774 114.292 174.589Z" fill="#59784F"/>
<path d="M112.617 171.399L112.7 170.547C112.771 169.822 112.235 169.17 111.51 169.1C110.785 169.029 110.133 169.564 110.062 170.29L109.979 171.142L112.617 171.399Z" fill="#353B55"/>
<path d="M130.533 174.057C130.655 175.876 129.279 177.45 127.46 177.572C125.641 177.694 124.067 176.318 123.945 174.498C123.823 172.679 125.199 171.105 127.019 170.983C128.837 170.862 130.411 172.237 130.533 174.057Z" fill="#DEA75A"/>
<path d="M128.359 171.184L128.302 170.33C128.253 169.603 127.619 169.048 126.891 169.097C126.164 169.146 125.609 169.781 125.658 170.508L125.715 171.362L128.359 171.184Z" fill="#353B55"/>
<path d="M147.386 170.991C147.795 172.768 146.686 174.54 144.909 174.949C143.132 175.358 141.36 174.249 140.951 172.471C140.542 170.694 141.651 168.922 143.428 168.513C145.205 168.105 146.977 169.214 147.386 170.991Z" fill="#59784F"/>
<path d="M144.784 168.499L144.592 167.664C144.429 166.954 143.714 166.506 143.004 166.67C142.294 166.834 141.846 167.548 142.01 168.258L142.202 169.092L144.784 168.499Z" fill="#353B55"/>
<path d="M162.562 166.331C162.971 168.108 161.862 169.88 160.085 170.289C158.308 170.698 156.536 169.589 156.127 167.811C155.718 166.034 156.827 164.262 158.604 163.853C160.382 163.444 162.154 164.554 162.562 166.331Z" fill="#DEA75A"/>
<path d="M159.961 163.838L159.769 163.003C159.606 162.293 158.891 161.845 158.181 162.009C157.471 162.172 157.023 162.887 157.187 163.597L157.379 164.432L159.961 163.838Z" fill="#353B55"/>
<path d="M187.943 100.64C186.292 101.415 184.326 100.705 183.551 99.0537C182.776 97.4027 183.486 95.4367 185.137 94.6617C186.788 93.8867 188.754 94.5967 189.529 96.2477C190.304 97.8987 189.594 99.8647 187.943 100.64Z" fill="#59784F"/>
<path d="M189.831 97.5697L190.606 97.2057C191.266 96.8957 191.552 96.1027 191.242 95.4437C190.932 94.7837 190.139 94.4977 189.48 94.8077L188.705 95.1717L189.831 97.5697Z" fill="#353B55"/>
<path d="M25.438 103.737C23.787 104.512 21.821 103.802 21.046 102.151C20.271 100.5 20.981 98.5337 22.632 97.7587C24.283 96.9837 26.249 97.6937 27.024 99.3447C27.799 100.996 27.089 102.963 25.438 103.737Z" fill="#DEA75A"/>
<path d="M27.325 100.668L28.1 100.304C28.76 99.9937 29.046 99.2007 28.737 98.5417C28.427 97.8817 27.634 97.5957 26.975 97.9057L26.2 98.2697L27.325 100.668Z" fill="#353B55"/>
<path d="M25.438 77.8497C23.787 78.6247 21.821 77.9147 21.046 76.2637C20.271 74.6127 20.981 72.6467 22.632 71.8717C24.283 71.0967 26.249 71.8067 27.024 73.4577C27.799 75.1087 27.089 77.0747 25.438 77.8497Z" fill="#59784F"/>
<path d="M27.325 74.7797L28.1 74.4157C28.76 74.1057 29.046 73.3127 28.737 72.6537C28.427 71.9937 27.634 71.7077 26.975 72.0177L26.2 72.3817L27.325 74.7797Z" fill="#353B55"/>
<path d="M187.943 77.0957C186.292 77.8707 184.326 77.1607 183.551 75.5097C182.776 73.8587 183.486 71.8927 185.137 71.1177C186.788 70.3427 188.754 71.0527 189.529 72.7037C190.304 74.3537 189.594 76.3207 187.943 77.0957Z" fill="#59784F"/>
<path d="M189.831 74.0257L190.606 73.6617C191.266 73.3517 191.552 72.5587 191.242 71.8997C190.932 71.2397 190.139 70.9537 189.48 71.2627L188.705 71.6267L189.831 74.0257Z" fill="#353B55"/>
<path d="M179.103 70.1137C180.408 71.3867 180.434 73.4777 179.16 74.7827C177.887 76.0877 175.796 76.1137 174.491 74.8397C173.186 73.5667 173.16 71.4757 174.434 70.1707C175.707 68.8657 177.798 68.8397 179.103 70.1137Z" fill="#DEA75A"/>
<path d="M175.566 69.4247L174.953 68.8267C174.431 68.3177 173.588 68.3277 173.079 68.8497C172.57 69.3717 172.58 70.2147 173.102 70.7237L173.715 71.3217L175.566 69.4247Z" fill="#353B55"/>
<path d="M169.364 79.6457C170.467 81.0977 170.184 83.1687 168.732 84.2717C167.28 85.3747 165.209 85.0917 164.106 83.6397C163.003 82.1877 163.286 80.1167 164.738 79.0137C166.19 77.9107 168.261 78.1937 169.364 79.6457Z" fill="#59784F"/>
<path d="M165.968 78.4427L165.45 77.7607C165.009 77.1807 164.174 77.0667 163.594 77.5067C163.014 77.9477 162.9 78.7827 163.34 79.3637L163.858 80.0457L165.968 78.4427Z" fill="#353B55"/>
<path d="M142.363 94.1967C142.64 95.9987 141.404 97.6847 139.602 97.9627C137.8 98.2397 136.114 97.0037 135.836 95.2017C135.559 93.3997 136.795 91.7137 138.597 91.4357C140.4 91.1577 142.086 92.3937 142.363 94.1967Z" fill="#59784F"/>
<path d="M139.951 91.5197L139.821 90.6737C139.71 89.9537 139.03 89.4547 138.31 89.5657C137.59 89.6767 137.091 90.3567 137.202 91.0767L137.332 91.9227L139.951 91.5197Z" fill="#353B55"/>
<path d="M128.453 96.3987C128.453 98.2217 126.975 99.7007 125.151 99.7007C123.327 99.7007 121.849 98.2227 121.849 96.3987C121.849 94.5747 123.327 93.0967 125.151 93.0967C126.975 93.0977 128.453 94.5757 128.453 96.3987Z" fill="#59784F"/>
<path d="M126.476 93.3867V92.5307C126.476 91.8017 125.88 91.2057 125.151 91.2057C124.422 91.2057 123.826 91.8017 123.826 92.5307V93.3867H126.476Z" fill="#353B55"/>
<path d="M113.657 95.3777C113.27 97.1597 111.512 98.2907 109.73 97.9037C107.948 97.5167 106.817 95.7587 107.204 93.9767C107.591 92.1947 109.349 91.0637 111.131 91.4507C112.912 91.8367 114.044 93.5957 113.657 95.3777Z" fill="#59784F"/>
<path d="M112.364 92.0147L112.546 91.1777C112.701 90.4657 112.244 89.7567 111.532 89.6017C110.82 89.4477 110.111 89.9037 109.956 90.6157L109.774 91.4527L112.364 92.0147Z" fill="#353B55"/>
<path d="M99.909 91.4897C99.133 93.1397 97.166 93.8477 95.516 93.0717C93.866 92.2957 93.158 90.3287 93.934 88.6787C94.71 87.0287 96.677 86.3207 98.327 87.0967C99.977 87.8727 100.686 89.8397 99.909 91.4897Z" fill="#59784F"/>
<path d="M99.403 87.9227L99.7679 87.1477C100.078 86.4887 99.793 85.6947 99.133 85.3847C98.474 85.0747 97.68 85.3607 97.37 86.0197L97.0049 86.7947L99.403 87.9227Z" fill="#353B55"/>
<path d="M87.85 85.1797C86.661 86.5627 84.577 86.7197 83.194 85.5307C81.811 84.3417 81.654 82.2577 82.843 80.8747C84.032 79.4917 86.116 79.3347 87.499 80.5237C88.881 81.7127 89.039 83.7977 87.85 85.1797Z" fill="#59784F"/>
<path d="M88.315 81.6067L88.873 80.9577C89.348 80.4047 89.285 79.5647 88.732 79.0897C88.179 78.6147 87.339 78.6777 86.864 79.2307L86.306 79.8797L88.315 81.6067Z" fill="#353B55"/>
<path d="M77.5091 74.9037C76.3201 76.2867 74.2361 76.4437 72.8531 75.2547C71.4701 74.0657 71.3131 71.9817 72.5021 70.5987C73.6911 69.2157 75.7751 69.0587 77.1581 70.2477C78.5411 71.4357 78.6981 73.5207 77.5091 74.9037Z" fill="#DEA75A"/>
<path d="M77.9742 71.3307L78.5321 70.6817C79.0071 70.1287 78.9441 69.2887 78.3911 68.8137C77.8381 68.3387 76.9981 68.4017 76.5231 68.9547L75.9651 69.6037L77.9742 71.3307Z" fill="#353B55"/>
<path d="M157.288 87.8417C158.144 89.4517 157.533 91.4507 155.922 92.3067C154.312 93.1627 152.313 92.5517 151.457 90.9407C150.601 89.3307 151.212 87.3317 152.823 86.4757C154.433 85.6207 156.432 86.2317 157.288 87.8417Z" fill="#DEA75A"/>
<path d="M154.129 86.1097L153.727 85.3537C153.385 84.7107 152.579 84.4637 151.935 84.8057C151.292 85.1477 151.045 85.9537 151.387 86.5977L151.789 87.3537L154.129 86.1097Z" fill="#353B55"/>
<path d="M194.951 112.331C196.602 113.106 198.568 112.396 199.343 110.745C200.118 109.094 199.408 107.128 197.757 106.353C196.106 105.578 194.14 106.288 193.365 107.939C192.59 109.59 193.3 111.556 194.951 112.331Z" fill="#DEA75A"/>
<path d="M193.064 109.262L192.289 108.898C191.629 108.588 191.343 107.795 191.652 107.136C191.961 106.477 192.755 106.19 193.414 106.499L194.189 106.863L193.064 109.262Z" fill="#353B55"/>
<path d="M32.2851 91.3197C33.9361 92.0947 35.9021 91.3847 36.6771 89.7337C37.4521 88.0827 36.7421 86.1167 35.0911 85.3417C33.4401 84.5667 31.474 85.2767 30.699 86.9277C29.924 88.5787 30.6341 90.5447 32.2851 91.3197Z" fill="#DEA75A"/>
<path d="M30.398 88.2497L29.623 87.8857C28.963 87.5757 28.677 86.7827 28.986 86.1237C29.295 85.4647 30.089 85.1777 30.748 85.4877L31.523 85.8517L30.398 88.2497Z" fill="#353B55"/>
<path d="M40.615 81.9087C42.322 81.2667 43.184 79.3617 42.542 77.6557C41.9 75.9487 39.995 75.0867 38.289 75.7287C36.582 76.3707 35.72 78.2757 36.362 79.9817C37.004 81.6887 38.908 82.5507 40.615 81.9087Z" fill="#59784F"/>
<path d="M37.099 81.1197L36.298 81.4217C35.616 81.6787 34.848 81.3307 34.591 80.6487C34.334 79.9667 34.682 79.1987 35.364 78.9417L36.165 78.6397L37.099 81.1197Z" fill="#353B55"/>
<path d="M194.951 88.7867C196.602 89.5617 198.568 88.8517 199.343 87.2007C200.118 85.5497 199.408 83.5837 197.757 82.8087C196.106 82.0337 194.14 82.7437 193.365 84.3947C192.59 86.0457 193.3 88.0117 194.951 88.7867Z" fill="#DEA75A"/>
<path d="M193.064 85.7177L192.289 85.3537C191.629 85.0437 191.343 84.2507 191.652 83.5917C191.962 82.9317 192.755 82.6457 193.414 82.9557L194.189 83.3197L193.064 85.7177Z" fill="#353B55"/>
</svg>
