<svg width="181" height="214" viewBox="0 0 181 214" fill="none" xmlns="http://www.w3.org/2000/svg">
<path d="M169.299 195.624C169.299 197.735 136.047 199.446 95.0277 199.446C54.0087 199.446 20.7567 197.735 20.7567 195.624C20.7567 193.513 54.0087 191.801 95.0277 191.801C136.047 191.802 169.299 193.513 169.299 195.624Z" fill="#95A4BC"/>
<path d="M137.548 187.606C130.925 187.871 124.302 187.848 117.678 187.566L116.989 193.62C123.89 194.566 131.049 194.56 138.639 193.59L137.548 187.606Z" fill="#353B55"/>
<path d="M179.621 168.92C178.087 162.981 173.619 158.437 169.076 154.411C164.819 150.639 160.268 146.998 157.361 142.11C156.857 141.264 156.396 140.247 156.745 139.326C157.106 138.374 158.175 137.929 159.139 137.597C163.733 136.019 169.118 134.087 169.109 128.22C169.107 126.399 168.513 124.624 167.568 123.067C162.119 114.093 153.001 108.145 146.967 99.6567C146.605 99.1467 146.24 98.5837 146.252 97.9577C146.268 97.1247 146.942 96.4607 147.626 95.9837C150.444 94.0157 154.454 93.2727 155.912 90.1597C157.409 86.9617 155.243 83.3047 152.998 80.5797C148.764 75.4397 140.179 68.9097 134.281 64.6977C130.572 62.0497 125.599 62.0557 121.897 64.7147C116.01 68.9427 107.443 75.4967 103.223 80.6477C100.986 83.3787 98.8297 87.0417 100.335 90.2357C101.801 93.3447 105.813 94.0767 108.636 96.0377C109.32 96.5127 109.996 97.1747 110.015 98.0077C110.029 98.6327 109.666 99.1977 109.305 99.7087C103.295 108.213 94.1927 114.186 88.7677 123.175C87.8267 124.734 87.2387 126.511 87.2407 128.332C87.2487 134.198 92.6377 136.116 97.2367 137.682C98.2007 138.01 99.2707 138.453 99.6347 139.404C99.9867 140.324 99.5277 141.342 99.0267 142.19C96.1327 147.086 91.5917 150.739 87.3447 154.523C82.8137 158.561 78.3577 163.118 76.8397 169.061C76.0437 172.176 76.3177 175.516 77.6817 178.427C79.8097 182.503 85.4617 184.017 90.1677 184.837C99.3377 186.277 108.508 187.175 117.677 187.566C124.301 187.849 130.924 187.871 137.547 187.606C147.144 187.222 156.74 186.267 166.335 184.733C171.432 183.844 176.685 182.656 178.803 178.289C180.16 175.373 180.425 172.033 179.621 168.92Z" fill="#59784F"/>
<path d="M114.681 71.1837C114.291 71.1837 113.92 70.9537 113.759 70.5717L114.663 70.1417L115.602 69.7957C115.816 70.3047 115.578 70.8917 115.068 71.1057C114.942 71.1587 114.811 71.1837 114.681 71.1837Z" fill="white"/>
<path d="M139.821 86.9907C139.806 86.9907 139.791 86.9897 139.776 86.9897L139.675 86.9857C139.123 86.9627 138.696 86.4957 138.719 85.9437C138.743 85.3927 139.222 84.9687 139.761 84.9877L139.864 84.9917C140.416 85.0157 140.843 85.4827 140.819 86.0347C140.796 86.5707 140.354 86.9907 139.821 86.9907ZM144.923 86.8457C144.409 86.8457 143.972 86.4517 143.928 85.9307C143.88 85.3807 144.288 84.8957 144.839 84.8487L144.923 84.8417C145.469 84.7747 145.963 85.1847 146.021 85.7337C146.078 86.2827 145.677 86.7747 145.128 86.8307L145.009 86.8417C144.98 86.8447 144.951 86.8457 144.923 86.8457ZM134.652 86.3997C134.589 86.3997 134.527 86.3937 134.463 86.3817L134.35 86.3587C133.809 86.2477 133.46 85.7187 133.572 85.1777C133.683 84.6377 134.214 84.2867 134.753 84.3997L134.839 84.4167C135.382 84.5207 135.737 85.0447 135.634 85.5877C135.542 86.0667 135.123 86.3997 134.652 86.3997ZM150.154 86.0657C149.682 86.0657 149.235 85.7467 149.138 85.2757C149.027 84.7347 149.332 84.2147 149.873 84.1037L149.986 84.0807C150.525 83.9807 151.051 84.3327 151.156 84.8757C151.259 85.4187 150.904 85.9417 150.361 86.0457C150.293 86.0587 150.224 86.0657 150.154 86.0657ZM129.652 84.9637C129.53 84.9637 129.406 84.9417 129.286 84.8937C128.771 84.6927 128.472 84.0947 128.672 83.5807C128.873 83.0667 129.402 82.7937 129.922 82.9947L130.019 83.0337C130.534 83.2357 130.786 83.8167 130.583 84.3307C130.428 84.7237 130.051 84.9637 129.652 84.9637ZM124.996 82.6427C124.812 82.6427 124.626 82.5917 124.459 82.4857C123.989 82.1957 123.806 81.5567 124.096 81.0867C124.387 80.6167 124.966 80.4477 125.435 80.7377L125.536 80.7997C126.002 81.0967 126.138 81.7157 125.841 82.1807C125.649 82.4797 125.326 82.6427 124.996 82.6427ZM120.856 79.4917C120.607 79.4917 120.357 79.3997 120.164 79.2127C119.754 78.8427 119.695 78.1857 120.066 77.7757C120.436 77.3647 121.041 77.3087 121.452 77.6797L121.549 77.7697C121.947 78.1517 121.96 78.7847 121.578 79.1827C121.382 79.3887 121.119 79.4917 120.856 79.4917ZM117.365 75.6317C117.055 75.6317 116.751 75.4887 116.555 75.2197C116.224 74.7777 116.287 74.1157 116.729 73.7847C117.17 73.4537 117.77 73.5077 118.103 73.9497L118.172 74.0427C118.497 74.4897 118.399 75.1147 117.951 75.4397C117.774 75.5697 117.569 75.6317 117.365 75.6317ZM114.73 71.1837C114.42 71.1837 114.116 71.0407 113.92 70.7717C113.589 70.3297 113.652 69.6677 114.094 69.3367C114.534 69.0057 115.135 69.0597 115.468 69.5017L115.537 69.5947C115.862 70.0417 115.764 70.6667 115.316 70.9917C115.139 71.1217 114.934 71.1837 114.73 71.1837Z" fill="white"/>
<path d="M155.197 84.7917C154.761 84.7917 154.348 84.5147 154.22 84.0817C154.065 83.5577 154.334 83.0127 154.857 82.8497C154.866 82.8467 154.922 82.8297 154.932 82.8277C155.459 82.6807 156.016 82.9887 156.165 83.5197C156.314 84.0507 156.005 84.6037 155.473 84.7527C155.382 84.7787 155.289 84.7917 155.197 84.7917Z" fill="white"/>
<path d="M100.548 90.8917C100.012 90.7577 99.6717 90.2117 99.8057 89.6757C99.9407 89.1407 100.475 88.8117 101.004 88.9447L100.548 90.8917Z" fill="#DEA75A"/>
<path d="M116.35 92.8787C115.804 92.8787 115.358 92.4407 115.35 91.8927C115.342 91.3407 115.784 90.8867 116.335 90.8787L116.44 90.8777C116.965 90.8757 117.446 91.3117 117.454 91.8637C117.462 92.4157 117.02 92.8697 116.468 92.8777L116.366 92.8787C116.359 92.8787 116.354 92.8787 116.35 92.8787ZM111.184 92.6897C111.157 92.6897 111.128 92.6887 111.1 92.6867L110.995 92.6777C110.444 92.6307 110.036 92.1457 110.084 91.5957C110.131 91.0457 110.617 90.6387 111.165 90.6847L111.267 90.6937C111.818 90.7397 112.226 91.2227 112.18 91.7737C112.136 92.2947 111.698 92.6897 111.184 92.6897ZM121.61 92.5347C121.108 92.5347 120.675 92.1577 120.618 91.6487C120.555 91.0997 120.949 90.6037 121.498 90.5417L121.611 91.5357L121.542 90.5367L121.714 91.5237L121.827 92.5177L121.724 92.5297C121.687 92.5337 121.648 92.5347 121.61 92.5347ZM105.952 92.0197C105.896 92.0197 105.84 92.0157 105.782 92.0057L105.679 91.9877C105.135 91.8937 104.769 91.3777 104.863 90.8327C104.956 90.2887 105.47 89.9247 106.017 90.0157L106.12 90.0337C106.664 90.1277 107.03 90.6437 106.936 91.1887C106.854 91.6757 106.431 92.0197 105.952 92.0197ZM126.885 91.5707C126.429 91.5707 125.992 91.2757 125.878 90.8237C125.744 90.2877 126.023 89.7567 126.559 89.6227L126.666 89.5967C127.208 89.4637 127.743 89.7957 127.874 90.3327C128.005 90.8697 127.675 91.4097 127.139 91.5407C127.054 91.5607 126.97 91.5707 126.885 91.5707ZM131.897 89.9787C131.491 89.9787 131.095 89.7487 130.941 89.3587C130.739 88.8447 130.949 88.2807 131.463 88.0787L131.571 88.0357C132.089 87.8397 132.666 88.0997 132.861 88.6167C133.056 89.1327 132.797 89.7107 132.28 89.9057C132.157 89.9557 132.026 89.9787 131.897 89.9787ZM136.601 87.7657C136.247 87.7657 135.905 87.5777 135.723 87.2467C135.457 86.7627 135.635 86.1547 136.119 85.8887L136.185 85.8517C136.663 85.5737 137.274 85.7347 137.553 86.2117C137.83 86.6887 137.669 87.3007 137.193 87.5797L137.08 87.6427C136.928 87.7267 136.763 87.7657 136.601 87.7657ZM141.011 84.8167C140.658 84.8167 140.315 84.6287 140.133 84.2977C139.867 83.8137 140.045 83.2057 140.53 82.9397L140.596 82.9027C141.074 82.6247 141.685 82.7857 141.964 83.2627C142.241 83.7397 142.08 84.3517 141.604 84.6307L141.491 84.6937C141.338 84.7767 141.173 84.8167 141.011 84.8167ZM141.011 84.8827C140.706 84.8827 140.407 84.7447 140.21 84.4827C139.878 84.0407 139.968 83.4137 140.41 83.0827L141.01 83.8827L140.447 83.0547L141.092 83.8207L141.692 84.6207L141.61 84.6827C141.43 84.8177 141.22 84.8827 141.011 84.8827ZM144.979 81.4157C144.723 81.4157 144.467 81.3177 144.272 81.1227C143.881 80.7317 143.881 80.0997 144.272 79.7087L144.345 79.6357C144.736 79.2447 145.368 79.2447 145.759 79.6357C146.15 80.0267 146.15 80.6587 145.759 81.0497L145.686 81.1227C145.49 81.3187 145.234 81.4157 144.979 81.4157ZM121.611 92.5717C121.355 92.5717 121.099 92.4737 120.904 92.2787C120.513 91.8877 120.513 91.2557 120.904 90.8647L120.977 90.7917C121.368 90.4007 122 90.4007 122.391 90.7917C122.782 91.1827 122.782 91.8147 122.391 92.2057L122.318 92.2787C122.123 92.4747 121.867 92.5717 121.611 92.5717Z" fill="#DEA75A"/>
<path d="M148.477 77.3967C148.273 77.3967 148.07 77.3357 147.896 77.2077C147.453 76.8787 147.344 76.2727 147.672 75.8287C147.675 75.8247 147.693 75.8007 147.696 75.7967C148.029 75.3597 148.66 75.2647 149.099 75.5947C149.538 75.9247 149.636 76.5377 149.309 76.9787C149.109 77.2487 148.793 77.3967 148.477 77.3967Z" fill="#DEA75A"/>
<path d="M87.9237 126.245C87.3817 126.155 86.9997 125.642 87.0857 125.1C87.1727 124.558 87.6677 124.182 88.2077 124.266L87.9237 126.245Z" fill="white"/>
<path d="M102.903 127.209C102.353 127.209 101.859 126.767 101.855 126.217C101.85 125.668 102.242 125.218 102.791 125.21C102.797 125.21 102.898 125.209 102.903 125.209C103.456 125.209 103.903 125.657 103.903 126.209C103.903 126.761 103.456 127.209 102.903 127.209ZM97.9537 127.133C97.9427 127.133 97.9327 127.133 97.9237 127.132C97.9177 127.132 97.8157 127.128 97.8107 127.128C97.2587 127.103 96.8317 126.635 96.8567 126.084C96.8817 125.532 97.3567 125.124 97.9017 125.13L97.8557 126.129L97.9827 125.133C98.5347 125.149 98.9687 125.61 98.9537 126.162C98.9367 126.704 98.4917 127.133 97.9537 127.133ZM107.85 127.006C107.326 127.006 106.842 126.605 106.806 126.077C106.769 125.529 107.132 125.057 107.68 125.016C107.685 125.015 107.786 125.008 107.791 125.008C108.344 124.978 108.816 125.394 108.85 125.946C108.883 126.497 108.463 126.971 107.912 127.005C107.892 127.005 107.87 127.006 107.85 127.006ZM93.0117 126.807C92.9817 126.807 92.9507 126.806 92.9197 126.803C92.3697 126.753 91.9167 126.262 91.9667 125.712C92.0167 125.162 92.4517 124.755 93.0047 124.802L93.1017 124.811C93.6517 124.861 94.0567 125.348 94.0067 125.897C93.9587 126.417 93.5227 126.807 93.0117 126.807ZM112.772 126.492C112.273 126.492 111.805 126.134 111.737 125.633C111.662 125.086 111.997 124.589 112.545 124.514L112.642 124.501C113.191 124.425 113.694 124.809 113.768 125.356C113.842 125.903 113.459 126.407 112.912 126.482C112.865 126.489 112.818 126.492 112.772 126.492ZM117.645 125.636C117.173 125.636 116.723 125.319 116.625 124.849C116.514 124.312 116.808 123.796 117.343 123.679C117.35 123.677 117.451 123.656 117.458 123.655C118.007 123.544 118.526 123.902 118.633 124.443C118.739 124.985 118.387 125.511 117.845 125.617C117.779 125.63 117.712 125.636 117.645 125.636ZM122.441 124.409C122.002 124.409 121.577 124.138 121.448 123.706C121.291 123.177 121.546 122.634 122.076 122.477L122.17 122.449C122.7 122.29 123.257 122.594 123.413 123.123C123.57 123.652 123.268 124.209 122.738 124.366C122.641 124.395 122.541 124.409 122.441 124.409ZM127.042 122.823C126.642 122.823 126.263 122.58 126.109 122.183C125.91 121.668 126.166 121.089 126.68 120.889L127.041 121.822L126.758 120.859C127.27 120.651 127.854 120.899 128.06 121.412C128.266 121.924 128.018 122.507 127.506 122.713C127.502 122.715 127.406 122.752 127.403 122.754C127.284 122.801 127.162 122.823 127.042 122.823ZM131.623 120.766C131.25 120.766 130.884 120.575 130.712 120.23C130.465 119.736 130.621 119.157 131.115 118.91L131.202 118.867C131.696 118.62 132.296 118.82 132.544 119.314C132.791 119.808 132.591 120.409 132.097 120.656C131.947 120.731 131.784 120.766 131.623 120.766ZM135.923 118.34C135.586 118.34 135.254 118.184 135.069 117.888C134.776 117.42 134.878 116.828 135.345 116.535L135.427 116.484C135.897 116.191 136.512 116.334 136.805 116.802C137.098 117.27 136.955 117.887 136.488 118.18C136.316 118.288 136.119 118.34 135.923 118.34ZM139.984 115.525C139.679 115.525 139.38 115.397 139.189 115.146C138.859 114.708 138.904 114.115 139.339 113.78C139.344 113.776 139.426 113.714 139.43 113.71C139.876 113.382 140.5 113.475 140.829 113.919C141.157 114.363 141.064 114.989 140.621 115.318C140.435 115.455 140.208 115.525 139.984 115.525ZM143.771 112.349C143.5 112.349 143.233 112.247 143.044 112.039C142.676 111.635 142.666 111.043 143.064 110.67C143.071 110.663 143.15 110.59 143.159 110.584C143.571 110.219 144.204 110.258 144.57 110.674C144.934 111.089 144.894 111.72 144.479 112.085C144.282 112.26 144.025 112.349 143.771 112.349ZM147.266 108.853C147.027 108.853 146.79 108.772 146.607 108.602C146.207 108.231 146.146 107.643 146.51 107.237C146.517 107.229 146.59 107.15 146.598 107.142C146.981 106.743 147.613 106.73 148.012 107.112C148.41 107.494 148.424 108.127 148.041 108.526C147.836 108.739 147.549 108.853 147.266 108.853Z" fill="white"/>
<path d="M150.485 105.071C150.272 105.071 150.059 105.005 149.881 104.865C149.446 104.524 149.355 103.916 149.696 103.482L149.728 103.441C150.069 103.007 150.697 102.931 151.132 103.272C151.566 103.613 151.642 104.242 151.3 104.676C151.101 104.933 150.793 105.071 150.485 105.071Z" fill="white"/>
<path d="M92.7806 150.776C92.4896 150.776 92.2026 150.65 92.0046 150.408L92.7476 149.736L93.5556 149.144C93.9046 149.572 93.8396 150.202 93.4116 150.551C93.2266 150.702 93.0026 150.776 92.7806 150.776Z" fill="white"/>
<path d="M154.864 178.397C154.311 178.397 153.814 177.949 153.814 177.397C153.814 176.845 154.212 176.397 154.765 176.397H154.864C155.417 176.397 155.864 176.845 155.864 177.397C155.864 177.95 155.417 178.397 154.864 178.397ZM159.891 178.292C159.354 178.292 158.864 177.87 158.843 177.331C158.822 176.782 159.2 176.321 159.749 176.297C159.754 176.297 159.856 176.293 159.861 176.293C160.437 176.285 160.875 176.71 160.891 177.262C160.908 177.814 160.473 178.275 159.921 178.292C159.911 178.292 159.901 178.292 159.891 178.292ZM149.839 178.28C149.818 178.28 149.798 178.279 149.778 178.278C149.23 178.245 148.761 177.774 148.791 177.225C148.819 176.677 149.259 176.259 149.784 176.276C149.79 176.276 149.893 176.281 149.899 176.282C150.45 176.315 150.87 176.789 150.837 177.341C150.804 177.872 150.363 178.28 149.839 178.28ZM164.81 177.991C164.292 177.991 163.854 177.592 163.814 177.067C163.772 176.516 164.185 176.036 164.736 175.994L164.811 176.991L164.821 175.987C165.386 175.95 165.856 176.345 165.905 176.895C165.954 177.445 165.547 177.931 164.997 177.979C164.993 177.979 164.892 177.988 164.887 177.988C164.86 177.99 164.835 177.991 164.81 177.991ZM144.822 177.924C144.792 177.924 144.762 177.923 144.73 177.92C144.725 177.919 144.623 177.909 144.618 177.909C144.069 177.85 143.671 177.358 143.729 176.809C143.787 176.26 144.264 175.868 144.829 175.92L144.724 176.915L144.912 175.929C145.462 175.979 145.867 176.466 145.817 177.015C145.77 177.534 145.334 177.924 144.822 177.924ZM169.909 177.488C169.401 177.488 168.927 177.115 168.869 176.605C168.808 176.06 169.149 175.572 169.694 175.506C169.7 175.505 169.803 175.493 169.809 175.493C170.355 175.425 170.849 175.836 170.907 176.385C170.964 176.934 170.563 177.426 170.014 177.482C169.979 177.487 169.944 177.488 169.909 177.488ZM139.833 177.305C139.78 177.305 139.727 177.301 139.672 177.292C139.129 177.204 138.71 176.686 138.795 176.143C138.882 175.599 139.348 175.221 139.884 175.301C139.888 175.301 139.988 175.317 139.992 175.318C140.537 175.406 140.907 175.92 140.819 176.465C140.74 176.956 140.315 177.305 139.833 177.305ZM174.892 176.823C174.399 176.823 173.933 176.473 173.859 175.977C173.778 175.432 174.104 174.931 174.65 174.848C174.65 174.848 174.75 174.833 174.752 174.833C175.299 174.752 175.806 175.131 175.887 175.677C175.967 176.223 175.59 176.732 175.043 176.812C174.992 176.819 174.941 176.823 174.892 176.823ZM134.885 176.409C134.817 176.409 134.746 176.402 134.677 176.387C134.136 176.273 133.742 175.731 133.858 175.191C133.972 174.652 134.455 174.297 134.995 174.41L135.092 174.43C135.633 174.544 135.978 175.076 135.863 175.616C135.763 176.086 135.347 176.409 134.885 176.409ZM130 175.216C129.912 175.216 129.824 175.204 129.736 175.18C129.733 175.179 129.635 175.152 129.633 175.151C129.101 175.002 128.791 174.449 128.941 173.918C129.091 173.386 129.651 173.079 130.174 173.226L129.903 174.189L130.261 173.251C130.794 173.397 131.109 173.946 130.963 174.479C130.843 174.923 130.439 175.216 130 175.216ZM125.201 173.715C125.086 173.715 124.968 173.695 124.853 173.652C124.339 173.462 124.029 172.877 124.212 172.361C124.397 171.845 124.915 171.557 125.433 171.736C125.441 171.739 125.541 171.774 125.548 171.777C126.065 171.969 126.33 172.545 126.138 173.062C125.989 173.465 125.607 173.715 125.201 173.715ZM120.518 171.896C120.389 171.896 120.257 171.871 120.131 171.818C120.127 171.816 120.031 171.775 120.028 171.774C119.522 171.553 119.29 170.964 119.51 170.458C119.73 169.953 120.319 169.719 120.826 169.94L120.427 170.857L120.904 169.974C121.414 170.188 121.653 170.774 121.439 171.283C121.279 171.665 120.908 171.896 120.518 171.896ZM115.97 169.754C115.816 169.754 115.658 169.718 115.512 169.643C115.022 169.389 114.785 168.763 115.038 168.272C115.292 167.783 115.854 167.568 116.342 167.82L116.43 167.866C116.92 168.119 117.113 168.722 116.86 169.213C116.682 169.557 116.332 169.754 115.97 169.754ZM111.584 167.294C111.398 167.294 111.212 167.243 111.044 167.135C110.584 166.839 110.405 166.203 110.694 165.739C110.983 165.275 111.55 165.102 112.017 165.386C112.025 165.391 112.118 165.447 112.125 165.452C112.589 165.751 112.724 166.369 112.425 166.834C112.235 167.132 111.913 167.294 111.584 167.294ZM107.387 164.526C107.18 164.526 106.972 164.462 106.792 164.33C106.354 164.004 106.216 163.358 106.535 162.914C106.853 162.471 107.43 162.336 107.878 162.648C107.886 162.654 107.975 162.717 107.983 162.723C108.426 163.052 108.519 163.678 108.191 164.122C107.995 164.386 107.693 164.526 107.387 164.526ZM103.394 161.466C103.17 161.466 102.944 161.391 102.757 161.236C102.332 160.884 102.234 160.222 102.586 159.797C102.937 159.372 103.528 159.28 103.956 159.632L104.032 159.695C104.457 160.047 104.517 160.677 104.165 161.103C103.968 161.342 103.682 161.466 103.394 161.466ZM99.6267 158.138C99.3807 158.138 99.1347 158.048 98.9417 157.867C98.9387 157.865 98.8657 157.795 98.8627 157.793C98.4647 157.411 98.4507 156.778 98.8337 156.379C99.2167 155.98 99.8487 155.968 100.248 156.349L99.5557 157.071L100.312 156.41C100.714 156.788 100.734 157.421 100.356 157.824C100.159 158.032 99.8927 158.138 99.6267 158.138ZM96.0877 154.567C95.8177 154.567 95.5487 154.459 95.3517 154.244C94.9797 153.839 94.9707 153.173 95.3737 152.798C95.7787 152.422 96.3747 152.41 96.7507 152.81C96.7527 152.813 96.8217 152.887 96.8247 152.89C97.1977 153.297 97.1717 153.929 96.7647 154.303C96.5727 154.479 96.3297 154.567 96.0877 154.567Z" fill="white"/>
<path d="M179.84 176.004C179.371 176.004 178.943 175.677 178.848 175.202C178.74 174.66 179.076 174.137 179.618 174.028C179.626 174.026 179.648 174.022 179.656 174.021C180.193 173.926 180.717 174.282 180.819 174.82C180.92 175.358 180.577 175.876 180.04 175.983C179.973 175.997 179.905 176.004 179.84 176.004Z" fill="white"/>
<path d="M155.366 135.645C155.361 135.645 155.356 135.645 155.351 135.645C154.798 135.637 154.308 135.182 154.316 134.629C154.324 134.077 154.723 133.657 155.281 133.643L155.381 133.644C155.934 133.652 156.374 134.106 156.366 134.659C156.358 135.207 155.912 135.645 155.366 135.645ZM160.461 135.528C159.933 135.528 159.446 135.121 159.415 134.59C159.383 134.039 159.753 133.569 160.305 133.536L160.405 133.53C160.943 133.491 161.43 133.918 161.462 134.469C161.494 135.02 161.074 135.493 160.523 135.526C160.502 135.527 160.481 135.528 160.461 135.528ZM150.279 135.383C150.245 135.383 150.211 135.382 150.176 135.378C149.626 135.33 149.177 134.84 149.226 134.29C149.274 133.74 149.737 133.338 150.267 133.378L150.381 133.389C150.93 133.446 151.33 133.937 151.274 134.486C151.22 135 150.786 135.383 150.279 135.383ZM165.439 135.071C164.939 135.071 164.506 134.697 164.447 134.188C164.383 133.64 164.775 133.143 165.323 133.078L165.44 134.071L165.404 133.068C165.956 132.99 166.456 133.376 166.53 133.923C166.604 134.47 166.221 134.974 165.674 135.049C165.668 135.05 165.564 135.063 165.558 135.064C165.518 135.069 165.479 135.071 165.439 135.071ZM145.229 134.719C145.174 134.719 145.12 134.715 145.064 134.705L144.956 134.687C144.412 134.591 144.049 134.072 144.145 133.528C144.241 132.984 144.756 132.62 145.303 132.717L145.392 132.733C145.937 132.824 146.305 133.339 146.214 133.884C146.134 134.372 145.71 134.719 145.229 134.719ZM140.251 133.638C140.163 133.638 140.075 133.626 139.987 133.602C139.457 133.458 139.094 132.899 139.235 132.368C139.376 131.837 139.869 131.507 140.402 131.643C140.407 131.644 140.508 131.671 140.512 131.672C141.045 131.817 141.36 132.367 141.214 132.9C141.094 133.346 140.69 133.638 140.251 133.638ZM135.381 132.135C135.269 132.135 135.154 132.116 135.043 132.076C134.522 131.889 134.206 131.3 134.393 130.78C134.581 130.26 135.107 129.975 135.625 130.16L135.719 130.194C136.24 130.381 136.509 130.953 136.322 131.473C136.176 131.88 135.791 132.135 135.381 132.135ZM130.66 130.21C130.522 130.21 130.383 130.181 130.25 130.121L130.147 130.074C129.647 129.84 129.431 129.245 129.665 128.744C129.899 128.244 130.496 128.029 130.995 128.262L131.073 128.299C131.577 128.526 131.801 129.118 131.573 129.622C131.405 129.991 131.042 130.21 130.66 130.21ZM126.128 127.878C125.956 127.878 125.782 127.834 125.623 127.741C125.143 127.468 124.937 126.837 125.209 126.357C125.481 125.877 126.054 125.687 126.535 125.959L126.635 126.016C127.112 126.295 127.271 126.908 126.992 127.385C126.806 127.701 126.472 127.878 126.128 127.878ZM121.812 125.162C121.615 125.162 121.416 125.104 121.242 124.983C120.789 124.667 120.636 124.015 120.952 123.562C121.267 123.108 121.851 122.97 122.303 123.284L122.385 123.341C122.838 123.657 122.95 124.28 122.634 124.733C122.439 125.013 122.129 125.162 121.812 125.162ZM117.742 122.088C117.52 122.088 117.297 122.014 117.111 121.863C117.109 121.862 117.03 121.796 117.028 121.795C116.603 121.443 116.543 120.813 116.895 120.387C117.246 119.962 117.875 119.901 118.303 120.254L117.665 121.024L118.374 120.312C118.802 120.661 118.866 121.291 118.518 121.719C118.32 121.962 118.033 122.088 117.742 122.088ZM113.941 118.685C113.695 118.685 113.449 118.595 113.256 118.414C113.248 118.407 113.169 118.33 113.162 118.323C112.771 117.932 112.771 117.3 113.162 116.909C113.553 116.518 114.185 116.518 114.576 116.909L113.869 117.616L114.625 116.957C115.027 117.335 115.047 117.968 114.669 118.371C114.474 118.579 114.207 118.685 113.941 118.685ZM110.431 114.981C110.155 114.981 109.879 114.867 109.682 114.644C109.679 114.641 109.611 114.563 109.609 114.56C109.248 114.142 109.295 113.51 109.713 113.149C110.131 112.789 110.762 112.834 111.123 113.253L110.366 113.906L111.18 113.319C111.546 113.733 111.507 114.365 111.093 114.731C110.903 114.899 110.667 114.981 110.431 114.981ZM107.241 110.995C106.928 110.995 106.622 110.85 106.427 110.576C106.102 110.13 106.174 109.467 106.62 109.142C107.066 108.816 107.665 108.879 107.99 109.325L108.054 109.413C108.375 109.862 108.271 110.487 107.822 110.808C107.645 110.934 107.442 110.995 107.241 110.995ZM104.448 106.71C104.091 106.71 103.746 106.519 103.566 106.183L103.518 106.095C103.255 105.609 103.437 105.002 103.923 104.74C104.407 104.478 105.015 104.659 105.277 105.145L105.327 105.238C105.589 105.724 105.405 106.331 104.919 106.592C104.77 106.672 104.607 106.71 104.448 106.71Z" fill="#DEA75A"/>
<path d="M87.9766 179.732C87.4266 179.732 86.9307 179.289 86.9267 178.74C86.9227 178.191 87.3127 177.741 87.8617 177.733C87.8667 177.733 87.9706 177.732 87.9756 177.732C88.5286 177.732 88.9756 178.18 88.9756 178.732C88.9766 179.284 88.5286 179.732 87.9766 179.732ZM82.8787 179.685C82.8677 179.685 82.8577 179.685 82.8487 179.684C82.2967 179.668 81.8126 179.205 81.8286 178.654C81.8456 178.102 82.2786 177.667 82.8076 177.682L82.9076 177.685C83.4596 177.701 83.8937 178.162 83.8787 178.714C83.8607 179.257 83.4167 179.685 82.8787 179.685ZM93.0716 179.563C92.5396 179.563 92.0516 179.151 92.0236 178.617C91.9956 178.068 92.3656 177.602 92.9146 177.57C92.9196 177.569 93.0236 177.564 93.0286 177.564C93.5736 177.552 94.0476 177.967 94.0716 178.519C94.0956 179.071 93.6687 179.538 93.1167 179.562C93.1027 179.563 93.0866 179.563 93.0716 179.563ZM77.7837 179.434C77.7637 179.434 77.7437 179.434 77.7237 179.432C77.7187 179.432 77.6146 179.425 77.6096 179.424C77.0586 179.384 76.6447 178.904 76.6857 178.354C76.7257 177.803 77.2026 177.382 77.7556 177.43L77.6826 178.427L77.8407 177.436C78.3927 177.468 78.8127 177.941 78.7807 178.493C78.7497 179.024 78.3097 179.434 77.7837 179.434ZM98.1396 179.168C97.6296 179.168 97.1576 178.789 97.1056 178.274C97.0486 177.725 97.4067 177.238 97.9557 177.181L98.0697 177.17C98.6307 177.133 99.1056 177.528 99.1536 178.078C99.2026 178.628 98.7957 179.114 98.2457 179.162C98.2097 179.166 98.1746 179.168 98.1396 179.168ZM103.115 178.544C102.627 178.544 102.2 178.187 102.127 177.69C102.047 177.144 102.424 176.635 102.971 176.555L103.117 177.544L103.066 176.541C103.609 176.456 104.122 176.834 104.204 177.38C104.287 177.926 103.912 178.436 103.365 178.519L103.262 178.534C103.213 178.541 103.163 178.544 103.115 178.544ZM108.23 177.64C107.755 177.64 107.303 177.32 107.208 176.847C107.1 176.309 107.396 175.795 107.933 175.682C107.939 175.68 108.043 175.659 108.05 175.658C108.591 175.559 109.115 175.91 109.22 176.452C109.323 176.995 108.968 177.518 108.425 177.622C108.36 177.634 108.295 177.64 108.23 177.64ZM113.105 176.51C112.66 176.51 112.253 176.211 112.137 175.759C111.999 175.224 112.322 174.679 112.857 174.541L112.948 174.517C113.482 174.379 114.029 174.694 114.171 175.228C114.313 175.762 113.994 176.309 113.46 176.451L113.356 176.478C113.272 176.5 113.188 176.51 113.105 176.51ZM118.003 175.084C117.579 175.084 117.186 174.812 117.05 174.387C116.883 173.861 117.174 173.298 117.7 173.131L117.787 173.103C118.312 172.933 118.876 173.217 119.049 173.742C119.221 174.266 118.936 174.831 118.41 175.004L118.305 175.038C118.205 175.069 118.104 175.084 118.003 175.084ZM122.806 173.372C122.407 173.372 122.029 173.13 121.874 172.735C121.673 172.221 121.928 171.641 122.441 171.44L122.535 171.403C123.051 171.203 123.63 171.456 123.831 171.971C124.032 172.485 123.777 173.065 123.264 173.267L123.17 173.304C123.05 173.35 122.927 173.372 122.806 173.372ZM127.494 171.366C127.117 171.366 126.757 171.153 126.587 170.79C126.354 170.289 126.569 169.694 127.069 169.46L127.16 169.418C127.662 169.184 128.257 169.4 128.49 169.9C128.723 170.401 128.508 170.996 128.008 171.23L127.917 171.272C127.78 171.336 127.636 171.366 127.494 171.366ZM132.042 169.062C131.69 169.062 131.347 168.875 131.165 168.544C130.898 168.06 131.075 167.452 131.56 167.186L131.648 167.138C132.129 166.871 132.74 167.048 133.005 167.532C133.272 168.016 133.095 168.624 132.61 168.89L132.522 168.938C132.37 169.023 132.205 169.062 132.042 169.062ZM136.425 166.461C136.095 166.461 135.772 166.298 135.581 165.999C135.284 165.534 135.42 164.915 135.886 164.618L136.424 165.461L135.967 164.566C136.434 164.27 137.052 164.402 137.349 164.867C137.648 165.331 137.513 165.95 137.049 166.249L136.962 166.305C136.795 166.41 136.608 166.461 136.425 166.461ZM140.657 163.517C140.348 163.517 140.045 163.387 139.855 163.129C139.531 162.688 139.58 162.1 140.015 161.769C140.023 161.763 140.111 161.698 140.118 161.692C140.567 161.372 141.192 161.476 141.513 161.925C141.834 162.374 141.73 162.999 141.281 163.32C141.097 163.451 140.876 163.517 140.657 163.517ZM144.604 160.386C144.32 160.386 144.038 160.266 143.839 160.032C143.482 159.61 143.535 158.979 143.957 158.623L144.024 158.565C144.442 158.205 145.073 158.249 145.434 158.667C145.795 159.084 145.75 159.716 145.332 160.078L145.247 160.15C145.062 160.308 144.832 160.386 144.604 160.386ZM148.369 156.893C148.115 156.893 147.864 156.802 147.676 156.614C147.285 156.223 147.257 155.618 147.648 155.228L147.734 155.143C148.131 154.76 148.765 154.774 149.148 155.172C149.53 155.57 149.517 156.203 149.119 156.586C148.916 156.788 148.641 156.893 148.369 156.893ZM151.855 153.231C151.616 153.231 151.377 153.146 151.185 152.974C150.775 152.604 150.743 151.971 151.113 151.561L151.158 151.51C151.516 151.089 152.145 151.034 152.567 151.393C152.989 151.749 153.042 152.38 152.685 152.802L152.597 152.901C152.4 153.12 152.128 153.231 151.855 153.231ZM155.096 149.297C154.882 149.297 154.665 149.228 154.483 149.087C154.047 148.748 153.968 148.119 154.308 147.684L155.097 148.298L154.354 147.624C154.683 147.182 155.308 147.088 155.753 147.416C156.196 147.745 156.289 148.371 155.961 148.815C155.956 148.821 155.891 148.907 155.886 148.913C155.688 149.164 155.394 149.297 155.096 149.297ZM158.066 145.101C157.881 145.101 157.698 145.051 157.538 144.943C157.081 144.636 156.931 144.058 157.236 143.6C157.238 143.597 157.295 143.513 157.296 143.51C157.607 143.053 158.229 142.935 158.685 143.244C159.142 143.554 159.261 144.176 158.951 144.633C158.751 144.929 158.407 145.101 158.066 145.101Z" fill="#DEA75A"/>
<path d="M142.443 95.2767C142.443 96.7577 141.243 97.9577 139.762 97.9577C138.282 97.9577 137.081 96.7577 137.081 95.2767C137.081 93.7957 138.281 92.5957 139.762 92.5957C141.242 92.5957 142.443 93.7957 142.443 95.2767Z" fill="#DEA75A"/>
<path d="M128.847 70.4817C128.847 71.9627 127.647 73.1627 126.166 73.1627C124.685 73.1627 123.485 71.9627 123.485 70.4817C123.485 69.0007 124.685 67.8007 126.166 67.8007C127.647 67.8007 128.847 69.0007 128.847 70.4817Z" fill="#DEA75A"/>
<path d="M156.613 122.417C156.613 123.898 155.413 125.098 153.932 125.098C152.451 125.098 151.251 123.898 151.251 122.417C151.251 120.936 152.451 119.736 153.932 119.736C155.413 119.736 156.613 120.936 156.613 122.417Z" fill="#DEA75A"/>
<path d="M157.884 168.119C157.884 169.6 156.684 170.8 155.203 170.8C153.722 170.8 152.522 169.6 152.522 168.119C152.522 166.638 153.722 165.438 155.203 165.438C156.684 165.438 157.884 166.638 157.884 168.119Z" fill="#DEA75A"/>
<path d="M127.315 158.8C127.315 160.281 126.115 161.481 124.634 161.481C123.153 161.481 121.953 160.281 121.953 158.8C121.953 157.319 123.153 156.119 124.634 156.119C126.115 156.119 127.315 157.319 127.315 158.8Z" fill="#DEA75A"/>
<path d="M140.854 141.001C140.854 142.482 139.654 143.682 138.173 143.682C136.692 143.682 135.492 142.482 135.492 141.001C135.492 139.521 136.692 138.32 138.173 138.32C139.654 138.32 140.854 139.521 140.854 141.001Z" fill="#DEA75A"/>
<path d="M130.917 100.639C130.917 102.12 129.717 103.32 128.236 103.32C126.755 103.32 125.555 102.12 125.555 100.639C125.555 99.1577 126.755 97.9577 128.236 97.9577C129.716 97.9577 130.917 99.1577 130.917 100.639Z" fill="#DEA75A"/>
<path d="M137.343 77.5747C137.343 78.5967 136.514 79.4257 135.492 79.4257C134.47 79.4257 133.641 78.5967 133.641 77.5747C133.641 76.5527 134.47 75.7237 135.492 75.7237C136.514 75.7237 137.343 76.5527 137.343 77.5747Z" fill="#DEA75A"/>
<path d="M117.503 83.0407C117.503 84.0627 116.674 84.8917 115.652 84.8917C114.63 84.8917 113.801 84.0627 113.801 83.0407C113.801 82.0187 114.63 81.1897 115.652 81.1897C116.675 81.1897 117.503 82.0177 117.503 83.0407Z" fill="#DEA75A"/>
<path d="M141.613 123.837C142.635 123.837 143.464 123.008 143.464 121.986C143.464 120.963 142.635 120.135 141.613 120.135C140.59 120.135 139.762 120.963 139.762 121.986C139.762 123.008 140.59 123.837 141.613 123.837Z" fill="#DEA75A"/>
<path d="M163.443 155.49C163.443 156.512 162.614 157.341 161.592 157.341C160.57 157.341 159.741 156.512 159.741 155.49C159.741 154.468 160.57 153.639 161.592 153.639C162.614 153.639 163.443 154.468 163.443 155.49Z" fill="#DEA75A"/>
<path d="M147.932 148.108C147.932 149.13 147.103 149.959 146.081 149.959C145.059 149.959 144.23 149.13 144.23 148.108C144.23 147.086 145.059 146.257 146.081 146.257C147.103 146.257 147.932 147.086 147.932 148.108Z" fill="#DEA75A"/>
<path d="M140.024 105.619C140.024 106.641 139.195 107.47 138.173 107.47C137.151 107.47 136.322 106.641 136.322 105.619C136.322 104.597 137.151 103.768 138.173 103.768C139.195 103.768 140.024 104.597 140.024 105.619Z" fill="#DEA75A"/>
<path d="M171.932 169.97C172.954 169.97 173.783 169.141 173.783 168.119C173.783 167.096 172.954 166.268 171.932 166.268C170.909 166.268 170.081 167.096 170.081 168.119C170.081 169.141 170.909 169.97 171.932 169.97Z" fill="#DEA75A"/>
<path d="M104.706 85.482C116.567 68.5402 112.448 45.1914 95.5058 33.3309C78.5641 21.4705 55.2153 25.5897 43.3548 42.5314C31.4943 59.4732 35.6135 82.822 52.5553 94.6825C69.497 106.543 92.8458 102.424 104.706 85.482Z" fill="white"/>
<path d="M85.0087 97.4667C64.6427 101.061 45.2187 87.4637 41.6247 67.0977C39.8007 56.7597 42.4067 46.6667 48.0787 38.7627C61.9647 28.1917 95.6397 34.6787 96.3027 33.8987C91.9487 30.0087 53.8257 29.1697 53.7007 32.5327C41.4367 40.4627 34.4487 55.2167 37.1467 70.5027C40.7407 90.8687 60.1647 104.466 80.5307 100.872C87.5867 99.6267 93.8267 96.4797 98.8247 92.0537C94.7477 94.6887 90.0887 96.5707 85.0087 97.4667Z" fill="#EBF0F7"/>
<path d="M77.2467 9.0967C76.6477 13.4807 72.6087 16.5497 68.2247 15.9507C63.8407 15.3527 60.7717 11.3127 61.3707 6.9287C61.9697 2.5447 66.0087 -0.524301 70.3927 0.0746985C74.7767 0.673698 77.8447 4.7127 77.2467 9.0967Z" fill="white"/>
<path d="M71.0287 13.0197C66.6447 12.4217 63.5756 8.3817 64.1746 3.9977C64.3136 2.9777 64.6456 2.0327 65.1186 1.1847C63.1436 2.3977 61.7077 4.4527 61.3697 6.9287C60.7717 11.3127 63.8397 15.3517 68.2237 15.9507C71.5877 16.4097 74.7417 14.7057 76.3017 11.9097C74.7797 12.8447 72.9377 13.2807 71.0287 13.0197Z" fill="#EBF0F7"/>
<path d="M50.8037 29.9277L95.1727 29.3177C95.1727 29.3177 91.2827 10.7567 72.3377 10.5057C53.3917 10.2547 50.8037 29.9277 50.8037 29.9277Z" fill="#DEA75A"/>
<path d="M70.3887 10.5587C53.2177 11.6317 50.8037 29.9277 50.8037 29.9277L56.0937 29.8547C56.5777 25.2597 58.9407 14.1537 70.3887 10.5587Z" fill="#D3964C"/>
<path d="M50.2007 33.2097L50.2257 30.1687C50.2297 29.7497 50.5207 29.4047 50.9167 29.2657C63.7987 24.0597 84.3157 23.2167 95.5017 28.9107C95.8857 29.0727 96.1737 29.3997 96.1737 29.8157V32.8227C96.1737 33.4257 95.6127 33.8627 95.0257 33.7247C80.3637 30.2787 65.4427 30.5937 51.3607 34.1167C50.7677 34.2657 50.1957 33.8217 50.2007 33.2097Z" fill="white"/>
<path d="M53.1847 67.8877C43.9887 67.8877 36.5067 60.4067 36.5067 51.2097C36.5067 42.0127 43.9877 34.5317 53.1847 34.5317C62.3817 34.5317 69.8627 42.0127 69.8627 51.2097C69.8627 60.4067 62.3807 67.8877 53.1847 67.8877ZM53.1847 36.5327C45.0907 36.5327 38.5067 43.1167 38.5067 51.2107C38.5067 59.3037 45.0907 65.8887 53.1847 65.8887C61.2787 65.8887 67.8627 59.3047 67.8627 51.2107C67.8617 43.1167 61.2777 36.5327 53.1847 36.5327Z" fill="#343B54"/>
<path d="M94.5898 67.8877C85.3938 67.8877 77.9117 60.4067 77.9117 51.2097C77.9117 42.0127 85.3938 34.5317 94.5898 34.5317C103.786 34.5317 111.268 42.0127 111.268 51.2097C111.268 60.4067 103.786 67.8877 94.5898 67.8877ZM94.5898 36.5327C86.4958 36.5327 79.9117 43.1167 79.9117 51.2107C79.9117 59.3037 86.4958 65.8887 94.5898 65.8887C102.684 65.8887 109.268 59.3047 109.268 51.2107C109.268 43.1167 102.684 36.5327 94.5898 36.5327Z" fill="#343B54"/>
<path d="M68.5327 49.0077C68.3327 49.0077 68.1307 48.9477 67.9547 48.8227C67.5047 48.5027 67.3987 47.8787 67.7187 47.4287C68.8537 45.8287 70.6387 44.8407 72.7447 44.6437C75.3367 44.4047 77.9427 45.3677 79.9337 47.2877C80.3307 47.6707 80.3427 48.3037 79.9587 48.7017C79.5747 49.0987 78.9427 49.1107 78.5447 48.7267C76.9957 47.2327 74.8997 46.4497 72.9307 46.6347C71.4127 46.7767 70.1417 47.4697 69.3487 48.5857C69.1537 48.8607 68.8467 49.0077 68.5327 49.0077Z" fill="#343B54"/>
<path d="M45.9767 37.7947C46.3717 37.4757 46.8247 37.2197 47.2707 36.9807C47.8647 36.6617 48.4757 36.3777 49.0867 36.0917C48.8127 35.8227 48.4577 35.6287 48.0487 35.5517C45.9877 35.1617 44.1737 34.4797 42.6617 33.5247C41.0857 32.5227 39.7327 31.1587 38.7447 29.5727C38.3947 29.0257 38.0887 28.4267 37.8037 27.8027C38.0287 27.7297 38.2457 27.6457 38.4537 27.5487C39.4867 27.0947 40.4457 26.2717 41.1547 25.2307C41.7157 24.4077 42.1427 23.4537 42.4637 22.3107C42.5957 21.8357 42.7017 21.3377 42.7797 20.8347C42.8197 20.5867 42.8497 20.3377 42.8767 20.0797C42.9027 19.8147 42.9217 19.5877 42.9287 19.2657L42.1967 19.2517L42.9287 19.2597C42.9297 19.2047 42.9287 19.1517 42.9247 19.0997C42.8927 18.5367 42.6427 18.0197 42.2217 17.6437C41.7997 17.2687 41.2597 17.0837 40.6947 17.1117C40.1307 17.1447 39.6137 17.3947 39.2387 17.8157C38.8637 18.2377 38.6747 18.7797 38.7077 19.3417C38.7137 19.4507 38.7117 19.6377 38.7067 19.7887C38.6997 19.9617 38.6907 20.1367 38.6727 20.3187C38.6417 20.6747 38.5907 21.0217 38.5237 21.3497C38.3747 22.0607 38.1587 22.6607 37.8807 23.1307C37.5837 23.6287 37.2307 23.9877 36.8077 24.2097C36.7507 24.2417 36.6847 24.2677 36.6207 24.2947C36.6157 24.2747 36.6097 24.2557 36.6047 24.2357C36.3927 23.2987 36.2397 22.3147 36.1487 21.3177C36.1097 20.8237 36.0757 20.3287 36.0667 19.8347C36.0617 19.5907 36.0597 19.3467 36.0637 19.1047C36.0677 18.8837 36.0747 18.6217 36.0887 18.4587C36.0927 18.4147 36.0957 18.3687 36.0967 18.3317C36.1227 17.6547 35.8827 17.0087 35.4217 16.5127C34.9607 16.0167 34.3337 15.7287 33.6577 15.7037C32.9887 15.6847 32.3347 15.9187 31.8377 16.3797C31.3417 16.8407 31.0547 17.4677 31.0307 18.1437C31.0167 18.5317 31.0217 18.8097 31.0297 19.1347C31.0377 19.4427 31.0527 19.7467 31.0707 20.0497C31.1097 20.7017 31.1817 21.3237 31.2467 21.8537C31.4077 23.0667 31.6457 24.2577 31.9527 25.3937C32.5337 27.5407 33.3657 29.4657 34.4017 31.1557L34.3897 31.1567C34.3357 31.1597 34.2907 31.1527 34.2407 31.1477C34.1827 31.1427 34.1247 31.1377 34.0827 31.1357L33.3517 31.0887C33.2157 31.0697 33.0837 31.0397 32.9517 31.0107C32.8457 30.9877 32.7407 30.9637 32.6587 30.9487L32.4997 30.9157C32.4357 30.9027 32.3727 30.8907 32.3807 30.8967L31.6637 30.6357L31.3757 30.5057C30.6087 30.1567 29.9017 29.6037 29.2847 28.8697C29.1907 28.7547 29.1027 28.6347 29.0127 28.5147L28.8607 28.3127C28.8117 28.2337 28.7617 28.1557 28.7117 28.0787C28.6377 27.9637 28.5627 27.8497 28.4897 27.7097C28.3757 27.5067 28.2687 27.3027 28.1717 27.0767C28.0837 26.8867 27.9957 26.6507 27.9527 26.5147L27.9187 26.4057C27.7447 25.8927 27.3817 25.4787 26.8957 25.2387C26.4117 24.9997 25.8597 24.9637 25.3467 25.1367C24.8347 25.3107 24.4197 25.6737 24.1797 26.1597C23.9407 26.6457 23.9047 27.1947 24.0777 27.7077C24.2207 28.1297 24.3517 28.4297 24.5177 28.7757C24.6567 29.0697 24.8237 29.3787 25.0197 29.7057C25.1387 29.9167 25.2767 30.1167 25.4137 30.3167L25.7857 30.8287C25.9477 31.0347 26.1107 31.2407 26.2877 31.4437C26.4907 31.6717 26.7067 31.8817 26.9247 32.0897C26.5877 32.3157 26.1887 32.4737 25.6787 32.5747C25.2037 32.6627 24.7037 32.6477 24.2067 32.5327C23.9817 32.4767 23.6897 32.3967 23.4067 32.2777C23.2817 32.2277 23.1607 32.1717 23.0357 32.1077C22.9297 32.0557 22.7987 31.9787 22.7387 31.9417L22.6727 31.8987C21.8107 31.3567 20.6917 31.5957 20.1257 32.4417C19.8477 32.8567 19.7487 33.3547 19.8457 33.8437C19.9427 34.3327 20.2247 34.7557 20.6397 35.0327C20.9087 35.2127 21.0927 35.3147 21.3207 35.4347C21.5347 35.5477 21.7537 35.6497 21.9667 35.7387C22.3637 35.9097 22.7957 36.0527 23.3347 36.1907C23.9217 36.3317 24.5227 36.4027 25.1167 36.4027C25.5247 36.4027 25.9297 36.3687 26.3227 36.3017C27.3857 36.1157 28.3587 35.7307 29.0757 35.2287C29.4177 35.0377 29.6957 34.8007 29.9397 34.5917C30.0337 34.5117 30.1257 34.4317 30.2667 34.3177C30.3027 34.2837 30.3337 34.2467 30.3687 34.2117L31.3437 34.5557C31.4647 34.5847 31.5857 34.6067 31.7087 34.6287L32.1907 34.7157C32.4327 34.7607 32.6747 34.8047 32.9607 34.8327L34.1137 34.8787C34.1907 34.8827 34.2677 34.8857 34.3477 34.8857C34.4077 34.8857 34.4687 34.8837 34.5317 34.8797L36.0377 34.7387C36.3757 34.6807 36.7087 34.6067 37.0417 34.5337C38.0697 35.5507 39.2217 36.4407 40.4697 37.1587C41.7607 37.8997 43.1967 38.4677 44.7347 38.8917C45.1607 38.5407 45.5467 38.1417 45.9767 37.7947Z" fill="#343B54"/>
<path d="M102.068 37.7947C101.673 37.4757 101.22 37.2197 100.774 36.9807C100.18 36.6617 99.5688 36.3777 98.9578 36.0917C99.2318 35.8227 99.5868 35.6287 99.9958 35.5517C102.057 35.1617 103.871 34.4797 105.384 33.5247C106.96 32.5227 108.313 31.1587 109.301 29.5727C109.651 29.0257 109.957 28.4267 110.242 27.8027C110.017 27.7297 109.8 27.6457 109.592 27.5487C108.559 27.0947 107.6 26.2717 106.891 25.2307C106.33 24.4077 105.903 23.4537 105.583 22.3107C105.451 21.8357 105.345 21.3377 105.267 20.8347C105.227 20.5867 105.197 20.3377 105.17 20.0797C105.144 19.8147 105.125 19.5877 105.119 19.2657L105.851 19.2517L105.119 19.2597C105.118 19.2047 105.119 19.1517 105.123 19.0997C105.155 18.5367 105.405 18.0197 105.826 17.6437C106.248 17.2687 106.788 17.0837 107.353 17.1117C107.917 17.1447 108.434 17.3947 108.809 17.8157C109.184 18.2377 109.373 18.7797 109.34 19.3417C109.334 19.4507 109.336 19.6377 109.341 19.7887C109.348 19.9617 109.357 20.1367 109.375 20.3187C109.406 20.6747 109.457 21.0217 109.524 21.3497C109.673 22.0607 109.889 22.6607 110.166 23.1307C110.463 23.6287 110.816 23.9877 111.239 24.2097C111.296 24.2417 111.362 24.2677 111.426 24.2947C111.431 24.2747 111.437 24.2557 111.442 24.2357C111.654 23.2987 111.807 22.3147 111.898 21.3177C111.937 20.8237 111.971 20.3287 111.98 19.8347C111.985 19.5907 111.987 19.3467 111.983 19.1047C111.98 18.8837 111.972 18.6217 111.958 18.4587C111.954 18.4147 111.951 18.3687 111.95 18.3317C111.924 17.6547 112.164 17.0087 112.625 16.5127C113.086 16.0167 113.713 15.7287 114.389 15.7037C115.058 15.6847 115.712 15.9187 116.209 16.3797C116.705 16.8407 116.992 17.4677 117.016 18.1437C117.03 18.5317 117.025 18.8097 117.017 19.1347C117.009 19.4427 116.994 19.7467 116.975 20.0497C116.936 20.7017 116.864 21.3237 116.799 21.8537C116.638 23.0667 116.4 24.2577 116.093 25.3937C115.512 27.5407 114.68 29.4657 113.644 31.1557L113.656 31.1567C113.71 31.1597 113.755 31.1527 113.805 31.1477C113.863 31.1427 113.921 31.1377 113.963 31.1357L114.694 31.0887C114.83 31.0697 114.962 31.0397 115.094 31.0107C115.2 30.9877 115.305 30.9637 115.387 30.9487L115.546 30.9157C115.61 30.9027 115.672 30.8907 115.665 30.8967L116.382 30.6357L116.67 30.5057C117.437 30.1567 118.144 29.6037 118.761 28.8697C118.855 28.7547 118.943 28.6347 119.032 28.5147L119.184 28.3127C119.233 28.2337 119.283 28.1557 119.333 28.0787C119.407 27.9637 119.482 27.8497 119.555 27.7097C119.669 27.5067 119.776 27.3027 119.873 27.0767C119.961 26.8867 120.049 26.6507 120.092 26.5147L120.126 26.4057C120.3 25.8927 120.663 25.4787 121.149 25.2387C121.633 24.9997 122.184 24.9637 122.698 25.1367C123.21 25.3107 123.625 25.6737 123.865 26.1597C124.104 26.6457 124.14 27.1947 123.966 27.7077C123.823 28.1297 123.692 28.4297 123.527 28.7757C123.388 29.0697 123.221 29.3787 123.025 29.7057C122.906 29.9167 122.768 30.1167 122.631 30.3167L122.259 30.8287C122.097 31.0347 121.934 31.2407 121.757 31.4437C121.554 31.6717 121.338 31.8817 121.12 32.0897C121.457 32.3157 121.856 32.4737 122.366 32.5747C122.84 32.6627 123.341 32.6477 123.838 32.5327C124.063 32.4767 124.355 32.3967 124.638 32.2777C124.763 32.2277 124.884 32.1717 125.009 32.1077C125.115 32.0557 125.245 31.9787 125.305 31.9417L125.372 31.8987C126.234 31.3567 127.353 31.5957 127.919 32.4417C128.197 32.8567 128.296 33.3547 128.199 33.8437C128.102 34.3327 127.82 34.7557 127.405 35.0327C127.136 35.2127 126.952 35.3147 126.724 35.4347C126.51 35.5477 126.291 35.6497 126.078 35.7387C125.681 35.9097 125.249 36.0527 124.71 36.1907C124.123 36.3317 123.522 36.4027 122.928 36.4027C122.52 36.4027 122.115 36.3687 121.722 36.3017C120.659 36.1157 119.686 35.7307 118.969 35.2287C118.627 35.0377 118.349 34.8007 118.105 34.5917C118.011 34.5117 117.919 34.4317 117.778 34.3177C117.742 34.2837 117.711 34.2467 117.676 34.2117L116.701 34.5557C116.58 34.5847 116.459 34.6067 116.336 34.6287L115.854 34.7157C115.612 34.7607 115.37 34.8047 115.084 34.8327L113.931 34.8787C113.854 34.8827 113.777 34.8857 113.697 34.8857C113.637 34.8857 113.576 34.8837 113.513 34.8797L112.007 34.7387C111.669 34.6807 111.336 34.6067 111.003 34.5337C109.975 35.5507 108.822 36.4407 107.575 37.1587C106.284 37.8997 104.848 38.4677 103.31 38.8917C102.885 38.5407 102.499 38.1417 102.068 37.7947Z" fill="#343B54"/>
<path d="M62.4266 51.0167C63.4236 51.0167 64.2316 51.8247 64.2316 52.8217C64.2316 53.8187 63.4236 54.6267 62.4266 54.6267C61.4296 54.6267 60.6216 53.8187 60.6216 52.8217C60.6216 51.8247 61.4296 51.0167 62.4266 51.0167Z" fill="#353B55"/>
<path d="M84.5107 51.0167C85.5077 51.0167 86.3157 51.8247 86.3157 52.8217C86.3157 53.8187 85.5077 54.6267 84.5107 54.6267C83.5137 54.6267 82.7057 53.8187 82.7057 52.8217C82.7057 51.8247 83.5137 51.0167 84.5107 51.0167Z" fill="#353B55"/>
<path d="M69.6296 70.1747C72.1216 72.5077 74.6786 72.5607 77.3086 70.1407C74.6966 71.4917 72.1376 71.4747 69.6296 70.1747Z" fill="#EBF0F7"/>
<path d="M59.5526 57.3187C59.5526 58.2147 58.0257 58.9407 56.1427 58.9407C54.2587 58.9407 52.7327 58.2147 52.7327 57.3187C52.7327 56.4227 54.2597 55.6967 56.1427 55.6967C58.0257 55.6977 59.5526 56.4237 59.5526 57.3187Z" fill="#EBF0F7"/>
<path d="M93.1696 58.9407C95.0535 58.9407 96.5807 58.2145 96.5807 57.3187C96.5807 56.4229 95.0535 55.6967 93.1696 55.6967C91.2858 55.6967 89.7587 56.4229 89.7587 57.3187C89.7587 58.2145 91.2858 58.9407 93.1696 58.9407Z" fill="#EBF0F7"/>
<path d="M73.2596 69.1877C73.1816 69.1877 73.1036 69.1867 73.0266 69.1847C70.6406 69.1207 68.3776 68.0667 66.6516 66.2187C66.4626 66.0167 66.4737 65.6997 66.6757 65.5117C66.8757 65.3237 67.1936 65.3347 67.3816 65.5357C68.9236 67.1877 70.9376 68.1277 73.0526 68.1847C75.3506 68.2477 77.6736 67.2717 79.5746 65.4417C79.7726 65.2507 80.0896 65.2557 80.2816 65.4557C80.4726 65.6547 80.4667 65.9707 80.2677 66.1627C78.2357 68.1197 75.7556 69.1877 73.2596 69.1877Z" fill="#343B54"/>
<path d="M75.2437 54.1457C79.8087 54.1457 93.0277 57.8157 93.1697 59.6137C92.5717 61.8217 79.4737 63.7547 74.7657 63.7367C69.6697 63.7527 69.0597 54.1457 75.2437 54.1457Z" fill="#DEA75A"/>
<path d="M95.5755 191.887C124.444 179.929 138.153 146.832 126.195 117.964C114.237 89.0948 81.1402 75.386 52.2715 87.3441C23.4027 99.3022 9.69394 132.399 21.652 161.268C33.6101 190.136 66.7068 203.845 95.5755 191.887Z" fill="white"/>
<path d="M80.1147 190.587C49.4207 190.587 24.5387 165.705 24.5387 135.011C24.5387 115.486 34.6167 98.3237 49.8457 88.4107C30.6377 97.4547 17.3367 116.979 17.3367 139.617C17.3367 170.864 42.6677 196.194 73.9137 196.194C90.6017 196.194 105.599 188.965 115.954 177.473C106.277 185.65 93.7747 190.587 80.1147 190.587Z" fill="#EBF0F7"/>
<path d="M105.49 92.0217C104.731 92.2167 103.969 92.3997 103.202 92.5637C100.464 93.1487 97.6837 93.4987 94.9097 93.8637C92.0417 94.2407 89.1897 94.6387 86.3007 94.8157C80.5807 95.1657 74.9047 94.7827 69.1887 94.6147C63.6297 94.4517 58.0307 94.4857 52.5467 93.4337C49.6527 92.8787 46.8667 91.9897 44.1367 90.9397C26.9807 100.798 15.4747 118.904 15.4747 139.619C15.4747 142.494 15.6997 145.318 16.1277 148.078C45.1437 160.771 101.281 160.084 131.701 148.078C132.128 145.318 132.354 142.494 132.354 139.619C132.353 119.636 121.644 102.088 105.49 92.0217Z" fill="#DEA75A"/>
<path d="M25.4057 143.218C24.4997 122.609 33.6807 103.984 48.4257 92.4117C46.9767 91.9787 45.5487 91.4817 44.1367 90.9387C26.9807 100.797 15.4747 118.903 15.4747 139.618C15.4747 142.493 15.6997 145.317 16.1277 148.077C19.2437 149.44 22.6887 150.64 26.3647 151.697C25.8637 148.934 25.5327 146.105 25.4057 143.218Z" fill="#D3964C"/>
<path d="M43.4037 85.1237C63.4327 94.3927 84.1977 95.1637 104.158 85.5427C105.835 84.4977 108.635 92.5007 107.256 94.2197C97.5597 113.558 58.5117 114.817 40.3407 94.4177C39.4537 92.7317 41.8167 84.7987 43.4037 85.1237Z" fill="#D3964C"/>
<path d="M43.4037 85.1227C63.4327 93.2297 84.1977 93.9047 104.158 85.4897C105.835 84.5757 108.635 91.5757 107.256 93.0787C97.5597 109.994 58.5117 111.095 40.3407 93.2527C39.4537 91.7767 41.8167 84.8377 43.4037 85.1227Z" fill="#DEA75A"/>
<path d="M98.6877 120.815C98.6877 135.072 87.6446 146.63 74.0226 146.63C60.4006 146.63 49.3577 135.072 49.3577 120.815H98.6877Z" fill="white"/>
<path d="M54.5497 120.815H49.3577C49.3577 135.072 60.4006 146.63 74.0226 146.63C75.0736 146.63 76.1067 146.553 77.1227 146.42C64.8296 144.798 55.1357 134.099 54.5497 120.815Z" fill="#F9EEE1"/>
<path d="M74.0226 124.786C87.6447 124.786 98.6877 123.008 98.6877 120.815C98.6877 118.622 87.6447 116.844 74.0226 116.844C60.4005 116.844 49.3577 118.622 49.3577 120.815C49.3577 123.008 60.4005 124.786 74.0226 124.786Z" fill="white"/>
<path d="M96.4596 120.815C96.4596 122.361 86.4136 123.258 74.0216 123.258C61.6296 123.258 51.5836 122.361 51.5836 120.815C51.5836 119.269 61.6296 117.844 74.0216 117.844C86.4146 117.844 96.4596 119.269 96.4596 120.815Z" fill="#F9EEE1"/>
<path d="M94.1487 121.982C90.4867 121.007 82.8517 120.283 74.0227 120.283C65.1937 120.283 57.5587 121.007 53.8967 121.982C57.5587 122.803 65.1937 123.259 74.0227 123.259C82.8517 123.259 90.4867 122.803 94.1487 121.982Z" fill="#996262"/>
<path d="M70.6457 107.154C70.8987 105.099 72.2287 103.369 73.2197 101.552C74.2117 99.7347 74.8647 97.4167 73.7697 95.6597C75.0167 96.3557 76.2357 97.1477 77.1777 98.2217C78.1197 99.2957 78.7657 100.688 78.7007 102.115C78.6077 104.166 77.1357 105.851 75.8087 107.418C75.1307 108.218 74.4697 109.061 74.0037 110.005C73.3367 111.334 73.0177 113.002 73.0177 113.002C73.0177 113.002 71.4697 111.087 71.1257 110.166C70.7017 109.229 70.5197 108.177 70.6457 107.154Z" fill="white"/>
<path d="M42.5567 137.851C34.3167 137.851 28.6357 135.71 25.5947 131.439C18.2927 121.185 29.2607 102.952 29.7317 102.181C30.1637 101.474 31.0877 101.252 31.7917 101.682C32.4987 102.113 32.7237 103.036 32.2927 103.743C32.1877 103.915 21.8797 121.057 28.0397 129.702C31.9787 135.23 42.4377 136.328 58.2857 132.875C59.0947 132.697 59.8937 133.212 60.0707 134.021C60.2467 134.831 59.7337 135.629 58.9237 135.806C52.6647 137.17 47.2027 137.851 42.5567 137.851Z" fill="#343B54"/>
<path d="M58.8447 141.618C57.1657 141.618 54.9577 140.507 53.5117 139.39C52.4587 138.577 51.1627 137.276 50.9597 135.694C50.6097 132.953 52.1767 128.201 55.3377 127.284C56.1307 127.054 56.9657 127.51 57.1957 128.306C57.4267 129.101 56.9687 129.934 56.1737 130.164C54.9737 130.513 53.6967 133.448 53.9367 135.312C53.9687 135.565 54.3017 136.209 55.3457 137.015C56.8227 138.157 58.4657 138.675 58.8887 138.616C59.7097 138.509 60.4617 139.089 60.5687 139.912C60.6747 140.733 60.0947 141.486 59.2737 141.592C59.1347 141.609 58.9907 141.618 58.8447 141.618Z" fill="#343B54"/>
<path d="M105.16 137.851C100.563 137.851 95.1637 137.17 88.9717 135.805C88.1627 135.627 87.6517 134.826 87.8297 134.017C88.0077 133.209 88.7977 132.694 89.6177 132.875C105.199 136.311 115.511 135.24 119.437 129.777C125.634 121.149 115.388 103.908 115.284 103.735C114.857 103.026 115.086 102.104 115.796 101.676C116.503 101.248 117.426 101.476 117.854 102.186C118.322 102.961 129.22 121.293 121.877 131.523C118.853 135.739 113.253 137.851 105.16 137.851Z" fill="#343B54"/>
<path d="M89.0557 141.617C88.9097 141.617 88.7687 141.609 88.6317 141.591C87.8107 141.484 87.2317 140.731 87.3387 139.909C87.4457 139.088 88.1887 138.507 89.0207 138.616C89.4307 138.666 91.0177 138.167 92.4627 137.05C93.3907 136.334 93.8497 135.663 93.8937 135.315C94.1297 133.448 92.8727 130.511 91.6897 130.163C90.8947 129.93 90.4397 129.096 90.6727 128.301C90.9067 127.506 91.7407 127.053 92.5347 127.285C95.6637 128.204 97.2167 132.954 96.8697 135.692C96.6677 137.291 95.3577 138.605 94.2967 139.425C92.8717 140.525 90.7007 141.617 89.0557 141.617Z" fill="#343B54"/>
</svg>
